<?xml version="1.0" encoding="UTF-8" standalone="no"?>
<!-- Created with Inkscape (http://www.inkscape.org/) -->
<svg xmlns:rdf="http://www.w3.org/1999/02/22-rdf-syntax-ns#" xmlns="http://www.w3.org/2000/svg" xml:space="preserve" height="100%" width="100%" version="1.1" xmlns:cc="http://creativecommons.org/ns#" xmlns:xlink="http://www.w3.org/1999/xlink" viewBox="0 0 255.9999 256.00004" xmlns:dc="http://purl.org/dc/elements/1.1/"><metadata><rdf:RDF><cc:Work rdf:about=""><dc:format>image/svg+xml</dc:format><dc:type rdf:resource="http://purl.org/dc/dcmitype/StillImage"/><dc:title/></cc:Work></rdf:RDF></metadata><defs><linearGradient id="linearGradient3256" y2="1395.6" gradientUnits="userSpaceOnUse" x2="-4570.1" gradientTransform="matrix(0.05126963,-0.0548933,0.10995189,0.02559628,381.5268,-279.78346)" y1="697.55" x1="-5167.1"><stop stop-color="#f69923" offset="0"/><stop stop-color="#f79a23" offset="0.3123"/><stop stop-color="#e97826" offset="0.8383"/></linearGradient><linearGradient id="linearGradient3258" y2="620.5" gradientUnits="userSpaceOnUse" x2="-5326.2" gradientTransform="matrix(0.05126963,-0.0548933,0.10995189,0.02559628,381.5268,-279.78346)" y1="620.5" x1="-9585.3"><stop stop-color="#9e2064" offset="0.3233"/><stop stop-color="#c92037" offset="0.6302"/><stop stop-color="#cd2335" offset="0.7514"/><stop stop-color="#e97826" offset="1"/></linearGradient><linearGradient id="linearGradient3260" y2="1047.7" gradientUnits="userSpaceOnUse" x2="-6533.2" gradientTransform="matrix(0.05126963,-0.0548933,0.10995189,0.02559628,381.5268,-279.78346)" y1="1047.7" x1="-9071.2"><stop stop-color="#282662" offset="0"/><stop stop-color="#662e8d" offset="0.095484"/><stop stop-color="#9f2064" offset="0.7882"/><stop stop-color="#cd2032" offset="0.9487"/></linearGradient><linearGradient id="linearGradient3262" y2="580.82" gradientUnits="userSpaceOnUse" x2="-5087" gradientTransform="matrix(0.05126963,-0.0548933,0.10995189,0.02559628,381.5268,-279.78346)" y1="580.82" x1="-9346.1"><stop stop-color="#9e2064" offset="0.3233"/><stop stop-color="#c92037" offset="0.6302"/><stop stop-color="#cd2335" offset="0.7514"/><stop stop-color="#e97826" offset="1"/></linearGradient><linearGradient id="linearGradient3264" y2="638.44" gradientUnits="userSpaceOnUse" x2="-6797.2" gradientTransform="matrix(0.05126963,-0.0548933,0.10995189,0.02559628,381.5268,-279.78346)" y1="638.44" x1="-9035.5"><stop stop-color="#282662" offset="0"/><stop stop-color="#662e8d" offset="0.095484"/><stop stop-color="#9f2064" offset="0.7882"/><stop stop-color="#cd2032" offset="0.9487"/></linearGradient><linearGradient id="linearGradient3266" y2="1021.6" gradientUnits="userSpaceOnUse" x2="-5087" gradientTransform="matrix(0.05126963,-0.0548933,0.10995189,0.02559628,381.5268,-279.78346)" y1="1021.6" x1="-9346.1"><stop stop-color="#9e2064" offset="0.3233"/><stop stop-color="#c92037" offset="0.6302"/><stop stop-color="#cd2335" offset="0.7514"/><stop stop-color="#e97826" offset="1"/></linearGradient><linearGradient id="linearGradient3268" y2="999.73" gradientUnits="userSpaceOnUse" x2="-5351.2" gradientTransform="matrix(0.05126963,-0.0548933,0.10995189,0.02559628,381.5268,-279.78346)" y1="999.73" x1="-9610.3"><stop stop-color="#9e2064" offset="0.3233"/><stop stop-color="#c92037" offset="0.6302"/><stop stop-color="#cd2335" offset="0.7514"/><stop stop-color="#e97826" offset="1"/></linearGradient><linearGradient id="linearGradient3270" y2="1152.7" gradientUnits="userSpaceOnUse" x2="-5087" gradientTransform="matrix(0.05126963,-0.0548933,0.10995189,0.02559628,381.5268,-279.78346)" y1="1152.7" x1="-9346.1"><stop stop-color="#9e2064" offset="0.3233"/><stop stop-color="#c92037" offset="0.6302"/><stop stop-color="#cd2335" offset="0.7514"/><stop stop-color="#e97826" offset="1"/></linearGradient><linearGradient id="linearGradient3272" y2="1137.7" gradientUnits="userSpaceOnUse" x2="-5087" gradientTransform="matrix(0.05126963,-0.0548933,0.10995189,0.02559628,381.5268,-279.78346)" y1="1137.7" x1="-9346.1"><stop stop-color="#9e2064" offset="0.3233"/><stop stop-color="#c92037" offset="0.6302"/><stop stop-color="#cd2335" offset="0.7514"/><stop stop-color="#e97826" offset="1"/></linearGradient><linearGradient id="linearGradient3274" y2="1134.7" gradientUnits="userSpaceOnUse" x2="-6012" gradientTransform="matrix(0.05126963,-0.0548933,0.10995189,0.02559628,381.5268,-279.78346)" y1="1134.7" x1="-6953.4"><stop stop-color="#9e2064" offset="0.3233"/><stop stop-color="#c92037" offset="0.6302"/><stop stop-color="#cd2335" offset="0.7514"/><stop stop-color="#e97826" offset="1"/></linearGradient></defs><path fill="url(#linearGradient3256)" d="m218.24,1.2182c-8.0435,2.3683-21.401,9.0793-37.354,18.801l14.655,13.81c10.288-7.347,20.734-13.955,31.276-19.6,0.8128-0.4482,1.2374-0.6602,1.2374-0.6602-0.4124,0.218-0.8249,0.4421-1.2374,0.6602-3.4091,1.8776-13.758,7.9042-29.372,19.872,15.032-0.3755,38.131-1.9079,56.972-3.519,5.6049-15.675-5.4958-22.853-5.4958-22.853s-14.11-11.399-30.682-6.5112z"/><path fill="none" d="m193.43,79.994c0.1092-0.012,0.2184-0.018,0.3276-0.03l-2.111,0.115c-0.1334,0.03-0.2426,0.061-0.376,0.085,0.7279-0.054,1.4437-0.1151,2.1594-0.1696z"/><path fill="none" d="m178.47,104.73c-1.201,0.1333-2.4263,0.2363-3.6638,0.3271,1.2375-0.091,2.4628-0.1999,3.6638-0.3271z"/><path fill="none" d="m76.807,160.22c0.1577-0.2059,0.3154-0.4118,0.461-0.6178,3.2271-4.2519,6.4178-8.3827,9.5842-12.41,3.5547-4.5184,7.0608-8.8915,10.531-13.131,3.6517-4.47,7.2549-8.7886,10.81-12.962,3.7246-4.3791,7.4005-8.5947,11.004-12.653,2.936-3.301,5.8234-6.499,8.6744-9.5941,0.9463-1.0296,1.8926-2.0532,2.8388-3.0647,1.8684-2.0049,3.7246-3.9733,5.5444-5.8934,1.6863-1.7746,3.3605-3.5069,5.0226-5.2088,0.5459-0.5694,1.104-1.1266,1.6499-1.6899,0.085-0.091,0.182-0.1817,0.2669-0.2726l-1.7955,0.097-1.4316-1.4052c-0.1334,0.1394-0.279,0.2726-0.4246,0.4119-2.572,2.55-5.1197,5.1241-7.6431,7.7225-1.4558,1.5021-2.9117,3.0103-4.3554,4.5245-4.0035,4.1974-7.9464,8.4311-11.816,12.695-3.9186,4.3065-7.7523,8.6371-11.513,12.974-3.7003,4.258-7.3156,8.522-10.87,12.774-3.5425,4.2458-7.0001,8.4795-10.385,12.683-3.5304,4.3912-6.9638,8.7401-10.288,13.04-0.7522,0.9691-1.5044,1.9382-2.2444,2.9073-2.669,3.4706-5.2653,6.8927-7.8009,10.272l2.2566,2.2228,2.0139-0.109c0.073-0.103,0.1456-0.2059,0.2184-0.3028,3.2635-4.4518,6.4906-8.7885,9.6934-13.01z"/><path fill="none" d="m173.88,105.13,0,0c0.012,0,0.012-0.01,0.024-0.01l-0.024,0.01z"/><path fill="#be202e" d="m169.02,117.19c-1.8684,0.1696-3.7973,0.3331-5.7749,0.5027-0.012,0-0.024,0.01-0.036,0.01,0.9948-0.073,1.9775-0.1454,2.948-0.2302,0.9706-0.085,1.9169-0.1757,2.8632-0.2786z"/><path opacity="0.35" fill="#be202e" d="m169.02,117.19c-1.8684,0.1696-3.7973,0.3331-5.7749,0.5027-0.012,0-0.024,0.01-0.036,0.01,0.9948-0.073,1.9775-0.1454,2.948-0.2302,0.9706-0.085,1.9169-0.1757,2.8632-0.2786z"/><path fill="#be202e" d="m173.92,105.12l-0.012,0.01c-0.012,0-0.012,0.01-0.024,0.01,0.3154-0.018,0.6187-0.048,0.922-0.067,1.2496-0.091,2.4749-0.1998,3.6639-0.327-1.4922,0.1211-3.0087,0.2544-4.5495,0.3816z"/><path opacity="0.35" fill="#be202e" d="m173.92,105.12l-0.012,0.01c-0.012,0-0.012,0.01-0.024,0.01,0.3154-0.018,0.6187-0.048,0.922-0.067,1.2496-0.091,2.4749-0.1998,3.6639-0.327-1.4922,0.1211-3.0087,0.2544-4.5495,0.3816z"/><path fill="url(#linearGradient3258)" d="m152.34,69.509c4.4524-4.155,8.9655-8.2191,13.527-12.174,4.7314-4.1065,9.5235-8.0919,14.364-11.932,0.279-0.2241,0.5702-0.4542,0.8492-0.6844,4.78-3.7795,9.6085-7.4136,14.473-10.89l-14.655-13.81c-1.104,0.6723-2.208,1.3568-3.3362,2.0533-4.222,2.6287-8.6137,5.4572-13.115,8.4554-5.0711,3.3797-10.288,6.9896-15.59,10.775-4.8892,3.5009-9.8512,7.1653-14.813,10.957-4.2219,3.2283-8.4681,6.5535-12.678,9.9635-0.1577,0.1272-0.3154,0.2544-0.4731,0.3816l19.071,18.806c4.0764-4.0278,8.2012-8.0011,12.375-11.902z"/><path fill="url(#linearGradient3260)" d="m65.476,175.47c-2.5234,3.4645-5.059,6.9896-7.6067,10.593-0.036,0.054-0.073,0.103-0.1092,0.1575-0.3639,0.5087-0.7158,1.0175-1.0797,1.5263-1.7106,2.4288-3.2029,4.6153-6.6119,9.588,5.6171,1.278,10.13,4.6456,14.401,8.4675-0.4489-3.9551-3.7366-7.674-9.9603-10.551,27.697,0.6239,51.561-2.8709,63.899-12.98,1.104-0.9025,2.1109-1.8473,3.0208-2.8588-5.605,3.5493-12.557,5.0574-25.647,4.688-0.024,0.01-0.061,0.012-0.085,0.018,0.024-0.01,0.061-0.012,0.085-0.018,19.266-4.3064,28.935-8.4372,37.476-15.288,2.026-1.6233,3.9914-3.3979,6.0053-5.3664-16.851,8.6371-36.372,11.096-56.935,9.2306l-15.42,0.8419c-0.4853,0.6481-0.9584,1.2962-1.4316,1.9504z"/><path fill="url(#linearGradient3262)" d="m72.67,158.23c3.3363-4.3004,6.7696-8.6492,10.288-13.04,3.3727-4.2035,6.8424-8.4312,10.385-12.683,3.5426-4.2519,7.17-8.5099,10.87-12.774,3.7609-4.3367,7.6067-8.6674,11.513-12.974,3.8701-4.258,7.813-8.4978,11.816-12.695,1.4437-1.5142,2.8996-3.0224,4.3554-4.5245,2.5234-2.5983,5.0711-5.1725,7.6431-7.7224,0.1335-0.1394,0.279-0.2726,0.4246-0.4119l-19.071-18.807c-0.3154,0.2544-0.6187,0.5088-0.9342,0.7632-4.4402,3.622-8.8684,7.3288-13.212,11.114-4.3918,3.8219-8.6987,7.7165-12.908,11.666-3.5547,3.3312-7.0244,6.6928-10.397,10.085-0.6794,0.6905-1.3467,1.3689-2.0139,2.0533-4.1613,4.2701-7.9101,8.3948-11.307,12.362-3.8458,4.4942-7.2307,8.7885-10.191,12.859-1.9532,2.6772-3.7245,5.2635-5.3501,7.7468-1.3346,2.1199-2.6084,4.2458-3.8095,6.3597-2.851,4.9848-5.3016,9.9574-7.3155,14.912l19.168,18.891c2.5356-3.3797,5.1319-6.8019,7.8009-10.272,0.74-0.9631,1.4922-1.9382,2.2444-2.9073z"/><path fill="url(#linearGradient3264)" d="m43.202,153.19c-2.4021,6.0447-4.1128,12.065-4.9741,18.049-0.024,0.212-0.073,0.4179-0.097,0.6299-5.981-4.7849-21.995-9.4547-21.959-9.4123,11.465,8.2979,20.163,16.535,21.461,24.621-6.1388,0.6299-14.546-0.2786-24.264-2.0654,10.13,4.6456,17.737,5.9297,20.697,6.2749-9.3052,0.2907-18.999,3.4827-28.765,7.1592,14.279-2.9073,25.817-4.0581,34.079-3.1253-13.102,18.522-26.241,38.97-39.38,60.678,4.0278-0.5936,6.4299-1.9443,7.7766-3.7734,2.3414-3.9309,17.882-29.721,42.231-63.621,0.6915-0.963,1.3952-1.9321,2.0988-2.9073,0.1941-0.2725,0.4004-0.5451,0.5945-0.8116,2.572-3.5554,5.241-7.1834,7.995-10.884,0.6308-0.8419,1.2617-1.6838,1.8925-2.5317,0.012-0.018,0.024-0.036,0.036-0.048l-19.144-18.885c-0.085,0.212-0.1941,0.4301-0.279,0.6542z"/><path fill="url(#linearGradient3266)" d="m142.93,82.998c-0.5459,0.5573-1.0918,1.1206-1.6499,1.6899-1.65,1.702-3.3242,3.4342-5.0226,5.2089-1.832,1.92-3.676,3.8824-5.5444,5.8933-0.9462,1.0115-1.8804,2.0291-2.8388,3.0648-2.851,3.0951-5.7384,6.2931-8.6744,9.5941-3.6032,4.0581-7.2791,8.2736-11.004,12.653-3.5546,4.1732-7.1578,8.4918-10.81,12.962-3.4698,4.2398-6.9759,8.6189-10.531,13.131-3.1664,4.0278-6.3571,8.1586-9.5842,12.41-0.1577,0.2059-0.3154,0.4118-0.461,0.6178-3.2028,4.2216-6.4299,8.5583-9.6813,13.004-0.073,0.1029-0.1456,0.2059-0.2184,0.3028l15.42-0.8419c-0.3033-0.03-0.6187-0.048-0.922-0.079,18.441-1.1448,42.947-8.0254,58.791-16.517,7.3035-3.9127,13.928-8.5281,20.054-13.931,4.5616-4.0217,8.8441-8.4796,12.92-13.416,3.5668-4.3125,6.988-8.9823,10.288-14.046-4.2341,1.1145-9.0868,1.9322-14.437,2.5015-0.9342,0.097-1.8926,0.1938-2.8632,0.2786-0.9705,0.085-1.9532,0.1636-2.948,0.2302,0.012,0,0.024-0.01,0.036-0.01,17.191-3.301,28.037-9.6789,35.923-17.486-4.5253,1.5384-11.877,3.5554-20.685,4.5245-1.2011,0.1332-2.4264,0.2362-3.6639,0.327-0.3154,0.024-0.6187,0.049-0.922,0.067,0.012,0,0.012-0.01,0.024-0.01l0.012-0.01c5.9689-1.2477,11.004-2.6408,15.371-4.2883,0.9341-0.3513,1.844-0.7147,2.7175-1.0963,1.3345-0.5754,2.5963-1.181,3.8095-1.817,0.7764-0.4058,1.5286-0.8238,2.2565-1.2598,1.7106-1.0176,3.312-2.1139,4.8164-3.3071,0.461-0.3634,0.9099-0.7329,1.3588-1.1144,0.5702-0.5512,1.1161-1.0903,1.6499-1.6233,2.4021-2.4106,4.319-4.5608,5.8476-6.4505,0.7643-0.9449,1.4316-1.8171,2.0018-2.6287,0.2305-0.321,0.4489-0.636,0.6551-0.9388,0.6066-0.9086,1.104-1.7141,1.4922-2.4228,0.5824-1.0599,0.9342-1.9018,1.1283-2.5136-0.5823,0.2302-1.2496,0.4603-2.0018,0.6844-5.1924,1.5506-14.097,2.9558-21.279,3.616l14.158-0.7753-14.158,0.7753c-0.1092,0.012-0.2184,0.018-0.3276,0.03-0.7157,0.061-1.4437,0.1151-2.1716,0.1756,0.1335-0.03,0.2427-0.061,0.3761-0.085l-48.443,2.6529c-0.085,0.085-0.1698,0.1696-0.2669,0.2605z"/><path fill="url(#linearGradient3268)" d="m197.46,34.107c-4.3069,3.301-9.0141,7.0502-14.073,11.296-0.2669,0.2181-0.5338,0.4482-0.8007,0.6723-4.3675,3.6765-9.0141,7.7104-13.891,12.132-4.2219,3.8158-8.6137,7.9103-13.175,12.314-3.9793,3.834-8.092,7.9042-12.314,12.211l48.443-2.6529c14.11-3.2404,20.418-6.1719,26.545-10.412,1.6256-1.169,3.2635-2.3925,4.8891-3.6583,4.9741-3.8764,9.8512-8.1465,14.219-12.392,4.2098-4.1005,7.9221-8.1646,10.773-11.829,1.8076-2.3319,3.2635-4.5003,4.2704-6.4021,0.8856-1.6778,1.5772-3.2707,2.111-4.791-18.865,1.6051-41.964,3.1435-56.996,3.513z"/><path fill="#be202e" d="m166.16,117.47c-0.9705,0.085-1.9532,0.1636-2.948,0.2302,0.9948-0.067,1.9775-0.1454,2.948-0.2302z"/><path opacity="0.35" fill="#be202e" d="m166.16,117.47c-0.9705,0.085-1.9532,0.1636-2.948,0.2302,0.9948-0.067,1.9775-0.1454,2.948-0.2302z"/><path fill="url(#linearGradient3270)" d="m166.16,117.47c-0.9705,0.085-1.9532,0.1636-2.948,0.2302,0.9948-0.067,1.9775-0.1454,2.948-0.2302z"/><path fill="#be202e" d="m173.88,105.13c0.3155-0.018,0.6188-0.048,0.9221-0.067-0.3033,0.018-0.6066,0.042-0.9221,0.067z"/><path opacity="0.35" fill="#be202e" d="m173.88,105.13c0.3155-0.018,0.6188-0.048,0.9221-0.067-0.3033,0.018-0.6066,0.042-0.9221,0.067z"/><path fill="url(#linearGradient3272)" d="m173.88,105.13c0.3155-0.018,0.6188-0.048,0.9221-0.067-0.3033,0.018-0.6066,0.042-0.9221,0.067z"/><path fill="#be202e" d="m173.91,105.12l0.012-0.01-0.012,0.01z"/><path opacity="0.35" fill="#be202e" d="m173.91,105.12l0.012-0.01-0.012,0.01z"/><path fill="url(#linearGradient3274)" d="m173.91,105.12l0.012-0.01-0.012,0.01z"/></svg>
