<svg xmlns="http://www.w3.org/2000/svg" height="51.066" width="168.74"><g stroke="#D9D9D9" fill="#D9D9D9"><path d="M.281 44.304c13.561-1.867 63.613-4.392 85.943-8.05 17.961-2.937 35.502-8.285 52.242-13.9 4.328-1.453 11.991-4.434 16.896-7.07 3.104-2.373 10.571-5.889 12.606-9.222-32.45 15.407-45.513 19.649-83.582 27.354C68.95 36.585 12.769 41.136.281 44.304z" stroke-width=".596"/><path d="M48.301 50.277l1.454.498 1.418.119 1.417-.23 1.417-.574 1.379-.766 1.38-.994 1.305-1.145 1.301-1.227 1.228-1.26 1.149-1.266 1.111-1.225 1.035-1.148.958-.957.881-.763.766-.499.689-.228-.576.036-.611.038-.689.077-.688.074-.69.078-.689.076-.689.038-.612.076-.957.88-.921.841-.805.842-.729.844-.727.801-.688.805-.652.764-.691.729-.688.727-.729.65-.767.65-.882.611-.919.576-1.034.535-1.149.496-1.302.42z" stroke-width=".254"/><path d="M43.551 50.082l1.688.271 1.569.037 1.455-.15 1.377-.344 1.265-.535 1.151-.652 1.148-.766 1.034-.879 1.035-.918.957-.994.959-1.072.921-1.033.956-1.033.96-1.033.958-.955.995-.881-.381.037h-.423l-.384.039-.419.037-.424.037-.421.078-.42.035-.42.041-.421.037-.461.037-.422.078-.459.037-.459.037-.46.037h-.46l-.459.039-.347.535-.42.652-.537.764-.575.805-.69.881-.729.879-.766.918-.805.879-.844.844-.84.805-.885.727-.842.611-.844.496-.843.346-.804.189h-.768z" stroke-width=".254"/><path d="M40.411 50.119l.958.115.919.076.881-.037.881-.152.882-.189.843-.344.841-.422.883-.574.882-.65.882-.764.882-.92.919-.994.958-1.188.997-1.301 1.034-1.416 1.074-1.607-.651-.002-.613.039-.614.076-.612.076-.611.078-.613.072h-1.415l-.616.613-.573.65-.576.613-.574.688-.575.65-.535.689-.576.648-.539.691-.572.65-.574.65-.612.65-.582.617-.65.572-.652.574-.65.574-.729.498z" stroke-width=".254"/><path d="M37.081 49.96l.728.387.802.154.807-.117.842-.342.844-.5.881-.689.88-.764.884-.916.841-.959.884-.992.804-.998.805-.957.768-.957.729-.84.689-.729.614-.613-4.099.382-.462.611-.498.611-.458.615-.459.609-.46.613-.5.613-.461.611-.497.613-.537.572-.537.611-.536.578-.613.57-.612.574-.653.576-.688.537-.728.531z" stroke-width=".254"/><path d="M30.302 49.076l1.188.768 1.109.5 1.11.23h1.074l1.033-.191.995-.342.955-.539.96-.686.919-.842.923-.881.84-1.037.884-1.031.843-1.109.844-1.146.805-1.148.805-1.111-.689.114-.536.037-.384.037-.345.039-.343.039h-.346l-.499.037-.651.037-.729 1.033-.727.955-.729.922-.805.803-.767.727-.767.689-.804.611-.768.537-.766.457-.768.422-.727.305-.689.27-.689.229-.614.152-.612.076-.537.037z" stroke-width=".254"/><path d="M26.74 48.843l1.228.152 1.186.08 1.149-.078 1.109-.15 1.036-.227 1.033-.346.958-.422.92-.535.92-.572.844-.65.843-.727.803-.805.766-.842.73-.918.729-.959.689-.994-.767.039-.844.074-.802.076-.806.039-.69.076-.574.035-.42.041-.191.037-.076.078-.191.191-.308.305-.382.385-.422.459-.536.537-.577.572-.648.615-.731.607-.764.65-.768.615-.843.611-.88.572-.881.535-.921.461-.921.381z" stroke-width=".254"/><path d="M22.031 49.109l1.033.191.998.076 1.033-.113 1.034-.191 1.034-.342.994-.422.996-.498.998-.611.919-.648.918-.689.881-.727.845-.766.806-.803.766-.766.69-.768.651-.766h-.461l-.574.041-.611.035h-.651l-.613.074-.613.041-.496.039-.423.074v.078l-.154.189-.381.346-.537.42-.653.537-.764.613-.845.652-.882.648-.92.686-.918.691-.881.65-.846.574-.766.535-.689.422-.537.305-.382.191z" stroke-width=".254"/><path d="M16.822 49.066l.612.613.806.266.996.002 1.11-.266 1.227-.461 1.262-.646 1.341-.768 1.305-.84 1.302-.92 1.227-.916 1.147-.879.999-.844.881-.688.65-.574.423-.381.192-.154-.498.039-.538.035-.574.037-.572.041-.614.072-.614.039-.611.041-.652.037-.688.42-.688.422-.693.455-.649.426-.689.455-.653.498-.688.459-.653.459-.69.496-.65.461-.688.459-.651.459-.688.42-.691.422-.651.42-.69.383z" stroke-width=".254"/><path d="M12.993 49.14l.652.229.649.115.65.037.653-.109.65-.195.689-.264.727-.383.768-.461.843-.535.881-.611.959-.688 1.072-.729 1.187-.803 1.265-.881 1.379-.918 1.534-.957-.653.039-.727.039h-.65l-.65.037-.574.037-.459.039-.307.039-.116.035-.077.115-.229.23-.346.307-.458.42-.574.496-.654.58-.689.57-.805.613-.805.611-.843.613-.843.533-.882.537-.842.457-.842.383-.805.268-.729.154z" stroke-width=".254"/><path d="M10.198 48.716l.879.344.958.152.998-.072 1.033-.268 1.072-.383 1.033-.498 1.074-.607.996-.691.958-.688.92-.729.843-.688.728-.691.653-.572.495-.498.383-.342.232-.232-.613.039-.577.039-.571.037-.575.074-.535.041-.577.037-.61.074-.613.039-.459.42-.501.42-.458.422-.499.459-.498.498-.497.459-.536.459-.538.459-.536.422-.534.422-.577.381-.534.342-.614.309-.574.266-.613.193-.613.152z" stroke-width=".254"/><path d="M6.831 47.642l.765.535.763.346.767.154.767.039.768-.152.766-.232.766-.342.765-.459.729-.498.766-.611.729-.613.729-.65.727-.648.69-.689.689-.65.69-.615-.422.041-.46.076-.497.037-.535.039-.575.074-.612.039-.652.074-.612.037-.192.461-.267.459-.271.422-.346.422-.381.383-.424.383-.42.381-.496.307-.5.307-.537.268-.573.268-.576.191-.612.154-.61.15-.657.073-.649.039z" stroke-width=".254"/><path d="M3.803 47.066l.652.266.69.193.726.115.806.002.767-.039.842-.115.805-.229.803-.229.768-.344.729-.383.65-.422.614-.494.536-.539.46-.572.345-.65.23-.652-.46.039-.46.037-.497.076-.5.039-.495.037-.537.037-.574.039-.652.037-.271.384-.307.385-.306.344-.306.307-.307.305-.348.229-.343.27-.347.229-.381.191-.422.191-.421.189-.459.154-.462.152-.495.152-.537.115-.539.154z" stroke-width=".254"/><path d="M2.233 46.529l.23.229.347.152.42.078h.46l.536-.037.574-.114.613-.193.612-.189.613-.27.614-.307.612-.342.537-.385.537-.42.458-.459.345-.459.307-.498-.343.041-.308.037-.383.037-.344.038-.344.039-.306.037h-.537v.152l-.343.305-.576.422-.767.498-.917.496-.922.5-.919.381-.806.23z" stroke-width=".254"/><path d="M1.124 45.455l.078.535.192.344.305.156.42.076.499-.076.574-.191.573-.229.614-.307.613-.346.574-.381.575-.381.461-.346.42-.307.307-.23.191-.152.038-.076-2.986.342-.229.152-.384.192-.458.23-.5.229-.535.27-.497.189-.461.191-.384.115z" stroke-width=".254"/><path d="M4.573 43.886l-.651.039-.574.039-.536.036-.498.037-.46.041-.497.035-.498.078-.577.113.117.729.343.346h.537l.689-.189.689-.348.729-.381.651-.346.536-.229z" stroke-width=".254"/><path d="M4.459 43.505l-.653.113-.573.076-.497.113-.5.076-.458.113-.459.115-.538.119-.574.152-.038-.844.345-.535.537-.193.727-.033.766.15.766.193.651.23.499.154zm39.839-15.556l1.684-.651 1.611-.419 1.491-.113 1.417.076 1.379.309 1.262.459 1.227.652 1.187.729 1.149.845 1.11.919 1.106.959 1.074.996 1.071.957 1.07.921 1.073.882 1.109.807-.384.073-.421.038-.421.039-.383.076-.423.039-.421.038-.459.036-.421.039-.422.035-.461.041-.458.076-.422.037-.461.04-.457.074-.498.037-.461.077-.382-.534-.495-.653-.576-.766-.688-.768-.727-.843-.805-.843-.879-.844-.881-.806-.959-.766-.953-.688-.957-.615-.997-.497-.957-.385-.958-.23-.956-.039-.88.152z" stroke-width=".254"/><path d="M41.423 28.597l.96-.345.92-.227.878-.152.923-.077.878.077.919.192.88.268.919.423.956.537.959.691.995.803 1.033.96 1.108 1.11 1.11 1.266 1.186 1.418 1.264 1.57-.69.039-.611.072-.576.039-.534.076-.537.076-.573.076-.653.113-.765.117-.689-.574-.65-.613-.689-.653-.612-.653-.649-.649-.649-.65-.613-.653-.651-.651-.651-.612-.688-.574-.651-.576-.688-.574-.727-.498-.767-.423-.766-.421-.805-.347z" stroke-width=".254"/><path d="M38.207 29.438l.727-.611.808-.307.88-.074.879.191.958.383.956.538.995.688.996.805.996.881.993.921.956.921.92.958.841.88.84.805.729.691.69.574-4.176.496-.536-.613-.536-.615-.498-.613-.533-.611-.537-.613-.534-.651-.573-.614-.535-.576-.613-.574-.612-.573-.652-.538-.688-.498-.728-.497-.766-.423-.804-.383-.843-.346z" stroke-width=".254"/><path d="M31.926 32.113l1.148-1.111 1.111-.802 1.073-.534 1.072-.307 1.072-.037 1.034.154 1.033.385.996.498.994.689.955.804.996.921.919.996.957 1.035.917 1.111.918 1.111.919 1.11-.729.04-.611.035-.498.039-.461.076-.458.076-.499.075-.571.078-.692.112-.803-1.034-.766-.919-.803-.844-.766-.728-.802-.612-.766-.538-.728-.461-.768-.382-.728-.309-.688-.229-.728-.192-.689-.152-.648-.08-.653-.074h-.649l-.612-.002z" stroke-width=".254"/><path d="M27.442 33.145l1.267-.461 1.187-.344 1.187-.189 1.109-.077 1.111.001 1.071.155 1.035.231.996.347.995.419.919.537.957.613.878.689.882.768.84.842.806.922.803.996-.803.115-.919.111-.921.115-.921.115-.842.113-.649.078-.499.037-.191-.002-.075-.075-.192-.153-.269-.268-.343-.346-.423-.42-.495-.424-.575-.496-.65-.538-.728-.499-.765-.536-.844-.5-.918-.495-.92-.424-.993-.383-1.034-.348-1.073-.229z" stroke-width=".254"/><path d="M21.775 33.828l1.034-.418 1.035-.307 1.108-.115 1.073.001 1.111.118 1.108.229 1.072.346 1.111.422 1.033.498 1.033.537.995.651.994.651.882.693.881.727.802.728.726.729-.495.037-.612.076-.689.075-.728.077-.729.075-.652.076-.573.037h-.422l-.001-.077-.191-.191-.38-.268-.574-.385-.689-.42-.805-.5-.919-.537-.956-.533-.955-.54-.996-.538-.998-.496-.916-.457-.846-.387-.762-.307-.616-.193-.495-.115z" stroke-width=".254"/><path d="M16.413 34.936l.537-.842.805-.498.996-.188h1.147l1.264.268 1.379.422 1.455.576 1.415.651 1.455.729 1.339.766 1.265.73 1.149.727.954.615.729.459.496.342.23.117-.537.116-.61.077-.653.073-.689.038-.727.078-.729.074-.688.115-.689.115-.729-.345-.688-.348-.729-.381-.688-.385-.69-.346-.688-.383-.728-.384-.688-.382-.689-.35-.688-.382-.729-.343-.688-.307-.689-.348-.727-.305-.727-.311-.729-.266zm-6.855 1.832l.844-.611.956-.346.996-.149 1.07.001 1.113.189 1.148.348 1.11.421 1.108.5 1.035.574 1.032.575.919.614.804.536.727.499.574.459.42.307.229.193-.612.074-.574.076-.495.076-.501.037-.536.037-.496.076-.576.076-.61.074-.537-.342-.536-.348-.574-.419-.574-.383-.611-.422-.613-.421-.612-.423-.612-.383-.614-.384-.647-.308-.652-.305-.613-.232-.648-.189-.615-.117h-.615l-.612.037z" stroke-width=".254"/><path d="M12.084 35.661l.653-.423.688-.305.652-.154.688-.074.689.037.728.152.807.27.838.308.921.423.959.459 1.07.576 1.147.614 1.265.65 1.378.692 1.49.765 1.648.768-.613.039-.689.074-.688.078-.691.111-.614.079-.457.078-.346.035-.153-.035-.075-.078-.27-.191-.345-.308-.459-.344-.573-.422-.689-.459-.729-.5-.803-.499-.879-.498-.882-.497-.955-.425-.957-.384-.958-.303-.957-.196-.92-.111-.919-.001zm-5.593 3.058l.691-.766.726-.574.729-.382.766-.229.767-.037.804.076.844.192.804.271.84.422.805.42.842.536.843.539.843.536.803.574.805.578.803.496-.459.076-.498.039-.574.115-.613.072-.649.08-.69.072-.65.078-.653.076-.229-.498-.269-.422-.305-.422-.384-.382-.383-.344-.419-.27-.5-.271-.497-.229-.536-.191-.572-.154-.576-.114-.612-.079-.65-.037-.652.001-.65.073-.689.078zm-4.713 2.523l.193-.307.306-.268.422-.227.459-.155.536-.114.612-.036.613.001.689.037.65.114.689.155.652.229.61.27.576.307.534.383.422.422.381.461-.343.076-.419.076-.42.076-.423.074-.382.037-.308.041h-.305l-.153-.078-.381-.23-.652-.307-.766-.342-.881-.309-.995-.27-.957-.154-.959.037z" stroke-width=".254"/><path d="M.858 42.81l-.036-.609.152-.461.271-.307.42-.191.497-.078.575.041.613.076.688.154.65.23.65.23.613.23.535.23.46.23.383.154.191.152.078.037-3.065.533-.27-.113-.42-.117-.459-.152-.534-.152-.536-.115-.535-.074-.499-.002-.422.074zm2.531-2.562l.612-.498.651-.383.729-.342.805-.231.806-.153.803-.11.844.001.841.072.804.156.804.27.729.307.689.383.649.461.536.535.421.613.344.689-.499.039-.457.078-.5.035-.536.076-.535.078-.574.037-.612.115-.65.072-.231-.34-.271-.308-.307-.268-.343-.27-.383-.23-.421-.23-.422-.192-.459-.152-.459-.154-.497-.115-.46-.076-.499-.04-.497-.037-.496-.001-.499.038-.46.075zM139.73 21.932l.077.117.192.307.267.497.344.613.386.727.382.806.346.92.303.918.228.959.079.92-.041.918-.192.842-.422.768-.651.687-.919.535-1.189.384.193-.578.117-.611.113-.611.076-.689.039-.689v-.726l-.037-.69-.037-.729-.076-.729-.074-.725-.116-.69-.152-.651-.113-.651-.154-.575-.188-.574-.155-.498.191-.075.154-.04.19-.076.156-.036.153-.077.15-.039.191-.078.19-.076z" stroke-width=".254"/><path d="M138.43 22.468l.534 2.108.382 1.914.189 1.646.037 1.455-.077 1.264-.23 1.072-.307.92-.347.764-.46.613-.497.496-.498.347-.495.267-.54.191-.459.076-.42.037h-.384l.229-.613.229-.612.192-.688.154-.689.152-.767.118-.764.116-.767.075-.803.041-.806.001-.843-.041-.804-.073-.843-.114-.804-.155-.843-.188-.766-.229-.805.457-.154.463-.152.422-.152.418-.115.348-.113.381-.115.306-.076.27-.077z" stroke-width=".254"/><path d="M135.32 23.424l.231.765.227.959.155 1.073.072 1.186.041 1.303-.002 1.301-.116 1.301-.192 1.267-.271 1.187-.345 1.109-.499.957-.572.766-.731.574-.84.304-.96.04-1.108-.307.422-.691.421-.727.347-.766.307-.727.229-.803.231-.768.152-.805.154-.805.077-.804.038-.841v-.805l-.073-.842-.076-.842-.152-.806-.152-.845-.229-.803.383-.152.458-.152.461-.153.46-.153.46-.151.382-.153.346-.117.267-.074z" stroke-width=".254"/><path d="M125.59 39.307l1.036.08.997-.154.879-.381.805-.535.766-.73.652-.879.536-.994.499-1.109.384-1.188.309-1.266.192-1.3.078-1.302.001-1.301-.114-1.303-.229-1.265-.343-1.188-.422.152-.425.154-.456.114-.463.152-.458.154-.497.153-.46.152-.497.152v.804l-.001.879-.04.999-.039 1.033-.039 1.033-.038 1.072-.116 1.11-.113 1.032-.156 1.035-.152.957-.233.919-.268.806-.308.687-.384.577-.421.419-.461.267z" stroke-width=".254"/><path d="M128.32 25.715l-.384.153-.383.114-.343.115-.386.077-.382.114-.347.113-.384.116-.38.153-.077.766-.041.84-.039.92-.038.958-.001.958-.001 1.031-.04 1.037-.039.994-.076.997-.115.994-.193.919-.191.844-.305.802-.346.727-.422.616-.536.496 1.108-.267.919-.383.767-.533.651-.614.537-.729.423-.839.306-.919.232-.959.156-1.072.112-1.11.039-1.15.042-1.225.037-1.225.039-1.264.001-1.264.078-1.303z" stroke-width=".254"/><path d="M118.16 42.058l1.531-.074 1.304-.305 1.07-.496.882-.652.689-.841.502-.958.419-1.071.27-1.188.154-1.226.114-1.261.041-1.305.001-1.262.001-1.305.001-1.223.076-1.15.078-1.071-.421.114-.383.113-.343.117-.387.113-.382.113-.343.115-.384.077-.423.114.039.113.075.269.078.423.114.537.074.688.078.768.039.881-.04.996-.114 1.035-.195 1.145-.347 1.189-.42 1.225-.614 1.265-.766 1.339-.921 1.3-1.15 1.338z" stroke-width=".254"/><path d="M112.94 43.703l1.035.191 1.035-.074.995-.346.996-.537.956-.725.92-.881.844-1.07.769-1.188.649-1.265.576-1.378.462-1.456.309-1.489.192-1.496.041-1.531-.152-1.454-.308-1.456-3.638 1.146.037.613.037.729-.038.801-.08.92-.112.958-.192 1.034-.192 1.072-.308 1.109-.347 1.109-.421 1.073-.461 1.071-.575 1.035-.612.996-.729.918-.805.842-.883.727z" stroke-width=".254"/><path d="M118.7 28.619l-.573.189-.73.192-.807.268-.84.229-.806.27-.804.227-.689.191-.537.115-.076.881-.042.955-.075.959-.038.995-.117.995-.077 1.037-.115.994-.153.996-.19.956-.232.921-.309.916-.344.842-.422.807-.498.688-.536.65-.65.576.766.115.803-.039.804-.189.805-.344.804-.5.807-.611.768-.764.766-.957.689-1.035.611-1.227.578-1.339.495-1.528.388-1.65.307-1.758.194-1.955.077-2.066z" stroke-width=".254"/><path d="M104.02 45.226l1.725.08 1.455-.154 1.265-.418.998-.652.841-.803.691-.957.497-1.072.386-1.224.308-1.225.19-1.343.116-1.3.117-1.302.038-1.303.078-1.188.075-1.11.117-.995-.535.114-.463.115-.419.153-.418.112-.463.117-.422.111-.496.154-.576.151-.116 1.038-.112.992-.116.996-.156.955-.116.961-.153.918-.189.879-.194.881-.269.844-.308.841-.382.805-.422.805-.536.801-.576.768-.69.729-.77.727z" stroke-width=".254"/><path d="M99.389 46.066l1.532.078 1.34-.193 1.188-.418 1.036-.65.88-.805.766-.957.615-1.107.537-1.188.458-1.226.347-1.3.269-1.266.194-1.299.19-1.226.116-1.15.116-1.073.079-.919-.539.117-.459.112-.42.115-.423.077-.38.113-.425.074-.495.152-.576.115-.192 1.496-.229 1.417-.27 1.301-.269 1.226-.31 1.109-.345 1.071-.383.918-.384.883-.383.803-.425.727-.459.613-.422.574-.459.535-.461.42-.498.383-.459.346z" stroke-width=".254"/><path d="M95.021 46.636l1.457.078 1.302-.189 1.151-.424 1.071-.611.881-.801.805-.92.69-1.072.614-1.145.535-1.189.422-1.263.347-1.264.308-1.262.271-1.188.192-1.149.152-1.031.155-.922-.459.076-.46.116-.462.114-.459.115-.462.115-.458.112-.46.114-.497.117-.038.725-.116.805-.153.843-.269.918-.27.995-.382.957-.385 1.033-.422.998-.499.996-.537.957-.534.879-.577.84-.574.807-.614.689-.649.572-.617.459z" stroke-width=".254"/><path d="M90.237 47.513l1.49.193 1.38-.191 1.264-.496 1.15-.766 1.073-.955.921-1.148.84-1.301.77-1.34.613-1.416.537-1.381.46-1.302.384-1.262.23-1.074.192-.88.114-.65.001-.381-.573.111-.537.115-.535.152-.536.115-.536.152-.5.113-.497.115-.499.078-.191.651-.19.765-.229.879-.271.996-.308 1.035-.343 1.071-.384 1.069-.424 1.115-.461 1.07-.497.994-.537.959-.574.842-.653.725-.65.574-.728.422-.765.229z" stroke-width=".254"/><path d="M86.752 47.32l1.377.307 1.223.002 1.113-.268 1.034-.535.882-.729.805-.881.727-1.068.652-1.15.539-1.225.498-1.262.384-1.264.385-1.227.307-1.147.231-1.035.23-.918.189-.727-.419.076-.423.038-.38.075-.347.076-.384.076-.346.078-.305.074-.345.041-.118.879-.189.919-.232.917-.228.883-.309.918-.347.881-.382.843-.461.842-.46.842-.537.805-.615.764-.61.689-.729.689-.727.611-.806.574-.879.535z" stroke-width=".254"/><path d="M82.385 48.005l1.147.002 1.112-.115 1.07-.268 1.037-.383.956-.533.959-.65.842-.764.841-.842.73-.959.69-1.033.614-1.15.573-1.185.461-1.264.385-1.34.347-1.379.23-1.414-.498.113-.499.076-.536.115-.496.074-.497.078-.459.112-.5.077-.459.115-.231.805-.191.842-.231.805-.194.803-.23.804-.228.803-.307.766-.346.805-.42.766-.463.803-.576.766-.688.766-.768.729-.918.766-1.073.766-1.188.725z" stroke-width=".254"/><path d="M76.18 48.728l1.495.117 1.454-.076 1.34-.229 1.266-.383 1.187-.496 1.112-.65 1.033-.768.918-.916.844-.955.767-1.074.693-1.148.573-1.221.496-1.304.425-1.34.307-1.377.233-1.381-.423.076-.46.117-.456.074-.461.075-.459.078-.5.114-.497.076-.5.115-.152.955-.23.957-.31.96-.383.917-.457.917-.502.918-.574.883-.648.842-.691.844-.767.762-.808.727-.879.689-.921.611-.995.576-.997.496-1.072.42z" stroke-width=".254"/><path d="M72.772 49.107l1.264-.074 1.226-.189 1.228-.307 1.186-.457 1.112-.537 1.109-.648 1.034-.729.958-.842.881-.916.843-.994.73-1.076.65-1.109.536-1.183.46-1.226.348-1.267.229-1.299-.419.074-.385.037-.346.039-.343.039-.346.037-.382.077-.458.075-.539.075-.537 1.112-.459 1.031-.46.997-.422.918-.46.881-.424.805-.461.764-.498.727-.537.729-.613.65-.688.689-.765.611-.884.65-.996.611-1.108.613-1.265.609z" stroke-width=".254"/><path d="M66.645 49.488l1.877.076 1.763-.072 1.57-.268 1.455-.422 1.34-.572 1.187-.691 1.113-.801.993-.92.921-.992.844-1.072.729-1.109.688-1.189.652-1.184.577-1.187.538-1.227.496-1.187-.343.036-.461.078-.573.076-.575.076-.613.115-.537.076-.456.076-.347.035-.46 1.074-.499 1.074-.577.994-.573.955-.652.881-.688.879-.729.805-.804.807-.804.727-.885.688-.917.688-.96.613-.995.572-1.072.535-1.072.496-1.149.461z" stroke-width=".254"/><path d="M63.006 50.019l1.034-.037 1.071-.152 1.15-.268 1.186-.42 1.188-.494 1.189-.613 1.188-.727 1.187-.803 1.149-.918 1.111-.957 1.035-1.07.999-1.15.879-1.188.804-1.261.691-1.34.576-1.38-.575.079-.575.074-.611.037-.612.077-.536.037-.461.077-.382.076-.192.115-.69.535-.689.575-.729.688-.729.688-.727.765-.767.803-.767.844-.768.844-.766.879-.804.842-.805.842-.845.84-.842.844-.845.762-.842.768-.882.688z" stroke-width=".254"/><path d="M57.415 50.015l.997.654 1.032.268 1.034.002 1.073-.268 1.071-.537 1.073-.729 1.111-.916 1.11-1.033 1.112-1.188 1.148-1.225 1.189-1.301 1.188-1.299 1.188-1.264 1.226-1.263 1.228-1.148 1.226-1.031h-.425l-.494.074-.576.038-.573.116-.614.076-.612.113-.572.115-.5.075-.956.88-.957.88-.923.918-.919.92-.881.916-.883.92-.88.92-.845.84-.844.84-.842.768-.805.688-.804.613-.805.535-.767.459-.766.344-.767.229z" stroke-width=".254"/><path d="M53.086 50.511l1.572.002 1.492-.152 1.342-.385 1.304-.494 1.187-.613 1.109-.766 1.075-.84.995-.92.997-.994.956-1.033.921-1.035.959-1.07.959-1.07.994-1.034 1.035-.957 1.072-.918-.382.04-.458.037-.577.074-.572.041-.577.073-.459.038-.382.041-.229-.001-.651.151-.651.306-.649.423-.692.573-.689.686-.729.805-.766.844-.769.916-.88.957-.883.955-.997.996-1.032.959-1.111.955-1.188.881-1.264.801-1.381.729zm85.224-31.529v-.153l.04-.42.038-.649.04-.807.039-.957-.037-1.033-.038-1.072-.111-1.111-.229-1.033-.309-.996-.38-.882-.572-.728-.654-.537-.843-.307-1.034-.039-1.186.306.385.384.343.459.345.574.306.613.305.689.27.689.264.767.271.804.228.767.19.806.194.803.188.766.155.768.152.727.114.65.113.613.19-.037.154-.037.189-.078.155-.037.151-.079.155-.075.192-.037.226-.078z" stroke-width=".254"/><path d="M136.9 19.558l-.497-2.489-.535-2.108-.535-1.801-.532-1.492-.539-1.188-.534-.958-.533-.689-.499-.497-.536-.347-.458-.153-.502-.039-.42.078-.419.152-.382.191-.348.229-.306.23.536.497.533.573.462.538.494.611.424.615.422.648.382.652.344.691.344.727.306.766.307.768.268.805.227.842.23.842.227.882.194.919.457-.077.345-.036.232-.077.153-.077.151-.037.156-.076.153-.039.229-.075z" stroke-width=".254"/><path d="M134.98 20.283l-.113-.918-.194-1.035-.305-1.15-.379-1.226-.5-1.264-.571-1.227-.611-1.187-.688-1.111-.729-.996-.765-.843-.803-.65-.842-.425-.9-.151-.882.152-.842.499-.882.878.688.498.65.576.613.574.574.576.574.611.496.689.459.691.42.688.423.769.343.767.345.805.267.842.267.879.193.92.189.959.155.994.416-.114.461-.152.499-.153.498-.191.461-.189.421-.154.344-.151.23-.077z" stroke-width=".254"/><path d="M120.06 10.239l.919-.612.92-.344.957-.115.919.115.958.307.919.5.882.689.843.805.762.919.766 1.073.65 1.188.572 1.226.496 1.305.384 1.376.306 1.38.151 1.416-.47.114-.459.116-.46.15-.46.154-.497.191-.499.113-.457.154-.498.075-.346-.88-.305-.959-.383-.957-.348-.957-.379-.996-.419-.998-.423-.956-.421-.918-.456-.884-.499-.805-.533-.766-.539-.651-.609-.575-.615-.459-.648-.346-.69-.19z" stroke-width=".254"/><path d="M115.84 11.383l1.455-.648 1.302-.344 1.149-.038 1.034.193.919.421.806.65.724.807.65.957.575 1.072.495 1.188.5 1.229.457 1.225.457 1.264.421 1.264.459 1.188.497 1.111-.421.037-.384.115-.383.113-.385.152-.381.118-.384.151-.421.114-.422.074-.038-.151-.038-.383-.114-.498-.114-.689-.189-.803-.27-.92-.306-.996-.42-1.034-.494-1.034-.574-1.035-.728-1.035-.803-.958-.96-.918-1.07-.767-1.228-.691-1.375-.5z" stroke-width=".254"/><path d="M110.41 12.185l.882-.651.997-.42 1.069-.153 1.072.04 1.149.229 1.148.461 1.108.615 1.111.768 1.07.956.997 1.075.878 1.225.805 1.342.687 1.416.537 1.533.342 1.57.19 1.687-3.945 1.029-.228-.649-.307-.77-.306-.803-.382-.881-.461-.92-.457-.956-.537-.961-.573-.956-.652-.957-.725-.92-.766-.842-.803-.808-.878-.728-.959-.613-.996-.537-1.07-.421z" stroke-width=".254"/><path d="M120.54 25.02l-.572.115-.727.152-.729.23-.808.229-.764.267-.729.191-.649.189-.536.152-.382-.957-.421-.995-.422-.996-.42-1.036-.421-1.032-.458-.997-.498-.995-.497-.997-.533-.918-.573-.845-.614-.804-.651-.727-.65-.652-.728-.537-.804-.423-.804-.306.692-.459.764-.344.806-.23.88-.075.918.076.959.231.957.383.992.576.999.728.993.92.995 1.149.954 1.304.919 1.532.917 1.723.843 1.992.802 2.184z" stroke-width=".254"/><path d="M101.33 14.973l1.571-.841 1.415-.498 1.304-.114 1.187.193 1.032.458.996.691.841.883.805 1.073.688 1.188.649 1.265.573 1.341.534 1.34.536 1.302.498 1.265.458 1.148.456 1.035-.534.076-.459.112-.422.079-.422.114-.421.114-.459.115-.498.076-.572.112-.5-1.033-.458-1.036-.46-.994-.458-.958-.459-.958-.495-.88-.5-.881-.495-.806-.575-.807-.61-.727-.612-.688-.688-.652-.769-.615-.801-.536-.92-.498-.956-.46z" stroke-width=".254"/><path d="M96.577 16.348l1.419-.765 1.339-.383 1.265-.075 1.225.191 1.111.461 1.069.689.996.844.921.998.841 1.149.802 1.187.726 1.227.652 1.264.611 1.266.537 1.148.455 1.111.423.957-.574.113-.5.115-.46.113-.421.076-.458.115-.461.115-.536.076-.613.115-.688-1.533-.688-1.417-.646-1.302-.651-1.188-.614-1.071-.573-.961-.61-.84-.574-.807-.612-.651-.613-.575-.611-.498-.65-.421-.653-.308-.685-.269-.731-.155-.765-.113z" stroke-width=".254"/><path d="M92.977 17.379l1.378-.65 1.307-.308 1.222.001 1.19.233 1.07.458 1.033.654.956.844.92.957.802 1.072.766 1.148.726 1.188.613 1.188.609 1.189.5 1.15.456 1.033.421.959-.459.113-.42.113-.424.076-.383.116-.421.077-.42.075-.462.113-.496.077-.231-.765-.342-.845-.42-.842-.497-.919-.535-.919-.651-.921-.649-.92-.728-.92-.765-.841-.805-.846-.803-.766-.804-.652-.843-.613-.805-.498-.802-.383-.806-.23z" stroke-width=".254"/><path d="M88.648 18.484l1.417-.762 1.38-.345 1.379.039 1.301.385 1.264.612 1.226.879 1.149 1.038 1.069 1.147.995 1.229.881 1.264.8 1.227.65 1.187.536 1.036.422.879.23.652.113.383-.574.115-.498.113-.498.115-.5.115-.496.115-.459.074-.499.077-.497.076-.344-.651-.384-.804-.458-.882-.537-.921-.571-1.033-.614-1.034-.646-.997-.691-1.034-.727-.959-.762-.88-.802-.804-.803-.652-.844-.537-.844-.345-.878-.152-.882.035z" stroke-width=".254"/><path d="M85.508 19.709l1.266-.842 1.224-.459 1.149-.113 1.149.19 1.071.461 1.033.692.958.842.915 1.035.844 1.113.805 1.184.727 1.229.687 1.225.574 1.15.535 1.073.421.918.383.766-.46.077-.382.114-.344.115-.308.113-.347.114-.305.115-.307.079-.343.073-.344-.955-.421-.958-.422-.921-.46-.918-.537-.919-.531-.844-.613-.844-.65-.805-.689-.767-.764-.688-.765-.614-.844-.574-.919-.5-.919-.421-.996-.308-1.071-.229z" stroke-width=".254"/><path d="M81.523 20.625l1.113-.422 1.109-.266 1.148-.077 1.074.078 1.109.231 1.032.345 1.034.536 1.034.652.956.768.918.92.881.996.842 1.112.802 1.226.689 1.34.688 1.418.571 1.491-.498.077-.495.076-.501.115-.497.153-.496.115-.498.153-.497.115-.5.074-.343-.842-.343-.882-.347-.843-.342-.883-.422-.842-.419-.805-.501-.842-.534-.767-.649-.729-.688-.728-.805-.652-.88-.613-.996-.537-1.11-.498-1.261-.424-1.381-.344z" stroke-width=".254"/><path d="M75.855 21.961l1.455-.609 1.457-.385 1.34-.189 1.34-.037 1.265.191 1.226.346 1.147.498 1.111.652.992.805.994.919.884 1.036.84 1.15.764 1.264.652 1.34.611 1.381.535 1.491-.459.077-.46.076-.536.078-.501.074-.533.078-.538.074-.535.076-.535.076-.269-1.072-.383-.994-.42-.996-.533-.959-.575-.881-.651-.843-.688-.805-.766-.729-.842-.689-.916-.574-.959-.539-.995-.459-1.071-.346-1.113-.307-1.146-.191-1.188-.078z" stroke-width=".254"/><path d="M73.062 22.265l1.302-.19 1.262-.113 1.262.038 1.228.154 1.224.307 1.15.385 1.109.498 1.073.613.995.729.954.844.844.919.803 1.034.688 1.15.611 1.226.499 1.341.38 1.419-.46.035-.383.038-.382.077-.384.077-.384.074-.382.078-.46.114-.496.076-.651-1.111-.613-1.073-.532-.958-.5-.956-.535-.844-.498-.804-.497-.767-.572-.69-.612-.651-.688-.575-.768-.535-.842-.498-.995-.425-1.071-.383-1.264-.346-1.415-.308z" stroke-width=".254"/><path d="M66.973 23.064l1.914-.457 1.8-.268 1.646-.075 1.531.154 1.417.307 1.302.461 1.187.573 1.074.77 1.03.842.917.96.844 1.034.802 1.112.728 1.147.688 1.227.612 1.226.611 1.265-.307.037-.42.037-.459.115-.501.076-.496.115-.462.114-.419.036-.346.039-.571-1.148-.613-1.035-.689-.996-.726-.918-.766-.883-.805-.806-.878-.725-.919-.69-.956-.616-.996-.573-1.034-.498-1.07-.498-1.111-.423-1.147-.383-1.189-.346-1.222-.309z" stroke-width=".254"/><path d="M63.335 23.443l1.068-.189 1.113-.037 1.225.038 1.263.192 1.267.271 1.3.384 1.303.497 1.302.614 1.3.729 1.224.845 1.186.92 1.147 1.035 1.035 1.149.956 1.225.841 1.342.728 1.455-.537.039-.533.076-.538.115-.536.113-.459.113-.385.117-.306.036-.19-.037-.769-.46-.763-.537-.804-.613-.843-.689-.843-.729-.878-.768-.92-.768-.916-.802-.959-.806-.956-.807-.995-.803-.996-.729-1.033-.729-.995-.652-1.071-.613-1.031-.537z" stroke-width=".254"/><path d="M58.237 24.895l.958-.955 1.034-.572 1.074-.23 1.109.077 1.148.308 1.225.575 1.227.769 1.3.879 1.301 1.074 1.341 1.11 1.34 1.19 1.34 1.188 1.377 1.188 1.377 1.112 1.376 1.035 1.381.92-.421.074-.499.037-.612.041-.613.037-.648.037h-1.227l-.497-.002-1.034-.766-.993-.804-.996-.808-.918-.842-.919-.805-.883-.807-.878-.805-.88-.767-.919-.688-.879-.651-.92-.575-.956-.5-.996-.422-1.034-.345-1.073-.192-1.11-.117z" stroke-width=".254"/><path d="M54.408 25.352l1.61-.381 1.493-.152 1.415.076 1.343.271 1.262.461 1.226.575 1.186.729 1.148.805 1.11.919 1.109.922 1.071.995 1.111.996 1.109.958 1.107.959 1.188.843 1.185.807-.38.037-.498.075-.576.078-.576.036-.572.079-.5.072-.38.041-.231.037-.688-.002-.69-.189-.727-.348-.766-.496-.766-.614-.843-.728-.879-.807-.919-.844-.959-.881-1.031-.918-1.109-.882-1.148-.844-1.262-.808-1.302-.728-1.379-.651-1.494-.5z" stroke-width=".254"/><path d="M49.583 26.689L51 25.885l1.495-.342h1.455l1.49.309 1.495.576 1.494.804 1.454.96 1.415 1.034 1.339 1.149 1.302 1.15 1.263 1.075 1.148.993 1.033.844.956.65.843.385.726.116-.61.077-.653.113-.727.113-.765.117-.767.074-.767.115-.728.038-.652.037-1.07-.806-.958-.766-.879-.767-.84-.728-.767-.73-.725-.723-.767-.691-.726-.651-.729-.612-.804-.576-.841-.537-.919-.496-.996-.461-1.071-.383-1.226-.348-1.34-.307z" stroke-width=".254"/><g stroke-width=".254"><path d="M142.34 10.982l.191-.383.153-.42.152-.423.113-.421.117-.459.115-.496.077-.459.042-.5.036-.459.035-.498.001-.499-.035-.46-.036-.459-.08-.457-.112-.461-.114-.42.611.804.459.882.345.842.189.88.076.919v.92l-.116.918-.194.92-.228.918-.31.883-.343.879-.343.88-.385.843-.347.842-.346.765-.343.767.074-.152.037-.269.042-.266v-.345l.037-.424v-.881l.001-.496.038-.499v-.498l.039-.534.04-.498.038-.461.078-.461.075-.42.116-.383zm11.67 15.903l-.729-.422-.729-.462-.687-.421-.688-.422-.65-.383-.651-.422-.616-.385-.609-.42-.64-.383-.607-.384-.614-.422-.652-.382-.611-.386-.654-.342-.686-.386-.689-.382.61.61.613.616.613.611.612.576.65.611.651.536.65.539.688.497.651.461.689.383.651.346.688.269.688.229.688.115.691.037.691-.035z"/><path d="M148.32 11.561l-.536.308-.5.345-.495.345-.461.344-.46.343-.419.383-.424.421-.423.383-.384.422-.384.422-.382.421-.345.457-.383.422-.346.459-.344.459-.346.459.153-.496.192-.499.191-.537.229-.534.231-.536.265-.499.31-.498.346-.495.382-.46.461-.381.498-.385.537-.344.612-.269.652-.229.765-.152.805-.076zm-5.71-4.6l-.153.767-.114.767-.154.766-.116.689-.08.726-.114.689-.079.689-.115.689-.075.688-.117.689-.074.651-.118.689-.116.689-.115.689-.15.689-.157.727-.076-.842-.113-.805-.077-.843-.076-.841-.037-.807-.038-.805.039-.805.039-.764.076-.767.116-.688.194-.689.229-.651.269-.573.384-.537.422-.46.497-.421z"/><path d="M146.71 5.703l.692.648.416.729.189.766.04.805-.153.804-.307.843-.424.844-.498.841-.575.804-.611.805-.653.764-.65.689-.614.689-.534.572-.463.539-.383.418.077-1.147.154-.995.191-.844.307-.764.306-.65.386-.574.382-.535.424-.501.383-.496.424-.495.382-.538.307-.613.307-.688.23-.766.194-.919.075-1.032z"/><path d="M141.8 17.951v-.805l-.039-.765-.034-.765-.04-.768-.036-.729-.077-.727-.076-.727-.073-.691-.117-.688-.114-.728-.189-.689-.152-.689-.193-.689-.268-.689-.229-.689-.306-.689 1.111 1.073.918 1.034.649.959.457.92.309.879.151.805.037.806-.077.727-.195.689-.187.651-.27.613-.271.533-.23.537-.229.459-.152.459-.078.383zm11.22 2.652l-.613.114-.614.116-.611.075-.613.075-.609.038-.616.037h-1.188l-.612-.039h-.574l-.613-.077-.573-.038-.613-.04-.575-.075-.612-.079-.574-.075.498.229.498.192.535.231.537.19.574.193.576.151.61.156.61.076.612.039h.651l.651-.039.654-.15.651-.191.651-.27.648-.381.654-.46z"/><path d="M149.46 23.702l.461.078.419.075.461.115.457.115.463.194.456.151.421.191.46.23.421.23.421.267.383.271.386.268.343.307.308.307.304.307.27.344-.269-.917-.422-.808-.494-.688-.615-.651-.688-.536-.768-.5-.84-.421-.882-.347-.919-.306-.919-.307-.955-.231-.958-.23-.957-.193-.919-.189-.843-.154-.842-.192.42.153.574.306.69.463.841.497.843.535.879.499.842.46.768.308zm1.75 6.857l.345-.881.117-.844-.116-.842-.307-.766-.457-.729-.612-.727-.728-.69-.804-.614-.843-.613-.879-.536-.919-.538-.884-.459-.801-.42-.767-.387-.651-.344-.496-.309.532 1.113.538.919.573.728.536.652.574.498.574.459.574.346.574.346.571.346.577.382.572.384.536.46.537.573.535.691.497.806.498.995z"/><path d="M141.57 21.129l.422.652.42.652.421.65.38.613.346.613.345.649.346.614.305.613.304.652.268.65.271.613.229.65.19.689.192.65.152.689.152.73.384-1.455.191-1.265.041-1.149-.115-.994-.229-.844-.346-.766-.42-.652-.458-.537-.538-.499-.535-.421-.573-.346-.537-.306-.496-.306-.46-.268-.342-.307-.31-.271z"/></g></g><defs><linearGradient id="a" y2="4153.3" gradientUnits="userSpaceOnUse" x2="-3520.4" gradientTransform="translate(-2022.6 2980.7) scale(.5318)" y1="4186.3" x1="-3510.4"><stop stop-color="#4F0C81" offset="0"/><stop stop-color="#690C73" offset=".07"/><stop stop-color="#9A0A5B" offset=".209"/><stop stop-color="#C20748" offset=".337"/><stop stop-color="#E0053A" offset=".451"/><stop stop-color="#F20032" offset=".548"/><stop stop-color="#FA002F" offset=".616"/><stop stop-color="#F7EE5F" offset="1"/></linearGradient></defs><g stroke="#000" stroke-width=".254" fill="url(#a)"><path stroke-width=".596" d="M.241 40.672c13.561-1.867 63.613-4.393 85.943-8.051 17.961-2.937 35.502-8.285 52.242-13.9 4.328-1.453 11.991-4.434 16.896-7.07 3.104-2.373 10.571-5.889 12.606-9.222-32.45 15.407-45.513 19.649-83.582 27.354C68.91 32.952 12.729 37.504.241 40.672z" fill="#000"/><defs><linearGradient id="b" y2="-3479.4" gradientUnits="userSpaceOnUse" x2="-3789.2" gradientTransform="translate(2070.8 1900.1) scale(.5318)" y1="-3507.6" x1="-3788.1"><stop stop-color="#4F0C81" offset="0"/><stop stop-color="#690C73" offset=".07"/><stop stop-color="#9A0A5B" offset=".209"/><stop stop-color="#C20748" offset=".337"/><stop stop-color="#E0053A" offset=".451"/><stop stop-color="#F20032" offset=".548"/><stop stop-color="#FA002F" offset=".616"/><stop stop-color="#F7EE5F" offset="1"/></linearGradient></defs><path d="M48.261 46.645l1.454.498 1.418.118 1.417-.229 1.417-.574 1.379-.766 1.38-.994 1.305-1.146 1.301-1.226 1.228-1.26 1.149-1.267 1.111-1.224 1.035-1.148.958-.957.881-.763.767-.501.689-.228-.576.036-.611.038-.689.077-.688.074-.69.078-.689.076-.689.038-.612.076-.957.88-.921.842-.805.842-.729.844-.727.801-.688.805-.652.764-.691.729-.688.727-.729.65-.767.65-.882.61-.919.576-1.034.535-1.149.496-1.302.421z" fill="url(#b)"/><defs><linearGradient id="c" y2="-3475.5" gradientUnits="userSpaceOnUse" x2="-3818.3" gradientTransform="translate(2070.8 1900.1) scale(.5318)" y1="-3498.7" x1="-3817.4"><stop stop-color="#4F0C81" offset="0"/><stop stop-color="#690C73" offset=".07"/><stop stop-color="#9A0A5B" offset=".209"/><stop stop-color="#C20748" offset=".337"/><stop stop-color="#E0053A" offset=".451"/><stop stop-color="#F20032" offset=".548"/><stop stop-color="#FA002F" offset=".616"/><stop stop-color="#F7EE5F" offset="1"/></linearGradient></defs><path d="M43.511 46.45l1.688.271 1.569.038 1.455-.15 1.377-.345 1.265-.534 1.151-.652 1.148-.766 1.034-.879 1.035-.918.957-.995.959-1.072.921-1.032.956-1.033.96-1.033.958-.955.995-.881-.381.037h-.423l-.384.039-.419.037-.424.037-.421.078-.42.035-.42.041-.421.037-.461.037-.422.078-.459.037-.459.037-.46.037h-.46l-.459.039-.347.535-.42.651-.537.765-.575.805-.69.881-.729.879-.766.918-.805.879-.844.844-.84.805-.885.726-.842.612-.844.496-.843.346-.804.189h-.768z" fill="url(#c)"/><defs><linearGradient id="d" y2="-3480.6" gradientUnits="userSpaceOnUse" x2="-3807.8" gradientTransform="translate(2070.8 1900.1) scale(.5318)" y1="-3505.3" x1="-3806.9"><stop stop-color="#4F0C81" offset="0"/><stop stop-color="#690C73" offset=".07"/><stop stop-color="#9A0A5B" offset=".209"/><stop stop-color="#C20748" offset=".337"/><stop stop-color="#E0053A" offset=".451"/><stop stop-color="#F20032" offset=".548"/><stop stop-color="#FA002F" offset=".616"/><stop stop-color="#F7EE5F" offset="1"/></linearGradient></defs><path d="M40.371 46.487l.958.115.919.076.881-.037.881-.152.882-.19.843-.344.841-.421.883-.574.882-.65.882-.764.882-.921.919-.993.958-1.188.997-1.3 1.034-1.416 1.074-1.607-.651-.002-.613.039-.614.076-.612.076-.611.078-.613.072h-1.415l-.616.612-.573.65-.576.614-.574.688-.575.65-.535.689-.576.648-.539.691-.572.65-.574.65-.612.65-.577.613-.65.572-.652.574-.65.573-.729.499z" fill="url(#d)"/><path d="M37.041 46.329l.728.387.802.153.807-.116.842-.342.844-.5.881-.689.88-.764.884-.917.841-.958.884-.993.804-.997.805-.957.768-.957.729-.84.689-.729.614-.613-4.099.382-.462.612-.498.61-.458.616-.459.608-.46.614-.5.612-.461.612-.497.612-.537.573-.537.611-.536.578-.613.57-.612.574-.653.576-.688.536-.728.532z" fill="url(#c)"/><defs><linearGradient id="e" y2="-3480.1" gradientUnits="userSpaceOnUse" x2="-3826.3" gradientTransform="translate(2070.8 1900.1) scale(.5318)" y1="-3503.9" x1="-3825.4"><stop stop-color="#4F0C81" offset="0"/><stop stop-color="#690C73" offset=".07"/><stop stop-color="#9A0A5B" offset=".209"/><stop stop-color="#C20748" offset=".337"/><stop stop-color="#E0053A" offset=".451"/><stop stop-color="#F20032" offset=".548"/><stop stop-color="#FA002F" offset=".616"/><stop stop-color="#F7EE5F" offset="1"/></linearGradient></defs><path d="M30.262 45.444l1.188.767 1.109.5 1.11.231h1.074l1.033-.191.995-.343.955-.538.96-.687.919-.841.923-.881.84-1.037.884-1.031.843-1.109.844-1.146.805-1.148.805-1.111-.688.115-.536.037-.384.037-.345.039-.343.039-.346-.001-.499.037-.651.037-.729 1.034-.727.955-.729.921-.805.804-.767.727-.767.689-.804.611-.768.536-.766.458-.768.421-.727.306-.689.269-.689.229-.614.152-.612.075-.537.038z" fill="url(#e)"/><path d="M26.7 45.21l1.228.153 1.186.08 1.149-.078 1.109-.151 1.036-.227 1.033-.345.958-.422.92-.535.92-.572.844-.651.843-.727.803-.804.766-.842.73-.918.729-.959.689-.994-.767.039-.844.074-.802.076-.806.038-.69.077-.574.035-.421.039-.191.037-.076.078-.191.19-.308.306-.382.385-.422.459-.536.536-.577.573-.648.614-.731.608-.764.65-.768.615-.843.611-.88.572-.881.535-.921.46-.92.385z" fill="url(#c)"/><defs><linearGradient id="f" y2="-3482.3" gradientUnits="userSpaceOnUse" x2="-3842.4" gradientTransform="translate(2070.8 1900.1) scale(.5318)" y1="-3502.4" x1="-3841.7"><stop stop-color="#4F0C81" offset="0"/><stop stop-color="#690C73" offset=".07"/><stop stop-color="#9A0A5B" offset=".209"/><stop stop-color="#C20748" offset=".337"/><stop stop-color="#E0053A" offset=".451"/><stop stop-color="#F20032" offset=".548"/><stop stop-color="#FA002F" offset=".616"/><stop stop-color="#F7EE5F" offset="1"/></linearGradient></defs><path d="M21.991 45.476l1.033.192.998.076 1.033-.113 1.034-.191 1.034-.342.994-.423.996-.497.998-.611.919-.648.918-.69.881-.726.845-.766.806-.804.766-.765.69-.768.651-.766h-.461l-.574.04-.611.036h-.651l-.613.073-.613.041-.496.039-.423.075v.077l-.154.189-.381.347-.537.42-.652.535-.764.613-.845.652-.882.647-.92.687-.918.691-.881.65-.846.574-.765.539-.69.421-.537.305-.382.191z" fill="url(#f)"/><path d="M16.782 45.434l.612.612.806.267.996.001 1.11-.266 1.227-.46 1.262-.646 1.341-.768 1.305-.841 1.302-.919 1.227-.916 1.147-.879.999-.844.881-.688.65-.574.423-.381.192-.154-.498.038-.538.036-.574.037-.572.041-.614.072-.614.039-.611.04-.652.038-.688.419-.688.422-.693.456-.649.425-.689.456-.653.498-.688.459-.653.459-.69.496-.65.461-.688.459-.651.458-.688.421-.691.422-.651.419-.69.384z" fill="url(#c)"/><defs><linearGradient id="g" y2="-3493.2" gradientUnits="userSpaceOnUse" x2="-3872.4" gradientTransform="translate(2070.8 1900.1) scale(.5318)" y1="-3504" x1="-3872.2"><stop stop-color="#F7EE5F" offset="0"/><stop stop-color="#F5D65D" offset=".186"/><stop stop-color="#F4C35B" offset=".383"/><stop stop-color="#F4BC5A" offset=".52"/><stop stop-color="#F5DA5D" offset=".781"/><stop stop-color="#F7EE5F" offset="1"/></linearGradient></defs><path d="M12.953 45.507l.652.229.649.115.65.037.653-.11.65-.194.689-.265.727-.383.768-.46.843-.535.881-.612.959-.688 1.072-.728 1.187-.803 1.265-.881 1.379-.918 1.534-.957-.653.039-.727.039-.65-.001-.65.038-.574.037-.459.038-.307.039-.116.036-.077.115-.229.23-.346.307-.458.42-.575.499-.653.577-.689.571-.805.613-.805.611-.843.612-.843.534-.882.537-.842.457-.842.383-.805.267-.729.154z" fill="url(#g)"/><defs><linearGradient id="h" y2="-3484.9" gradientUnits="userSpaceOnUse" x2="-3874.5" gradientTransform="translate(2070.8 1900.1) scale(.5318)" y1="-3508.4" x1="-3878.1"><stop stop-color="#F7EE5F" offset="0"/><stop stop-color="#F5D65D" offset=".186"/><stop stop-color="#F4C35B" offset=".383"/><stop stop-color="#F4BC5A" offset=".52"/><stop stop-color="#F5DA5D" offset=".781"/><stop stop-color="#F7EE5F" offset="1"/></linearGradient></defs><path d="M10.158 45.084l.879.344.958.152.998-.072 1.033-.268 1.072-.383 1.033-.498 1.074-.608.996-.69.958-.688.92-.728.843-.688.728-.691.653-.572.495-.499.383-.341.232-.232-.613.038-.577.04-.571.037-.575.074-.535.041-.577.037-.61.074-.613.038-.459.421-.501.42-.458.421-.499.46-.498.498-.497.459-.536.459-.538.458-.536.423-.534.421-.577.381-.534.343-.614.309-.574.266-.613.193-.613.152z" fill="url(#h)"/><path d="M6.791 44.01l.765.535.763.345.767.154.767.039.768-.151.766-.232.766-.343.765-.458.729-.498.766-.611.729-.613.729-.65.727-.648.69-.69.689-.649.69-.615-.422.041-.46.076-.497.037-.535.039-.575.074-.612.039-.652.074-.612.037-.192.461-.27.457-.271.422-.346.422-.381.383-.424.383-.42.381-.496.306-.5.308-.537.268-.573.268-.576.189-.612.154-.61.15-.654.077-.649.039z" fill="url(#g)"/><path d="M3.763 43.434l.652.266.69.193.726.115.806.001.767-.038.842-.115.805-.229.803-.229.768-.344.729-.384.65-.421.614-.495.536-.538.46-.572.345-.651.23-.652-.46.04-.46.037-.497.076-.5.038-.495.038-.537.037-.574.039-.652.036-.271.385-.307.384-.306.345-.306.306-.307.306-.348.229-.343.27-.347.229-.381.191-.422.19-.421.19-.456.153-.462.152-.495.152-.537.116-.539.154z" fill="url(#h)"/><path d="M2.193 42.896l.23.229.347.152.42.078h.46l.536-.038.573-.112.613-.193.612-.189.613-.27.614-.307.612-.342.537-.385.537-.42.458-.459.345-.46.307-.498-.343.041-.308.037-.383.038-.343.038-.344.039-.307.036-.268.001-.269-.001v.153l-.342.306-.576.422-.767.498-.917.496-.922.499-.919.381-.806.23z" fill="url(#g)"/><path d="M1.084 41.822l.078.536.192.344.305.155.42.076.499-.075.574-.192.573-.229.614-.306.613-.346.574-.381.575-.381.461-.347.42-.307.307-.229.191-.152.038-.076-2.986.341-.229.152-.386.192-.458.23-.5.229-.535.269-.497.189-.461.192-.384.114z" fill="url(#g)"/><defs><linearGradient id="i" y2="-3490.1" gradientUnits="userSpaceOnUse" x2="-3892.7" gradientTransform="translate(2070.8 1900.1) scale(.5318)" y1="-3497" x1="-3892.6"><stop stop-color="#F7EE5F" offset="0"/><stop stop-color="#F5D65D" offset=".186"/><stop stop-color="#F4C35B" offset=".383"/><stop stop-color="#F4BC5A" offset=".52"/><stop stop-color="#F5DA5D" offset=".781"/><stop stop-color="#F7EE5F" offset="1"/></linearGradient></defs><path d="M4.533 40.253l-.651.039-.574.039-.536.036-.498.037-.46.04-.497.036-.498.077-.577.114.117.729.343.345.537.001.689-.19.689-.347.729-.382.651-.345.536-.229z" fill="url(#i)"/><path d="M4.419 39.874l-.653.112-.573.076-.497.114-.5.075-.458.114-.459.115-.537.116-.575.154-.038-.844.345-.536.537-.192.727-.034.766.151.766.193.651.23.499.154z" fill="url(#g)"/><defs><linearGradient id="j" y2="-3555.2" gradientUnits="userSpaceOnUse" x2="-3726.8" gradientTransform="translate(2070.8 1900.1) scale(.5318)" y1="-3522.2" x1="-3716.8"><stop stop-color="#4F0C81" offset="0"/><stop stop-color="#690C73" offset=".07"/><stop stop-color="#9A0A5B" offset=".209"/><stop stop-color="#C20748" offset=".337"/><stop stop-color="#E0053A" offset=".451"/><stop stop-color="#F20032" offset=".548"/><stop stop-color="#FA002F" offset=".616"/><stop stop-color="#F7EE5F" offset="1"/></linearGradient></defs><path d="M44.258 24.317l1.684-.651 1.611-.419 1.491-.113 1.417.076 1.379.309 1.262.459 1.227.652 1.187.729 1.149.845 1.11.919 1.106.959 1.074.996 1.071.957 1.07.921 1.073.882 1.109.807-.384.073-.421.038-.421.039-.383.076-.423.039-.421.038-.459.036-.421.039-.422.035-.461.041-.458.076-.422.037-.461.04-.457.074-.498.037-.461.077-.382-.534-.495-.653-.576-.766-.688-.768-.727-.843-.805-.843-.879-.844-.881-.806-.959-.766-.953-.688-.957-.615-.997-.497-.957-.385-.958-.23-.956-.039-.88.152z" fill="url(#j)"/><defs><linearGradient id="k" y2="-3532.4" gradientUnits="userSpaceOnUse" x2="-3836.3" gradientTransform="translate(2070.8 1900.1) scale(.5318)" y1="-3506.2" x1="-3818.3"><stop stop-color="#4F0C81" offset="0"/><stop stop-color="#690C73" offset=".07"/><stop stop-color="#9A0A5B" offset=".209"/><stop stop-color="#C20748" offset=".337"/><stop stop-color="#E0053A" offset=".451"/><stop stop-color="#F20032" offset=".548"/><stop stop-color="#FA002F" offset=".616"/><stop stop-color="#F7EE5F" offset="1"/></linearGradient></defs><path d="M41.383 24.964l.96-.345.92-.227.878-.152.923-.077.878.077.919.192.88.268.919.423.956.537.959.691.995.803 1.033.96 1.108 1.11 1.11 1.266 1.186 1.418 1.264 1.57-.69.039-.611.072-.576.039-.534.076-.537.076-.573.076-.653.113-.765.117-.689-.574-.65-.613-.689-.653-.612-.653-.649-.649-.649-.65-.613-.653-.651-.651-.651-.612-.688-.574-.651-.576-.688-.574-.727-.498-.767-.423-.766-.421-.805-.347z" fill="url(#k)"/><path d="M38.167 25.805l.727-.611.808-.307.88-.074.879.191.958.383.956.538.995.688.996.805.996.881.993.921.956.921.92.958.841.88.84.805.729.691.69.574-4.176.496-.536-.613-.536-.615-.498-.613-.533-.611-.537-.613-.534-.651-.573-.614-.535-.576-.613-.574-.612-.573-.652-.538-.688-.498-.728-.497-.766-.423-.804-.383-.843-.346z" fill="url(#j)"/><path d="M31.886 28.481l1.148-1.111 1.111-.802 1.073-.534 1.072-.307 1.072-.037 1.034.154 1.033.385.996.498.994.689.955.804.996.921.919.996.957 1.035.917 1.111.918 1.111.919 1.11-.729.04-.611.035-.498.039-.461.076-.458.076-.499.075-.571.078-.692.112-.803-1.034-.766-.919-.803-.844-.766-.728-.802-.612-.766-.538-.728-.461-.768-.382-.728-.309-.688-.229-.728-.192-.689-.152-.648-.08-.653-.074h-.649l-.612-.002z" fill="url(#k)"/><path d="M27.402 29.512l1.267-.461 1.187-.344 1.187-.189 1.109-.077 1.111.001 1.071.155 1.035.231.996.347.995.419.919.537.957.613.878.689.882.768.84.842.806.922.803.996-.803.115-.919.111-.921.115-.921.115-.842.113-.649.08-.499.037-.191-.002-.075-.075-.192-.153-.269-.268-.343-.346-.423-.42-.495-.424-.575-.496-.65-.538-.728-.499-.765-.536-.844-.5-.918-.495-.92-.424-.993-.383-1.034-.348-1.073-.229z" fill="url(#j)"/><path d="M21.735 30.196l1.034-.418 1.035-.307 1.108-.115 1.073.001 1.111.118 1.108.229 1.072.346 1.111.422 1.033.498 1.033.537.995.651.994.651.882.693.881.727.802.728.726.729-.495.037-.612.076-.689.075-.728.077-.729.075-.652.076-.573.037h-.422l-.001-.077-.191-.191-.38-.268-.574-.385-.689-.42-.805-.5-.919-.537-.956-.533-.955-.54-.996-.538-.998-.496-.916-.457-.846-.387-.762-.307-.616-.193-.495-.115z" fill="url(#k)"/><path d="M16.373 31.303l.537-.842.805-.498.996-.188h1.147l1.264.268 1.379.422 1.455.576 1.415.651 1.455.729 1.339.766 1.265.73 1.149.727.954.615.729.459.496.342.23.117-.537.116-.61.077-.653.073-.689.038-.727.078-.729.074-.688.115-.689.115-.729-.346-.688-.348-.729-.381-.688-.385-.69-.346-.688-.383-.728-.384-.688-.382-.689-.35-.688-.382-.729-.343-.688-.307-.689-.348-.727-.305-.727-.311-.729-.266z" fill="url(#j)"/><path d="M9.518 33.135l.844-.611.956-.346.996-.149 1.07.001 1.113.189 1.148.348 1.11.421 1.108.5 1.035.574 1.032.575.919.614.804.536.727.499.574.46.42.306.229.193-.612.074-.574.077-.495.076-.501.037-.536.037-.496.076-.576.078-.61.074-.537-.342-.536-.348-.574-.42-.574-.383-.612-.421-.613-.421-.612-.423-.612-.383-.614-.384-.647-.308-.652-.305-.613-.232-.648-.189-.615-.117h-.614l-.612.037z" fill="url(#g)"/><path d="M12.044 32.029l.653-.423.688-.305.652-.154.688-.074.689.037.728.152.807.27.838.308.921.423.959.459 1.07.576 1.147.614 1.265.65 1.378.692 1.49.765 1.648.768-.613.04-.689.073-.688.078-.691.112-.613.078-.457.078-.346.035-.153-.035-.075-.079-.27-.19-.345-.309-.459-.344-.573-.422-.689-.459-.729-.5-.803-.499-.879-.498-.882-.497-.955-.425-.957-.384-.959-.304-.957-.196-.92-.111-.919-.001zm-5.593 3.057l.691-.766.726-.574.729-.382.766-.229.767-.037.804.076.844.192.804.271.84.422.805.42.842.536.843.539.843.536.803.574.805.578.803.496-.459.076-.498.038-.574.116-.613.072-.649.079-.69.073-.65.078-.653.075-.229-.497-.269-.422-.305-.422-.384-.383-.383-.344-.419-.27-.5-.271-.497-.229-.536-.191-.572-.154-.58-.112-.612-.079-.65-.037-.652.001-.65.073-.689.078zm-4.713 2.523l.193-.306.306-.268.422-.228.459-.154.536-.114.612-.036.613.001.689.037.65.114.689.155.652.229.61.269.576.308.534.383.422.422.381.461-.343.076-.419.076-.42.076-.423.074-.382.037-.308.041h-.305l-.153-.078-.381-.23-.652-.307-.766-.343-.881-.309-.995-.269-.957-.154-.959.036z" fill="url(#h)"/><path d="M.818 39.178l-.036-.609.152-.461.271-.307.42-.191.497-.078.575.041.613.076.688.154.65.229.65.231.613.23.535.23.46.23.383.154.191.152.078.036-3.065.533-.27-.112-.42-.117-.459-.153-.534-.152-.536-.115-.535-.074-.499-.001-.422.074zm2.531-2.562l.612-.498.651-.383.729-.342.805-.231.806-.153.803-.11.844.001.841.072.804.156.804.27.729.307.689.383.649.461.536.535.421.613.344.689-.499.039-.457.077-.5.036-.536.076-.535.078-.574.037-.615.115-.65.072-.231-.341-.268-.308L9.244 38l-.343-.27-.382-.23-.421-.23-.423-.192-.459-.151-.459-.154-.497-.116-.46-.076-.499-.04-.497-.037-.496-.001-.499.038-.46.075z" fill="url(#g)"/><defs><linearGradient id="l" y2="-3508.4" gradientUnits="userSpaceOnUse" x2="-3636.6" gradientTransform="translate(2070.8 1900.1) scale(.5318)" y1="-3531.6" x1="-3644.5"><stop stop-color="#681083" offset="0"/><stop stop-color="#681083" offset=".001"/><stop stop-color="#8D0F6D" offset=".072"/><stop stop-color="#AD0D5A" offset=".146"/><stop stop-color="#C80A4A" offset=".223"/><stop stop-color="#DE083E" offset=".304"/><stop stop-color="#ED0335" offset=".391"/><stop stop-color="#F60030" offset=".488"/><stop stop-color="#FA002F" offset=".616"/><stop stop-color="#F7EE5F" offset="1"/></linearGradient></defs><path d="M139.69 18.299l.077.117.192.307.267.497.344.613.386.727.382.806.346.92.303.918.228.959.079.92-.05.917-.192.842-.422.768-.651.687-.919.535-1.189.384.193-.578.117-.611.113-.611.076-.689.039-.689v-.728l-.037-.69-.037-.729-.076-.729-.074-.725-.116-.69-.152-.651-.113-.651-.154-.575-.188-.574-.155-.498.191-.075.154-.04.19-.076.156-.036.153-.077.15-.039.191-.078.19-.076z" fill="url(#l)"/><path d="M138.39 18.835l.534 2.108.382 1.914.189 1.646.037 1.455-.077 1.264-.23 1.072-.307.92-.347.764-.46.613-.497.496-.498.347-.495.267-.54.191-.459.076-.42.037h-.384l.229-.613.229-.612.192-.688.154-.689.152-.767.118-.764.116-.767.075-.803.041-.806.001-.843-.041-.804-.073-.843-.114-.804-.155-.843-.188-.766-.229-.805.457-.154.463-.152.422-.152.418-.115.348-.113.381-.115.306-.076.27-.077z" fill="url(#l)"/><path d="M135.28 19.792l.231.765.227.959.155 1.073.072 1.186.041 1.303-.002 1.301-.116 1.301-.192 1.267-.271 1.187-.345 1.109-.499.957-.572.766-.731.574-.84.304-.96.04-1.108-.307.422-.691.421-.727.347-.766.307-.727.229-.803.231-.768.152-.805.154-.805.077-.804.038-.841v-.805l-.073-.842-.076-.842-.152-.806-.152-.845-.229-.803.383-.152.458-.152.461-.153.46-.153.46-.151.382-.153.346-.117.267-.074z" fill="url(#l)"/><path d="M125.55 35.674l1.036.08.997-.154.879-.381.805-.535.766-.73.652-.879.536-.994.499-1.109.384-1.188.309-1.266.192-1.3.078-1.302.001-1.301-.114-1.303-.229-1.265-.343-1.188-.422.152-.425.154-.456.114-.463.152-.458.154-.497.153-.46.152-.497.152v.804l-.001.879-.04.999-.039 1.033-.039 1.033-.038 1.072-.116 1.11-.113 1.032-.156 1.035-.17.961-.233.919-.268.806-.308.687-.384.577-.421.419-.461.267z" fill="url(#l)"/><defs><linearGradient id="m" y2="-3424.1" gradientUnits="userSpaceOnUse" x2="-3733.1" gradientTransform="translate(2110.5 1859.4) scale(.5318)" y1="-3453.4" x1="-3738.2"><stop stop-color="#681083" offset="0"/><stop stop-color="#6F1182" offset=".075"/><stop stop-color="#831380" offset=".194"/><stop stop-color="#A3157B" offset=".34"/><stop stop-color="#D11975" offset=".509"/><stop stop-color="#F21B71" offset=".616"/><stop stop-color="#F7EE5F" offset="1"/></linearGradient></defs><path d="M128.28 22.083l-.384.153-.383.114-.343.115-.386.077-.382.114-.347.113-.384.116-.38.153-.077.766-.041.84-.039.92-.038.958-.001.958-.001 1.031-.04 1.037-.039.994-.076.997-.115.994-.193.919-.191.844-.305.802-.346.727-.422.616-.536.496 1.108-.268.919-.383.767-.533.651-.614.537-.729.423-.839.306-.919.232-.959.156-1.072.112-1.11.039-1.15.042-1.225.037-1.225.039-1.264.001-1.264.078-1.303z" fill="url(#m)"/><defs><linearGradient id="n" y2="-3491.7" gradientUnits="userSpaceOnUse" x2="-3713.7" gradientTransform="translate(2070.8 1900.1) scale(.5318)" y1="-3509.7" x1="-3716.3"><stop stop-color="#681083" offset="0"/><stop stop-color="#681083" offset=".001"/><stop stop-color="#8D0F6D" offset=".072"/><stop stop-color="#AD0D5A" offset=".146"/><stop stop-color="#C80A4A" offset=".223"/><stop stop-color="#DE083E" offset=".304"/><stop stop-color="#ED0335" offset=".391"/><stop stop-color="#F60030" offset=".488"/><stop stop-color="#FA002F" offset=".616"/><stop stop-color="#F7EE5F" offset="1"/></linearGradient></defs><path d="M118.12 38.426l1.531-.074 1.304-.305 1.07-.497.882-.651.689-.842.502-.958.419-1.071.27-1.188.154-1.226.114-1.261.041-1.305.001-1.262.001-1.305.001-1.223.076-1.15.078-1.071-.421.114-.383.113-.343.117-.387.113-.382.113-.343.115-.384.077-.423.114.039.113.075.269.078.423.114.537.074.688.078.768.039.881-.04.996-.114 1.035-.195 1.145-.347 1.189-.42 1.225-.614 1.265-.766 1.339-.921 1.3-1.15 1.339z" fill="url(#n)"/><path d="M112.9 40.07l1.035.191 1.035-.073.995-.346.996-.537.956-.725.92-.881.844-1.07.769-1.188.649-1.265.576-1.378.462-1.456.309-1.489.192-1.496.041-1.531-.152-1.454-.308-1.456-3.638 1.146.037.613.037.729-.038.801-.08.92-.112.958-.192 1.034-.192 1.072-.308 1.109-.347 1.109-.421 1.073-.461 1.071-.575 1.035-.612.995-.729.919-.805.841-.883.727z" fill="url(#n)"/><defs><linearGradient id="o" y2="-3473.3" gradientUnits="userSpaceOnUse" x2="-3712.4" gradientTransform="translate(2070.8 1900.1) scale(.5318)" y1="-3513" x1="-3716.5"><stop stop-color="#681083" offset="0"/><stop stop-color="#681083" offset=".001"/><stop stop-color="#8D0F6D" offset=".072"/><stop stop-color="#AD0D5A" offset=".146"/><stop stop-color="#C80A4A" offset=".223"/><stop stop-color="#DE083E" offset=".304"/><stop stop-color="#ED0335" offset=".391"/><stop stop-color="#F60030" offset=".488"/><stop stop-color="#FA002F" offset=".616"/><stop stop-color="#F7EE5F" offset="1"/></linearGradient></defs><path d="M118.66 24.987l-.573.189-.729.191-.807.268-.84.229-.806.27-.804.227-.689.191-.537.115-.076.881-.042.955-.075.959-.038.995-.117.995-.077 1.037-.115.994-.153.996-.19.956-.232.921-.309.916-.344.842-.422.807-.498.688-.536.65-.65.576.766.114.803-.038.804-.19.805-.343.804-.5.807-.612.768-.763.766-.958.689-1.034.611-1.227.578-1.339.495-1.528.388-1.65.307-1.758.194-1.955.077-2.066z" fill="url(#o)"/><path d="M103.98 41.593l1.725.081 1.455-.154 1.265-.418.998-.653.841-.802.691-.958.497-1.072.386-1.224.308-1.225.19-1.343.116-1.3.117-1.302.038-1.303.078-1.188.075-1.11.117-.995-.535.114-.463.115-.419.153-.418.112-.463.117-.422.111-.496.154-.576.151-.116 1.038-.112.992-.116.996-.156.955-.116.961-.153.918-.189.879-.194.881-.269.844-.308.841-.382.805-.422.806-.536.801-.576.767-.689.728-.77.726z" fill="url(#n)"/><path d="M99.349 42.433l1.532.078 1.34-.192 1.188-.418 1.036-.65.88-.805.766-.957.615-1.107.537-1.188.458-1.227.347-1.3.269-1.266.194-1.299.19-1.226.116-1.15.116-1.073.079-.919-.539.117-.459.112-.42.115-.423.077-.38.113-.425.074-.495.152-.576.115-.192 1.496-.229 1.417-.27 1.301-.269 1.226-.31 1.109-.345 1.071-.383.919-.384.883-.383.803-.425.727-.459.613-.422.573-.459.536-.461.42-.498.383-.459.345z" fill="url(#o)"/><defs><linearGradient id="p" y2="-3493.5" gradientUnits="userSpaceOnUse" x2="-3709.7" gradientTransform="translate(2070.8 1900.1) scale(.5318)" y1="-3514" x1="-3711.2"><stop stop-color="#681083" offset="0"/><stop stop-color="#681083" offset=".001"/><stop stop-color="#8D0F6D" offset=".072"/><stop stop-color="#AD0D5A" offset=".146"/><stop stop-color="#C80A4A" offset=".223"/><stop stop-color="#DE083E" offset=".304"/><stop stop-color="#ED0335" offset=".391"/><stop stop-color="#F60030" offset=".488"/><stop stop-color="#FA002F" offset=".616"/><stop stop-color="#F7EE5F" offset="1"/></linearGradient></defs><path d="M94.98 43.004l1.457.078 1.302-.189 1.151-.424 1.071-.611.881-.802.805-.919.69-1.072.614-1.146.535-1.189.422-1.263.347-1.264.308-1.262.271-1.188.192-1.149.152-1.031.155-.922-.459.076-.46.116-.462.114-.459.115-.462.115-.458.112-.46.114-.497.117-.038.725-.116.805-.153.843-.269.918-.27.995-.382.957-.385 1.033-.422.998-.499.996-.537.957-.534.879-.577.84-.574.806-.614.69-.649.572-.617.459z" fill="url(#p)"/><defs><linearGradient id="q" y2="-3483" gradientUnits="userSpaceOnUse" x2="-3716.7" gradientTransform="translate(2070.8 1900.1) scale(.5318)" y1="-3510.1" x1="-3718.5"><stop stop-color="#681083" offset="0"/><stop stop-color="#681083" offset=".001"/><stop stop-color="#8D0F6D" offset=".072"/><stop stop-color="#AD0D5A" offset=".146"/><stop stop-color="#C80A4A" offset=".223"/><stop stop-color="#DE083E" offset=".304"/><stop stop-color="#ED0335" offset=".391"/><stop stop-color="#F60030" offset=".488"/><stop stop-color="#FA002F" offset=".616"/><stop stop-color="#F7EE5F" offset="1"/></linearGradient></defs><path d="M90.197 43.881l1.49.193 1.38-.191 1.264-.496 1.15-.766 1.073-.955.921-1.148.84-1.301.77-1.341.613-1.415.537-1.381.46-1.302.384-1.262.23-1.074.192-.88.114-.65.001-.381-.573.111-.537.115-.535.152-.536.115-.536.152-.5.113-.497.115-.499.078-.191.651-.19.765-.229.879-.271.996-.308 1.035-.343 1.071-.384 1.069-.424 1.114-.461 1.07-.497.995-.537.959-.574.842-.653.725-.65.574-.728.422-.765.229z" fill="url(#q)"/><path d="M86.712 43.688l1.377.307 1.223.001 1.113-.267 1.034-.535.882-.729.805-.881.727-1.068.652-1.15.539-1.226.498-1.261.384-1.265.385-1.227.307-1.147.231-1.035.23-.918.189-.727-.419.076-.423.038-.38.075-.347.076-.384.076-.346.078-.305.074-.345.041-.118.879-.189.919-.232.917-.228.883-.309.918-.347.881-.382.844-.461.842-.46.842-.537.804-.615.765-.61.688-.729.69-.727.611-.806.574-.879.535z" fill="url(#q)"/><path d="M82.345 44.374l1.147.002 1.112-.115 1.07-.268 1.037-.384.956-.533.959-.65.842-.763.841-.842.73-.96.69-1.032.614-1.15.573-1.186.461-1.264.385-1.34.347-1.379.23-1.414-.498.113-.499.076-.536.115-.496.074-.497.078-.459.112-.5.077-.459.115-.231.805-.191.842-.231.805-.194.803-.23.804-.228.804-.307.766-.346.804-.42.767-.463.803-.576.766-.688.766-.768.729-.918.765-1.073.766-1.188.726z" fill="url(#o)"/><path d="M76.14 45.095l1.495.118 1.454-.076 1.34-.229 1.266-.382 1.187-.497 1.112-.649 1.033-.768.918-.917.844-.955.767-1.073.693-1.148.573-1.222.496-1.304.425-1.34.307-1.377.233-1.381-.423.076-.46.117-.456.074-.461.075-.459.078-.5.114-.497.076-.5.115-.152.955-.23.957-.31.96-.383.917-.457.918-.502.918-.574.882-.648.843-.691.844-.767.762-.808.727-.879.689-.921.611-.995.575-.997.497-1.072.419z" fill="url(#o)"/><path d="M72.732 45.475l1.264-.075 1.226-.189 1.228-.306 1.186-.458 1.112-.536 1.109-.648 1.034-.729.958-.842.881-.917.843-.993.73-1.076.65-1.109.536-1.184.46-1.226.348-1.267.229-1.299-.419.074-.385.037-.346.039-.343.039-.346.037-.382.077-.456.076-.539.075-.537 1.112-.459 1.031-.46.997-.422.919-.46.881-.424.805-.461.764-.498.727-.537.729-.613.649-.688.69-.765.611-.884.65-.996.611-1.108.612-1.265.61z" fill="url(#n)"/><path d="M66.604 45.855l1.877.077 1.763-.073 1.57-.267 1.455-.422 1.34-.572 1.187-.691 1.113-.801.993-.92.921-.993.844-1.072.729-1.109.688-1.189.652-1.184.577-1.187.538-1.227.496-1.187-.343.036-.461.078-.573.076-.575.076-.613.115-.537.076-.456.076-.347.035-.46 1.074-.499 1.074-.577.994-.573.955-.652.881-.688.879-.729.804-.804.807-.804.727-.885.688-.917.688-.96.613-.995.572-1.072.535-1.072.496-1.149.46z" fill="url(#o)"/><path d="M62.966 46.387L64 46.35l1.071-.152 1.15-.269 1.186-.419 1.188-.495 1.189-.613 1.188-.726 1.187-.803 1.149-.918 1.111-.957 1.035-1.07.999-1.15.879-1.188.804-1.262.691-1.34.576-1.38-.575.079-.575.074-.611.037-.612.077-.536.037-.461.077-.382.076-.192.115-.69.535-.689.575-.729.688-.729.688-.727.766-.767.802-.767.844-.768.845-.766.879-.804.842-.805.842-.845.84-.842.843-.845.763-.838.768-.882.688z" fill="url(#n)"/><path d="M57.375 46.383l.997.654 1.032.268 1.034.001 1.073-.268 1.071-.536 1.073-.729 1.111-.916 1.11-1.033 1.112-1.188 1.148-1.225 1.189-1.301 1.188-1.299 1.188-1.264 1.226-1.264 1.228-1.148 1.226-1.031h-.425l-.494.074-.576.038-.573.116-.613.079-.612.113-.572.115-.5.075-.956.88-.957.88-.923.919-.919.919-.881.916-.883.921-.88.92-.845.84-.844.84-.842.768-.805.688-.804.613-.805.535-.767.459-.766.343-.767.229z" fill="url(#o)"/><path d="M53.046 46.879l1.572.001 1.492-.151 1.342-.385 1.304-.494 1.187-.614 1.109-.765 1.075-.84.995-.92.997-.994.956-1.033.921-1.035.959-1.07.959-1.07.994-1.034 1.035-.957 1.072-.918-.382.04-.458.037-.577.074-.572.041-.577.073-.459.038-.382.041-.229-.001-.651.151-.652.306-.649.423-.692.573-.689.687-.729.805-.766.844-.769.915-.88.958-.883.955-.997.996-1.032.959-1.111.955-1.188.88-1.264.802-1.381.729z" fill="url(#n)"/><path d="M138.27 15.35v-.153l.04-.42.038-.649.04-.807.039-.957-.037-1.033-.038-1.072-.111-1.111-.229-1.033-.309-.996-.38-.882-.572-.728-.654-.537-.843-.307-1.034-.039-1.186.306.385.384.343.459.345.574.306.613.305.689.27.689.264.767.271.804.228.767.19.806.194.803.188.766.155.768.152.727.114.65.113.613.19-.037.154-.037.189-.078.155-.037.151-.079.155-.075.192-.037.226-.078z" fill="url(#j)"/><defs><linearGradient id="r" y2="-3558.3" gradientUnits="userSpaceOnUse" x2="-3702.7" gradientTransform="translate(2070.8 1900.1) scale(.5318)" y1="-3526.3" x1="-3690.9"><stop stop-color="#4F0C81" offset="0"/><stop stop-color="#690C73" offset=".07"/><stop stop-color="#9A0A5B" offset=".209"/><stop stop-color="#C20748" offset=".337"/><stop stop-color="#E0053A" offset=".451"/><stop stop-color="#F20032" offset=".548"/><stop stop-color="#FA002F" offset=".616"/><stop stop-color="#F7EE5F" offset="1"/></linearGradient></defs><path d="M136.86 15.925l-.497-2.489-.535-2.108-.535-1.801-.532-1.492-.539-1.188-.534-.958-.533-.689-.499-.497-.536-.347-.458-.153-.502-.039-.42.078-.419.152-.382.191-.348.229-.306.23.536.497.533.573.462.538.494.611.424.615.422.648.382.652.344.691.344.727.306.766.307.768.268.805.227.842.23.842.227.882.194.919.457-.077.345-.036.232-.077.153-.077.151-.037.156-.076.18-.04.229-.075z" fill="url(#r)"/><path d="M134.94 16.651l-.113-.918-.194-1.035-.305-1.15-.379-1.226-.5-1.264-.571-1.227-.611-1.187-.688-1.111-.729-.996-.765-.843-.803-.65-.842-.425-.881-.152-.882.152-.842.499-.882.878.688.498.65.576.613.574.574.576.574.611.496.689.459.691.42.688.423.769.343.767.345.805.267.842.267.879.193.92.189.959.155.994.416-.114.461-.152.499-.153.498-.191.461-.189.421-.154.344-.151.23-.077z" fill="url(#j)"/><path d="M120.02 6.607l.919-.612.92-.344.957-.115.919.115.958.307.919.5.882.689.843.805.762.919.766 1.073.65 1.188.572 1.226.496 1.305.384 1.376.306 1.38.151 1.416-.46.115-.459.116-.46.15-.46.154-.497.191-.499.113-.457.154-.498.075-.346-.88-.305-.959-.383-.957-.348-.957-.379-.996-.419-.998-.423-.956-.421-.918-.456-.884-.499-.805-.533-.766-.539-.651-.609-.575-.615-.459-.648-.346-.69-.19z" fill="url(#r)"/><path d="M115.8 7.75l1.455-.648 1.302-.344 1.149-.038 1.034.193.919.421.806.65.724.807.65.957.575 1.072.495 1.188.5 1.229.457 1.225.457 1.264.421 1.264.459 1.188.497 1.111-.421.037-.384.115-.383.113-.385.152-.381.118-.384.151-.421.114-.422.074-.038-.151-.038-.383-.114-.498-.114-.689-.189-.803-.27-.92-.306-.996-.42-1.034-.494-1.034-.574-1.035-.728-1.035-.803-.958-.96-.918-1.07-.767-1.228-.691-1.375-.5z" fill="url(#j)"/><path d="M110.37 8.552l.882-.651.997-.42 1.069-.153 1.072.04 1.149.229 1.148.461 1.108.615 1.111.768 1.07.956.997 1.075.878 1.225.805 1.342.687 1.416.537 1.533.342 1.57.19 1.687-3.945 1.029-.228-.649-.307-.77-.306-.803-.382-.881-.461-.92-.457-.956-.537-.961-.573-.956-.652-.957-.725-.92-.766-.842-.803-.808-.878-.728-.959-.613-.996-.537-1.07-.421z" fill="url(#r)"/><path d="M120.5 21.387l-.572.115-.727.152-.729.23-.808.229-.764.267-.729.191-.649.189-.536.152-.382-.957-.421-.995-.422-.996-.42-1.036-.421-1.032-.458-.997-.498-.995-.497-.997-.533-.918-.573-.845-.614-.804-.651-.727-.65-.652-.728-.537-.804-.423-.804-.306.692-.459.764-.344.806-.23.88-.075.918.076.959.231.957.383.992.576.999.728.993.92.995 1.149.954 1.304.919 1.532.917 1.723.843 1.992.802 2.184z" fill="url(#j)"/><path d="M101.29 11.34l1.571-.841 1.415-.498 1.304-.114 1.187.193 1.032.458.996.691.841.883.805 1.073.688 1.188.649 1.265.573 1.341.534 1.34.536 1.302.498 1.265.458 1.148.456 1.035-.534.076-.459.112-.422.079-.422.114-.421.114-.459.115-.498.076-.572.112-.5-1.033-.458-1.036-.46-.994-.458-.958-.459-.958-.495-.88-.5-.881-.495-.806-.575-.807-.61-.727-.612-.688-.688-.652-.769-.615-.801-.536-.92-.498-.956-.46z" fill="url(#j)"/><path d="M96.537 12.715l1.419-.765 1.339-.383 1.265-.075 1.225.191 1.111.461 1.069.689.996.844.921.998.841 1.149.802 1.187.726 1.227.652 1.264.611 1.266.537 1.148.455 1.111.423.957-.574.113-.5.115-.46.113-.421.076-.458.115-.461.115-.536.076-.613.115-.688-1.533-.688-1.417-.646-1.302-.651-1.188-.614-1.071-.573-.961-.61-.84-.574-.807-.612-.651-.613-.575-.611-.498-.65-.421-.653-.308-.685-.269-.731-.155-.765-.113z" fill="url(#r)"/><path d="M92.937 13.747l1.378-.65 1.307-.308 1.222.001 1.19.233 1.07.458 1.033.654.956.844.92.957.802 1.072.766 1.148.726 1.188.613 1.188.609 1.189.5 1.15.456 1.033.421.959-.459.113-.42.113-.424.076-.383.116-.421.077-.42.075-.462.113-.496.077-.231-.765-.342-.845-.42-.842-.497-.919-.535-.919-.651-.921-.649-.92-.728-.92-.765-.841-.805-.846-.803-.766-.804-.652-.843-.613-.805-.498-.802-.383-.806-.23z" fill="url(#j)"/><path d="M88.608 14.852l1.417-.762 1.38-.345 1.379.039 1.301.385 1.264.612 1.226.879 1.149 1.038 1.069 1.147.995 1.229.881 1.264.8 1.227.65 1.187.536 1.036.422.879.23.652.113.383-.574.115-.498.113-.498.115-.5.115-.496.115-.459.074-.499.077-.497.076-.344-.651-.384-.804-.458-.882-.537-.921-.571-1.033-.614-1.034-.646-.997-.691-1.034-.727-.959-.767-.881-.802-.804-.803-.652-.844-.537-.844-.345-.878-.152-.882.035z" fill="url(#r)"/><path d="M85.468 16.077l1.266-.842 1.224-.459 1.149-.113 1.149.19 1.071.461 1.033.692.958.842.915 1.035.844 1.113.805 1.184.727 1.229.687 1.225.574 1.15.535 1.073.421.918.383.766-.46.077-.382.114-.344.115-.308.113-.347.114-.305.115-.308.078-.343.073-.344-.955-.421-.958-.422-.921-.46-.918-.537-.919-.531-.844-.613-.844-.65-.805-.689-.767-.764-.688-.765-.614-.844-.574-.919-.5-.919-.421-.996-.308-1.071-.229z" fill="url(#j)"/><path d="M81.483 16.993l1.113-.422 1.109-.266 1.148-.077 1.074.078 1.109.231 1.032.345 1.034.536 1.034.652.956.768.918.92.881.996.842 1.112.802 1.226.689 1.34.688 1.418.571 1.491-.498.077-.495.076-.501.115-.497.153-.496.115-.498.153-.497.115-.5.074-.343-.842-.343-.882-.347-.843-.342-.883-.422-.842-.419-.805-.501-.842-.534-.767-.649-.729-.688-.728-.805-.652-.88-.613-.996-.537-1.11-.498-1.261-.424-1.381-.344z" fill="url(#r)"/><path d="M75.815 18.329l1.455-.609 1.457-.385 1.34-.189 1.34-.037 1.265.191 1.226.346 1.147.498 1.111.652.992.805.994.919.884 1.036.84 1.15.764 1.264.652 1.34.611 1.381.535 1.491-.459.077-.46.076-.536.078-.501.074-.533.078-.538.074-.535.076-.535.076-.269-1.072-.383-.994-.42-.996-.533-.959-.575-.881-.651-.843-.688-.805-.766-.729-.842-.689-.916-.574-.959-.539-.995-.459-1.071-.346-1.112-.307-1.146-.191-1.188-.078z" fill="url(#j)"/><path d="M73.021 18.632l1.302-.19 1.262-.113 1.263.039 1.228.154 1.224.307 1.15.385 1.109.498 1.073.613.995.729.954.844.844.919.803 1.034.688 1.149.611 1.226.499 1.341.38 1.419-.46.035-.383.038-.382.077-.384.077-.384.074-.382.078-.46.114-.496.076-.651-1.111-.613-1.073-.532-.958-.5-.956-.535-.844-.498-.804-.497-.767-.572-.69-.612-.651-.688-.575-.768-.535-.842-.498-.995-.425-1.072-.382-1.264-.346-1.415-.308z" fill="url(#r)"/><path d="M66.933 19.432l1.914-.457 1.8-.268 1.646-.075 1.531.154 1.417.307 1.302.461 1.187.573 1.074.77 1.03.842.917.96.844 1.034.802 1.112.728 1.147.688 1.227.612 1.226.611 1.265-.307.037-.42.037-.459.115-.501.076-.496.115-.462.114-.419.036-.346.039-.571-1.148-.613-1.035-.689-.996-.726-.918-.766-.883-.805-.806-.879-.726-.919-.69-.956-.616-.996-.573-1.034-.498-1.07-.498-1.111-.423-1.147-.383-1.189-.346-1.222-.309z" fill="url(#j)"/><path d="M63.295 19.811l1.068-.189 1.113-.037 1.225.038 1.263.192 1.267.271 1.3.384 1.303.497 1.302.614 1.3.729 1.224.845 1.186.92 1.147 1.035 1.035 1.149.956 1.225.841 1.342.728 1.455-.537.039-.533.076-.538.115-.536.113-.459.113-.385.117-.306.036-.19-.037-.769-.46-.763-.537-.804-.613-.843-.689-.843-.729-.878-.768-.92-.768-.916-.802-.959-.806-.956-.807-.995-.803-.996-.729-1.033-.729-.995-.652-1.071-.613-1.031-.537z" fill="url(#j)"/><path d="M58.197 21.262l.958-.955 1.034-.572 1.074-.23 1.109.077 1.148.308 1.225.575 1.227.769 1.3.879 1.301 1.074 1.341 1.11 1.34 1.19 1.34 1.188 1.377 1.188 1.377 1.112 1.376 1.035 1.381.92-.421.074-.499.037-.612.041-.613.037-.648.037h-1.227l-.497-.002-1.034-.766-.993-.804-.996-.808-.918-.842-.919-.805-.883-.807-.878-.805-.88-.767-.919-.688-.879-.651-.92-.575-.956-.5-.996-.422-1.034-.345-1.073-.192-1.11-.117z" fill="url(#j)"/><defs><linearGradient id="s" y2="-3537.7" gradientUnits="userSpaceOnUse" x2="-3797.3" gradientTransform="translate(2070.8 1900.1) scale(.5318)" y1="-3509.7" x1="-3772.4"><stop stop-color="#4F0C81" offset="0"/><stop stop-color="#690C73" offset=".07"/><stop stop-color="#9A0A5B" offset=".209"/><stop stop-color="#C20748" offset=".337"/><stop stop-color="#E0053A" offset=".451"/><stop stop-color="#F20032" offset=".548"/><stop stop-color="#FA002F" offset=".616"/><stop stop-color="#F7EE5F" offset="1"/></linearGradient></defs><path d="M54.368 21.719l1.61-.381 1.493-.152 1.415.076 1.343.271 1.262.461 1.226.575 1.186.729 1.148.805 1.11.919 1.109.922 1.071.995 1.111.996 1.109.958 1.107.959 1.188.843 1.185.807-.38.037-.498.075-.576.078-.576.036-.572.079-.5.072-.38.041-.231.037-.688-.002-.69-.189-.727-.348-.766-.496-.766-.614-.843-.728-.879-.807-.919-.844-.959-.881-1.031-.918-1.109-.882-1.148-.844-1.262-.808-1.302-.728-1.379-.651-1.494-.5z" fill="url(#s)"/><path d="M49.543 23.057l1.417-.805 1.495-.342h1.455l1.49.309 1.495.576 1.494.804 1.454.96 1.415 1.034 1.339 1.149 1.302 1.15 1.263 1.075 1.148.993 1.033.844.956.65.843.385.726.116-.61.077-.653.113-.727.113-.765.117-.767.074-.767.115-.728.038-.651.04-1.07-.806-.958-.766-.879-.767-.84-.728-.767-.73-.726-.725-.767-.691-.726-.651-.729-.612-.804-.576-.841-.537-.919-.496-.996-.461-1.071-.383-1.226-.348-1.34-.307z" fill="url(#s)"/><defs><linearGradient id="t" y2="4209.6" gradientUnits="userSpaceOnUse" x2="-3482.4" gradientTransform="translate(-1982.9 3021.4) scale(.5318)" y1="4158" x1="-3498.5"><stop stop-color="#D8E7EB" offset="0"/><stop stop-color="#C9D9DE" offset=".085"/><stop stop-color="#A5B8C2" offset=".218"/><stop stop-color="#728896" offset=".384"/><stop stop-color="#405766" offset=".554"/><stop stop-color="#667D8B" offset=".642"/><stop stop-color="#92A7B1" offset=".742"/><stop stop-color="#B7C8D0" offset=".837"/><stop stop-color="#CFDFE4" offset=".926"/><stop stop-color="#D8E7EB" offset="1"/></linearGradient></defs><g fill="url(#t)"><defs><linearGradient id="u" y2="-3442.3" gradientUnits="userSpaceOnUse" x2="-3688.8" gradientTransform="translate(2110.5 1859.4) scale(.5318)" y1="-3493.9" x1="-3704.9"><stop stop-color="#D8E7EB" offset="0"/><stop stop-color="#C9D9DE" offset=".085"/><stop stop-color="#A5B8C2" offset=".218"/><stop stop-color="#728896" offset=".384"/><stop stop-color="#405766" offset=".554"/><stop stop-color="#667D8B" offset=".642"/><stop stop-color="#92A7B1" offset=".742"/><stop stop-color="#B7C8D0" offset=".837"/><stop stop-color="#CFDFE4" offset=".926"/><stop stop-color="#D8E7EB" offset="1"/></linearGradient></defs><path d="M142.3 7.35l.191-.383.153-.42.152-.423.113-.421.117-.459.115-.496.077-.459.042-.5.036-.459.035-.498.001-.499-.035-.46-.036-.459-.08-.457-.112-.461-.114-.42.611.804.459.882.345.842.189.88.076.919v.92l-.116.918-.194.92-.228.918-.31.883-.343.879-.343.88-.385.843-.347.842-.346.765-.343.767.074-.152.037-.269.042-.266v-.345l.037-.424V11.6l.001-.496.038-.499v-.498l.039-.534.04-.498.038-.461.078-.461.075-.42.116-.383zm11.67 15.902l-.729-.422-.729-.462-.687-.421-.688-.422-.65-.383-.651-.422-.616-.385-.609-.42-.653-.384-.607-.384-.614-.422-.652-.382-.611-.386-.654-.342-.686-.386-.689-.382.61.61.613.616.613.611.612.576.65.611.651.536.65.539.688.497.651.461.689.383.651.346.688.269.688.229.688.115.691.037.691-.035z" fill="url(#u)"/><path d="M148.28 7.928l-.536.308-.5.345-.495.345-.461.344-.46.343-.419.383-.424.421-.423.383-.384.422-.384.422-.382.421-.345.457-.383.422-.346.459-.344.459-.346.459.153-.496.192-.499.191-.537.229-.534.231-.536.265-.499.31-.498.346-.495.382-.46.461-.381.498-.385.537-.344.612-.269.652-.229.765-.152.805-.076zm-5.71-4.599l-.153.767-.114.767-.154.766-.116.689-.076.727-.114.689-.079.689-.115.689-.08.688-.117.689-.074.651-.118.689-.116.689-.115.689-.15.689-.157.727-.076-.842-.113-.805-.077-.843-.076-.841-.037-.807-.038-.805.039-.805.039-.764.076-.767.116-.688.194-.689.229-.651.269-.573.384-.537.422-.46.497-.421z" fill="url(#u)"/><path d="M146.67 2.071l.692.648.416.729.189.766.04.805-.153.804-.307.843-.424.844-.498.841-.575.804-.611.805-.653.764-.65.689-.614.689-.534.572-.463.539-.383.418.077-1.147.154-.995.191-.844.307-.764.306-.65.386-.574.382-.535.424-.501.383-.496.424-.495.382-.538.307-.613.307-.688.23-.766.194-.919.075-1.032z" fill="url(#u)"/><path d="M141.76 14.319v-.805l-.039-.765-.034-.765-.04-.768-.036-.729-.077-.727-.076-.727-.073-.691-.117-.688-.114-.728-.189-.689-.152-.689-.19-.688-.268-.689-.229-.689-.306-.689 1.111 1.073.918 1.034.649.959.457.92.309.879.151.805.037.806-.077.727-.195.689-.187.651-.27.613-.271.533-.23.537-.229.459-.152.459-.078.383zm11.22 2.651l-.613.114-.614.116-.611.075-.613.075-.609.038-.616.037h-1.188l-.612-.039h-.574l-.613-.077-.573-.038-.613-.04-.575-.075-.612-.079-.574-.075.498.229.498.192.535.231.537.19.574.193.576.151.61.156.61.076.612.039h.651l.651-.039.654-.15.651-.191.651-.27.648-.381.654-.46z" fill="url(#u)"/><path d="M149.42 20.07l.461.078.419.075.461.115.457.115.463.194.456.151.421.191.46.23.421.23.421.267.383.271.386.268.343.307.308.307.304.307.27.344-.269-.917-.422-.808-.494-.688-.615-.651-.688-.536-.768-.5-.85-.42-.882-.347-.919-.306-.919-.307-.955-.231-.958-.23-.957-.193-.919-.189-.843-.154-.842-.192.42.153.574.306.69.463.841.497.843.535.879.499.842.46.768.308zm1.75 6.856l.345-.881.117-.844-.116-.842-.307-.766-.457-.729-.612-.727-.728-.69-.804-.614-.843-.613-.879-.536-.919-.538-.884-.459-.801-.42-.767-.387-.651-.344-.496-.309.532 1.113.538.919.573.728.536.652.574.498.574.459.574.346.574.346.571.346.577.382.572.384.536.46.537.573.535.691.497.806.498.995z" fill="url(#u)"/><path d="M141.53 17.497l.422.652.42.652.421.65.38.613.346.613.345.649.346.614.305.613.304.652.268.65.271.613.229.65.19.689.192.65.152.689.152.73.384-1.455.191-1.265.041-1.149-.115-.994-.229-.844-.346-.766-.42-.652-.458-.537-.538-.499-.535-.421-.573-.346-.537-.306-.496-.306-.46-.268-.342-.307-.31-.271z" fill="url(#u)"/></g></g></svg>