<svg id="Layer_1" xmlns="http://www.w3.org/2000/svg" viewBox="0 0 612 792"><style>.st0{fill:#34313f}</style><path class="st0" d="M310.3 379.2h21.1c6 0 9.8-3.3 9.8-8.6 0-5-3.8-8.6-9.8-8.6h-21.1c-.7 0-1.3.6-1.3 1.2V378c.1.7.6 1.2 1.3 1.2zm0 34.1h21.8c6.7 0 10.7-3.4 10.7-9.4 0-5.2-3.8-9.4-10.7-9.4h-21.8c-.7 0-1.3.6-1.3 1.2V412c.1.8.6 1.3 1.3 1.3z"/><path class="st0" d="M387.5 284.4l-62.4 62.2h10.2c15.9 0 25.3 10 25.3 20.9 0 8.6-5.8 14.9-12 17.7-1 .4-1 1.8.1 2.2 7.2 2.8 12.3 10.3 12.3 19.1 0 12.4-8.3 22.3-24.4 22.3h-44.2c-.7 0-1.3-.6-1.3-1.2v-47.1l-68.5 68.2c-.9.9-.3 2.5 1 2.5h164.7c.6 0 1.1-.5 1.1-1.1V285.3c.3-1.1-1.1-1.7-1.9-.9z"/></svg>