<?xml version="1.0" encoding="UTF-8" standalone="no"?>
<svg
   xmlns="http://www.w3.org/2000/svg"
   version="1.1"
   x="0px"
   y="0px"
   viewBox="0 0 45.657001 45.549999"
   width="45.657001"
   height="45.549999">
   <g
     transform="matrix(0.99999437,0,0,1,-2.5273326,-8.025)">
        <path
           d="m 30.5,42.1 2.1,2.1 -10.4,0 -0.2,-10.6 2.8,2.8 18.9,-19 C 43,16.5 42.2,15.6 41.4,14.7 32.5,5.8 18.1,5.8 9.2,14.7 3.5,20.4 1.4,28.4 3.1,35.7 L 19.5,19.3 17,16.2 28.3,16.2 28.3,28 25.4,25.2 6.8,44 c 0.7,1 1.5,2 2.5,2.9 8.9,8.9 23.3,8.9 32.2,0 5.8,-5.8 7.8,-13.9 6.1,-21.4 L 30.5,42.1 Z"
           style="fill:#5a5a59" />
   </g>
</svg>
