<svg xmlns="http://www.w3.org/2000/svg" viewBox="0 0 534.00001 242" height="242" width="534"><defs><radialGradient id="k" spreadMethod="pad" gradientTransform="translate(337.87 976.07) scale(135.27)" gradientUnits="userSpaceOnUse" r="1" cy="0" cx="0" fy="-.181" fx=".62"><stop offset="0" stop-color="#fff"/><stop offset=".001" stop-color="#fff"/><stop offset=".133" stop-color="#f6eb08"/><stop offset=".859" stop-color="#eb821a"/><stop offset="1" stop-color="#eb821a"/></radialGradient><clipPath id="i"><path d="M5212.8 939.52l-18 36.011-20 33.999-28 44-28 36-34 42-34 35.99-40 38.01-38 31.99-42 30-42 26.01-46.5 26-39.5 20-40 16-36 10-36 8-36 6-42 4-2748-6-44-2-44-2-48-6.01-40-7.99-52-12.01-36-11.99-38-14-38-13.5-48-24.5-36-18-46-30-42-32-44-36.01-38-37.99-30-36-32-42-24-42-18-35.999-10-34.011-6.64-28.211h4074.25l-11.61 28.211z"/></clipPath><linearGradient id="j" gradientTransform="matrix(0 -468.741 -468.741 0 3187.29 1381.09)" gradientUnits="userSpaceOnUse" x2="1"><stop offset="0" stop-color="#f57c14"/><stop offset=".061" stop-color="#f57c14"/><stop offset="1" stop-color="#9e3539"/></linearGradient><clipPath id="g"><path d="M5192.46 1066.59c0 268.02-217.19 485.3-485.11 485.3-267.91 0-485.1-217.28-485.1-485.3 0-37.78 4.45-74.5 12.61-109.789h944.98c8.17 35.289 12.62 72.009 12.62 109.789z"/></clipPath><linearGradient id="h" gradientTransform="scale(-453.222 453.222) rotate(-71.161 -2.952 9.265)" gradientUnits="userSpaceOnUse" x2="1"><stop offset="0" stop-color="#fff"/><stop offset=".803" stop-color="#f57d14"/><stop offset="1" stop-color="#f57d14"/></linearGradient><clipPath id="e"><path d="M2223.9 947.762c0 293.878-238.14 532.128-531.91 532.128s-531.92-238.25-531.92-532.128c0-1.043.08-2.051.08-3.082h1063.67c.01 1.031.08 2.039.08 3.082z"/></clipPath><linearGradient id="f" gradientTransform="scale(1751.07 -1751.07) rotate(56.997 1.336 .019)" gradientUnits="userSpaceOnUse" x2="1"><stop offset="0" stop-color="#fff"/><stop offset=".803" stop-color="#f57d14"/><stop offset="1" stop-color="#f57d14"/></linearGradient><clipPath id="c"><path d="M2443.21 1615.69c-49.44-179.67-235.17-285.23-414.85-235.79-179.67 49.44-285.23 235.18-235.79 414.83 49.44 179.68 235.16 285.26 414.83 235.82 179.68-49.45 285.26-235.19 235.81-414.86z"/></clipPath><linearGradient id="d" gradientTransform="scale(356.64 -356.64) rotate(60.384 7.594 1.826)" gradientUnits="userSpaceOnUse" x2="1"><stop offset="0" stop-color="#fff"/><stop offset=".803" stop-color="#f57d14"/><stop offset="1" stop-color="#f57d14"/></linearGradient><linearGradient id="b" gradientTransform="rotate(-90 599.358 311.542) scale(99.12637)" gradientUnits="userSpaceOnUse" x2="1"><stop offset="0" stop-color="#f57d14"/><stop offset="1" stop-color="#fff"/></linearGradient><radialGradient id="a" spreadMethod="pad" gradientTransform="translate(422.72 945.976) scale(101.06288)" gradientUnits="userSpaceOnUse" r="1" cy="0" cx="0" fy=".051" fx="-.024"><stop offset="0" stop-color="#fff"/><stop offset=".002" stop-color="#fff"/><stop offset=".19" stop-color="#f6eb08"/><stop offset=".859" stop-color="#eb821a"/><stop offset="1" stop-color="#eb821a"/></radialGradient></defs><path d="M414.382 881.298l12.002-42 1.749.25 1.25 44 22.5-37.25 2 1-10.5 42.25 31.876-30.25 1.624 1.5-21.5 38.25 38.75-20.5 1.25 1.5-30.75 31.5 42.75-9.75 1 1.75-38 22.25 44 1.625v1.875l-42.5 11.75 42.25 12.5v1.75l-44 .75 37.25 23.25-1 2-42.374-10.75 29.875 31.75-1 1.75-38-21.75 20.375 38.5-1.875 1.5-31.25-30.75 10.25 42.25-2 1.25-22.252-37.75-.686 43.5-2.312.5-12.002-42-12.5 42-2.248-.5v-43.5l-1.25-.5-24.25 36.5 10.5-42.25-32 30-1.75-1.5 21.75-38-39 20.25-1.25-1.5 30.748-31-42.998 9.5-.5-1.75 38-22.25-43.5-1.75-.75-1.75 42.187-12-41.687-12.25.25-2 43.75-.75-37-22.5.25-2 42.875 10.75-30.375-32 1.5-1.75 38.5 21-21-38 1.25-1.5 32.25 30.75-10.502-42.75-.358-.75 25.297 38 .563-44.25h2.5l11.998 42" fill="url(#a)" fill-rule="evenodd" transform="translate(.5 -810.362)"/><path d="M533.563 212.463c0-41.94-33.998-75.938-75.938-75.938-16.94 0-32.583 5.551-45.214 14.929a127.159 127.159 0 0 0 2.401-24.616C414.813 56.94 358.15.275 288.25.275c-55.661 0-102.929 35.933-119.875 85.866a56.701 56.701 0 0 0-34.141-11.366c-31.454 0-56.953 25.499-56.953 56.954 0 4.87.614 9.595 1.764 14.107C35.42 147.106.437 182.844.437 226.775c0 5.11.495 10.103 1.4 14.95h525.874a75.69 75.69 0 0 0 5.851-29.262" fill="#f57c14"/><path d="M399.445 937.266c0 61.651-50.144 100.652-111.795 100.652s-111.463-39-111.463-100.652c0-61.651 49.978-111.629 111.63-111.629 61.65 0 111.628 49.978 111.628 111.629" fill="url(#b)" fill-rule="evenodd" transform="translate(.5 -810.362)"/><path d="M382.848 127.608c0 37.702-42.642 68.266-95.24 68.266-52.598 0-95.237-30.564-95.237-68.266 0-37.703 42.639-68.267 95.238-68.267 52.597 0 95.239 30.564 95.239 68.267" fill="#f57c14" fill-rule="evenodd"/><g clip-path="url(#c)" transform="matrix(.125 0 0 -.125 -130.196 345.136)"><path d="M2443.21 1615.69c-49.44-179.67-235.17-285.23-414.85-235.79-179.67 49.44-285.23 235.18-235.79 414.83 49.44 179.68 235.16 285.26 414.83 235.82 179.68-49.45 285.26-235.19 235.81-414.86" fill="url(#d)"/></g><path d="M168.8 115.904c7.151 12.385-1.79 30.935-19.97 41.431-18.18 10.498-38.716 8.965-45.866-3.42-7.152-12.386 1.789-30.935 19.97-41.431 18.18-10.498 38.715-8.966 45.866 3.42" fill="#f57c14" fill-rule="evenodd"/><g clip-path="url(#e)" transform="matrix(.125 0 0 -.125 -130.196 345.136)"><path d="M2223.9 947.762c0 293.878-238.14 532.128-531.91 532.128s-531.92-238.25-531.92-532.128c0-1.043.08-2.051.08-3.082h1063.67c.01 1.031.08 2.039.08 3.082" fill="url(#f)"/></g><g clip-path="url(#g)" transform="matrix(.125 0 0 -.125 -130.196 345.136)"><path d="M5192.46 1066.59c0 268.02-217.19 485.3-485.11 485.3-267.91 0-485.1-217.28-485.1-485.3 0-37.78 4.45-74.5 12.61-109.789h944.98c8.17 35.289 12.62 72.009 12.62 109.789" fill="url(#h)"/></g><g clip-path="url(#i)" transform="matrix(.125 0 0 -.125 -130.196 345.136)"><path d="M5212.8 939.52l-18 36.011-20 33.999-28 44-28 36-34 42-34 35.99-40 38.01-38 31.99-42 30-42 26.01-46.5 26-39.5 20-40 16-36 10-36 8-36 6-42 4-2748-6-44-2-44-2-48-6.01-40-7.99-52-12.01-36-11.99-38-14-38-13.5-48-24.5-36-18-46-30-42-32-44-36.01-38-37.99-30-36-32-42-24-42-18-35.999-10-34.011-6.64-28.211h4074.25l-11.61 28.211" fill="url(#j)"/></g><path d="M421.924 951.748l45.999 60.25-1.75 1.25-53.75-48.25-206.25 37.5-.25-2 191.75-44-105.5-36 1.25-1.5 128.5 32.75" fill="url(#k)" fill-rule="evenodd" transform="translate(.5 -810.362)"/></svg>