<svg id="svg" version="1.1" width="1000" height="1000" xmlns="http://www.w3.org/2000/svg" xmlns:xlink="http://www.w3.org/1999/xlink" style="display: block;"><g id="svgg"><path id="path0" d="" stroke="none" fill="#000000" fill-rule="evenodd"></path><path id="path1" d="M247.098 226.702 C 237.254 236.548,229.200 244.751,229.200 244.932 C 229.200 245.112,230.032 246.545,231.048 248.117 C 256.277 287.117,307.229 300.663,348.745 279.409 C 355.790 275.802,365.382 268.997,369.592 264.620 L 370.984 263.173 362.392 254.670 C 357.666 249.993,350.076 242.508,345.523 238.036 L 337.247 229.904 334.904 231.942 C 312.093 251.782,274.721 240.857,266.347 211.900 C 265.854 210.195,265.349 208.800,265.224 208.800 C 265.099 208.800,256.942 216.856,247.098 226.702 " stroke="none" fill="#ffffff" fill-rule="evenodd"></path><path id="path2" d="M17.281 2.409 C 9.527 4.440,3.603 10.007,1.026 17.686 L 0.000 20.741 -0.000 199.686 C -0.000 395.265,-0.179 380.506,2.246 385.290 C 5.363 391.443,10.100 395.352,17.000 397.465 C 19.314 398.174,25.857 398.200,200.200 398.200 L 381.000 398.200 384.185 397.074 C 390.241 394.934,394.586 391.277,397.387 385.963 C 400.243 380.546,400.000 397.863,400.000 199.686 L 400.000 20.741 398.999 17.759 C 396.346 9.855,390.546 4.432,382.562 2.390 C 377.781 1.168,21.949 1.186,17.281 2.409 M128.458 110.818 C 147.818 112.770,166.383 121.146,181.103 134.568 L 183.261 136.536 166.930 152.893 C 147.696 172.158,149.797 170.566,146.890 168.079 C 119.389 144.558,76.861 164.118,77.051 200.200 C 77.228 233.756,114.293 253.408,142.676 234.996 C 146.424 232.564,145.109 233.837,196.407 183.003 C 246.018 133.839,247.604 132.303,252.400 128.746 C 288.036 102.313,334.861 104.495,368.520 134.155 L 371.240 136.552 364.120 143.703 C 360.204 147.636,352.549 155.179,347.109 160.466 L 337.218 170.078 335.109 168.294 C 319.996 155.516,297.891 154.514,282.295 165.900 C 279.316 168.074,276.795 170.540,220.400 226.449 C 179.260 267.234,176.788 269.567,169.800 274.207 C 117.594 308.870,46.324 281.662,31.580 221.439 C 16.817 161.142,66.372 104.557,128.458 110.818 M267.112 213.400 C 276.631 241.198,311.124 251.020,334.038 232.458 L 337.476 229.673 354.333 246.536 L 371.190 263.400 368.542 265.800 C 326.965 303.487,260.632 295.033,231.073 248.281 L 228.746 244.600 247.073 226.546 C 257.153 216.616,265.446 208.606,265.503 208.746 C 265.559 208.886,266.283 210.980,267.112 213.400 " stroke="none" fill="#2c3f51" fill-rule="evenodd"></path><path id="path3" d="M113.100 110.682 C 113.595 110.778,114.405 110.778,114.900 110.682 C 115.395 110.587,114.990 110.509,114.000 110.509 C 113.010 110.509,112.605 110.587,113.100 110.682 M123.500 110.682 C 123.995 110.778,124.805 110.778,125.300 110.682 C 125.795 110.587,125.390 110.509,124.400 110.509 C 123.410 110.509,123.005 110.587,123.500 110.682 M301.700 110.687 C 302.305 110.778,303.295 110.778,303.900 110.687 C 304.505 110.595,304.010 110.520,302.800 110.520 C 301.590 110.520,301.095 110.595,301.700 110.687 M310.500 110.687 C 311.105 110.778,312.095 110.778,312.700 110.687 C 313.305 110.595,312.810 110.520,311.600 110.520 C 310.390 110.520,309.895 110.595,310.500 110.687 M181.183 134.900 C 182.164 135.945,183.019 136.800,183.083 136.800 C 183.384 136.800,183.066 136.441,181.300 134.783 L 179.400 133.000 181.183 134.900 M241.992 137.900 L 238.200 141.800 242.100 138.008 C 245.722 134.486,246.182 134.000,245.892 134.000 C 245.833 134.000,244.078 135.755,241.992 137.900 M368.800 134.525 C 368.800 134.594,369.385 135.179,370.100 135.825 L 371.400 137.000 370.225 135.700 C 369.130 134.488,368.800 134.216,368.800 134.525 M54.985 136.900 L 53.000 139.000 55.100 137.015 C 57.051 135.171,57.383 134.800,57.085 134.800 C 57.022 134.800,56.077 135.745,54.985 136.900 M357.397 150.100 L 347.000 160.600 357.500 150.203 C 363.275 144.484,368.000 139.759,368.000 139.703 C 368.000 139.420,367.059 140.343,357.397 150.100 M160.597 158.900 L 149.800 169.800 160.700 159.003 C 170.829 148.969,171.780 148.000,171.497 148.000 C 171.441 148.000,166.536 152.905,160.597 158.900 M117.500 157.893 C 118.435 157.977,119.965 157.977,120.900 157.893 C 121.835 157.809,121.070 157.740,119.200 157.740 C 117.330 157.740,116.565 157.809,117.500 157.893 M305.700 157.891 C 306.525 157.978,307.875 157.978,308.700 157.891 C 309.525 157.805,308.850 157.734,307.200 157.734 C 305.550 157.734,304.875 157.805,305.700 157.891 M205.397 174.100 L 194.600 185.000 205.500 174.203 C 211.495 168.264,216.400 163.359,216.400 163.303 C 216.400 163.020,215.431 163.971,205.397 174.100 M270.196 176.900 L 262.600 184.600 270.300 177.004 C 277.454 169.946,278.181 169.200,277.896 169.200 C 277.839 169.200,274.374 172.665,270.196 176.900 M28.950 199.800 C 28.951 202.220,29.016 203.158,29.096 201.885 C 29.176 200.612,29.175 198.632,29.094 197.485 C 29.014 196.338,28.949 197.380,28.950 199.800 M161.997 217.100 L 151.000 228.200 162.100 217.203 C 168.205 211.154,173.200 206.159,173.200 206.103 C 173.200 205.820,172.217 206.785,161.997 217.100 M227.397 219.300 L 216.600 230.200 227.500 219.403 C 237.629 209.369,238.580 208.400,238.297 208.400 C 238.241 208.400,233.336 213.305,227.397 219.300 M237.800 235.600 C 234.506 238.900,231.900 241.600,232.010 241.600 C 232.120 241.600,234.906 238.900,238.200 235.600 C 241.494 232.300,244.100 229.600,243.990 229.600 C 243.880 229.600,241.094 232.300,237.800 235.600 M342.000 234.600 C 344.743 237.350,347.078 239.600,347.188 239.600 C 347.298 239.600,345.143 237.350,342.400 234.600 C 339.657 231.850,337.322 229.600,337.212 229.600 C 337.102 229.600,339.257 231.850,342.000 234.600 M118.300 242.282 C 118.795 242.378,119.605 242.378,120.100 242.282 C 120.595 242.187,120.190 242.109,119.200 242.109 C 118.210 242.109,117.805 242.187,118.300 242.282 M187.796 258.500 L 180.600 265.800 187.900 258.604 C 194.682 251.919,195.381 251.200,195.096 251.200 C 195.039 251.200,191.754 254.485,187.796 258.500 M240.000 260.125 C 240.000 260.194,240.585 260.779,241.300 261.425 L 242.600 262.600 241.425 261.300 C 240.330 260.088,240.000 259.816,240.000 260.125 M114.505 289.487 C 115.114 289.579,116.014 289.577,116.505 289.482 C 116.997 289.387,116.500 289.311,115.400 289.314 C 114.300 289.317,113.897 289.395,114.505 289.487 M122.300 289.482 C 122.795 289.578,123.605 289.578,124.100 289.482 C 124.595 289.387,124.190 289.309,123.200 289.309 C 122.210 289.309,121.805 289.387,122.300 289.482 " stroke="none" fill="#4f8ab3" fill-rule="evenodd"></path><path id="path4" d="M111.787 110.796 C 56.367 115.449,18.138 168.509,31.811 221.800 C 45.935 276.850,107.015 305.100,158.600 280.440 C 172.358 273.863,172.437 273.795,217.800 228.810 C 287.467 159.725,281.431 165.405,289.002 161.812 C 304.130 154.633,323.538 157.373,335.311 168.349 L 337.222 170.130 353.711 153.779 C 362.780 144.786,370.370 137.288,370.577 137.117 C 371.386 136.450,364.494 130.442,357.600 125.804 C 325.887 104.469,283.126 105.746,252.258 128.950 C 247.919 132.212,244.797 135.246,194.800 184.806 C 171.150 208.249,150.360 228.782,148.600 230.435 C 120.724 256.605,75.488 236.243,76.900 198.161 C 78.229 162.316,119.675 145.164,148.000 168.736 L 149.400 169.901 166.177 153.353 L 182.955 136.805 181.777 135.550 C 166.267 119.011,137.044 108.676,111.787 110.796 M349.600 242.200 C 351.017 243.630,352.267 244.800,352.377 244.800 C 352.487 244.800,351.417 243.630,350.000 242.200 C 348.583 240.770,347.333 239.600,347.223 239.600 C 347.113 239.600,348.183 240.770,349.600 242.200 M230.181 243.300 L 228.600 245.000 230.300 243.419 C 231.881 241.948,232.184 241.600,231.881 241.600 C 231.816 241.600,231.051 242.365,230.181 243.300 " stroke="none" fill="#5fabdd" fill-rule="evenodd"></path></g></svg>