<?xml version="1.0" encoding="utf-8"?>
<!-- Generator: Adobe Illustrator 15.0.0, SVG Export Plug-In . SVG Version: 6.00 Build 0)  -->
<!DOCTYPE svg PUBLIC "-//W3C//DTD SVG 1.1//EN" "http://www.w3.org/Graphics/SVG/1.1/DTD/svg11.dtd">
<svg version="1.1" id="Layer_1" xmlns="http://www.w3.org/2000/svg" xmlns:xlink="http://www.w3.org/1999/xlink" x="0px" y="0px"
	 width="500px" height="500px" viewBox="0 0 500 500" enable-background="new 0 0 500 500" xml:space="preserve">
<g>
	<g>
		<path fill="#2C4052" d="M500,470.837C500,486.949,486.94,500,470.837,500H29.164C13.056,500,0,486.949,0,470.837V29.164
			C0,13.06,13.056,0,29.164,0h441.673C486.94,0,500,13.06,500,29.164V470.837z"/>
	</g>
	<path fill="#5FAADA" d="M304.107,170.151c-0.336,0.335-0.66,0.679-0.99,1.018l-0.021-0.02L186.099,288.146
		c-9.981,9.691-23.093,15.031-37.03,15.031c-14.204,0-27.562-5.531-37.601-15.58c-20.734-20.729-20.734-54.467,0-75.202
		c10.039-10.043,23.392-15.575,37.601-15.575c14.2,0,27.553,5.532,37.601,15.575l42.246-42.25
		c-21.329-21.325-49.686-33.072-79.847-33.072c-30.162,0-58.522,11.747-79.847,33.076c-44.033,44.029-44.033,115.706,0,159.735
		C90.546,351.215,118.907,363,149.064,363c0.004,0,0,0,0.004,0c30.161,0,58.521-11.785,79.847-33.113l-0.011-0.02L300.766,258h0.006
		l44.802-44.812l0.021,0.017c0.258-0.267,0.497-0.544,0.765-0.806c20.729-20.729,54.462-20.736,75.196-0.001l42.25-42.25
		C419.776,126.119,348.133,126.118,304.107,170.151z"/>
	<g>
		<path fill="#FFFFFF" d="M383.954,303.18c-14.204,0-27.558-5.533-37.596-15.58c-7.648-7.645-12.467-17.058-14.473-26.938
			l-45.745,45.746c4.826,8.384,10.808,16.279,17.963,23.439c21.328,21.329,49.688,33.076,79.851,33.076s58.521-11.747,79.852-33.076
			l-42.25-42.244C411.512,297.646,398.159,303.18,383.954,303.18z"/>
	</g>
</g>
</svg>
