<?xml version="1.0" encoding="utf-8"?>
<!-- Generator: Adobe Illustrator 18.0.0, SVG Export Plug-In . SVG Version: 6.00 Build 0)  -->
<!DOCTYPE svg PUBLIC "-//W3C//DTD SVG 1.1//EN" "http://www.w3.org/Graphics/SVG/1.1/DTD/svg11.dtd">
<svg version="1.1" id="Layer_1" xmlns="http://www.w3.org/2000/svg" xmlns:xlink="http://www.w3.org/1999/xlink" x="0px" y="0px"
	 viewBox="0 0 1709 768" enable-background="new 0 0 1709 768" xml:space="preserve">
<g>
	<polygon fill="#E82C2A" points="1154.2,134.3 1154.2,555.4 1280.6,555.4 1280.6,491.1 1238.8,491.1 1238.8,70.2 1154.1,70.2 	"/>
	<path fill="#E82C2A" d="M55.9,491.1h43V287.9h-43v-55.9l43-7.1v-56.6c0-68.5,14.9-98.2,102.3-98.2c18.9,0,41.2,2.8,60.8,6.3
		l-11.6,68.9c-13.3-2.1-19.8-2.5-28.2-2.5c-30.8,0-38.6,3.1-38.6,33.1V225h63.9v62.9h-63.9v203.1h42.5v64.3l-170.2,0V491.1z"/>
	<path fill="#E82C2A" d="M1111.1,470.7c-13.2,2.8-24.8,2.5-33.2,2.7c-34.8,0.9-31.8-10.6-31.8-43.5v-142h66.3V225H1046V70.2h-84.7
		v377.3c0,74.1,18.3,107.9,98,107.9c18.9,0,44.8-4.9,64.4-9L1111.1,470.7z"/>
	<path fill="#E82C2A" d="M1637.2,491.4c17.8,0,32.2,14.1,32.2,32c0,17.8-14.4,31.9-32.2,31.9c-17.8,0-32.1-14.1-32.1-31.9
		C1605.1,505.6,1619.4,491.4,1637.2,491.4 M1637.2,550.3c14.8,0,26.8-12.1,26.8-26.9c0-14.8-12-26.6-26.8-26.6
		c-14.8,0-26.7,11.8-26.7,26.6C1610.5,538.2,1622.4,550.3,1637.2,550.3 M1643.1,539.1l-6.5-9.5h-4.5v9.5h-7.2v-31.4h13.1
		c7.8,0,12.6,3.9,12.6,10.9c0,5.1-2.6,8.6-6.6,9.8l7.8,10.8H1643.1z M1632.2,523.3h5.7c3.3,0,5.5-1.3,5.5-4.7c0-3.3-2.2-4.6-5.3-4.6
		h-5.9V523.3z"/>
	<path fill="#E82C2A" d="M855.6,287.8v-11.3c-25.6-4.7-51.1-4.7-64.9-4.7c-39.4,0-44.2,20.9-44.2,32.2c0,16,5.5,24.7,48.2,34
		c62.4,14,125.1,28.6,125.1,106c0,73.4-37.8,111.3-117.3,111.3c-53.2,0-104.8-11.4-144.2-21.4v-63.2h64.1l0,11.2
		c27.6,5.3,56.5,4.8,71.6,4.8c42,0,48.8-22.6,48.8-34.6c0-16.7-12.1-24.7-51.5-32.7c-74.2-12.7-133.2-38-133.2-113.5
		c0-71.4,47.7-99.4,127.3-99.4c53.9,0,94.8,8.4,134.2,18.4v62.8H855.6z"/>
	<path fill="#E82C2A" d="M465.9,343.4l-6.4-6.4l-32.7,28.5c-1.7-0.6-3.4-0.9-5.3-0.9c-8.8,0-16,7.4-16,16.4c0,9.1,7.2,16.4,16,16.4
		c8.8,0,16-7.4,16-16.4c0-1.7-0.3-3.4-0.7-4.9L465.9,343.4z"/>
	<path fill="#E82C2A" d="M595.6,470.7l-0.1-263.6h-84.7v24.7c-17.4-10.5-36.9-17.9-57.6-21.8h0.5v-29.2h10.3v-21.5h-85.3v21.5h10.3
		v29.2h0.6c-81,14.9-142.4,85.8-142.4,171.2c0,96.2,77.9,174.1,174.1,174.1c32.8,0,63.5-9.1,89.7-24.9l15.3,24.9h89.5v-84.7H595.6z
		 M426.5,470.6v-10h-10.1v9.9c-45.5-2.6-81.8-39.2-84.2-84.7h10.1v-10.1h-10c2.7-45.2,38.9-81.4,84.1-84v10h10.1v-10
		c44.6,2.4,80.5,37.4,84.4,81.5v2.9h-10.2v10.1h10.2l0,2.8C507.1,433.2,471.1,468.2,426.5,470.6z"/>
	<path fill="#E82C2A" d="M1495,225h174.7v62.9h-41.8l-107.1,263.6c-30.7,74-81.1,143.7-157.9,143.7c-18.9,0-44-2.1-61.5-6.3
		l7.7-76.9c11.2,2.1,25.8,3.5,33.5,3.5c35.6,0,75.8-22.1,88.4-60.5l-108.6-267.1h-41.8V225h174.8v62.9h-41.7l61.5,151.3l0,0
		l61.5-151.3H1495V225z"/>
</g>
</svg>
