<svg id="Layer_1" data-name="Layer 1" xmlns="http://www.w3.org/2000/svg" viewBox="0 0 822.8 225.8"><defs><style>.cls-1,.cls-2{fill:#0098f7;}.cls-2{stroke:#231f20;stroke-miterlimit:10;stroke-width:5px;}</style></defs><title>Froala</title><path class="cls-1" d="M171.85,89.65A16.16,16.16,0,0,0,159.39,84H64.87c-9,0-16.6,7.74-16.6,16.9V139.3a16.45,16.45,0,0,0,32.9,0V115.14h78.5a15.63,15.63,0,0,0,15.46-12.94A15.14,15.14,0,0,0,171.85,89.65Z" transform="translate(-48.27 -72.94)"/><path class="cls-1" d="M151.81,181a16.05,16.05,0,0,0-11.44-4.85H64.06a15.81,15.81,0,0,0-15.79,15.79v88.69a16.88,16.88,0,0,0,5,11.92,16,16,0,0,0,11.35,4.7h0.17a16.45,16.45,0,0,0,16.41-16.6v-73.4h59.3A15.61,15.61,0,0,0,156.16,192,15.1,15.1,0,0,0,151.81,181Z" transform="translate(-48.27 -72.94)"/><path class="cls-2" d="M78.67,178.64" transform="translate(-48.27 -72.94)"/><path class="cls-1" d="M281.31,155.17c-5.29-6.22-16-7.52-24.14-7.52-16.68,0-28.72,7.71-36.5,23.47v-5.67a16.15,16.15,0,1,0-32.3,0v115.5a16.15,16.15,0,1,0,32.3,0v-38.7c0-19.09,3.5-63.5,35.9-63.5a44.73,44.73,0,0,1,5.95.27h0.12c12.79,1.2,20.06-2.73,21.6-11.69C285,162.48,284,158.39,281.31,155.17Z" transform="translate(-48.27 -72.94)"/><path class="cls-1" d="M420.1,168c-13.93-13.11-32.9-20.33-53.43-20.33s-39.43,7.22-53.28,20.33C298.72,181.86,291,200.8,291,222.74c0,21.68,8,41.28,22.4,55.2,13.92,13.41,32.85,20.8,53.3,20.8s39.44-7.38,53.44-20.79c14.55-13.94,22.56-33.54,22.56-55.21S434.65,181.67,420.1,168Zm-9.73,54.77c0,25.84-18.38,44.6-43.7,44.6S323,248.59,323,222.74c0-25.15,18.38-43.4,43.7-43.4S410.37,197.59,410.37,222.74Z" transform="translate(-48.27 -72.94)"/><path class="cls-1" d="M601,149.14a16.17,16.17,0,0,0-16,16.3v1c-10.29-11.63-27.74-18.84-46.7-18.84-19.83,0-38.19,7.24-51.69,20.4-14.33,14-21.91,33-21.91,55,0,21.61,7.78,41.16,21.9,55,13.56,13.33,31.92,20.67,51.7,20.67,18.83,0,36.29-7.41,46.7-19.37v1.57a16.15,16.15,0,1,0,32.3,0V165.44A16.32,16.32,0,0,0,601,149.14Zm-16.3,73.6c0,30.44-22.81,44.3-44,44.3-24.57,0-43.1-19-43.1-44.3s18.13-43.4,43.1-43.4C562,179.34,584.67,194.55,584.67,222.74Z" transform="translate(-48.27 -72.94)"/><path class="cls-1" d="M671.77,72.94a16.17,16.17,0,0,0-16,16.3v191.7a16.15,16.15,0,1,0,32.3,0V89.24A16.32,16.32,0,0,0,671.77,72.94Z" transform="translate(-48.27 -72.94)"/><path class="cls-1" d="M854.77,149.14a16.17,16.17,0,0,0-16,16.3v1c-10.29-11.63-27.74-18.84-46.7-18.84-19.83,0-38.19,7.24-51.69,20.4-14.33,14-21.91,33-21.91,55,0,21.61,7.78,41.16,21.9,55,13.56,13.33,31.92,20.67,51.7,20.67,18.83,0,36.29-7.41,46.7-19.37v1.57a16.15,16.15,0,1,0,32.3,0V165.44A16.32,16.32,0,0,0,854.77,149.14Zm-16.3,73.6c0,30.44-22.81,44.3-44,44.3-24.57,0-43.1-19-43.1-44.3s18.13-43.4,43.1-43.4C815.8,179.34,838.47,194.55,838.47,222.74Z" transform="translate(-48.27 -72.94)"/></svg>