<?xml version="1.0" encoding="utf-8"?>
<!-- Generator: Adobe Illustrator 21.1.0, SVG Export Plug-In . SVG Version: 6.00 Build 0)  -->
<svg version="1.1" id="Layer_1" xmlns="http://www.w3.org/2000/svg" xmlns:xlink="http://www.w3.org/1999/xlink" x="0px" y="0px"
	 viewBox="0 0 595.3 841.9" style="enable-background:new 0 0 595.3 841.9;" xml:space="preserve">
<style type="text/css">
	.st0{fill-rule:evenodd;clip-rule:evenodd;fill:#D7207D;}
	.st1{fill:#FFFFFF;}
</style>
<g>
	<path class="st0" d="M230.1,414l61.9-61.9c3.9-3.9,10.2-3.9,14.1,0l61.9,61.9c3.9,3.9,3.9,10.2,0,14.1L306.1,490
		c-3.9,3.9-10.2,3.9-14.1,0l-61.9-61.9C226.2,424.2,226.2,417.9,230.1,414z"/>
	<g>
		<path class="st1" d="M282.7,457.8l14.8,14.8c0.8,0.8,2,0.8,2.8,0l25.1-25.1l-17.7-17.7L282.7,455C282,455.8,282,457,282.7,457.8z"
			/>
		<path class="st1" d="M297.6,369.4l-14.8,14.8c-0.8,0.8-0.8,2,0,2.8l51.6,51.6l16.3-16.3c0.8-0.8,0.8-2,0-2.8l-50.2-50.2
			C299.6,368.6,298.4,368.6,297.6,369.4z"/>
	</g>
</g>
</svg>
