<?xml version="1.0" encoding="utf-8"?>
<!-- Generator: Adobe Illustrator 17.0.0, SVG Export Plug-In . SVG Version: 6.00 Build 0)  -->
<!DOCTYPE svg PUBLIC "-//W3C//DTD SVG 1.1//EN" "http://www.w3.org/Graphics/SVG/1.1/DTD/svg11.dtd">
<svg version="1.1" id="Layer_1" xmlns="http://www.w3.org/2000/svg" xmlns:xlink="http://www.w3.org/1999/xlink" x="0px" y="0px"
	 width="2267.72px" height="2267.72px" viewBox="0 0 2267.72 2267.72" enable-background="new 0 0 2267.72 2267.72"
	 xml:space="preserve">
<g>
	<path fill-rule="evenodd" clip-rule="evenodd" d="M1219.309,1021.244c69.311,0,125.497,56.186,125.497,125.496
		c0,69.31-56.186,125.496-125.497,125.496V1021.244L1219.309,1021.244z M380.517,993.622c-83.46,0-151.118,67.657-151.118,151.118
		c0,83.46,67.658,151.118,151.118,151.118V993.622L380.517,993.622z M890.918,993.622c83.46,0,151.118,67.658,151.118,151.118
		c0,83.46-67.658,151.118-151.118,151.118V993.622L890.918,993.622z M890.918,1017.928v250.993
		c69.31,0,125.496-56.186,125.496-125.496C1016.415,1074.114,960.229,1017.928,890.918,1017.928L890.918,1017.928z
		 M380.517,1017.927v250.993c-69.311,0-125.497-56.187-125.497-125.496C255.02,1074.113,311.206,1017.927,380.517,1017.927
		L380.517,1017.927z M380.517,993.622v24.306V993.622L380.517,993.622z M1219.309,995.882v302.236
		c83.46,0,151.118-67.658,151.118-151.118C1370.427,1063.54,1302.77,995.882,1219.309,995.882L1219.309,995.882z M1142.693,1021.244
		h76.617v-25.362h-50.372l130.686-126.286h-42.8l-114.659,115.716L1142.693,1021.244L1142.693,1021.244z M204.034,1270.367V917.683
		h-27.482h-23.506v25.495h23.506v327.188v28.17h27.482V1270.367L204.034,1270.367z M737.687,1017.928v-24.306h153.232v24.306
		H787.376v250.992h103.543v0.001v26.936H509.445v103.713h-27.477h-23.505v-25.494h23.505v-78.218H380.517v-26.937h101.451v-249.931
		h27.477v249.931h252.568v-250.992H737.687L737.687,1017.928z M380.517,1017.928v-24.306h153.232v24.306H380.517L380.517,1017.928z
		 M1092.318,1272.497V919.814h-27.482h-23.506v25.494h23.506v327.188v25.622h154.474v-25.622H1092.318z"/>
	<path fill-rule="evenodd" clip-rule="evenodd" fill="none" stroke="#000000" stroke-width="0.5" stroke-miterlimit="2.6131" d="
		M1219.309,1021.244c69.311,0,125.497,56.186,125.497,125.496c0,69.31-56.186,125.496-125.497,125.496 M380.517,993.622
		c-83.46,0-151.118,67.657-151.118,151.118c0,83.46,67.658,151.118,151.118,151.118 M890.918,993.622
		c83.46,0,151.118,67.658,151.118,151.118c0,83.46-67.658,151.118-151.118,151.118 M890.918,1017.928
		c69.31,0,125.496,56.186,125.496,125.496c0,69.311-56.186,125.496-125.496,125.496 M380.517,1017.927
		c-69.311,0-125.497,56.186-125.497,125.497c0,69.31,56.186,125.496,125.497,125.496 M380.517,993.622v24.306 M1219.309,995.882
		c83.46,0,151.118,67.658,151.118,151.118c0,83.46-67.658,151.118-151.118,151.118 M1142.693,1021.244h76.617v-25.362h-50.372
		l130.686-126.286h-42.8l-114.659,115.716L1142.693,1021.244L1142.693,1021.244z M204.034,1270.367V917.683h-27.482h-23.506v25.495
		h23.506v327.188v28.17h27.482V1270.367L204.034,1270.367z M737.687,1017.928h24.327v250.992H509.445v-249.931h-27.477v249.931
		H380.517v26.937h101.451v78.218h-23.505v25.494h23.505h27.477v-103.713h381.473v-26.936v-0.001H787.376v-250.992h103.543v-24.306
		H737.687V1017.928L737.687,1017.928z M380.517,1017.928h153.232v-24.306H380.517V1017.928L380.517,1017.928z M1092.318,1272.497
		V919.814h-27.482h-23.506v25.494h23.506v327.188v25.622h154.474v-25.622H1092.318z"/>
</g>
<g>
	<g>
		
			<path fill-rule="evenodd" clip-rule="evenodd" fill="none" stroke="#000000" stroke-width="23.9998" stroke-miterlimit="2.6131" d="
			M2075.437,1277.961c-22.163,2.487-44.683,3.811-67.52,3.811c-167.263,0-318.3-68.579-425.956-178.811
			c15.652-133.332,129.008-236.786,266.545-236.786c156.004,0,268.409,131.895,268.409,268.409
			C2116.916,1187.311,2101.7,1236.48,2075.437,1277.961z"/>
		
			<path fill-rule="evenodd" clip-rule="evenodd" fill="none" stroke="#000000" stroke-width="23.9998" stroke-miterlimit="2.6131" d="
			M2103.123,1219.717c-23.825,2.884-48.079,4.395-72.693,4.395c-170.719,0-324.529-71.448-432.567-185.704
			c38.675-100.727,136.302-172.234,250.644-172.234c156.004,0,268.409,131.895,268.409,268.409
			C2116.916,1164.342,2112.063,1192.965,2103.123,1219.717z"/>
		
			<path fill-rule="evenodd" clip-rule="evenodd" fill="none" stroke="#000000" stroke-width="23.9998" stroke-miterlimit="2.6131" d="
			M2114.399,1171.344c-20.327,2.085-40.955,3.169-61.84,3.169c-169.741,0-322.774-70.624-430.714-183.737
			c47.62-74.899,131.333-124.602,226.662-124.602c156.004,0,268.409,131.895,268.409,268.409
			C2116.916,1147.056,2116.046,1159.324,2114.399,1171.344z"/>
		<linearGradient id="SVGID_1_" gradientUnits="userSpaceOnUse" x1="1580.0979" y1="1134.5836" x2="2116.9158" y2="1134.5828">
			<stop  offset="0" style="stop-color:#00A884"/>
			<stop  offset="0.5" style="stop-color:#51B958"/>
			<stop  offset="1" style="stop-color:#85C441"/>
		</linearGradient>
		
			<path fill-rule="evenodd" clip-rule="evenodd" fill="url(#SVGID_1_)" stroke="#000000" stroke-width="23.9998" stroke-miterlimit="2.6131" d="
			M1848.507,866.174c156.004,0,268.409,131.895,268.409,268.409c0,148.238-120.171,268.409-268.409,268.409
			c-157.903,0-268.409-127.963-268.409-268.409C1580.098,986.345,1700.269,866.174,1848.507,866.174z"/>
		
			<path fill-rule="evenodd" clip-rule="evenodd" fill="none" stroke="#000000" stroke-width="23.9998" stroke-miterlimit="2.6131" d="
			M1621.725,990.969c7.818,37.928,11.929,77.188,11.929,117.397c0,53.512-7.311,105.329-20.927,154.572
			c-20.802-38.13-32.628-81.861-32.628-128.355C1580.098,1081.756,1595.37,1032.499,1621.725,990.969z"/>
		
			<path fill-rule="evenodd" clip-rule="evenodd" fill="none" stroke="#000000" stroke-width="23.9998" stroke-miterlimit="2.6131" d="
			M1693.879,915.174c22.752,62.141,35.178,129.167,35.178,199.067c0,81.796-15.147,162.277-45.824,232.974
			c-61.711-49.177-103.135-127.59-103.135-212.633C1580.098,1043.923,1623.333,961.667,1693.879,915.174z"/>
		
			<path fill-rule="evenodd" clip-rule="evenodd" fill="none" stroke="#000000" stroke-width="23.9998" stroke-miterlimit="2.6131" d="
			M1862.236,866.52c39.224,78.197,61.31,166.278,61.31,259.471c0,100.197-25.507,194.498-70.425,276.942
			c-1.537,0.026-3.072,0.059-4.614,0.059c-157.903,0-268.409-127.963-268.409-268.409c0-148.238,120.171-268.409,268.409-268.409
			C1853.111,866.174,1857.688,866.291,1862.236,866.52z"/>
		
			<path fill-rule="evenodd" clip-rule="evenodd" fill="none" stroke="#000000" stroke-width="23.9998" stroke-miterlimit="2.6131" d="
			M1911.491,873.625c37.925,77.151,59.215,163.768,59.215,255.304c0,96.626-23.722,187.771-65.696,268.085
			c-18.219,3.904-37.118,5.978-56.503,5.978c-157.903,0-268.409-127.963-268.409-268.409c0-148.238,120.171-268.409,268.409-268.409
			C1870.202,866.174,1891.288,868.767,1911.491,873.625z"/>
		
			<path fill-rule="evenodd" clip-rule="evenodd" fill="none" stroke="#000000" stroke-width="23.9998" stroke-miterlimit="2.6131" d="
			M1966.364,893.383c32.945,72.838,51.286,153.541,51.286,238.483c0,87.671-19.549,170.819-54.519,245.471
			c-34.763,16.444-73.615,25.655-114.624,25.655c-157.903,0-268.409-127.963-268.409-268.409
			c0-148.238,120.171-268.409,268.409-268.409C1890.792,866.174,1930.785,875.965,1966.364,893.383z"/>
		
			<path fill-rule="evenodd" clip-rule="evenodd" fill="none" stroke="#000000" stroke-width="23.9998" stroke-miterlimit="2.6131" d="
			M1815.858,868.155c37.8,77.049,59.012,163.523,59.012,254.899c0,99.965-25.394,194.06-70.119,276.368
			c-137.088-22.48-224.653-137.71-224.653-264.839C1580.098,997.398,1683.02,884.266,1815.858,868.155z"/>
		
			<path fill-rule="evenodd" clip-rule="evenodd" fill="none" stroke="#000000" stroke-width="23.9998" stroke-miterlimit="2.6131" d="
			M2034.605,941.181c23.217,65.437,33.238,130.118,33.238,193.624c0,67.613-11.645,132.529-32.996,192.945
			c-48.276,46.581-113.957,75.243-186.34,75.243c-157.903,0-268.409-127.963-268.409-268.409
			c0-148.238,120.171-268.409,268.409-268.409C1920.768,866.174,1986.351,894.739,2034.605,941.181z"/>
		
			<path fill-rule="evenodd" clip-rule="evenodd" fill="none" stroke="#000000" stroke-width="23.9998" stroke-miterlimit="2.6131" d="
			M1772.606,877.077c34.256,74.023,53.37,156.322,53.37,243.04c0,96.604-23.71,187.728-65.667,268.029
			c-114.574-39.849-180.212-140.654-180.212-253.562C1580.098,1012.708,1661.334,909.824,1772.606,877.077z"/>
		
			<path fill-rule="evenodd" clip-rule="evenodd" fill="none" stroke="#000000" stroke-width="23.9998" stroke-miterlimit="2.6131" d="
			M1732.829,892.321c29.192,69.229,45.338,145.176,45.338,224.858c0,90.671-26.366,170.979-63.62,247.578
			c-78.406-42.825-134.448-124.206-134.448-230.173C1580.098,1027.767,1642.497,935.531,1732.829,892.321z"/>
		
			<path fill-rule="evenodd" clip-rule="evenodd" fill="none" stroke="#000000" stroke-width="23.9998" stroke-miterlimit="2.6131" d="
			M1658.441,945.068c15.246,51.879,23.45,106.718,23.45,163.456c0,70.951-10.925,141.568-34.335,204.493
			c-40.862-47.097-67.458-111.186-67.458-178.434C1580.098,1060.604,1610.03,993.618,1658.441,945.068z"/>
		<linearGradient id="SVGID_2_" gradientUnits="userSpaceOnUse" x1="1618.5714" y1="1255.621" x2="2410.5544" y2="841.4644">
			<stop  offset="0" style="stop-color:#85C441"/>
			<stop  offset="0.37" style="stop-color:#51B958"/>
			<stop  offset="1" style="stop-color:#00A884"/>
		</linearGradient>
		
			<path fill-rule="evenodd" clip-rule="evenodd" fill="url(#SVGID_2_)" stroke="#000000" stroke-width="0.5" stroke-miterlimit="2.6131" d="
			M2061.911,1086.055c11.094-21.326,20.9-43.415,29.319-66.163c-10.085-21.306-25.096-45.979-48.299-70.354
			c-1.717,3.837-3.471,7.654-5.269,11.447c-9.711,20.498-20.589,40.348-32.55,59.466c-11.894,19.011-24.859,37.298-38.812,54.78
			c-13.975,17.51-28.942,34.212-44.815,50.023c-10.137,10.097-20.645,19.831-31.501,29.181c-5.98-1.569-11.922-3.227-17.826-4.975
			c-16.448-4.868-32.596-10.424-48.408-16.633c-14.097-5.536-27.927-11.592-41.467-18.143l-9.455-4.679
			c-15.952-8.072-31.485-16.839-46.558-26.26c-16.982-10.614-33.38-22.058-49.135-34.276
			c-19.445-15.078-37.911-31.333-55.288-48.656c-1.279-1.275-2.551-2.555-3.818-3.841c-18.841,31.488-31.406,67.157-35.987,105.284
			c15.255,15.454,31.363,30.084,48.258,43.8c14.695,11.93,29.982,23.174,45.81,33.683c14.066,9.339,28.559,18.097,43.445,26.24
			c14.825,8.109,30.039,15.608,45.609,22.463c3.05,1.343,6.113,2.66,9.19,3.953c-3.696,1.903-7.415,3.768-11.156,5.596
			c-18,8.792-36.517,16.706-55.495,23.686c-17.06,6.274-34.491,11.794-52.253,16.517c-3.206,10.576-4.843,23.646-8.629,33.961
			c7.607,8.843,57.05,50.716,73.019,58.98c17.925-6.007,39.281-10.27,54.143-16.755c21.783-9.505,42.876-20.271,63.186-32.202
			c22.131-13.002,43.331-27.389,63.478-43.041c3.332-2.589,6.635-5.211,9.908-7.868c12.815,2.048,25.769,3.691,38.846,4.912
			c15.515,1.45,31.205,2.307,47.046,2.55c3.115,0.047,6.235,0.072,9.361,0.072c13.432,0,26.76-0.442,39.969-1.313
			c10.686-0.704,21.285-1.717,31.809-2.974c19.167-31.31,32.092-66.852,37.054-104.897c-17.177,2.07-34.577,3.431-52.176,4.014
			c-6.71,0.223-13.449,0.335-20.214,0.335c-9.459,0-18.865-0.219-28.215-0.653c-2.529-0.117-5.053-0.25-7.574-0.399
			c2.808-3.646,5.573-7.326,8.296-11.039C2032.335,1137.91,2048.118,1112.571,2061.911,1086.055z"/>
		
			<path fill-rule="evenodd" clip-rule="evenodd" fill="none" stroke="#000000" stroke-width="23.9998" stroke-miterlimit="2.6131" d="
			M2114.428,1171.132c-22.999,2.683-46.389,4.104-70.118,4.104c-167.263,0-318.301-68.58-425.957-178.813
			c46.946-78.038,132.448-130.249,230.153-130.249c156.004,0,268.409,131.895,268.409,268.409
			C2116.916,1146.983,2116.056,1159.179,2114.428,1171.132z"/>
		
			<path fill-rule="evenodd" clip-rule="evenodd" fill="none" stroke="#000000" stroke-width="23.9998" stroke-miterlimit="2.6131" d="
			M2076.583,1276.126c-22.548,2.576-45.467,3.945-68.713,3.945c-167.151,0-318.096-68.489-425.738-178.591
			c16.313-132.618,129.347-235.306,266.376-235.306c156.004,0,268.409,131.895,268.409,268.409
			C2116.916,1186.537,2102.139,1235.032,2076.583,1276.126z"/>
		
			<path fill-rule="evenodd" clip-rule="evenodd" fill="none" stroke="#000000" stroke-width="23.9998" stroke-miterlimit="2.6131" d="
			M2103.104,1219.774c-28.064,4.035-56.755,6.16-85.952,6.16c-165.926,0-315.877-67.495-423.359-176.183
			c35.507-106.662,136.123-183.577,254.714-183.577c156.004,0,271.743,131.731,268.409,268.409
			C2116.189,1164.354,2112.057,1193.006,2103.104,1219.774z"/>
		<linearGradient id="SVGID_3_" gradientUnits="userSpaceOnUse" x1="1594.5371" y1="1316.9475" x2="2488.896" y2="849.2548">
			<stop  offset="0" style="stop-color:#85C441"/>
			<stop  offset="0.37" style="stop-color:#51B958"/>
			<stop  offset="1" style="stop-color:#00A884"/>
		</linearGradient>
		
			<path fill-rule="evenodd" clip-rule="evenodd" fill="url(#SVGID_3_)" stroke="#000000" stroke-width="0.5" stroke-miterlimit="2.6131" d="
			M2061.911,1086.055c11.094-21.326,20.9-43.415,29.319-66.163c-10.085-21.306-25.096-45.979-48.299-70.354
			c-1.717,3.837-3.471,7.654-5.269,11.447c-9.711,20.498-20.589,40.348-32.55,59.466c-11.894,19.011-24.859,37.298-38.812,54.78
			c-13.975,17.51-28.942,34.212-44.815,50.023c-6.617,6.591-13.392,13.028-20.319,19.303l0,0.001
			c-36.287,37.638-92.492,69.909-127.049,87.739l0.238,0.1c-3.696,1.903-7.415,3.768-11.156,5.596
			c-6.341,3.097-12.747,6.086-19.215,8.963l-0.306,0.136l-0.074,0.033c-11.768,5.225-23.74,10.081-35.9,14.554
			c-17.06,6.274-34.491,11.794-52.253,16.517c-3.206,10.576-4.843,23.646-8.629,33.961c7.607,8.843,57.05,50.716,73.019,58.98
			c17.925-6.007,39.281-10.27,54.143-16.755c21.783-9.505,42.876-20.271,63.186-32.202c22.171-13.026,43.485-27.49,63.78-43.276
			c0,0,64.372-52.055,109.145-110.753c1.568-2.08,3.122-4.17,4.663-6.271c1.188-1.619,2.367-3.245,3.538-4.877l0,0
			c1.171-1.632,2.334-3.27,3.488-4.914C2036.564,1131.04,2049.981,1108.988,2061.911,1086.055z"/>
		
			<path fill-rule="evenodd" clip-rule="evenodd" fill="none" stroke="#000000" stroke-width="23.9998" stroke-miterlimit="2.6131" d="
			M2096.363,1031.428c-60.74,151.196-211.295,287.978-376.275,339.839c-81.431-42.03-139.99-137.85-139.99-236.684
			c0-148.238,120.171-268.409,268.409-268.409C1963.072,866.174,2064.791,944.491,2096.363,1031.428z"/>
		
			<path fill-rule="evenodd" clip-rule="evenodd" fill="none" stroke="#000000" stroke-width="23.9998" stroke-miterlimit="2.6131" d="
			M2072.65,986.979c-71.729,170.785-224.011,298.921-409.109,342.911c-50.304-48.784-83.443-119.698-83.443-195.307
			c0-148.238,120.171-268.409,268.409-268.409C1940.314,866.174,2024.253,916.674,2072.65,986.979z"/>
		
			<path fill-rule="evenodd" clip-rule="evenodd" fill="none" stroke="#000000" stroke-width="23.9998" stroke-miterlimit="2.6131" d="
			M2042.578,949.17c-76.415,168.331-230.994,294.453-418.084,333.29c-28.049-42.405-44.396-93.228-44.396-147.877
			c0-148.238,120.171-268.409,268.409-268.409C1924.828,866.174,1993.707,898.031,2042.578,949.17z"/>
		<path fill-rule="evenodd" clip-rule="evenodd" fill="#77C043" d="M1653.156,1288.156l-11.25,3.094l4.498,20.412
			c2.345,2.739,4.747,5.426,7.198,8.068l8.67-2.089L1653.156,1288.156z"/>
	</g>
	
		<path fill-rule="evenodd" clip-rule="evenodd" fill="none" stroke="#000000" stroke-width="23.9998" stroke-miterlimit="2.6131" d="
		M1848.507,1402.992c147.834,0,268.409-120.574,268.409-268.409c0-136.11-112.808-268.409-268.409-268.409
		c-147.835,0-268.409,120.574-268.409,268.409C1580.098,1274.625,1691.007,1402.992,1848.507,1402.992z"/>
</g>
</svg>
