<?xml version="1.0" encoding="UTF-8" standalone="no"?>
<!-- Generator: Adobe Illustrator 17.0.0, SVG Export Plug-In . SVG Version: 6.00 Build 0)  -->

<svg
   xmlns:dc="http://purl.org/dc/elements/1.1/"
   xmlns:cc="http://creativecommons.org/ns#"
   xmlns:rdf="http://www.w3.org/1999/02/22-rdf-syntax-ns#"
   xmlns:svg="http://www.w3.org/2000/svg"
   xmlns="http://www.w3.org/2000/svg"
   xmlns:sodipodi="http://sodipodi.sourceforge.net/DTD/sodipodi-0.dtd"
   xmlns:inkscape="http://www.inkscape.org/namespaces/inkscape"
   version="1.1"
   id="Layer_1"
   x="0px"
   y="0px"
   width="700"
   height="700"
   viewBox="0 0 700 700"
   enable-background="new 0 0 2267.72 2267.72"
   xml:space="preserve"
   inkscape:version="0.91 r13725"
   sodipodi:docname="Kamva.svg"><metadata
     id="metadata3544"><rdf:RDF><cc:Work
         rdf:about=""><dc:format>image/svg+xml</dc:format><dc:type
           rdf:resource="http://purl.org/dc/dcmitype/StillImage" /><dc:title></dc:title></cc:Work></rdf:RDF></metadata><defs
     id="defs3542" /><sodipodi:namedview
     pagecolor="#ffffff"
     bordercolor="#666666"
     borderopacity="1"
     objecttolerance="10"
     gridtolerance="10"
     guidetolerance="10"
     inkscape:pageopacity="0"
     inkscape:pageshadow="2"
     inkscape:window-width="1210"
     inkscape:window-height="764"
     id="namedview3540"
     showgrid="false"
     inkscape:zoom="0.24209338"
     inkscape:cx="617.5303"
     inkscape:cy="1133.86"
     inkscape:window-x="0"
     inkscape:window-y="0"
     inkscape:window-maximized="0"
     inkscape:current-layer="Layer_1" /><g
     id="g3467"
     transform="translate(-1498.5418,-784.5835)"><g
       id="g3469"><path
         stroke-miterlimit="2.6131"
         d="m 2075.437,1277.961 c -22.163,2.487 -44.683,3.811 -67.52,3.811 -167.263,0 -318.3,-68.579 -425.956,-178.811 15.652,-133.332 129.008,-236.786 266.545,-236.786 156.004,0 268.409,131.895 268.409,268.409 0,52.727 -15.215,101.896 -41.478,143.377 z"
         id="path3471"
         inkscape:connector-curvature="0"
         style="clip-rule:evenodd;fill:none;fill-rule:evenodd;stroke:#000000;stroke-width:23.99979973;stroke-miterlimit:2.61310005" /><path
         stroke-miterlimit="2.6131"
         d="m 2103.123,1219.717 c -23.825,2.884 -48.079,4.395 -72.693,4.395 -170.719,0 -324.529,-71.448 -432.567,-185.704 38.675,-100.727 136.302,-172.234 250.644,-172.234 156.004,0 268.409,131.895 268.409,268.409 0,29.759 -4.853,58.382 -13.793,85.134 z"
         id="path3473"
         inkscape:connector-curvature="0"
         style="clip-rule:evenodd;fill:none;fill-rule:evenodd;stroke:#000000;stroke-width:23.99979973;stroke-miterlimit:2.61310005" /><path
         stroke-miterlimit="2.6131"
         d="m 2114.399,1171.344 c -20.327,2.085 -40.955,3.169 -61.84,3.169 -169.741,0 -322.774,-70.624 -430.714,-183.737 47.62,-74.899 131.333,-124.602 226.662,-124.602 156.004,0 268.409,131.895 268.409,268.409 0,12.473 -0.87,24.741 -2.517,36.761 z"
         id="path3475"
         inkscape:connector-curvature="0"
         style="clip-rule:evenodd;fill:none;fill-rule:evenodd;stroke:#000000;stroke-width:23.99979973;stroke-miterlimit:2.61310005" /><linearGradient
         id="SVGID_1_"
         gradientUnits="userSpaceOnUse"
         x1="1580.0979"
         y1="1134.5836"
         x2="2116.9158"
         y2="1134.5828"><stop
           offset="0"
           style="stop-color:#00A884"
           id="stop3478" /><stop
           offset="0.5"
           style="stop-color:#51B958"
           id="stop3480" /><stop
           offset="1"
           style="stop-color:#85C441"
           id="stop3482" /></linearGradient><path
         stroke-miterlimit="2.6131"
         d="m 1848.507,866.174 c 156.004,0 268.409,131.895 268.409,268.409 0,148.238 -120.171,268.409 -268.409,268.409 -157.903,0 -268.409,-127.963 -268.409,-268.409 0,-148.238 120.171,-268.409 268.409,-268.409 z"
         id="path3484"
         style="clip-rule:evenodd;fill:url(#SVGID_1_);fill-rule:evenodd;stroke:#000000;stroke-width:23.99979973;stroke-miterlimit:2.61310005"
         inkscape:connector-curvature="0" /><path
         stroke-miterlimit="2.6131"
         d="m 1621.725,990.969 c 7.818,37.928 11.929,77.188 11.929,117.397 0,53.512 -7.311,105.329 -20.927,154.572 -20.802,-38.13 -32.628,-81.861 -32.628,-128.355 -10e-4,-52.827 15.271,-102.084 41.626,-143.614 z"
         id="path3486"
         inkscape:connector-curvature="0"
         style="clip-rule:evenodd;fill:none;fill-rule:evenodd;stroke:#000000;stroke-width:23.99979973;stroke-miterlimit:2.61310005" /><path
         stroke-miterlimit="2.6131"
         d="m 1693.879,915.174 c 22.752,62.141 35.178,129.167 35.178,199.067 0,81.796 -15.147,162.277 -45.824,232.974 -61.711,-49.177 -103.135,-127.59 -103.135,-212.633 0,-90.659 43.235,-172.915 113.781,-219.408 z"
         id="path3488"
         inkscape:connector-curvature="0"
         style="clip-rule:evenodd;fill:none;fill-rule:evenodd;stroke:#000000;stroke-width:23.99979973;stroke-miterlimit:2.61310005" /><path
         stroke-miterlimit="2.6131"
         d="m 1862.236,866.52 c 39.224,78.197 61.31,166.278 61.31,259.471 0,100.197 -25.507,194.498 -70.425,276.942 -1.537,0.026 -3.072,0.059 -4.614,0.059 -157.903,0 -268.409,-127.963 -268.409,-268.409 0,-148.238 120.171,-268.409 268.409,-268.409 4.604,0 9.181,0.117 13.729,0.346 z"
         id="path3490"
         inkscape:connector-curvature="0"
         style="clip-rule:evenodd;fill:none;fill-rule:evenodd;stroke:#000000;stroke-width:23.99979973;stroke-miterlimit:2.61310005" /><path
         stroke-miterlimit="2.6131"
         d="m 1911.491,873.625 c 37.925,77.151 59.215,163.768 59.215,255.304 0,96.626 -23.722,187.771 -65.696,268.085 -18.219,3.904 -37.118,5.978 -56.503,5.978 -157.903,0 -268.409,-127.963 -268.409,-268.409 0,-148.238 120.171,-268.409 268.409,-268.409 21.695,0 42.781,2.593 62.984,7.451 z"
         id="path3492"
         inkscape:connector-curvature="0"
         style="clip-rule:evenodd;fill:none;fill-rule:evenodd;stroke:#000000;stroke-width:23.99979973;stroke-miterlimit:2.61310005" /><path
         stroke-miterlimit="2.6131"
         d="m 1966.364,893.383 c 32.945,72.838 51.286,153.541 51.286,238.483 0,87.671 -19.549,170.819 -54.519,245.471 -34.763,16.444 -73.615,25.655 -114.624,25.655 -157.903,0 -268.409,-127.963 -268.409,-268.409 0,-148.238 120.171,-268.409 268.409,-268.409 42.285,0 82.278,9.791 117.857,27.209 z"
         id="path3494"
         inkscape:connector-curvature="0"
         style="clip-rule:evenodd;fill:none;fill-rule:evenodd;stroke:#000000;stroke-width:23.99979973;stroke-miterlimit:2.61310005" /><path
         stroke-miterlimit="2.6131"
         d="m 1815.858,868.155 c 37.8,77.049 59.012,163.523 59.012,254.899 0,99.965 -25.394,194.06 -70.119,276.368 -137.088,-22.48 -224.653,-137.71 -224.653,-264.839 0,-137.185 102.922,-250.317 235.76,-266.428 z"
         id="path3496"
         inkscape:connector-curvature="0"
         style="clip-rule:evenodd;fill:none;fill-rule:evenodd;stroke:#000000;stroke-width:23.99979973;stroke-miterlimit:2.61310005" /><path
         stroke-miterlimit="2.6131"
         d="m 2034.605,941.181 c 23.217,65.437 33.238,130.118 33.238,193.624 0,67.613 -11.645,132.529 -32.996,192.945 -48.276,46.581 -113.957,75.243 -186.34,75.243 -157.903,0 -268.409,-127.963 -268.409,-268.409 0,-148.238 120.171,-268.409 268.409,-268.409 72.261,-10e-4 137.844,28.564 186.098,75.006 z"
         id="path3498"
         inkscape:connector-curvature="0"
         style="clip-rule:evenodd;fill:none;fill-rule:evenodd;stroke:#000000;stroke-width:23.99979973;stroke-miterlimit:2.61310005" /><path
         stroke-miterlimit="2.6131"
         d="m 1772.606,877.077 c 34.256,74.023 53.37,156.322 53.37,243.04 0,96.604 -23.71,187.728 -65.667,268.029 -114.574,-39.849 -180.212,-140.654 -180.212,-253.562 10e-4,-121.876 81.237,-224.76 192.509,-257.507 z"
         id="path3500"
         inkscape:connector-curvature="0"
         style="clip-rule:evenodd;fill:none;fill-rule:evenodd;stroke:#000000;stroke-width:23.99979973;stroke-miterlimit:2.61310005" /><path
         stroke-miterlimit="2.6131"
         d="m 1732.829,892.321 c 29.192,69.229 45.338,145.176 45.338,224.858 0,90.671 -26.366,170.979 -63.62,247.578 -78.406,-42.825 -134.448,-124.206 -134.448,-230.173 -10e-4,-106.817 62.398,-199.053 152.73,-242.263 z"
         id="path3502"
         inkscape:connector-curvature="0"
         style="clip-rule:evenodd;fill:none;fill-rule:evenodd;stroke:#000000;stroke-width:23.99979973;stroke-miterlimit:2.61310005" /><path
         stroke-miterlimit="2.6131"
         d="m 1658.441,945.068 c 15.246,51.879 23.45,106.718 23.45,163.456 0,70.951 -10.925,141.568 -34.335,204.493 -40.862,-47.097 -67.458,-111.186 -67.458,-178.434 0,-73.979 29.932,-140.965 78.343,-189.515 z"
         id="path3504"
         inkscape:connector-curvature="0"
         style="clip-rule:evenodd;fill:none;fill-rule:evenodd;stroke:#000000;stroke-width:23.99979973;stroke-miterlimit:2.61310005" /><linearGradient
         id="SVGID_2_"
         gradientUnits="userSpaceOnUse"
         x1="1618.5714"
         y1="1255.621"
         x2="2410.5544"
         y2="841.46442"><stop
           offset="0"
           style="stop-color:#85C441"
           id="stop3507" /><stop
           offset="0.37"
           style="stop-color:#51B958"
           id="stop3509" /><stop
           offset="1"
           style="stop-color:#00A884"
           id="stop3511" /></linearGradient><path
         stroke-miterlimit="2.6131"
         d="m 2061.911,1086.055 c 11.094,-21.326 20.9,-43.415 29.319,-66.163 -10.085,-21.306 -25.096,-45.979 -48.299,-70.354 -1.717,3.837 -3.471,7.654 -5.269,11.447 -9.711,20.498 -20.589,40.348 -32.55,59.466 -11.894,19.011 -24.859,37.298 -38.812,54.78 -13.975,17.51 -28.942,34.212 -44.815,50.023 -10.137,10.097 -20.645,19.831 -31.501,29.181 -5.98,-1.569 -11.922,-3.227 -17.826,-4.975 -16.448,-4.868 -32.596,-10.424 -48.408,-16.633 -14.097,-5.536 -27.927,-11.592 -41.467,-18.143 l -9.455,-4.679 c -15.952,-8.072 -31.485,-16.839 -46.558,-26.26 -16.982,-10.614 -33.38,-22.058 -49.135,-34.276 -19.445,-15.078 -37.911,-31.333 -55.288,-48.656 -1.279,-1.275 -2.551,-2.555 -3.818,-3.841 -18.841,31.488 -31.406,67.157 -35.987,105.284 15.255,15.454 31.363,30.084 48.258,43.8 14.695,11.93 29.982,23.174 45.81,33.683 14.066,9.339 28.559,18.097 43.445,26.24 14.825,8.109 30.039,15.608 45.609,22.463 3.05,1.343 6.113,2.66 9.19,3.953 -3.696,1.903 -7.415,3.768 -11.156,5.596 -18,8.792 -36.517,16.706 -55.495,23.686 -17.06,6.274 -34.491,11.794 -52.253,16.517 -3.206,10.576 -4.843,23.646 -8.629,33.961 7.607,8.843 57.05,50.716 73.019,58.98 17.925,-6.007 39.281,-10.27 54.143,-16.755 21.783,-9.505 42.876,-20.271 63.186,-32.202 22.131,-13.002 43.331,-27.389 63.478,-43.041 3.332,-2.589 6.635,-5.211 9.908,-7.868 12.815,2.048 25.769,3.691 38.846,4.912 15.515,1.45 31.205,2.307 47.046,2.55 3.115,0.047 6.235,0.072 9.361,0.072 13.432,0 26.76,-0.442 39.969,-1.313 10.686,-0.704 21.285,-1.717 31.809,-2.974 19.167,-31.31 32.092,-66.852 37.054,-104.897 -17.177,2.07 -34.577,3.431 -52.176,4.014 -6.71,0.223 -13.449,0.335 -20.214,0.335 -9.459,0 -18.865,-0.219 -28.215,-0.653 -2.529,-0.117 -5.053,-0.25 -7.574,-0.399 2.808,-3.646 5.573,-7.326 8.296,-11.039 17.578,-23.967 33.361,-49.306 47.154,-75.822 z"
         id="path3513"
         style="clip-rule:evenodd;fill:url(#SVGID_2_);fill-rule:evenodd;stroke:#000000;stroke-width:0.5;stroke-miterlimit:2.61310005"
         inkscape:connector-curvature="0" /><path
         stroke-miterlimit="2.6131"
         d="m 2114.428,1171.132 c -22.999,2.683 -46.389,4.104 -70.118,4.104 -167.263,0 -318.301,-68.58 -425.957,-178.813 46.946,-78.038 132.448,-130.249 230.153,-130.249 156.004,0 268.409,131.895 268.409,268.409 0,12.4 -0.859,24.596 -2.487,36.549 z"
         id="path3515"
         inkscape:connector-curvature="0"
         style="clip-rule:evenodd;fill:none;fill-rule:evenodd;stroke:#000000;stroke-width:23.99979973;stroke-miterlimit:2.61310005" /><path
         stroke-miterlimit="2.6131"
         d="m 2076.583,1276.126 c -22.548,2.576 -45.467,3.945 -68.713,3.945 -167.151,0 -318.096,-68.489 -425.738,-178.591 16.313,-132.618 129.347,-235.306 266.376,-235.306 156.004,0 268.409,131.895 268.409,268.409 -10e-4,51.954 -14.778,100.449 -40.334,141.543 z"
         id="path3517"
         inkscape:connector-curvature="0"
         style="clip-rule:evenodd;fill:none;fill-rule:evenodd;stroke:#000000;stroke-width:23.99979973;stroke-miterlimit:2.61310005" /><path
         stroke-miterlimit="2.6131"
         d="m 2103.104,1219.774 c -28.064,4.035 -56.755,6.16 -85.952,6.16 -165.926,0 -315.877,-67.495 -423.359,-176.183 35.507,-106.662 136.123,-183.577 254.714,-183.577 156.004,0 271.743,131.731 268.409,268.409 -0.727,29.771 -4.859,58.423 -13.812,85.191 z"
         id="path3519"
         inkscape:connector-curvature="0"
         style="clip-rule:evenodd;fill:none;fill-rule:evenodd;stroke:#000000;stroke-width:23.99979973;stroke-miterlimit:2.61310005" /><linearGradient
         id="SVGID_3_"
         gradientUnits="userSpaceOnUse"
         x1="1594.5371"
         y1="1316.9475"
         x2="2488.896"
         y2="849.25482"><stop
           offset="0"
           style="stop-color:#85C441"
           id="stop3522" /><stop
           offset="0.37"
           style="stop-color:#51B958"
           id="stop3524" /><stop
           offset="1"
           style="stop-color:#00A884"
           id="stop3526" /></linearGradient><path
         stroke-miterlimit="2.6131"
         d="m 2061.911,1086.055 c 11.094,-21.326 20.9,-43.415 29.319,-66.163 -10.085,-21.306 -25.096,-45.979 -48.299,-70.354 -1.717,3.837 -3.471,7.654 -5.269,11.447 -9.711,20.498 -20.589,40.348 -32.55,59.466 -11.894,19.011 -24.859,37.298 -38.812,54.78 -13.975,17.51 -28.942,34.212 -44.815,50.023 -6.617,6.591 -13.392,13.028 -20.319,19.303 l 0,10e-4 c -36.287,37.638 -92.492,69.909 -127.049,87.739 l 0.238,0.1 c -3.696,1.903 -7.415,3.768 -11.156,5.596 -6.341,3.097 -12.747,6.086 -19.215,8.963 l -0.306,0.136 -0.074,0.033 c -11.768,5.225 -23.74,10.081 -35.9,14.554 -17.06,6.274 -34.491,11.794 -52.253,16.517 -3.206,10.576 -4.843,23.646 -8.629,33.961 7.607,8.843 57.05,50.716 73.019,58.98 17.925,-6.007 39.281,-10.27 54.143,-16.755 21.783,-9.505 42.876,-20.271 63.186,-32.202 22.171,-13.026 43.485,-27.49 63.78,-43.276 0,0 64.372,-52.055 109.145,-110.753 1.568,-2.08 3.122,-4.17 4.663,-6.271 1.188,-1.619 2.367,-3.245 3.538,-4.877 l 0,0 c 1.171,-1.632 2.334,-3.27 3.488,-4.914 14.78,-21.049 28.197,-43.101 40.127,-66.034 z"
         id="path3528"
         style="clip-rule:evenodd;fill:url(#SVGID_3_);fill-rule:evenodd;stroke:#000000;stroke-width:0.5;stroke-miterlimit:2.61310005"
         inkscape:connector-curvature="0" /><path
         stroke-miterlimit="2.6131"
         d="m 2096.363,1031.428 c -60.74,151.196 -211.295,287.978 -376.275,339.839 -81.431,-42.03 -139.99,-137.85 -139.99,-236.684 0,-148.238 120.171,-268.409 268.409,-268.409 114.565,0 216.284,78.317 247.856,165.254 z"
         id="path3530"
         inkscape:connector-curvature="0"
         style="clip-rule:evenodd;fill:none;fill-rule:evenodd;stroke:#000000;stroke-width:23.99979973;stroke-miterlimit:2.61310005" /><path
         stroke-miterlimit="2.6131"
         d="m 2072.65,986.979 c -71.729,170.785 -224.011,298.921 -409.109,342.911 -50.304,-48.784 -83.443,-119.698 -83.443,-195.307 0,-148.238 120.171,-268.409 268.409,-268.409 91.807,0 175.746,50.5 224.143,120.805 z"
         id="path3532"
         inkscape:connector-curvature="0"
         style="clip-rule:evenodd;fill:none;fill-rule:evenodd;stroke:#000000;stroke-width:23.99979973;stroke-miterlimit:2.61310005" /><path
         stroke-miterlimit="2.6131"
         d="m 2042.578,949.17 c -76.415,168.331 -230.994,294.453 -418.084,333.29 -28.049,-42.405 -44.396,-93.228 -44.396,-147.877 0,-148.238 120.171,-268.409 268.409,-268.409 76.321,0 145.2,31.857 194.071,82.996 z"
         id="path3534"
         inkscape:connector-curvature="0"
         style="clip-rule:evenodd;fill:none;fill-rule:evenodd;stroke:#000000;stroke-width:23.99979973;stroke-miterlimit:2.61310005" /><path
         d="m 1653.156,1288.156 -11.25,3.094 4.498,20.412 c 2.345,2.739 4.747,5.426 7.198,8.068 l 8.67,-2.089 -9.116,-29.485 z"
         id="path3536"
         inkscape:connector-curvature="0"
         style="clip-rule:evenodd;fill:#77c043;fill-rule:evenodd" /></g><path
       stroke-miterlimit="2.6131"
       d="m 1848.507,1402.992 c 147.834,0 268.409,-120.574 268.409,-268.409 0,-136.11 -112.808,-268.409 -268.409,-268.409 -147.835,0 -268.409,120.574 -268.409,268.409 0,140.042 110.909,268.409 268.409,268.409 z"
       id="path3538"
       inkscape:connector-curvature="0"
       style="clip-rule:evenodd;fill:none;fill-rule:evenodd;stroke:#000000;stroke-width:23.99979973;stroke-miterlimit:2.61310005" /></g></svg>
