<?xml version="1.0" encoding="UTF-8"?>
<svg width="128px" height="128px" viewBox="0 0 128 128" version="1.1" xmlns="http://www.w3.org/2000/svg" xmlns:xlink="http://www.w3.org/1999/xlink">
    <!-- Generator: Sketch 41.2 (35397) - http://www.bohemiancoding.com/sketch -->
    <title>klarna</title>
    <desc>Created with Sketch.</desc>
    <defs></defs>
    <g id="Page-1" stroke="none" stroke-width="1" fill="none" fill-rule="evenodd">
        <g id="klarna" fill="#0072CC">
            <path d="M50.4869029,67.7473035 C50.6841294,89.2449923 62.9121726,109.164869 82.2403698,119.913713 C91.7072419,125.140216 102.357473,127.901387 113.303544,128 C113.106317,117.546995 110.246533,107.291217 104.822804,98.3174114 C93.5808937,79.6795069 72.7734977,68.0431433 50.4869029,67.7473035 L50.4869029,67.7473035 Z M50.4869029,60.2526965 C72.7734977,59.9568567 93.5808937,48.3204931 104.822804,29.6825886 C110.246533,20.7087827 113.106317,10.4530046 113.303544,0 C102.357473,0.0986132512 91.7072419,2.95839753 82.2403698,8.18489985 C62.9121726,18.9337442 50.6841294,38.853621 50.4869029,60.2526965 Z M39.6394453,0 L21.8890601,0 C17.550077,0 14,3.35285054 14,7.49460709 L14,124.942989 C14,126.323575 15.2819723,127.70416 17.155624,127.70416 L35.0046225,127.70416 C39.3436055,127.70416 42.7950693,124.35131 42.7950693,120.209553 L42.7950693,2.56394453 C42.7950693,1.08474576 41.5130971,0 39.6394453,0 L39.6394453,0 Z" id="Shape"></path>
        </g>
    </g>
</svg>