
<svg width="1000" height="1000" viewBox="0 0 1000 1000" xmlns="http://www.w3.org/2000/svg" xmlns:xlink="http://www.w3.org/1999/xlink"><title>Moon Logo</title><g transform="translate(-3102 -6459)"><clipPath id="a" clip-rule="evenodd"><path d="M3102 6459h1000v1000H3102V6459z" fill="#FFF"/></clipPath><g clip-path="url(#a)"><use xlink:href="#b" transform="translate(3302 6659)" fill="url(#c)"/></g></g><defs><linearGradient id="c" x2="1" gradientUnits="userSpaceOnUse" gradientTransform="matrix(348 600 -195.66 352.438 97.83 -176.22)"><stop offset="0" stop-color="#007EFF"/><stop offset=".972376" stop-color="#B22BFF"/></linearGradient><path id="b" fill-rule="evenodd" d="M491.473 530.961c6.198-5.145 3.529-15.01-4.221-17.208C361.881 478.192 270 362.38 270 225c0-79.162 30.508-151.1637 80.353-204.7755 5.473-5.886 2.646-15.66729-5.301-16.86419C330.357 1.14719 315.312 0 300 0 134.314 0 0 134.314 0 300s134.314 300 300 300c72.788 0 139.522-25.923 191.473-69.039z"/></defs></svg>
