<?xml version="1.0" encoding="utf-8"?>
<!-- Generator: Adobe Illustrator 19.2.0, SVG Export Plug-In . SVG Version: 6.00 Build 0)  -->
<svg version="1.1" id="Layer_1" xmlns="http://www.w3.org/2000/svg" xmlns:xlink="http://www.w3.org/1999/xlink" x="0px" y="0px"
	 viewBox="0 0 505 194" style="enable-background:new 0 0 505 194;" xml:space="preserve">
<style type="text/css">
	.st0{fill:#45C0EF;}
</style>
<g id="Vector_Smart_Object">
	<path class="st0" d="M71,46.4c-7.8,0-15.5,1.4-22.6,4.6c-4.1,1.9-7.9,4.4-11.3,7.3v-4.5c0-8.3-6-6.7-15.9-6.7
		c-9.8,0-15.4-1.4-15.4,6.8v129.3c0,7.9,5.6,6.5,15.1,6.5S38,191,38,183.3v-56.8c0-11.5,1-28.5,7.6-38.3c5.4-7.9,13.7-10.5,23-10.5
		c8.3,0,16.4,2,21.7,8.9c6,7.8,7.2,20.1,7.2,29.6V183c0,7.6,6,6.6,15.7,6.6c10.2,0,16.7,1.2,16.7-6.9v-71.9c0-17-3.5-34.5-15.2-47.5
		C103.3,50.8,87.6,46.4,71,46.4"/>
	<path class="st0" d="M349.7,46.7h-15.3V12.8c0-6.9-4.1-8.6-16.1-8.6c-11.9,0-16.1,1.9-16.1,8.6v33.9h-18.8c-5.4,0-5.2,5.9-5.2,13.8
		c0,8.3-0.7,16.6,5.4,16.6h18.6l0,0v106.7c0,7,7.7,5.9,16.6,5.9c9.6,0,15.6,1.5,15.6-6.1V77.1h16c6.9,0,7.1-4.8,7.1-14.9
		C357.5,51.2,357.6,46.7,349.7,46.7"/>
	<path class="st0" d="M268.4,122c-3.5-1.1-7.1-0.7-10.4,1.1c-3.3,1.8-5.5,4.5-6.6,8c-1.3,4.2-3.2,8.1-5.7,11.7l0,0
		c0,0-1.5,2.2-2.3,3.2c-3.7,4.6-8.3,8.2-13.4,11c-4.7,2.5-9.7,4.2-15,4.9c-5.1,0.7-10.3,0.5-15.4-0.6c-5-1.1-9.8-3-14.2-5.7
		c-12.2-7.5-21.1-25.1-20.7-39.3c0.6-21,17.1-39.7,38-42.3c2-0.2,4-0.4,5.9-0.3h-0.1c-0.3,0-0.5-0.1-0.8-0.1c0.1,0,0.1,0,0.2,0
		c0.2,0,0.4,0.1,0.6,0.1h0.1l0,0c10.7,0.1,21.4,3.8,29.6,10.8l1.2,1l-1.3,0.7c-16.6,9.1-33.2,18.2-49.8,27.4c-3.6,2-6.6,5.1-7.8,9.1
		c-0.7,2.4-0.7,5,0,7.4l0,0c0.3,1,0.7,1.9,1.2,2.8c1.8,3.1,4.7,5.4,8.2,6.3c4.2,1.1,8.6,0,12.4-2.1l64.2-35.2
		c3.2-1.7,5.3-4.5,6.6-7.8c4.4-11.5-14-28-20.3-32.8c-7-5.3-14.8-9.2-22.9-11.6l0,0c-27.3-8.2-58.3,0.1-76.8,23.8
		c-11.4,14.7-17.1,32.8-15.3,51.4c0.9,9.5,3.8,18.6,8.3,27c4.7,8.6,10.8,16.3,18.5,22.4c7.3,5.7,15.4,10,24.3,12.5
		c8.8,2.5,17.9,3.2,27,2.3c9.5-1,18.5-3.9,26.9-8.5c8.4-4.5,16.3-10.2,22.5-17.4c6.2-7,10.1-15.5,12.3-24.5c1-3.5,0.6-7.1-1.1-10.2
		C274.8,125.4,272,123.1,268.4,122"/>
	<path class="st0" d="M494.4,90.3c-3.8-8.5-9-16.2-15.5-22.8c-6.5-6.5-14.2-11.7-22.6-15.5c-5.9-2.6-12.1-4.4-18.5-5.2
		c0.8,0.3-0.1,0,0,0c-0.1,0-0.2-0.1-0.2-0.1c-2.9-0.4-5.7-0.6-8.7-0.6h-0.1h-0.1c-9.8,0.4-19.4,2.4-28.5,6.4
		c-8.5,3.7-16.3,8.8-22.8,15.4c-6.5,6.5-11.5,14.1-15.1,22.6c-3.8,8.8-5.5,18.2-5.5,27.8c0,9.8,1.7,19.5,5.7,28.5
		c3.6,8.5,8.8,16.2,15.5,22.6c6.6,6.4,14.2,11.4,22.7,14.8c7.7,3.2,15.8,4.9,24.1,5.3c0.1,0,2.6,0,3.7,0c9.7,0,19.3-1.8,28.2-5.7
		c8.5-3.7,16.2-8.8,22.7-15.4c6.4-6.6,11.5-14.2,15.2-22.6c3.8-8.7,5.7-18,5.7-27.5C500.2,108.6,498.3,99.1,494.4,90.3 M464.5,144.1
		c-1.4,1.9-2.9,3.7-4.6,5.4c-4.1,4.1-8.9,7.3-14.3,9.5c-5.5,2.3-11.3,3.5-17.3,3.5c-5.9,0-11.7-1.1-17.2-3.4
		c-5.3-2.3-10.1-5.5-14.2-9.5c-4.1-4.1-7.3-8.9-9.5-14.1c-2.4-5.4-3.5-11.2-3.5-17.2s1.2-11.8,3.5-17.3c2.3-5.3,5.4-10.2,9.5-14.3
		c4.1-4.1,8.9-7.3,14.2-9.5c4.4-1.9,9.1-3,13.8-3.3c-1.3-0.1-1.3-0.1,0.1,0h-0.1c0,0,2.3-0.1,3.3-0.1c6,0,11.8,1.1,17.3,3.5
		c5.3,2.3,10.1,5.4,14.3,9.5c4.1,4.1,7.3,8.9,9.5,14.3c2.3,5.5,3.4,11.3,3.4,17.3c0,5.9-1.1,11.7-3.4,17.2
		C468.1,138.5,466.5,141.4,464.5,144.1C464.6,144.1,464.6,144.1,464.5,144.1C464.6,144.1,464.6,144.1,464.5,144.1L464.5,144.1z"/>
</g>
</svg>
