<?xml version="1.0" encoding="UTF-8"?>
<!DOCTYPE svg PUBLIC "-//W3C//DTD SVG 1.1//EN" "http://www.w3.org/Graphics/SVG/1.1/DTD/svg11.dtd">
<!-- Creator: CorelDRAW 2019 (64-Bit) -->
<svg xmlns="http://www.w3.org/2000/svg" xml:space="preserve" width="2.57807in" height="2.92126in" version="1.1" style="shape-rendering:geometricPrecision; text-rendering:geometricPrecision; image-rendering:optimizeQuality; fill-rule:evenodd; clip-rule:evenodd"
viewBox="0 0 337.56 382.49"
 xmlns:xlink="http://www.w3.org/1999/xlink"
 xmlns:xodm="http://www.corel.com/coreldraw/odm/2003">
 <defs>
  <style type="text/css">
   <![CDATA[
    .fil1 {fill:#96989A}
    .fil2 {fill:#5CC6D0}
    .fil0 {fill:#96989A;fill-rule:nonzero}
   ]]>
  </style>
 </defs>
 <g id="Layer_x0020_1">
  <metadata id="CorelCorpID_0Corel-Layer"/>
  <g id="_2881642811968">
   <path class="fil0" d="M81.64 200.37c0,35.33 14.32,67.32 37.48,90.48 23.16,23.16 55.15,37.48 90.48,37.48 35.33,0 67.32,-14.32 90.48,-37.48 23.16,-23.16 37.48,-55.15 37.48,-90.48l-31.4 0c0,26.67 -10.81,50.81 -28.28,68.28 -17.47,17.47 -41.61,28.28 -68.28,28.28 -26.67,0 -50.81,-10.81 -68.28,-28.28 -17.47,-17.47 -28.28,-41.61 -28.28,-68.28l-31.4 0z"/>
   <path class="fil0" d="M153.08 200.37c0,15.6 6.33,29.74 16.56,39.96 10.23,10.23 24.36,16.56 39.96,16.56 15.61,0 29.74,-6.33 39.96,-16.56 10.23,-10.23 16.56,-24.36 16.56,-39.96l-31.4 0c0,6.94 -2.81,13.22 -7.36,17.76 -4.54,4.54 -10.83,7.36 -17.76,7.36 -6.94,0 -13.22,-2.81 -17.76,-7.36 -4.55,-4.54 -7.36,-10.83 -7.36,-17.76l-31.4 0z"/>
   <circle class="fil1" cx="296.74" cy="358.16" r="24.34"/>
   <circle class="fil1" cx="127.17" cy="358.16" r="24.34"/>
   <path class="fil0" d="M-0 202.02c0,-15.6 6.33,-29.74 16.56,-39.96 10.23,-10.23 24.36,-16.56 39.96,-16.56 15.61,0 29.74,6.33 39.96,16.56 10.23,10.23 16.56,24.36 16.56,39.96l-31.4 0c0,-6.94 -2.81,-13.22 -7.36,-17.76 -4.54,-4.54 -10.83,-7.36 -17.76,-7.36 -6.94,0 -13.22,2.81 -17.76,7.36 -4.54,4.55 -7.36,10.83 -7.36,17.76l-31.4 0z"/>
   <rect class="fil2" x="153.08" y="107.49" width="31.4" height="93.16"/>
   <rect class="fil2" x="234.66" y="61.71" width="31.46" height="138.94"/>
   <rect class="fil2" x="306.16" y="0" width="31.38" height="200.65"/>
  </g>
 </g>
</svg>
