<svg xmlns="http://www.w3.org/2000/svg" width="400" height="400" viewBox="0 0 400 400"><path fill="#465283" d="M32.8052237 143.08916093h58.99287786c17.31589437.14618444 29.8633917 5.11148297 37.64000586 14.89490113 7.77810583 9.7839154 10.34627796 23.14586886 7.70501362 40.08486595-1.02726886 7.73981947-3.30158044 15.33295724-6.8239292 22.7804078-3.37516988 7.44745057-8.07146916 14.1649734-14.08740616 20.15256853-7.33756362 7.59264056-15.18876168 12.41175465-23.55359415 14.45634783-8.36433526 2.0445932-17.02253105 3.06639256-25.97409018 3.06639256H40.2899662l-8.36483248 41.61831083h-30.5968l31.47688997-157.0537946m25.7548135 24.97068818L45.352721 233.7732332c.88008997.1456872 1.76017994.21877943 2.64126435.21877943h3.08180656c14.08740618.1456872 25.8274085-1.241076 35.21950986-4.16178135 9.3916041-3.06639255 15.70140165-13.7264201 18.9303871-31.98057988 2.6402699-15.3329572-.00099446-24.167171-7.92578195-26.50413306-7.77661414-2.33696204-17.53566823-3.43085917-29.27517336-3.2856692-1.76117438.14618444-3.44875932.21877944-5.06275482.21877944h-4.6222126l.2202711-.21877943m113.4450882-66.795845h30.37702614l-8.58510358 41.8375875h27.29521957c14.96849058.29187164 26.12077184 3.3587614 33.45833546 9.19967487 7.4842453 5.8414107 9.68596188 16.93949432 6.60316087 33.2942509l-14.74772224 72.94155797h-30.81657388l14.08740616-69.65539156c1.4668166-7.30126614 1.02726886-12.4853441-1.32063216-15.55223387-2.34790102-3.06639255-7.41115306-4.5993402-15.18826445-4.5993402l-24.43368413-.2197739-18.04930267 90.0267395h-30.37702614l31.69716108-157.272574m121.77262873 41.8246596h58.99238065c17.3163916.14618445 29.8633917 5.11148298 37.6410003 14.89490114 7.77661417 9.7839154 10.34578075 23.14586887 7.70401918 40.08486596-1.02726886 7.73981945-3.30158044 15.33295722-6.82343198 22.78040778-3.37616433 7.44745057-8.07146915 14.1649734-14.08790338 20.15256853-7.33756363 7.59264056-15.18826445 12.41175465-23.55359415 14.45634783-8.3633408 2.0445932-17.02203385 3.06639256-25.97359297 3.06639256H301.2624967l-8.3648325 41.6178136h-30.5977945l31.47788443-157.0537946m25.7543163 24.97068817L306.324257 233.7732332c.88108444.1456872 1.76167163.21877942 2.6422588.21877942h3.08130935c14.0884006.1456872 25.82790574-1.24107602 35.22000707-4.16178136 9.3916041-3.06639255 15.7023961-13.7264201 18.9303871-31.98057988 2.64126435-15.3329572 0-24.167171-7.92429027-26.50413306-7.7776086-2.33696205-17.53715993-3.43085918-29.27666506-3.2856692-1.76017995.14618443-3.4482621.21877943-5.06176038.21877943h-4.62320705l.2202711-.21877943"/></svg>