<svg xmlns="http://www.w3.org/2000/svg" width="800" height="400"><path fill="#465283" d="M63.3 84.34h118.644c34.825.294 60.06 10.28 75.7 29.956 15.643 19.677 20.808 46.55 15.496 80.617-2.066 15.566-6.64 30.837-13.724 45.815-6.788 14.978-16.233 28.488-28.332 40.53-14.757 15.27-30.547 24.962-47.37 29.074-16.822 4.112-34.235 6.167-52.238 6.167H78.353L61.53 400.2H-.005L63.3 84.34m51.797 50.22L88.535 266.72c1.77.293 3.54.44 5.312.44h6.198c28.332.293 51.943-2.496 70.832-8.37 18.888-6.167 31.578-27.606 38.072-64.318 5.31-30.837-.002-48.604-15.94-53.304-15.64-4.7-35.267-6.9-58.877-6.608-3.542.294-6.936.44-10.182.44h-9.296l.443-.44M343.253.223h61.093L387.08 84.365h54.895c30.104.587 52.533 6.755 67.29 18.502 15.052 11.748 19.48 34.068 13.28 66.96l-29.66 146.697h-61.977l28.332-140.088c2.95-14.684 2.066-25.11-2.656-31.278-4.722-6.167-14.905-9.25-30.546-9.25l-49.14-.442-36.3 181.058h-61.093L343.253.224M588.157 84.34H706.8c34.826.294 60.06 10.28 75.702 29.956 15.64 19.677 20.807 46.55 15.494 80.617-2.066 15.566-6.64 30.837-13.723 45.815-6.79 14.978-16.233 28.488-28.333 40.53-14.757 15.27-30.546 24.962-47.37 29.074-16.82 4.112-34.234 6.167-52.237 6.167H603.21l-16.823 83.7H524.85l63.307-315.86m51.796 50.22L613.39 266.72c1.772.293 3.543.44 5.314.44h6.197c28.334.293 51.944-2.496 70.833-8.37 18.888-6.167 31.58-27.606 38.072-64.318 5.312-30.837 0-48.604-15.937-53.304-15.642-4.7-35.27-6.9-58.88-6.608-3.54.294-6.935.44-10.18.44h-9.298l.443-.44"/></svg>