<?xml version="1.0" encoding="utf-8"?>
<!-- Generator: Adobe Illustrator 19.2.1, SVG Export Plug-In . SVG Version: 6.00 Build 0)  -->
<svg version="1.1" id="Ebene_1" xmlns="http://www.w3.org/2000/svg" xmlns:xlink="http://www.w3.org/1999/xlink" x="0px" y="0px"
	 viewBox="0 0 120 120" style="enable-background:new 0 0 120 120;" xml:space="preserve">
<style type="text/css">
	.st0{fill:#3D3D3D;}
</style>
<path class="st0" d="M52.9,46.2l-3.6-3.6c-9.9-9.9-25.9-9.9-35.8,0s-9.9,25.9,0,35.8s25.9,9.9,35.8,0L60,67.7l10.7,10.8
	c9.9,9.9,25.9,9.9,35.8,0s9.9-25.9,0-35.8s-25.9-9.9-35.8,0L42.1,71.3c-5.9,5.9-15.5,5.9-21.5,0c-5.9-5.9-5.9-15.5,0-21.5
	s15.5-5.9,21.5,0l3.6,3.6L52.9,46.2z M99.4,71.3c-5.9,5.9-15.5,5.9-21.5,0L67.2,60.6l10.7-10.7c5.9-5.9,15.5-5.9,21.5,0
	S105.3,65.4,99.4,71.3z"/>
</svg>
