<svg width="59" height="61" viewBox="0 0 59 61" xmlns="http://www.w3.org/2000/svg"><title>rock-logo</title><path d="M57.705 60.063L41.387 40.936s11.83-.026 11.928-.028a5.456 5.456 0 0 0 3.736-1.259 5.504 5.504 0 0 0 .693-7.752L32.396 2.151a5.562 5.562 0 0 0-.836-.891c-.039-.029-.084-.051-.121-.082-.012-.01-.027-.018-.039-.025a5.887 5.887 0 0 0-.867-.563c-.018-.009-.039-.014-.059-.021a5.377 5.377 0 0 0-.922-.366c-.057-.013-.119-.025-.178-.039-.277-.063-.557-.129-.84-.15-.172-.021-.346-.008-.516-.008-.172 0-.34-.014-.514.008-.281.021-.559.087-.84.15l-.174.039a5.18 5.18 0 0 0-.924.366c-.021.009-.039.014-.057.021a5.204 5.204 0 0 0-.869.563c-.018.009-.025.017-.037.025-.039.031-.084.053-.123.082-.32.271-.594.57-.84.885L0 29.86h14.461l13.557-15.891 13.604 15.967-12.104.008c-.045 0-.088.013-.133.017-.287 0-.578.026-.865.071a7.39 7.39 0 0 0-.244.054 5 5 0 0 0-.775.229 2 2 0 0 0-.266.117 4.44 4.44 0 0 0-.957.549c-.117.081-.238.143-.346.229-.076.067-.137.147-.211.221a4.613 4.613 0 0 0-.258.264 5.523 5.523 0 0 0-.453.531c-.068.105-.131.205-.195.308a5.154 5.154 0 0 0-.332.601c-.059.126-.107.255-.156.384-.072.199-.145.398-.191.605a4.218 4.218 0 0 0-.084.451 5.182 5.182 0 0 0-.07.606c-.006.074-.023.137-.023.209 0 .101.023.189.027.294.012.188.023.368.051.557a5.735 5.735 0 0 0 .246 1.012c.072.199.154.397.248.588.061.119.119.234.188.35.123.215.26.414.408.605.045.057.068.115.115.168l18.004 21.104h14.459v-.005z" fill="#EE7624" fill-rule="evenodd"/></svg>