<?xml version="1.0" standalone="no"?>
<!DOCTYPE svg PUBLIC "-//W3C//DTD SVG 20010904//EN"
 "http://www.w3.org/TR/2001/REC-SVG-20010904/DTD/svg10.dtd">
<svg version="1.0" xmlns="http://www.w3.org/2000/svg"
 width="363.000000pt" height="286.000000pt" viewBox="0 0 363.000000 286.000000"
 preserveAspectRatio="xMidYMid meet">

<g transform="translate(0.000000,286.000000) scale(0.100000,-0.100000)"
fill="#000000" stroke="none">
<path d="M778 2340 c-80 -24 -126 -100 -115 -191 9 -73 37 -110 151 -199 99
-77 132 -115 136 -155 7 -68 -19 -105 -74 -105 -56 0 -92 40 -110 123 -7 30
-14 32 -69 16 -37 -10 -38 -11 -31 -47 20 -113 91 -171 209 -172 109 -1 180
66 180 170 -1 91 -31 139 -149 232 -56 44 -109 90 -118 102 -60 75 -4 175 85
150 36 -11 77 -64 77 -102 0 -21 3 -23 26 -18 15 4 39 10 55 13 16 3 29 6 29
7 0 1 -7 25 -15 53 -31 103 -150 158 -267 123z"/>
<path d="M1140 1980 l0 -360 145 0 145 0 0 35 0 35 -95 0 -95 0 0 135 0 135
70 0 70 0 0 35 0 35 -70 0 -70 0 0 120 0 120 95 0 95 0 0 35 0 35 -145 0 -145
0 0 -360z"/>
<path d="M1500 1980 l0 -360 145 0 145 0 0 35 0 35 -95 0 -95 0 0 135 0 135
70 0 70 0 0 35 0 35 -70 0 -70 0 0 120 0 120 95 0 95 0 0 35 0 35 -145 0 -145
0 0 -360z"/>
<path d="M1860 2145 l0 -195 41 0 c33 0 45 6 66 30 34 41 92 43 123 3 20 -25
21 -38 18 -135 -3 -97 -5 -109 -27 -132 -53 -57 -131 -17 -131 65 l0 39 -53 0
-54 0 8 -55 c14 -104 71 -155 174 -155 129 0 185 81 185 264 0 110 -21 165
-72 192 -38 21 -131 24 -166 5 l-22 -12 0 91 0 90 120 0 120 0 0 50 0 50 -165
0 -165 0 0 -195z"/>
<path d="M2460 2270 l0 -50 50 0 50 0 0 50 0 50 -50 0 -50 0 0 -50z"/>
<path d="M2810 2104 l-40 -36 0 31 c0 31 -1 31 -50 31 l-50 0 0 -255 0 -255
50 0 50 0 0 185 0 186 26 25 c20 21 33 25 65 22 l39 -4 0 53 c0 50 -1 53 -25
53 -15 0 -41 -15 -65 -36z"/>
<path d="M2460 1875 l0 -255 50 0 50 0 0 255 0 255 -50 0 -50 0 0 -255z"/>
<path d="M2270 1670 l0 -50 50 0 50 0 0 50 0 50 -50 0 -50 0 0 -50z"/>
<path d="M255 1381 c-71 -18 -131 -66 -169 -136 -21 -39 -21 -49 -21 -495 0
-446 0 -456 21 -495 28 -51 68 -91 119 -119 l40 -21 1535 0 1535 0 40 21 c51
28 91 68 119 119 21 39 21 49 21 495 0 446 0 456 -21 495 -28 51 -68 91 -119
119 l-40 21 -1515 2 c-833 0 -1528 -2 -1545 -6z m485 -515 c0 -313 -4 -296 64
-296 53 0 56 10 56 172 l0 148 60 0 60 0 0 -149 c0 -123 3 -151 16 -162 11 -9
20 -10 32 -2 14 9 17 33 20 162 l3 151 59 0 59 0 3 -151 c3 -134 5 -153 21
-163 15 -9 21 -7 33 8 11 15 14 54 14 163 l0 143 60 0 60 0 0 -155 c0 -173 -8
-203 -60 -230 -44 -23 -131 -20 -163 6 l-26 20 -29 -21 c-26 -19 -38 -21 -93
-16 -74 7 -74 7 -202 0 l-98 -5 -34 34 -35 35 0 296 0 296 60 0 60 0 0 -284z
m1860 6 c0 -203 3 -281 12 -290 14 -14 77 -16 98 -2 12 7 16 39 18 160 l3 151
57 -3 57 -3 5 -155 5 -155 25 0 25 0 5 155 5 155 60 0 60 0 5 -155 5 -155 25
0 25 0 5 155 5 155 58 3 57 3 0 -167 0 -166 -34 -34 c-31 -31 -39 -34 -93 -34
-38 0 -68 6 -88 18 -29 18 -31 18 -62 -1 -27 -15 -44 -18 -95 -13 -75 7 -79 7
-187 0 -98 -7 -132 4 -161 51 -19 30 -20 49 -20 319 l0 286 60 0 60 0 0 -278z
m-2092 166 c17 -17 15 -64 -4 -82 -19 -20 -34 -20 -62 0 -40 28 -22 94 26 94
16 0 33 -5 40 -12z m1341 -2 c20 -24 9 -69 -21 -85 -24 -14 -28 -14 -47 3 -23
21 -28 65 -9 84 17 17 63 15 77 -2z m116 -10 c19 -29 6 -71 -25 -81 -29 -9
-70 19 -70 50 0 53 66 75 95 31z m-1430 -381 c0 -222 -1 -242 -20 -269 -24
-36 -71 -56 -130 -56 l-45 0 0 44 c0 43 1 45 33 48 l32 3 3 225 c1 124 4 231
7 238 3 9 22 12 62 10 l58 -3 0 -240z m1583 90 c2 -104 6 -152 15 -157 19 -12
122 -9 135 4 8 8 12 58 12 160 l0 148 60 0 60 0 0 -155 c0 -174 -8 -203 -61
-230 -24 -13 -52 -15 -137 -11 -59 3 -116 5 -127 5 -11 -1 -114 -3 -228 -5
l-208 -5 -35 35 -34 34 0 126 0 126 60 0 60 0 0 -108 c0 -71 4 -112 12 -120
17 -17 259 -17 276 0 8 8 12 57 12 153 0 78 3 145 7 149 4 4 32 6 63 4 l55 -3
3 -150z m146 -327 l16 -22 16 22 c18 26 56 29 78 6 38 -37 1 -103 -50 -90 -14
4 -28 16 -31 27 -5 18 -7 18 -29 -6 -13 -14 -31 -25 -40 -25 -25 0 -54 30 -54
56 0 51 66 73 94 32z"/>
</g>
</svg>
