<?xml version="1.0" encoding="utf-8"?>
<!-- Generator: Adobe Illustrator 19.1.1, SVG Export Plug-In . SVG Version: 6.00 Build 0)  -->
<svg version="1.1" id="Layer_1" xmlns="http://www.w3.org/2000/svg" xmlns:xlink="http://www.w3.org/1999/xlink" x="0px" y="0px"
	 viewBox="0 0 58 58.7" style="enable-background:new 0 0 58 58.7;" xml:space="preserve">
<style type="text/css">
	.st0{fill:#337AB7;stroke:#FFFFFF;stroke-miterlimit:10;}
	.st1{fill:#5BC0DE;}
	.st2{fill:#5BC0DE;stroke:#FFFFFF;stroke-miterlimit:10;}
	.st3{fill:#337AB7;}
</style>
<polygon class="st0" points="57.3,1.1 0.7,57.6 0.6,1.2 "/>
<g>
	<path class="st1" d="M21.9,32.3c-4.4-4.4-4.4-11.5,0.1-15.9c4.5-4.4,11.7-4.4,16.2,0.1c0.2,0.2,0.3,0.3,0.5,0.5l7.2-7
		c-0.3-0.4-0.7-0.8-1.1-1.1c-8.4-8.3-22-8.4-30.5-0.1s-8.5,21.7-0.1,30c0.4,0.4,0.8,0.7,1.2,1.1l7.2-7
		C22.3,32.6,22.1,32.5,21.9,32.3z"/>
	<path class="st1" d="M23.2,30.5c-3.6-3.6-3.6-9.4,0.1-13s9.6-3.5,13.2,0.1c0.1,0.1,0.3,0.3,0.4,0.4L23.7,30.9
		C23.5,30.7,23.4,30.6,23.2,30.5z"/>
</g>
<polygon class="st2" points="57.5,1.4 1,57.9 57.5,57.9 "/>
<g>
	<path class="st3" d="M35.6,26.8c4.5,4.4,4.4,11.5,0,15.9c-4.5,4.4-11.7,4.4-16.2,0c-0.2-0.2-0.3-0.3-0.5-0.5l-7.2,7
		c0.3,0.4,0.7,0.8,1.1,1.1c8.4,8.3,22.1,8.3,30.5,0.1c8.4-8.3,8.5-21.7,0.1-30c-0.4-0.4-0.8-0.7-1.2-1.1l-7.2,7
		C35.3,26.5,35.4,26.6,35.6,26.8z"/>
	<path class="st3" d="M34.3,28.6c3.6,3.6,3.6,9.4,0,13c-3.7,3.6-9.6,3.6-13.2,0c-0.1-0.1-0.3-0.3-0.4-0.4l13.2-12.9
		C34,28.4,34.1,28.5,34.3,28.6z"/>
</g>
</svg>
