<?xml version="1.0" encoding="iso-8859-1"?>
<!-- Generator: Adobe Illustrator 17.1.0, SVG Export Plug-In . SVG Version: 6.00 Build 0)  -->
<!DOCTYPE svg PUBLIC "-//W3C//DTD SVG 1.1//EN" "http://www.w3.org/Graphics/SVG/1.1/DTD/svg11.dtd">
<svg xmlns="http://www.w3.org/2000/svg" xmlns:xlink="http://www.w3.org/1999/xlink" version="1.1" id="Capa_1" x="0px" y="0px" viewBox="0 0 492.871 492.871" style="enable-background:new 0 0 492.871 492.871;" xml:space="preserve" width="512px" height="512px">
<path d="M397.502,402.607l-45.2-60.268c-2.902-3.869-4.5-8.664-4.5-13.5V183.871h9.042c11.3,0,20.494-9.193,20.494-20.494  c0-10.962-8.652-19.941-19.485-20.47v-31.489C357.854,49.982,307.872,0,246.436,0S135.017,49.982,135.017,111.418v31.489  c-10.833,0.528-19.485,9.508-19.485,20.47c0,11.3,9.194,20.494,20.494,20.494h9.042v144.968c0,4.836-1.598,9.631-4.5,13.5  l-45.2,60.268c-2.485,3.314-1.813,8.015,1.5,10.5c1.349,1.012,2.928,1.5,4.494,1.5c2.28,0,4.533-1.036,6.006-3l45.2-60.268  c4.836-6.449,7.5-14.439,7.5-22.5V183.871h27.667v197.375c0,5.788-1.156,11.42-3.436,16.74l-21.558,50.307  c-1.632,3.807,0.132,8.216,3.939,9.848c0.963,0.413,1.965,0.608,2.951,0.608c2.91,0,5.679-1.704,6.897-4.548l21.558-50.307  c3.084-7.198,4.648-14.818,4.648-22.648V183.871h36.2v301.5c0,4.142,3.358,7.5,7.5,7.5s7.5-3.358,7.5-7.5v-301.5h36.2v197.375  c0,7.831,1.564,15.451,4.648,22.648l21.558,50.307c1.219,2.844,3.987,4.548,6.897,4.548c0.986,0,1.987-0.195,2.951-0.608  c3.807-1.631,5.571-6.041,3.939-9.848l-21.558-50.307c-2.28-5.32-3.436-10.952-3.436-16.74V183.871h27.667v144.968  c0,8.061,2.664,16.051,7.5,22.5l45.2,60.268c1.474,1.965,3.726,3,6.006,3c1.565,0,3.145-0.489,4.494-1.5  C399.316,410.622,399.988,405.921,397.502,402.607z M130.532,163.377c0-3.029,2.465-5.494,5.494-5.494h6.491h172.185  c4.142,0,7.5-3.358,7.5-7.5s-3.358-7.5-7.5-7.5H150.017v-31.465C150.017,58.253,193.27,15,246.436,15s96.418,43.253,96.418,96.418  v38.965c0,4.142,3.358,7.5,7.5,7.5h6.491c3.029,0,5.494,2.465,5.494,5.494s-2.465,5.494-5.494,5.494H136.026  C132.997,168.871,130.532,166.407,130.532,163.377z M324.749,118.918c-4.142,0-7.5-3.358-7.5-7.5  c0-39.046-31.767-70.813-70.813-70.813c-4.142,0-7.5-3.358-7.5-7.5s3.358-7.5,7.5-7.5c47.317,0,85.813,38.496,85.813,85.813  C332.249,115.561,328.891,118.918,324.749,118.918z" fill="#2f707b"/>
<g>
</g>
<g>
</g>
<g>
</g>
<g>
</g>
<g>
</g>
<g>
</g>
<g>
</g>
<g>
</g>
<g>
</g>
<g>
</g>
<g>
</g>
<g>
</g>
<g>
</g>
<g>
</g>
<g>
</g>
</svg>
