<?xml version="1.0" encoding="utf-8"?>
<!-- Generator: Adobe Illustrator 25.3.0, SVG Export Plug-In . SVG Version: 6.00 Build 0)  -->
<svg version="1.1" xmlns="http://www.w3.org/2000/svg" xmlns:xlink="http://www.w3.org/1999/xlink" x="0px" y="0px"
	 viewBox="0 0 32 32" style="enable-background:new 0 0 32 32;" xml:space="preserve">
<style type="text/css">
	.st0{fill:#005CB9;}
	.st1{fill:#F5333F;}
</style>
<g id="Layer_1">
</g>
<g id="Layer_3">
</g>
<g id="Layer_2">
	<g>
		<path class="st0" d="M29.73,28.02l-3.35-7.61l-3.76,3.76l2.58,5.85c0.41,0.93,1.32,1.48,2.27,1.48c0.33,0,0.67-0.07,1-0.21
			C29.72,30.73,30.29,29.27,29.73,28.02"/>
		<path class="st0" d="M23.74,14.41L18.27,1.99c-0.4-0.9-1.29-1.48-2.27-1.48c-0.98,0-1.87,0.58-2.27,1.48L2.27,28.02
			c-0.55,1.25,0.02,2.72,1.27,3.27c1.25,0.55,2.72-0.02,3.27-1.27L16,9.13l3.96,8.99L23.74,14.41z"/>
		<path class="st1" d="M29.22,10.55c-0.97-0.97-2.54-0.97-3.51,0l-9.78,9.78l-3.85-3.85l-2.14,4.87l4.24,4.24
			c0.46,0.46,1.1,0.73,1.75,0.73c0.66,0,1.29-0.26,1.75-0.73l11.53-11.53C30.19,13.09,30.19,11.52,29.22,10.55"/>
		<polygon class="st0" points="6.38,18.67 10.14,22.43 12.82,16.34 9.06,12.58 		"/>
	</g>
</g>
</svg>
