<?xml version="1.0" encoding="UTF-8"?>
<svg xmlns="http://www.w3.org/2000/svg" xmlns:xlink="http://www.w3.org/1999/xlink" width="64px" height="64px" viewBox="0 0 64 64" version="1.1">
<g id="surface1">
<path style=" stroke:none;fill-rule:nonzero;fill:rgb(0%,0%,0%);fill-opacity:1;" d="M 24.015625 16.082031 C 19.664062 18.976562 16.078125 21.367188 16.042969 21.394531 L 15.984375 21.4375 L 15.988281 32.082031 L 15.996094 42.722656 L 23.972656 48.03125 L 31.949219 53.34375 L 32.0625 53.273438 C 32.121094 53.230469 35.71875 50.835938 40.046875 47.953125 L 47.925781 42.710938 L 47.917969 32.066406 L 47.910156 21.425781 L 45.457031 19.789062 C 44.109375 18.894531 42.984375 18.148438 42.960938 18.140625 C 42.933594 18.128906 42.0625 18.691406 40.5625 19.6875 C 39.269531 20.550781 38.199219 21.265625 38.191406 21.277344 C 38.179688 21.289062 39.28125 22.042969 40.640625 22.949219 L 43.117188 24.597656 L 43.195312 24.550781 C 43.242188 24.523438 43.355469 24.453125 43.449219 24.390625 C 43.539062 24.328125 43.617188 24.285156 43.617188 24.292969 C 43.617188 24.300781 43.507812 24.382812 43.371094 24.46875 L 43.128906 24.632812 L 43.128906 39.515625 L 37.554688 43.226562 C 34.488281 45.269531 31.96875 46.941406 31.960938 46.945312 C 31.945312 46.945312 29.425781 45.273438 26.355469 43.230469 L 20.777344 39.519531 L 20.777344 24.628906 L 20.699219 24.578125 C 20.652344 24.550781 20.617188 24.523438 20.617188 24.511719 C 20.617188 24.507812 20.652344 24.519531 20.699219 24.546875 C 20.761719 24.585938 20.792969 24.585938 20.839844 24.558594 C 20.875 24.539062 24.441406 22.164062 28.769531 19.28125 C 33.101562 16.398438 36.664062 14.027344 36.6875 14.011719 C 36.726562 13.988281 36.238281 13.652344 34.355469 12.398438 C 33.046875 11.523438 31.964844 10.8125 31.953125 10.8125 C 31.9375 10.8125 28.367188 13.183594 24.015625 16.082031 Z M 16.398438 21.679688 C 16.585938 21.808594 16.742188 21.917969 16.742188 21.925781 C 16.742188 21.933594 16.734375 21.933594 16.722656 21.929688 C 16.222656 21.601562 15.949219 21.414062 16.023438 21.441406 C 16.039062 21.445312 16.207031 21.554688 16.398438 21.679688 Z M 47.894531 21.449219 C 47.878906 21.464844 46.914062 22.113281 46.828125 22.164062 C 46.796875 22.179688 46.785156 22.183594 46.792969 22.167969 C 46.824219 22.132812 47.851562 21.445312 47.878906 21.441406 C 47.894531 21.4375 47.898438 21.445312 47.894531 21.449219 Z M 17.71875 22.5625 C 18.214844 22.894531 18.640625 23.179688 18.652344 23.195312 C 18.691406 23.242188 18.742188 23.273438 17.71875 22.59375 C 17.21875 22.261719 16.800781 21.976562 16.78125 21.960938 C 16.746094 21.914062 16.695312 21.882812 17.71875 22.5625 Z M 46.746094 22.214844 C 46.722656 22.234375 45.003906 23.386719 44.875 23.460938 C 44.863281 23.472656 44.859375 23.464844 44.871094 23.449219 C 44.894531 23.421875 46.738281 22.191406 46.757812 22.1875 C 46.765625 22.1875 46.757812 22.199219 46.746094 22.214844 Z M 19.640625 23.84375 C 20.140625 24.175781 20.5625 24.460938 20.574219 24.476562 C 20.613281 24.523438 20.664062 24.554688 19.640625 23.875 C 19.140625 23.542969 18.722656 23.257812 18.707031 23.242188 C 18.667969 23.195312 18.617188 23.164062 19.640625 23.84375 Z M 44.835938 23.480469 C 44.835938 23.488281 44.574219 23.664062 44.261719 23.875 C 43.59375 24.320312 43.625 24.300781 43.652344 24.261719 C 43.671875 24.242188 44.8125 23.472656 44.832031 23.46875 C 44.832031 23.46875 44.835938 23.476562 44.835938 23.480469 Z M 44.835938 23.480469 "/>
<path style=" stroke:none;fill-rule:nonzero;fill:rgb(0%,0%,0%);fill-opacity:1;" d="M 29.457031 27.074219 L 26.957031 28.734375 L 26.964844 32.0625 L 26.96875 35.386719 L 29.460938 37.046875 L 31.953125 38.710938 L 32.171875 38.5625 C 32.289062 38.480469 33.386719 37.75 34.609375 36.9375 C 35.832031 36.125 36.847656 35.445312 36.867188 35.421875 C 36.894531 35.390625 36.816406 35.328125 36.46875 35.097656 C 36.226562 34.9375 36.03125 34.800781 36.03125 34.792969 C 36.03125 34.773438 36.070312 34.796875 36.535156 35.113281 C 36.75 35.257812 36.9375 35.375 36.941406 35.375 C 36.945312 35.375 36.949219 33.882812 36.945312 32.054688 L 36.9375 28.738281 L 34.488281 27.101562 C 33.136719 26.203125 32.015625 25.457031 31.996094 25.441406 C 31.964844 25.421875 31.246094 25.882812 29.457031 27.074219 Z M 32.394531 32.347656 C 32.628906 32.507812 32.835938 32.648438 32.847656 32.664062 C 32.886719 32.710938 32.800781 32.65625 32.359375 32.355469 C 32.140625 32.210938 31.960938 32.09375 31.953125 32.09375 C 31.949219 32.09375 31.675781 32.273438 31.351562 32.488281 C 30.699219 32.921875 30.644531 32.960938 30.675781 32.917969 C 30.703125 32.886719 31.917969 32.070312 31.945312 32.066406 C 31.953125 32.0625 32.15625 32.191406 32.394531 32.347656 Z M 33.507812 33.09375 C 33.820312 33.304688 34.082031 33.480469 34.082031 33.492188 C 34.082031 33.496094 34.074219 33.496094 34.0625 33.492188 C 33.59375 33.183594 32.886719 32.710938 32.886719 32.695312 C 32.886719 32.691406 32.898438 32.691406 32.910156 32.695312 C 32.921875 32.703125 33.1875 32.882812 33.507812 33.09375 Z M 30.625 32.964844 C 30.605469 32.984375 28.183594 34.601562 28.054688 34.679688 C 28.039062 34.691406 28.035156 34.683594 28.046875 34.667969 C 28.070312 34.640625 30.617188 32.941406 30.640625 32.9375 C 30.644531 32.9375 30.640625 32.949219 30.625 32.964844 Z M 35.054688 34.125 C 35.554688 34.457031 35.976562 34.742188 35.992188 34.757812 C 36.027344 34.804688 36.078125 34.835938 35.054688 34.15625 C 34.558594 33.824219 34.136719 33.539062 34.121094 33.523438 C 34.082031 33.476562 34.03125 33.445312 35.054688 34.125 Z M 28.011719 34.699219 C 28.011719 34.71875 27.019531 35.375 26.992188 35.375 C 26.972656 35.375 27.980469 34.691406 28.007812 34.6875 C 28.007812 34.6875 28.011719 34.695312 28.011719 34.699219 Z M 28.011719 34.699219 "/>
</g>
</svg>
