<svg width="40" height="32" viewBox="0 0 40 32" fill="none" xmlns="http://www.w3.org/2000/svg">
<g clip-path="url(#clip0)" filter="url(#filter0_d)">
<path d="M4.45563 12.2558C4.58442 12.2357 4.72695 12.2224 4.88967 12.209C5.0524 12.1956 5.26264 12.189 5.50681 12.189C5.72384 12.189 5.92728 12.209 6.11716 12.2424C6.30704 12.2758 6.47655 12.336 6.61892 12.4227C6.76129 12.5029 6.87667 12.6163 6.95795 12.7565C7.03939 12.8967 7.07996 13.0702 7.07996 13.2772C7.07996 13.404 7.0596 13.5176 7.02566 13.6244C6.98494 13.7311 6.93743 13.8247 6.87651 13.9049C6.81543 13.9851 6.74093 14.0517 6.66627 14.1052C6.58483 14.1586 6.51033 14.1921 6.4221 14.1987C6.51033 14.2121 6.61198 14.2388 6.72041 14.2789C6.82884 14.319 6.93065 14.3857 7.02551 14.4659C7.12052 14.5461 7.20181 14.6595 7.26289 14.7863C7.32397 14.9198 7.35791 15.08 7.35791 15.2604C7.35791 15.5142 7.3104 15.7212 7.21554 15.8814C7.12052 16.0416 6.99173 16.1686 6.829 16.262C6.66627 16.3555 6.47639 16.4155 6.25937 16.4556C6.04235 16.489 5.81854 16.5091 5.58115 16.5091C5.39806 16.5091 5.22176 16.5024 5.04546 16.4957C4.86916 16.489 4.66571 16.469 4.44189 16.4422V12.2558H4.45563ZM5.56789 13.9517C5.66291 13.9517 5.75777 13.945 5.83921 13.9249C5.92066 13.9049 5.99516 13.8781 6.06302 13.8314C6.12411 13.7846 6.17824 13.7246 6.21218 13.6511C6.24611 13.5776 6.26647 13.4775 6.26647 13.3639C6.26647 13.2505 6.24611 13.1569 6.20539 13.0901C6.16467 13.0166 6.11038 12.9633 6.04945 12.9232C5.98158 12.8831 5.91387 12.8564 5.83243 12.843C5.75098 12.8297 5.6697 12.823 5.59504 12.823C5.48661 12.823 5.39159 12.8297 5.31694 12.843V13.958H5.56789V13.9517V13.9517ZM5.31015 15.8012C5.36444 15.8079 5.43216 15.8146 5.50002 15.8213C5.57468 15.8279 5.6356 15.8279 5.69669 15.8279C5.77813 15.8279 5.8662 15.8213 5.95443 15.8079C6.04266 15.7945 6.13074 15.7611 6.20539 15.721C6.28684 15.6742 6.34776 15.6143 6.40205 15.5341C6.45635 15.4539 6.47671 15.3538 6.47671 15.2203C6.47671 15.1002 6.45635 15 6.41563 14.9199C6.37491 14.8399 6.32061 14.7798 6.24611 14.7263C6.17146 14.6795 6.09017 14.6461 5.98837 14.6262C5.88656 14.6063 5.77813 14.5995 5.65612 14.5995H5.31031V15.8012H5.31015Z" fill="#010101"/>
<path d="M9.1892 16.5089C8.93824 16.5089 8.728 16.4688 8.54491 16.3888C8.36183 16.3086 8.21267 16.2018 8.09051 16.055C7.9685 15.9148 7.88027 15.7479 7.81919 15.561C7.75811 15.374 7.73096 15.167 7.73096 14.9467C7.73096 14.7263 7.75811 14.5193 7.81919 14.3257C7.88027 14.1321 7.96834 13.9652 8.09051 13.825C8.21251 13.6848 8.36183 13.5712 8.54491 13.4912C8.728 13.4112 8.94503 13.3711 9.1892 13.3711C9.44016 13.3711 9.65039 13.4112 9.84027 13.4912C10.0234 13.5714 10.1793 13.6848 10.3015 13.825C10.4235 13.9652 10.5117 14.1321 10.5728 14.3257C10.6339 14.5193 10.661 14.7263 10.661 14.9467C10.661 15.167 10.6339 15.374 10.5728 15.561C10.5117 15.7479 10.4236 15.9148 10.3015 16.055C10.1795 16.1952 10.0234 16.3088 9.84027 16.3888C9.65039 16.4688 9.43337 16.5089 9.1892 16.5089ZM9.1892 15.8814C9.40622 15.8814 9.56895 15.8012 9.66397 15.641C9.75898 15.4808 9.80633 15.2471 9.80633 14.9467C9.80633 14.6463 9.75883 14.4126 9.66397 14.2524C9.56895 14.0921 9.40622 14.012 9.1892 14.012C8.97217 14.012 8.81623 14.0921 8.72122 14.2524C8.6262 14.4126 8.57885 14.6463 8.57885 14.9467C8.57885 15.2471 8.62636 15.4808 8.72122 15.641C8.81623 15.8012 8.97233 15.8814 9.1892 15.8814Z" fill="#010101"/>
<path d="M12.4307 16.5089C12.1797 16.5089 11.9695 16.4688 11.7864 16.3888C11.6033 16.3086 11.4541 16.2018 11.332 16.055C11.21 15.9148 11.1217 15.7479 11.0606 15.561C10.9996 15.374 10.9724 15.167 10.9724 14.9467C10.9724 14.7263 10.9996 14.5193 11.0606 14.3257C11.1217 14.1321 11.2098 13.9652 11.332 13.825C11.454 13.6848 11.6033 13.5712 11.7864 13.4912C11.9695 13.4112 12.1865 13.3711 12.4307 13.3711C12.6816 13.3711 12.8919 13.4112 13.0817 13.4912C13.2648 13.5714 13.4208 13.6848 13.5429 13.825C13.6649 13.9652 13.7532 14.1321 13.8142 14.3257C13.8753 14.5193 13.9025 14.7263 13.9025 14.9467C13.9025 15.167 13.8753 15.374 13.8142 15.561C13.7532 15.7479 13.6651 15.9148 13.5429 16.055C13.4209 16.1952 13.2648 16.3088 13.0817 16.3888C12.8986 16.4688 12.6816 16.5089 12.4307 16.5089ZM12.4307 15.8814C12.6477 15.8814 12.8104 15.8012 12.9054 15.641C13.0004 15.4808 13.0478 15.2471 13.0478 14.9467C13.0478 14.6463 13.0003 14.4126 12.9054 14.2524C12.8104 14.0921 12.6477 14.012 12.4307 14.012C12.2136 14.012 12.0577 14.0921 11.9627 14.2524C11.8677 14.4126 11.8203 14.6463 11.8203 14.9467C11.8203 15.2471 11.8678 15.4808 11.9627 15.641C12.0577 15.8012 12.2136 15.8814 12.4307 15.8814Z" fill="#010101"/>
<path d="M14.3293 12.1623C14.4649 12.1423 14.6007 12.1289 14.743 12.1289C14.8854 12.1289 15.0211 12.1423 15.1635 12.1623V16.4087C15.0279 16.4288 14.8854 16.4422 14.743 16.4422C14.6007 16.4422 14.4649 16.4288 14.3293 16.4087V12.1623ZM15.1431 14.833L15.8959 13.4041C16.0518 13.3841 16.2077 13.3707 16.3638 13.3707C16.513 13.3707 16.6555 13.3841 16.7979 13.4041L16.0248 14.7929L16.9335 16.4087C16.7707 16.4288 16.6148 16.4422 16.4655 16.4422C16.3299 16.4422 16.1806 16.4288 16.0314 16.4087L15.1431 14.833Z" fill="#010101"/>
<path d="M18.7985 14.4726C18.7985 14.3791 18.7849 14.3057 18.751 14.2456C18.7171 14.1854 18.6763 14.1388 18.6222 14.1054C18.5679 14.072 18.5002 14.052 18.4188 14.0386C18.3373 14.0252 18.2492 14.0185 18.1474 14.0185C17.9372 14.0185 17.7066 14.0586 17.4692 14.132C17.4149 14.0319 17.3742 13.9384 17.3472 13.8448C17.3201 13.7579 17.3065 13.6512 17.3065 13.5244C17.4828 13.4709 17.6523 13.4243 17.8286 13.4043C18.0049 13.3775 18.1609 13.3642 18.3102 13.3708C18.7171 13.3775 19.0357 13.4709 19.2663 13.6712C19.4969 13.8649 19.6054 14.1786 19.6054 14.606L19.5918 16.3486C19.4562 16.3887 19.2867 16.4288 19.09 16.4687C18.8934 16.5088 18.6696 16.5222 18.4254 16.5222C18.2219 16.5222 18.0388 16.5021 17.8761 16.462C17.7066 16.4286 17.5642 16.3685 17.4489 16.2818C17.3269 16.2016 17.2386 16.0948 17.1775 15.968C17.1165 15.8412 17.0825 15.6808 17.0825 15.4939C17.0825 15.307 17.1232 15.1534 17.2045 15.0265C17.286 14.8997 17.3944 14.7994 17.5232 14.7261C17.652 14.6526 17.7945 14.5993 17.9505 14.5659C18.1064 14.5324 18.2623 14.5191 18.4252 14.5191C18.5404 14.5191 18.6626 14.5258 18.805 14.5391L18.7985 14.4726ZM18.7917 15.0669C18.7442 15.0602 18.6967 15.0535 18.6358 15.0468C18.5815 15.0401 18.5341 15.0401 18.4866 15.0401C18.2968 15.0401 18.1408 15.0735 18.0254 15.1402C17.9102 15.207 17.8559 15.3138 17.8559 15.4673C17.8559 15.5674 17.8763 15.6476 17.917 15.701C17.9577 15.7545 18.012 15.7946 18.0729 15.8212C18.134 15.8479 18.2017 15.8613 18.2696 15.8679C18.3375 15.8746 18.3984 15.8746 18.4527 15.8813C18.5138 15.8813 18.5679 15.8746 18.629 15.8679C18.6901 15.8613 18.7374 15.8479 18.7849 15.8412L18.7917 15.0669Z" fill="#010101"/>
<path d="M20.3651 14.0987H19.9786L19.9514 13.9852L21.0567 12.5964H21.1923V13.4712H21.9043C21.9179 13.5313 21.9247 13.5846 21.9247 13.6247C21.9315 13.6715 21.9315 13.7183 21.9315 13.7716C21.9315 13.8249 21.9315 13.8783 21.9247 13.9251C21.9179 13.9785 21.9111 14.0318 21.9043 14.092H21.1923V15.2738C21.1923 15.3939 21.1991 15.4875 21.2195 15.5675C21.2398 15.641 21.267 15.701 21.3077 15.7411C21.3484 15.7812 21.3891 15.8146 21.4433 15.8279C21.4976 15.8413 21.5653 15.848 21.6399 15.848C21.701 15.848 21.7552 15.8413 21.8162 15.8346C21.8705 15.8279 21.9247 15.8146 21.9654 15.8079C21.9925 15.8814 22.0129 15.9547 22.0265 16.0349C22.04 16.1151 22.0468 16.1818 22.0468 16.2486C22.0468 16.2887 22.0468 16.3288 22.0468 16.3554C22.0468 16.3821 22.04 16.4155 22.04 16.4422C21.857 16.4823 21.6739 16.509 21.4772 16.509C21.1178 16.509 20.8465 16.4289 20.6566 16.262C20.4667 16.0951 20.3717 15.8279 20.3717 15.4607V14.0987H20.3651V14.0987Z" fill="#010101"/>
<path d="M24.0678 14.4726C24.0678 14.3791 24.0542 14.3057 24.0203 14.2456C23.9864 14.1854 23.9456 14.1388 23.8915 14.1054C23.8372 14.072 23.7695 14.052 23.688 14.0386C23.6066 14.0252 23.5185 14.0185 23.4167 14.0185C23.2065 14.0185 22.9759 14.0586 22.7385 14.132C22.6842 14.0319 22.6435 13.9384 22.6165 13.8448C22.5893 13.7579 22.5758 13.6512 22.5758 13.5244C22.7521 13.4709 22.9216 13.4243 23.0979 13.4043C23.2742 13.3775 23.4301 13.3642 23.5795 13.3708C23.9864 13.3775 24.305 13.4709 24.5356 13.6712C24.7662 13.8649 24.8747 14.1786 24.8747 14.606L24.8611 16.3486C24.7255 16.3887 24.556 16.4288 24.3593 16.4687C24.1627 16.5087 23.9388 16.5222 23.6947 16.5222C23.4912 16.5222 23.3081 16.5021 23.1454 16.462C22.9759 16.4286 22.8335 16.3685 22.7181 16.2818C22.5961 16.2016 22.5079 16.0948 22.4468 15.968C22.3857 15.8412 22.3518 15.6808 22.3518 15.4939C22.3518 15.307 22.3925 15.1534 22.4738 15.0265C22.5553 14.8997 22.6637 14.7994 22.7857 14.7261C22.9145 14.6526 23.057 14.5993 23.213 14.5659C23.3689 14.5324 23.5248 14.5191 23.6877 14.5191C23.8029 14.5191 23.9251 14.5258 24.0675 14.5391L24.0678 14.4726ZM24.061 15.0669C24.0135 15.0602 23.966 15.0535 23.9051 15.0468C23.8508 15.0401 23.8034 15.0401 23.7559 15.0401C23.566 15.0401 23.4101 15.0735 23.2947 15.1402C23.1795 15.207 23.1252 15.3138 23.1252 15.4673C23.1252 15.5674 23.1456 15.6476 23.1863 15.701C23.227 15.7545 23.2813 15.7946 23.3422 15.8212C23.4033 15.8479 23.471 15.8613 23.5389 15.8679C23.6068 15.8746 23.6677 15.8746 23.722 15.8813C23.7831 15.8813 23.8372 15.8746 23.8983 15.8679C23.9594 15.8613 24.0067 15.8479 24.0542 15.8412L24.061 15.0669Z" fill="#010101"/>
<path d="M25.4714 12.1955C25.6138 12.1755 25.7495 12.1621 25.8851 12.1621C26.0207 12.1621 26.1632 12.1755 26.3056 12.1955V13.7312C26.3667 13.6244 26.4615 13.5375 26.6041 13.4707C26.7396 13.4039 26.8957 13.3706 27.0788 13.3706C27.2551 13.3706 27.4179 13.4041 27.5738 13.4642C27.723 13.5243 27.8587 13.6177 27.9671 13.7447C28.0756 13.8717 28.1638 14.0252 28.2249 14.2188C28.286 14.4058 28.3199 14.6328 28.3199 14.8932C28.3199 15.147 28.2792 15.3674 28.2047 15.5677C28.1232 15.768 28.0148 15.9349 27.8656 16.075C27.7165 16.2152 27.5334 16.3221 27.3164 16.3955C27.0994 16.469 26.8552 16.5089 26.584 16.5089C26.4958 16.5089 26.4077 16.5022 26.3127 16.4956C26.2177 16.4889 26.116 16.4755 26.021 16.4621C25.9194 16.4488 25.8311 16.4287 25.7361 16.4087C25.6479 16.3886 25.5598 16.3619 25.4852 16.3352V12.1955H25.4714ZM26.3056 15.7877C26.3531 15.8011 26.4006 15.8144 26.4548 15.8144C26.509 15.8211 26.5632 15.8211 26.6175 15.8211C26.8752 15.8211 27.0719 15.7476 27.221 15.6008C27.3634 15.4539 27.4381 15.2202 27.4381 14.9065C27.4381 14.626 27.3906 14.4124 27.3025 14.2721C27.2143 14.1253 27.0583 14.0518 26.8413 14.0518C26.6854 14.0518 26.5564 14.1052 26.4548 14.2053C26.3531 14.3054 26.3056 14.4724 26.3056 14.6926V15.7877Z" fill="#010101"/>
<path d="M28.7673 12.229C28.9097 12.2089 29.0454 12.1956 29.1878 12.1956C29.3234 12.1956 29.4591 12.2089 29.6015 12.229V15.2802C29.6015 15.4004 29.6083 15.4939 29.6219 15.5739C29.6354 15.6474 29.6558 15.7074 29.6897 15.7475C29.7169 15.7876 29.7576 15.8143 29.8049 15.8344C29.8525 15.8478 29.9134 15.8544 29.9813 15.8544C30.0152 15.8544 30.0491 15.8544 30.0829 15.8478C30.1236 15.8411 30.1576 15.8411 30.1913 15.8277C30.2321 15.9879 30.2592 16.1415 30.2592 16.2951C30.2592 16.3286 30.2592 16.3553 30.2592 16.382C30.2592 16.4087 30.2524 16.4355 30.2456 16.4689C30.1845 16.4889 30.11 16.5023 30.0218 16.509C29.9336 16.5157 29.8523 16.5223 29.7776 16.5223C29.4725 16.5223 29.2352 16.4422 29.0521 16.2753C28.869 16.1084 28.7808 15.8412 28.7808 15.474V12.229H28.7673Z" fill="#010101"/>
<path d="M31.1883 15.1935C31.2019 15.4272 31.2833 15.5941 31.4393 15.7008C31.5884 15.8076 31.7851 15.8544 32.0292 15.8544C32.1648 15.8544 32.3006 15.841 32.4361 15.8143C32.5785 15.7876 32.7075 15.7541 32.8363 15.7075C32.877 15.7877 32.9177 15.8811 32.9515 15.988C32.9854 16.0948 32.999 16.2151 33.0058 16.3352C32.7007 16.4486 32.3547 16.5088 31.9682 16.5088C31.6833 16.5088 31.4393 16.4687 31.2426 16.3953C31.0392 16.3151 30.8764 16.2084 30.7476 16.0749C30.6188 15.9347 30.5238 15.7745 30.4627 15.5809C30.4017 15.3939 30.3745 15.1869 30.3745 14.9599C30.3745 14.7395 30.4084 14.5326 30.4695 14.3389C30.5306 14.1453 30.6255 13.9784 30.7476 13.8315C30.8696 13.6914 31.0257 13.5778 31.2088 13.4911C31.3919 13.4109 31.6021 13.3643 31.8463 13.3643C32.0566 13.3643 32.2464 13.4044 32.4159 13.4777C32.5787 13.5512 32.721 13.6513 32.8364 13.7781C32.9516 13.9049 33.0399 14.0586 33.1009 14.2322C33.162 14.4057 33.1892 14.5994 33.1892 14.7997C33.1892 14.8732 33.1892 14.9465 33.1824 15.02C33.1756 15.0935 33.1688 15.1468 33.162 15.1936H31.1883V15.1935ZM32.3886 14.6193C32.3818 14.4323 32.3276 14.2855 32.2327 14.1719C32.1377 14.0584 32.0021 13.9983 31.8258 13.9983C31.6291 13.9983 31.48 14.0517 31.3782 14.1585C31.2765 14.2653 31.2155 14.419 31.1951 14.6193H32.3886Z" fill="#010101"/>
<path d="M34.0095 12.0486C34.0095 12.0486 33.5891 11.1072 33.3313 11.2006C32.1988 11.628 33.9756 14.0516 33.9756 14.0516C33.9756 14.0516 35.8812 12.5226 35.3658 11.6946C35.2302 11.4743 34.6199 11.4009 34.6199 11.4009L34.0095 12.0486Z" fill="#CF2029"/>
<path d="M34.0977 12.2757C34.0434 12.3291 33.9553 12.289 33.9553 12.289C33.8738 12.2623 33.8603 12.2089 33.8197 12.0754C33.7654 11.8951 33.623 11.4076 33.4264 11.3476C33.3992 11.3409 33.3585 11.3343 33.284 11.3744C33.1756 11.4412 33.1145 11.5479 33.1009 11.7015C33.0398 12.3492 33.7588 13.5176 34.0096 13.8514C34.0232 13.8447 34.0299 13.8314 34.0435 13.818C34.4165 13.4909 35.5422 12.5027 35.2031 11.7482C35.1488 11.6348 35.0608 11.5814 34.9929 11.5613C34.7487 11.4878 34.3215 11.6281 34.118 12.1956L34.0977 12.2491V12.2757ZM33.9756 14.1785C33.7858 14.1184 32.938 12.7764 32.8432 11.9352C32.7889 11.4479 32.9855 11.2275 33.1618 11.1206C33.2838 11.0471 33.406 11.0337 33.5212 11.0671C33.7858 11.154 33.9417 11.4945 34.0298 11.7815C34.3079 11.3475 34.7486 11.1873 35.0878 11.2875C35.2573 11.3409 35.3929 11.4611 35.4675 11.6213C35.8948 12.5694 34.6944 13.6244 34.24 14.0183C34.1925 14.0584 34.1586 14.0918 34.1384 14.1119C34.1384 14.1185 34.0367 14.2253 33.9756 14.1785Z" fill="#06060A"/>
<path d="M21.6659 19.5648C21.5736 19.5648 21.49 19.5432 21.4153 19.5C21.3406 19.4568 21.2816 19.3988 21.2385 19.3259V19.5421H21.0144V17.8813H21.2685V18.5774C21.3162 18.5015 21.376 18.4417 21.4477 18.3977C21.5193 18.3538 21.6036 18.3317 21.7007 18.3317C21.7807 18.3317 21.8539 18.3488 21.9202 18.3828C21.9865 18.417 22.043 18.4624 22.0901 18.5193C22.1371 18.5761 22.1732 18.6422 22.1986 18.7172C22.2241 18.7923 22.2368 18.8708 22.2368 18.9527C22.2368 19.0377 22.2222 19.1172 22.193 19.1915C22.1636 19.2658 22.1237 19.3306 22.0728 19.3861C22.022 19.4414 21.9616 19.485 21.8915 19.5169C21.8211 19.5488 21.746 19.5648 21.6659 19.5648ZM21.5989 19.3509C21.6543 19.3509 21.7051 19.3399 21.7513 19.318C21.7976 19.2961 21.8372 19.2669 21.8703 19.2304C21.9035 19.194 21.9292 19.1519 21.9477 19.1042C21.9662 19.0565 21.9755 19.006 21.9755 18.953C21.9755 18.8998 21.9666 18.8487 21.9489 18.7994C21.9313 18.7502 21.9066 18.707 21.8751 18.6698C21.8435 18.6327 21.8058 18.6027 21.7619 18.58C21.718 18.5573 21.6699 18.5458 21.6175 18.5458C21.5389 18.5458 21.4693 18.5708 21.4084 18.6209C21.3474 18.6709 21.3009 18.7315 21.2685 18.8029V19.1168C21.2778 19.1517 21.2939 19.1831 21.317 19.2112C21.34 19.2394 21.367 19.2639 21.3978 19.2852C21.4286 19.3065 21.4617 19.3228 21.4971 19.3342C21.5326 19.3452 21.5665 19.3509 21.5989 19.3509Z" fill="black"/>
<path d="M22.4885 19.8219C22.5115 19.8264 22.5343 19.8303 22.5567 19.8332C22.5789 19.8364 22.5971 19.8378 22.611 19.8378C22.631 19.8378 22.6484 19.8336 22.6629 19.8252C22.6776 19.8168 22.6926 19.802 22.7079 19.7809C22.7232 19.7596 22.7391 19.7297 22.7552 19.6911C22.7715 19.6524 22.7903 19.6026 22.8119 19.542L22.3152 18.3523H22.5762L22.9505 19.3214L23.2832 18.3523H23.5234L22.9759 19.8172C22.9513 19.8855 22.9085 19.9426 22.8477 19.989C22.7868 20.0353 22.7087 20.0583 22.6132 20.0583C22.5947 20.0583 22.5755 20.0572 22.5554 20.0548C22.5354 20.0525 22.513 20.0477 22.4883 20.0401V19.8219H22.4885Z" fill="black"/>
<path d="M25.4367 18.1522H24.8914V19.5421H24.6303V18.1522H24.0828V17.927H25.4367V18.1522Z" fill="black"/>
<path d="M26.7306 19.5419H26.4765V18.8754C26.4765 18.7662 26.4569 18.6855 26.4176 18.6332C26.3783 18.5808 26.3218 18.5547 26.2478 18.5547C26.2123 18.5547 26.1769 18.5615 26.1416 18.5752C26.106 18.5889 26.0726 18.6081 26.041 18.6332C26.0094 18.6582 25.9814 18.6877 25.9567 18.7219C25.9321 18.7561 25.9136 18.7935 25.9013 18.8346V19.5421H25.6472V17.8813H25.9013V18.5911C25.9476 18.5092 26.0102 18.4454 26.0896 18.3999C26.169 18.3544 26.2555 18.3317 26.3496 18.3317C26.425 18.3317 26.4871 18.3451 26.5355 18.3715C26.584 18.398 26.623 18.4333 26.6522 18.4773C26.6814 18.5213 26.7019 18.5726 26.7134 18.6308C26.7249 18.6893 26.7308 18.7511 26.7308 18.8162V19.5419H26.7306Z" fill="black"/>
<path d="M27.5968 19.5648C27.5029 19.5648 27.4174 19.5485 27.3404 19.5159C27.2633 19.4833 27.1975 19.439 27.1427 19.3829C27.088 19.3268 27.0457 19.2615 27.0157 19.1872C26.9857 19.113 26.9707 19.034 26.9707 18.9507C26.9707 18.8673 26.9857 18.788 27.0157 18.713C27.0457 18.6379 27.0881 18.5719 27.1427 18.515C27.1974 18.4581 27.2633 18.4134 27.3404 18.3807C27.4174 18.3481 27.5035 18.3318 27.5992 18.3318C27.6931 18.3318 27.7783 18.3486 27.8546 18.3818C27.9308 18.4152 27.9958 18.4595 28.0498 18.5148C28.1038 18.5702 28.1448 18.6347 28.1734 18.7082C28.2018 18.7817 28.2162 18.8587 28.2162 18.9391C28.2162 18.9573 28.2154 18.9743 28.2138 18.9902C28.2122 19.006 28.2106 19.0194 28.2092 19.03H27.2411C27.2457 19.0831 27.2584 19.1308 27.2793 19.1733C27.3001 19.2157 27.3269 19.2525 27.3601 19.2836C27.3932 19.3147 27.4309 19.3386 27.4732 19.3552C27.5155 19.372 27.5599 19.3802 27.6061 19.3802C27.6401 19.3802 27.6735 19.376 27.7067 19.3677C27.7398 19.3593 27.7703 19.3471 27.7979 19.3313C27.8257 19.3153 27.8503 19.296 27.8718 19.2733C27.8934 19.2506 27.9103 19.2256 27.9226 19.1983L28.1398 19.2597C28.0983 19.3492 28.0293 19.4224 27.933 19.4792C27.8367 19.5364 27.7247 19.5648 27.5968 19.5648ZM27.9641 18.8573C27.9595 18.8073 27.9467 18.761 27.9259 18.7186C27.9051 18.6761 27.8786 18.6401 27.8462 18.6106C27.8138 18.581 27.7761 18.5579 27.733 18.5411C27.69 18.5245 27.6445 18.5161 27.5967 18.5161C27.5488 18.5161 27.5039 18.5245 27.4616 18.5411C27.4193 18.5579 27.3819 18.5809 27.3495 18.6106C27.3171 18.6401 27.2909 18.6761 27.2709 18.7186C27.2509 18.761 27.2385 18.8073 27.234 18.8573H27.9641Z" fill="black"/>
<path d="M28.468 19.5421V17.927H29.5609V18.1522H28.7267V18.6344H29.4245V18.8459H28.7267V19.5419H28.468V19.5421Z" fill="black"/>
<path d="M30.261 19.5647C30.1655 19.5647 30.0796 19.548 30.0034 19.5147C29.9271 19.4813 29.8621 19.4367 29.8081 19.3804C29.7541 19.3243 29.7126 19.2588 29.6833 19.1837C29.6541 19.1086 29.6394 19.0302 29.6394 18.9483C29.6394 18.8664 29.6541 18.7879 29.6833 18.7128C29.7125 18.6378 29.7545 18.5722 29.8092 18.5161C29.8638 18.46 29.9293 18.4152 30.0056 18.3818C30.0818 18.3484 30.1669 18.3318 30.261 18.3318C30.3549 18.3318 30.4401 18.3486 30.5163 18.3818C30.5926 18.4152 30.6581 18.46 30.7127 18.5161C30.7673 18.5722 30.8093 18.6378 30.8386 18.7128C30.8678 18.7879 30.8825 18.8664 30.8825 18.9483C30.8825 19.0302 30.8678 19.1086 30.8386 19.1837C30.8094 19.2588 30.7675 19.3243 30.7127 19.3804C30.6579 19.4365 30.5926 19.4813 30.5163 19.5147C30.4401 19.548 30.3549 19.5647 30.261 19.5647ZM29.9005 18.9504C29.9005 19.0081 29.9098 19.0611 29.9282 19.1097C29.9467 19.1584 29.9721 19.2003 30.0045 19.2361C30.0368 19.2716 30.0749 19.2998 30.1189 19.3203C30.1628 19.3408 30.2101 19.3511 30.261 19.3511C30.3118 19.3511 30.3591 19.3408 30.403 19.3203C30.4469 19.2998 30.4851 19.2713 30.5174 19.235C30.5498 19.1986 30.5752 19.1562 30.5937 19.1075C30.6121 19.0591 30.6215 19.0059 30.6215 18.9483C30.6215 18.8922 30.6121 18.8395 30.5937 18.7902C30.5752 18.741 30.5498 18.6981 30.5174 18.6617C30.4851 18.6253 30.447 18.5969 30.403 18.5764C30.3591 18.5559 30.3118 18.5456 30.261 18.5456C30.2117 18.5456 30.1652 18.5562 30.1211 18.5775C30.0772 18.5988 30.039 18.6275 30.0067 18.6639C29.9743 18.7002 29.9484 18.7431 29.9293 18.7924C29.9101 18.8417 29.9005 18.8943 29.9005 18.9504Z" fill="black"/>
<path d="M31.8111 18.5683C31.7125 18.5714 31.6252 18.5938 31.5488 18.6355C31.4726 18.6771 31.4183 18.7366 31.3859 18.814V19.5419H31.1318V18.3522H31.3675V18.6184C31.4091 18.5365 31.4634 18.4709 31.5304 18.4216C31.5974 18.3724 31.6694 18.3455 31.7464 18.3408C31.7617 18.3408 31.7745 18.3408 31.7846 18.3408C31.7946 18.3408 31.8034 18.3416 31.8111 18.3432V18.5683Z" fill="black"/>
<path d="M32.8602 19.5419L32.4742 18.9937L32.2732 19.1802V19.5419H32.019V17.8813H32.2732V18.9346L32.8276 18.3545H33.105L32.6359 18.8527L33.1304 19.5421H32.8602V19.5419Z" fill="black"/>
</g>
<defs>
<filter id="filter0_d" x="0" y="0" width="40" height="40" filterUnits="userSpaceOnUse" color-interpolation-filters="sRGB">
<feFlood flood-opacity="0" result="BackgroundImageFix"/>
<feColorMatrix in="SourceAlpha" type="matrix" values="0 0 0 0 0 0 0 0 0 0 0 0 0 0 0 0 0 0 127 0"/>
<feOffset dy="4"/>
<feGaussianBlur stdDeviation="2"/>
<feColorMatrix type="matrix" values="0 0 0 0 0 0 0 0 0 0 0 0 0 0 0 0 0 0 0.25 0"/>
<feBlend mode="normal" in2="BackgroundImageFix" result="effect1_dropShadow"/>
<feBlend mode="normal" in="SourceGraphic" in2="effect1_dropShadow" result="shape"/>
</filter>
<clipPath id="clip0">
<rect width="32" height="32" fill="white" transform="translate(4)"/>
</clipPath>
</defs>
</svg>
