<svg width="456" height="423" viewBox="0 0 456 423" fill="none" xmlns="http://www.w3.org/2000/svg">
<g filter="url(#filter0_d_3323_482)">
<path d="M187.603 126.158L26.6031 234.355C4.46563 249.232 4.46563 273.577 26.6031 288.454L187.603 396.651C209.741 411.528 245.966 411.528 268.103 396.651L429.103 288.454C451.241 273.577 451.241 249.232 429.103 234.355L268.103 126.158C245.966 111.281 209.741 111.281 187.603 126.158Z" fill="black"/>
</g>
<path d="M187.603 126.158L26.6031 234.355C4.46563 249.232 4.46563 273.577 26.6031 288.454L187.603 396.651C209.741 411.528 245.966 411.528 268.103 396.651L429.103 288.454C451.241 273.577 451.241 249.232 429.103 234.355L268.103 126.158C245.966 111.281 209.741 111.281 187.603 126.158Z" fill="url(#paint0_linear_3323_482)"/>
<g filter="url(#filter1_d_3323_482)">
<path d="M187.603 71.1578L26.6031 179.355C4.46563 194.232 4.46563 218.577 26.6031 233.454L187.603 341.651C209.741 356.528 245.966 356.528 268.103 341.651L429.103 233.454C451.241 218.577 451.241 194.232 429.103 179.355L268.103 71.1578C245.966 56.2808 209.741 56.2808 187.603 71.1578Z" fill="black"/>
</g>
<path d="M187.603 71.1578L26.6031 179.355C4.46563 194.232 4.46563 218.577 26.6031 233.454L187.603 341.651C209.741 356.528 245.966 356.528 268.103 341.651L429.103 233.454C451.241 218.577 451.241 194.232 429.103 179.355L268.103 71.1578C245.966 56.2808 209.741 56.2808 187.603 71.1578Z" fill="url(#paint1_linear_3323_482)"/>
<g filter="url(#filter2_d_3323_482)">
<path d="M187.603 16.1578L26.6031 124.355C4.46563 139.232 4.46563 163.577 26.6031 178.454L187.603 286.651C209.741 301.528 245.966 301.528 268.103 286.651L429.103 178.454C451.241 163.577 451.241 139.232 429.103 124.355L268.103 16.1578C245.966 1.28075 209.741 1.28075 187.603 16.1578V16.1578Z" fill="black"/>
</g>
<path d="M187.603 16.1578L26.6031 124.355C4.46563 139.232 4.46563 163.577 26.6031 178.454L187.603 286.651C209.741 301.528 245.966 301.528 268.103 286.651L429.103 178.454C451.241 163.577 451.241 139.232 429.103 124.355L268.103 16.1578C245.966 1.28075 209.741 1.28075 187.603 16.1578V16.1578Z" fill="url(#paint2_linear_3323_482)"/>
<path d="M251.256 217.088L126.138 133.004L175.129 100.081C196.544 85.6888 223.523 84.3393 242.251 96.9253C255.273 105.676 257.858 120.233 247.973 129.787L248.668 130.254C267.83 120.288 290.721 120.991 307.366 132.177C329.389 146.977 326.701 166.386 300.085 184.273L251.256 217.088V217.088ZM195.676 158.759L220.647 141.978C239.114 129.567 241.802 117.854 228.259 108.753C215.86 100.42 200.514 101.526 185.333 111.728L155.513 131.768L195.676 158.759V158.759ZM283.942 176.591C302.757 163.946 305.01 152.175 290.543 142.453C276.077 132.731 258.462 134.646 238.522 148.046L209.128 167.8L253.088 197.342L283.942 176.591V176.591Z" fill="white"/>
<defs>
<filter id="filter0_d_3323_482" x="0" y="110" width="455.706" height="312.809" filterUnits="userSpaceOnUse" color-interpolation-filters="sRGB">
<feFlood flood-opacity="0" result="BackgroundImageFix"/>
<feColorMatrix in="SourceAlpha" type="matrix" values="0 0 0 0 0 0 0 0 0 0 0 0 0 0 0 0 0 0 127 0" result="hardAlpha"/>
<feOffset dy="5"/>
<feGaussianBlur stdDeviation="5"/>
<feColorMatrix type="matrix" values="0 0 0 0 0 0 0 0 0 0 0 0 0 0 0 0 0 0 0.25 0"/>
<feBlend mode="normal" in2="BackgroundImageFix" result="effect1_dropShadow_3323_482"/>
<feBlend mode="normal" in="SourceGraphic" in2="effect1_dropShadow_3323_482" result="shape"/>
</filter>
<filter id="filter1_d_3323_482" x="0" y="55" width="455.706" height="312.809" filterUnits="userSpaceOnUse" color-interpolation-filters="sRGB">
<feFlood flood-opacity="0" result="BackgroundImageFix"/>
<feColorMatrix in="SourceAlpha" type="matrix" values="0 0 0 0 0 0 0 0 0 0 0 0 0 0 0 0 0 0 127 0" result="hardAlpha"/>
<feOffset dy="5"/>
<feGaussianBlur stdDeviation="5"/>
<feColorMatrix type="matrix" values="0 0 0 0 0 0 0 0 0 0 0 0 0 0 0 0 0 0 0.25 0"/>
<feBlend mode="normal" in2="BackgroundImageFix" result="effect1_dropShadow_3323_482"/>
<feBlend mode="normal" in="SourceGraphic" in2="effect1_dropShadow_3323_482" result="shape"/>
</filter>
<filter id="filter2_d_3323_482" x="0" y="0" width="455.706" height="312.809" filterUnits="userSpaceOnUse" color-interpolation-filters="sRGB">
<feFlood flood-opacity="0" result="BackgroundImageFix"/>
<feColorMatrix in="SourceAlpha" type="matrix" values="0 0 0 0 0 0 0 0 0 0 0 0 0 0 0 0 0 0 127 0" result="hardAlpha"/>
<feOffset dy="5"/>
<feGaussianBlur stdDeviation="5"/>
<feColorMatrix type="matrix" values="0 0 0 0 0 0 0 0 0 0 0 0 0 0 0 0 0 0 0.25 0"/>
<feBlend mode="normal" in2="BackgroundImageFix" result="effect1_dropShadow_3323_482"/>
<feBlend mode="normal" in="SourceGraphic" in2="effect1_dropShadow_3323_482" result="shape"/>
</filter>
<linearGradient id="paint0_linear_3323_482" x1="227.853" y1="115" x2="227.853" y2="407.809" gradientUnits="userSpaceOnUse">
<stop stop-color="#5C24AE"/>
<stop offset="1" stop-color="#30135A"/>
</linearGradient>
<linearGradient id="paint1_linear_3323_482" x1="227.853" y1="9.33526" x2="227.853" y2="352.809" gradientUnits="userSpaceOnUse">
<stop stop-color="#7331D4"/>
<stop offset="1" stop-color="#461B84"/>
</linearGradient>
<linearGradient id="paint2_linear_3323_482" x1="227.853" y1="5" x2="227.853" y2="297.809" gradientUnits="userSpaceOnUse">
<stop stop-color="#905BDD"/>
<stop offset="1" stop-color="#5521A0"/>
</linearGradient>
</defs>
</svg>
