<svg width="32" height="32" viewBox="0 0 32 32" fill="none" xmlns="http://www.w3.org/2000/svg">
<path d="M22.546 7.97281L26.5557 3.96877C23.9206 1.65041 20.5934 0.267594 17.0914 0.0352783V5.70914C19.0914 5.91571 20.9874 6.70254 22.546 7.97281Z" fill="#111827"/>
<path d="M26.325 14.9461H32C31.7698 11.4405 30.3893 8.10892 28.0726 5.46806L24.0629 9.47358C25.3335 11.0387 26.1197 12.9406 26.325 14.9461V14.9461Z" fill="#111827"/>
<path d="M26.3249 17.0774C26.1176 19.0847 25.3277 20.9875 24.0526 22.5514L28.0623 26.5584C30.3785 23.9166 31.7589 20.5847 31.9897 17.0789H26.3249V17.0774Z" fill="#111827"/>
<path d="M26.566 28.0753L22.5563 24.061C20.9895 25.3234 19.0922 26.1078 17.0914 26.3202V31.9956C20.5943 31.7644 23.9238 30.3868 26.566 28.0753V28.0753Z" fill="#111827"/>
<path d="M5.65449 16.022V0H0V16.022C0.00170495 20.0809 1.54373 23.9878 4.31458 26.9536C7.08542 29.9194 10.8786 31.723 14.9277 32V26.3261C12.3844 26.0524 10.0315 24.8495 8.32022 22.948C6.60896 21.0465 5.65972 18.5802 5.65449 16.022Z" fill="#111827"/>
</svg>
