<svg width="140" height="140" viewBox="0 0 140 140" fill="none" xmlns="http://www.w3.org/2000/svg">
<circle cx="70" cy="70" r="70" fill="#3366CC"/>
<path d="M79.6336 62.0376H64.8422C64.5893 62.0376 64.3467 61.9401 64.1678 61.7666C63.9889 61.5931 63.8884 61.3578 63.8884 61.1124C63.8884 60.867 63.9889 60.6317 64.1678 60.4582C64.3467 60.2847 64.5893 60.1872 64.8422 60.1872H72.9799C76.5598 60.1872 79.9931 58.8077 82.5245 56.3522C85.0558 53.8966 86.478 50.5662 86.478 47.0936C86.478 43.621 85.0558 40.2906 82.5245 37.835C79.9931 35.3795 76.5598 34 72.9799 34H57.788V46.346C54.8859 47.6523 52.429 49.7359 50.7068 52.3514C48.9845 54.9668 48.0687 58.0052 48.067 61.1087C48.0629 62.5552 48.2606 63.9955 48.6545 65.3906C44.4809 67.9184 41.2692 71.6959 39.5054 76.1516C37.7415 80.6074 37.5214 85.4992 38.8783 90.0871C40.2351 94.675 43.0952 98.7096 47.0259 101.581C50.9566 104.452 55.7442 106.003 60.6646 106H79.6336C85.6439 106 91.4081 103.684 95.658 99.5613C99.908 95.4387 102.296 89.8472 102.296 84.0169C102.296 78.1867 99.908 72.5952 95.658 68.4726C91.4081 64.35 85.6439 62.0376 79.6336 62.0376ZM79.6336 100.897H60.6646C56.4877 100.899 52.4494 99.4428 49.2885 96.794C46.1276 94.1453 44.0554 90.4812 43.451 86.472C42.8466 82.4628 43.7504 78.3766 45.9971 74.9608C48.2437 71.545 51.6831 69.0279 55.6859 67.8702C54.3903 66.2164 53.5967 64.2444 53.3945 62.1765C53.1922 60.1087 53.5895 58.0272 54.5414 56.1666C55.4933 54.3059 56.962 52.7402 58.782 51.6459C60.602 50.5516 62.7009 49.9721 64.8422 49.9729H72.9799C73.7621 49.9729 74.5122 49.6715 75.0653 49.135C75.6184 48.5985 75.9291 47.8708 75.9291 47.1121C75.9291 46.3534 75.6184 45.6257 75.0653 45.0892C74.5122 44.5528 73.7621 44.2513 72.9799 44.2513H63.0606V39.1183H72.9799C74.0748 39.0954 75.1633 39.2848 76.1817 39.6754C77.2 40.066 78.1278 40.65 78.9104 41.393C79.693 42.136 80.3149 43.0231 80.7394 44.0024C81.1639 44.9816 81.3825 46.0332 81.3825 47.0955C81.3825 48.1577 81.1639 49.2093 80.7394 50.1885C80.3149 51.1678 79.693 52.0549 78.9104 52.7979C78.1278 53.5409 77.2 54.1249 76.1817 54.5155C75.1633 54.9061 74.0748 55.0955 72.9799 55.0726H64.8422C64.0119 55.0527 63.1858 55.1941 62.4126 55.4886C61.6394 55.7831 60.9348 56.2246 60.3403 56.7873C59.7457 57.3499 59.2732 58.0223 58.9506 58.7647C58.628 59.5072 58.4618 60.3048 58.4618 61.1106C58.4618 61.9163 58.628 62.7139 58.9506 63.4564C59.2732 64.1989 59.7457 64.8712 60.3403 65.4339C60.9348 65.9965 61.6394 66.4381 62.4126 66.7325C63.1858 67.027 64.0119 67.1684 64.8422 67.1485H79.6336C84.2004 67.2141 88.5573 69.02 91.7629 72.176C94.9685 75.3319 96.7655 79.5846 96.7655 84.0151C96.7655 88.4456 94.9685 92.6983 91.7629 95.8542C88.5573 99.0102 84.2004 100.816 79.6336 100.882V100.897ZM79.6336 72.2816H60.6646C59.0561 72.2539 57.458 72.5373 55.9636 73.1153C54.4692 73.6932 53.1084 74.5542 51.9608 75.6479C50.8131 76.7415 49.9016 78.046 49.2793 79.4852C48.6571 80.9243 48.3366 82.4693 48.3366 84.0299C48.3366 85.5905 48.6571 87.1355 49.2793 88.5746C49.9016 90.0138 50.8131 91.3183 51.9608 92.4119C53.1084 93.5056 54.4692 94.3666 55.9636 94.9446C57.458 95.5225 59.0561 95.806 60.6646 95.7783H79.6336C81.2421 95.806 82.8402 95.5225 84.3347 94.9446C85.8291 94.3666 87.1898 93.5056 88.3374 92.4119C89.4851 91.3183 90.3967 90.0138 91.0189 88.5746C91.6412 87.1355 91.9616 85.5905 91.9616 84.0299C91.9616 82.4693 91.6412 80.9243 91.0189 79.4852C90.3967 78.046 89.4851 76.7415 88.3374 75.6479C87.1898 74.5542 85.8291 73.6932 84.3347 73.1153C82.8402 72.5373 81.2421 72.2539 79.6336 72.2816ZM79.6336 90.6637H60.6646C58.8514 90.6637 57.1125 89.965 55.8303 88.7212C54.5482 87.4775 53.8279 85.7907 53.8279 84.0318C53.8279 82.2729 54.5482 80.586 55.8303 79.3423C57.1125 78.0986 58.8514 77.3998 60.6646 77.3998H79.6336C81.4468 77.3998 83.1857 78.0986 84.4679 79.3423C85.75 80.586 86.4703 82.2729 86.4703 84.0318C86.4703 85.7907 85.75 87.4775 84.4679 88.7212C83.1857 89.965 81.4468 90.6637 79.6336 90.6637Z" fill="white"/>
</svg>
