<svg width="38" height="32" viewBox="0 0 38 32" fill="none" xmlns="http://www.w3.org/2000/svg">
<g filter="url(#filter0_d_8_33)">
<path d="M6.86207 15.4483C8.38561 15.4483 9.62069 14.2132 9.62069 12.6897C9.62069 11.1661 8.38561 9.93103 6.86207 9.93103C5.33853 9.93103 4.10345 11.1661 4.10345 12.6897C4.10345 14.2132 5.33853 15.4483 6.86207 15.4483Z" fill="#749C82"/>
<path d="M19 15.4483C20.5235 15.4483 21.7586 14.2132 21.7586 12.6897C21.7586 11.1661 20.5235 9.93103 19 9.93103C17.4765 9.93103 16.2414 11.1661 16.2414 12.6897C16.2414 14.2132 17.4765 15.4483 19 15.4483Z" fill="black"/>
<path d="M19 15.4483C20.5235 15.4483 21.7586 14.2132 21.7586 12.6897C21.7586 11.1661 20.5235 9.93103 19 9.93103C17.4765 9.93103 16.2414 11.1661 16.2414 12.6897C16.2414 14.2132 17.4765 15.4483 19 15.4483Z" fill="#668194"/>
<path d="M31.1379 15.4483C32.6615 15.4483 33.8965 14.2132 33.8965 12.6897C33.8965 11.1661 32.6615 9.93103 31.1379 9.93103C29.6144 9.93103 28.3793 11.1661 28.3793 12.6897C28.3793 14.2132 29.6144 15.4483 31.1379 15.4483Z" fill="#9B4093"/>
<path d="M25.6207 23.1724C27.1442 23.1724 28.3793 21.9373 28.3793 20.4138C28.3793 18.8903 27.1442 17.6552 25.6207 17.6552C24.0972 17.6552 22.8621 18.8903 22.8621 20.4138C22.8621 21.9373 24.0972 23.1724 25.6207 23.1724Z" fill="#D9495A"/>
<path d="M13.4828 23.1724C15.0063 23.1724 16.2414 21.9373 16.2414 20.4138C16.2414 18.8903 15.0063 17.6552 13.4828 17.6552C11.9592 17.6552 10.7241 18.8903 10.7241 20.4138C10.7241 21.9373 11.9592 23.1724 13.4828 23.1724Z" fill="#F18E39"/>
</g>
<defs>
<filter id="filter0_d_8_33" x="-1" y="0" width="40" height="40" filterUnits="userSpaceOnUse" color-interpolation-filters="sRGB">
<feFlood flood-opacity="0" result="BackgroundImageFix"/>
<feColorMatrix in="SourceAlpha" type="matrix" values="0 0 0 0 0 0 0 0 0 0 0 0 0 0 0 0 0 0 127 0" result="hardAlpha"/>
<feOffset dy="4"/>
<feGaussianBlur stdDeviation="2"/>
<feComposite in2="hardAlpha" operator="out"/>
<feColorMatrix type="matrix" values="0 0 0 0 0 0 0 0 0 0 0 0 0 0 0 0 0 0 0.25 0"/>
<feBlend mode="normal" in2="BackgroundImageFix" result="effect1_dropShadow_8_33"/>
<feBlend mode="normal" in="SourceGraphic" in2="effect1_dropShadow_8_33" result="shape"/>
</filter>
</defs>
</svg>
