<svg width="32" height="32" viewBox="0 0 32 32" fill="none" xmlns="http://www.w3.org/2000/svg">
<path d="M8.98851 16.8638H9.78366C9.78366 17.0772 9.75457 17.2517 9.69639 17.4069C9.59942 17.6493 9.45397 17.8529 9.26972 18.0081C9.0176 18.2214 8.7073 18.3281 8.34851 18.3281C7.90245 18.3281 7.54366 18.1632 7.28185 17.8238C7.06851 17.5523 6.95215 17.2323 6.95215 16.8638V14.0129C6.95215 13.6348 7.06851 13.3148 7.30124 13.0335C7.58245 12.6941 7.93154 12.5293 8.35821 12.5293C8.7073 12.5293 9.0176 12.6457 9.28912 12.8881C9.61882 13.179 9.78366 13.5475 9.78366 14.0129H8.98851V13.9257C8.98851 13.7705 8.94003 13.6251 8.84306 13.499C8.717 13.3341 8.56185 13.2566 8.36791 13.2566C8.12548 13.2566 7.94124 13.3632 7.82488 13.5863C7.76669 13.6929 7.7473 13.7996 7.7473 13.9257V16.9511C7.7473 17.1257 7.79579 17.2711 7.89275 17.3875C8.01882 17.5426 8.17397 17.6202 8.36791 17.6202C8.49397 17.6202 8.61033 17.5814 8.7073 17.5135C8.80427 17.4457 8.88185 17.3487 8.94003 17.2226C8.96912 17.1257 8.98851 17.019 8.98851 16.8638Z" fill="#173346"/>
<path d="M10.9579 12.6074V14.3917C11.1518 14.2171 11.3748 14.1395 11.6173 14.1395C11.7724 14.1395 11.9179 14.1783 12.0633 14.2462C12.2088 14.3238 12.3252 14.4208 12.4124 14.5468C12.5482 14.7311 12.6064 14.9347 12.6064 15.1771V18.2511H11.8985V15.3032C11.8985 15.1771 11.8597 15.0705 11.7821 14.9638C11.6852 14.8474 11.5688 14.7892 11.4233 14.7892C11.2488 14.7892 11.113 14.8668 11.0258 15.022C10.987 15.0995 10.9579 15.1965 10.9579 15.3032V18.2511H10.25V12.6074H10.9579Z" fill="#173346"/>
<path d="M13.7118 16.3594V17.0867C13.7118 17.2709 13.7506 17.4164 13.8378 17.5231C13.9348 17.6394 14.0512 17.6976 14.1966 17.6976C14.4003 17.6976 14.536 17.6006 14.6136 17.397C14.6427 17.3194 14.6524 17.2224 14.6524 17.1158V17.0867H15.3603C15.3506 17.2031 15.3506 17.3 15.3409 17.3679C15.3118 17.6103 15.1954 17.8334 14.9918 18.0273C14.7688 18.2406 14.4972 18.3376 14.1772 18.3376C13.7797 18.3376 13.4694 18.1824 13.2366 17.8624C13.0815 17.6394 13.0039 17.3873 13.0039 17.0867V15.38C13.0039 15.0891 13.1009 14.8273 13.2851 14.5946C13.5275 14.3037 13.8185 14.1582 14.1675 14.1582C14.4391 14.1582 14.6815 14.2455 14.9045 14.4103C15.2051 14.6334 15.3506 14.9631 15.3506 15.38V16.3594H13.7118ZM14.6524 15.7097V15.2927C14.6524 15.1861 14.6233 15.0891 14.5554 14.9921C14.4681 14.8564 14.3421 14.7982 14.1869 14.7982C13.993 14.7982 13.8572 14.8855 13.7603 15.0697C13.7215 15.1376 13.7118 15.2152 13.7118 15.2927V15.7097H14.6524Z" fill="#173346"/>
<path d="M17.2991 17.0963H18.0264C18.0264 17.2709 18.007 17.426 17.9585 17.5521C17.8809 17.7557 17.7645 17.9206 17.6191 18.0563C17.4057 18.2406 17.1439 18.3375 16.853 18.3375C16.6494 18.3375 16.4651 18.289 16.3003 18.2018C16.1257 18.1145 15.99 17.9884 15.8833 17.8236C15.7476 17.6103 15.6797 17.3775 15.6797 17.0963V15.3606C15.6797 15.06 15.767 14.8078 15.9415 14.5848C16.1742 14.2939 16.4748 14.1484 16.8336 14.1484C17.1342 14.1484 17.3961 14.2454 17.6288 14.4393C17.8712 14.643 17.9973 14.9533 18.0264 15.3606H17.2991V15.2733C17.2991 15.1375 17.2603 15.0309 17.1633 14.9436C17.0664 14.8466 16.9597 14.7981 16.8336 14.7981C16.6688 14.7981 16.5427 14.8757 16.4457 15.0212C16.3973 15.0987 16.3682 15.186 16.3682 15.283V17.1933C16.3682 17.3387 16.407 17.4648 16.4845 17.5521C16.5718 17.649 16.6882 17.7072 16.8239 17.7072C16.9985 17.7072 17.1342 17.6296 17.2215 17.4842C17.27 17.4066 17.2894 17.3096 17.2894 17.203L17.2991 17.0963Z" fill="#173346"/>
<path d="M18.4053 18.2511V12.6074H19.1132V15.6329L20.0829 14.2268H20.878L19.5689 16.1371L20.878 18.2511H20.0829L19.1132 16.6705V18.2511H18.4053Z" fill="#173346"/>
<path d="M22.0218 14.8958V18.2607H21.3139V14.8958H20.9648V14.2461H21.3236V13.4025C21.3236 13.2377 21.3818 13.0631 21.4982 12.8789C21.6145 12.7043 21.7891 12.6074 22.0315 12.5977C22.2642 12.5977 22.4873 12.6946 22.6812 12.8983L22.3709 13.4025C22.3321 13.3249 22.2642 13.2958 22.1867 13.2958C22.08 13.3055 22.0315 13.3831 22.0315 13.5189V14.2364H22.5357V14.8861L22.0218 14.8958Z" fill="#173346"/>
<path d="M22.7686 18.2508V14.246H23.4764V14.566C23.5734 14.3429 23.7479 14.2363 23.9807 14.2266C24.2425 14.2266 24.4558 14.3235 24.6401 14.5272L24.2619 15.0993C24.1843 14.9829 24.0873 14.9247 23.971 14.9247C23.8158 14.9247 23.6995 14.9829 23.6025 15.0993C23.5249 15.2157 23.4861 15.3514 23.4861 15.526V18.2508H22.7686Z" fill="#173346"/>
<path d="M24.6982 17.106V15.3606C24.6982 15.1181 24.7661 14.8854 24.8922 14.6915C24.9988 14.5169 25.1443 14.3909 25.3188 14.2939C25.4934 14.1969 25.6776 14.1484 25.8813 14.1484C26.2594 14.1484 26.56 14.2939 26.7928 14.5945C26.9673 14.8175 27.0546 15.0793 27.0546 15.3703V17.1157C27.0546 17.3775 26.9867 17.6103 26.8607 17.8139C26.6279 18.1727 26.2885 18.3472 25.8425 18.3472C25.4546 18.3472 25.154 18.1921 24.931 17.8818C24.7758 17.6587 24.6982 17.3969 24.6982 17.106ZM26.3467 17.1836V15.2733C26.3467 15.1278 26.2982 15.0115 26.1916 14.9145C26.0946 14.8272 25.9879 14.7884 25.8716 14.7884C25.7067 14.7884 25.571 14.866 25.4934 15.0212C25.4449 15.1084 25.4158 15.1957 25.4158 15.283V17.1933C25.4158 17.3193 25.4546 17.426 25.5322 17.523C25.6291 17.6393 25.7455 17.6975 25.891 17.6975C26.0461 17.6975 26.1625 17.6296 26.2594 17.5036C26.3079 17.4066 26.3467 17.3096 26.3467 17.1836Z" fill="#173346"/>
<path d="M27.4912 18.2502V14.2162H28.1991V14.4005C28.4027 14.2259 28.6258 14.1387 28.8585 14.1387C29.1688 14.1387 29.4209 14.255 29.6148 14.4975C29.77 14.6914 29.8476 14.9047 29.8476 15.1472V18.2599H29.1397V15.2829C29.1397 15.1569 29.1009 15.0599 29.0427 14.9726C28.9458 14.8562 28.8294 14.7981 28.6742 14.7981C28.5094 14.7981 28.3833 14.8659 28.2961 14.992C28.2379 15.0793 28.2088 15.1762 28.2088 15.2829V18.2599L27.4912 18.2502Z" fill="#173346"/>
<path d="M31.263 14.9056V17.4074C31.263 17.485 31.2824 17.5335 31.3211 17.5723C31.3599 17.6014 31.4181 17.6208 31.5054 17.6208H31.8836V18.2608H31.263C31.0593 18.2608 30.8848 18.1929 30.749 18.0668C30.6133 17.9408 30.5551 17.7856 30.5551 17.6111V14.9056H30.1963V14.2559H30.5551V12.8789L31.263 12.6074V14.2559H31.9708V14.8959L31.263 14.9056Z" fill="#173346"/>
<path d="M5.84727 12.9946L2.53091 17.5037L0.610909 15.6225H0.601212H0.610909L0.581818 15.5934L1.00848 15.1764L2.32727 15.6419L5.29455 12.5098C5.28485 12.5098 5.26545 12.5098 5.25576 12.5098H0.610909C0.271515 12.5098 0 12.791 0 13.1207V17.7655C0 18.1049 0.281212 18.3764 0.610909 18.3764H2.02667H3.07394H5.25576C5.59515 18.3764 5.86667 18.0952 5.86667 17.7655V13.1207C5.86667 13.0819 5.85697 13.0334 5.84727 12.9946Z" fill="#1584C5"/>
</svg>
