<svg xmlns="http://www.w3.org/2000/svg" fill="none" viewBox="0 0 32 32"><path fill="#D78629" d="M1.93 11.592c-.3.88-.469 1.648-.394 1.723.075.094.243.094.375.038.13-.075.45-.75.693-1.499.243-.768.468-1.498.505-1.61.038-.15-.093-.244-.3-.244-.3 0-.468.3-.88 1.592Zm2.003-1.18c-.262.262-.393.656-.374 1.124 0 .393.093.88.187 1.086.094.206.412.45.712.525.28.093.787.093 1.124 0 .468-.113.6-.244.6-.618 0-.263-.113-.469-.244-.469-.113.02-.319.15-.431.338-.206.28-.262.28-.525.037-.168-.15-.318-.468-.3-.693 0-.244.038-.562.094-.712.057-.15.225-.28.375-.28s.318.13.375.28c.056.15.224.281.374.281.187 0 .281-.187.281-.637 0-.618-.019-.618-.936-.655-.73 0-1.012.075-1.312.393Zm2.716 1.18v1.592c1.2 0 1.218-.018 1.124-.655-.056-.375-.019-.656.094-.656.094 0 .187.3.187.656 0 .599.038.655.562.655.562 0 .562-.018.45-.805-.057-.431-.15-.9-.188-1.03-.037-.132-.318-.206-.637-.169-.505.037-.561-.019-.561-.562S7.623 10 7.155 10H6.65v1.592Zm3.278-1.423c-.168.112-.225.28-.15.468.094.168.281.3.431.3.15 0 .337-.113.394-.244.056-.112 0-.318-.15-.45a.43.43 0 0 0-.525-.074Zm-.524 1.18c.019.112.075.58.112 1.03.038.768.075.805.6.805.562 0 .562 0 .543-1.03v-1.03c-1.087 0-1.311.075-1.255.225Zm1.835 0c-.15.13-.243.487-.224.805 0 .3.13.674.262.805.131.132.543.207.899.188.487-.038.674-.15.73-.431.057-.318 0-.356-.43-.244-.431.132-.487.094-.487-.318 0-.262.093-.468.187-.468s.225.093.28.187c.057.094.188.187.282.187.094 0 .187-.206.187-.43 0-.375-.093-.45-.712-.469-.393-.018-.842.075-.974.188Zm2.06.15c0 .3.094.355.469.28.262-.056.506 0 .562.094.056.113-.15.187-.468.187-.412 0-.581.113-.656.375-.056.206-.056.468 0 .562.056.094.6.187 1.218.187h1.123c-.187-1.236-.337-1.704-.45-1.835-.111-.132-.561-.244-1.01-.225-.656 0-.787.056-.787.374Zm2.604.037c-.112.243-.15.655-.093.955.075.375.28.543.711.675l.619.168c-1.012.037-1.218.131-1.218.319 0 .205.225.28.843.28.674 0 .899-.093 1.105-.412.15-.243.3-.843.337-1.367l.056-.937c-2.023-.112-2.172-.074-2.36.319Zm2.829-.187c-.15.13-.244.487-.225.805.019.3.131.674.262.805.131.132.543.225.9.225.374 0 .767-.112.898-.225.131-.13.225-.524.225-.842 0-.431-.112-.675-.375-.806a2.644 2.644 0 0 0-.899-.187c-.28 0-.636.093-.786.225ZM.28 12.547a.528.528 0 0 0-.131.394c.019.13.225.224.45.206.243-.038.43-.188.43-.337 0-.15-.13-.3-.3-.338-.15-.018-.355 0-.449.075Zm-.094 1.948c0 .806.056.937.375.937.356 0 .375.131.375 2.341v2.342c-.9 0-.937.075-.937.842v.843c6.237-.093 6.574-.13 7.061-.487.281-.206.6-.674.693-1.03.094-.356.094-.88.02-1.199-.076-.318-.375-.786-.675-1.067l-.543-.525c.786-.936.936-1.367.936-1.835.019-.394-.13-.9-.337-1.162-.206-.28-.712-.562-1.217-.693-.487-.13-1.967-.243-3.316-.243H.187v.936Zm10.77-.674c-.412.112-1.03.43-1.386.674-.356.263-.805.806-.992 1.218-.206.45-.338 1.199-.338 1.93 0 .636.113 1.441.244 1.779.15.318.618.917 1.03 1.31.431.375 1.143.787 1.574.9.45.112 1.348.168 2.022.13.675-.055 1.461-.224 1.78-.374.3-.168.805-.543 1.105-.824.3-.3.656-.824.787-1.142.15-.338.262-1.143.262-1.78 0-.73-.131-1.48-.337-1.93-.188-.411-.637-.954-.993-1.217a5.979 5.979 0 0 0-1.48-.693c-.468-.13-1.217-.243-1.685-.224-.469 0-1.18.112-1.593.243Zm8.354-.056c-.337.093-.824.43-1.067.73-.244.319-.506.843-.562 1.18-.056.356 0 .88.187 1.311.169.375.58.862.9 1.068.336.206 1.01.506 1.498.656.505.15.936.412.992.562.056.15-.018.412-.15.58-.13.169-.43.263-.693.225-.28-.037-.618-.3-.843-.655-.318-.525-.486-.6-1.18-.619h-.786v2.81c.955 0 1.311-.094 1.423-.187.113-.131.394-.094.862.093.393.15 1.086.281 1.555.281.468 0 1.123-.112 1.442-.243.337-.15.805-.506 1.049-.806.225-.3.468-.88.524-1.292.075-.412.075-.974 0-1.255-.056-.3-.318-.768-.58-1.086-.319-.375-.806-.656-1.461-.843-.525-.15-1.087-.394-1.218-.562-.112-.15-.187-.412-.131-.562.056-.15.281-.281.506-.281.243 0 .524.075.637.15.112.075.3.318.43.562.169.318.375.412.956.412h.749c0-2.435 0-2.435-.525-2.435-.28 0-.599.094-.711.206-.113.131-.394.131-.918 0-.412-.113-1.087-.206-1.499-.187-.412 0-1.03.093-1.386.187Zm7.493 0c-.356.093-.806.356-.993.58-.188.244-.412.768-.506 1.18-.093.413-.093.993-.019 1.312.094.318.319.712.506.88.187.187.918.562 1.648.862 1.012.412 1.33.636 1.349.936.037.281-.075.45-.375.525-.224.075-.562.075-.749 0-.168-.057-.468-.356-.655-.675-.281-.487-.431-.562-1.124-.562h-.787v2.81c.955 0 1.311-.094 1.424-.187.112-.131.412-.094.917.112.487.187 1.124.281 1.817.244.693-.057 1.236-.206 1.592-.469.281-.206.675-.674.862-1.03.225-.43.318-.936.281-1.61-.038-.769-.169-1.087-.618-1.537-.319-.337-.993-.73-1.499-.88-.524-.169-1.067-.412-1.217-.562-.169-.15-.225-.356-.15-.543.094-.15.356-.281.618-.281s.637.169.843.375c.206.206.375.468.375.562 0 .093.337.187.749.187h.75c0-2.435 0-2.435-.525-2.435-.281 0-.6.075-.712.187-.094.094-.45.112-.918 0a8.166 8.166 0 0 0-1.498-.168c-.412.018-1.03.093-1.386.187Z"/><path fill="#fff" d="M16.67 12.248c0 .206.113.356.244.318.112-.037.225-.206.243-.375 0-.168-.093-.318-.243-.318-.131 0-.244.169-.244.375ZM3.56 16.18c0 .712.037.75.562.75.412 0 .618-.132.805-.469.187-.375.169-.506-.056-.75-.15-.168-.506-.299-.805-.28-.469 0-.506.056-.506.75Zm.112 2.267c-.075.15-.112.561-.075.917.056.6.094.656.618.6.3-.038.619-.169.693-.281.075-.131.15-.356.15-.506 0-.15-.075-.375-.15-.506-.074-.112-.355-.262-.618-.337-.337-.094-.543-.056-.618.113Z"/></svg>
