<svg xmlns="http://www.w3.org/2000/svg" viewBox="0 0 204.9 131">
  <path fill="#f1771f" d="M68.9 99.3A143.7 143.7 0 0147 85.5c4.8-.8 9.4-1.5 13.8-3.2-8.9 1.4-17.1 0-24.1-6a54.7 54.7 0 0015.5-2.6c-9.5-1.4-18.5-3.7-24.4-12.3 5.9 1.6 11.7 3 17.9 2.7l-.9-.4a79 79 0 01-22.5-11.2 36.2 36.2 0 01-10.7-12 18.2 18.2 0 01-2.2-6.3c4.9 3.2 9.7 6.6 14.7 9.7a51.4 51.4 0 0016.2 6.7 8.8 8.8 0 00-1-.6 92.7 92.7 0 01-28.2-24.3A57.7 57.7 0 01.5 3L0 0l.6.6a94.1 94.1 0 0044.9 33.2 311 311 0 0119.7 7.9 40.2 40.2 0 0118.4 15.7 3.2 3.2 0 01.5 1.9 73.5 73.5 0 01-14.6 39.2 2.1 2.1 0 01-.6.8"/>
  <path fill="#f8a41b" d="M136.6 83a110 110 0 01-40.7 36.2 115.5 115.5 0 01-70.3 10A77 77 0 0070 106.1a72.3 72.3 0 0019.8-46c3.8 6.6 5.3 13.6 7.5 20.5 9.1-13.4 21.3-21 37.9-20.2a.5.5 0 01-.4.2l-.4.2a9.8 9.8 0 00-6.6 8.9l-1.2 8.1a28.5 28.5 0 01-4.4 10.3 11 11 0 00-.6 1.1c4.6-3 9.4-5.6 15-6.2"/>
  <path fill="#f1771f" d="M149.2 108.4l7.6 5.7a23.5 23.5 0 01-15.2-4.3 15.4 15.4 0 001.9 1.7l2.2 1.8 2.4 1.8a120 120 0 01-34.9.5l.9-.8a109.2 109.2 0 0025.2-26 2.2 2.2 0 011.7-1c5.3-.5 10.3.7 15.4 2s10.1 2.7 15.3 3.6a63 63 0 0028.6-2.2l4.2-1.3.4.1a20.6 20.6 0 01-1.6 1.5 42.3 42.3 0 01-18.7 8.4 77.5 77.5 0 01-19.8 1.4c7.4 2.2 15 2.1 22.8 1.9a17.7 17.7 0 01-1.7 1.2 25.2 25.2 0 01-10 3 58 58 0 01-18.1-1.5 1.6 1.6 0 00-.7 0c3.2 2 6.9 3 10.5 4.1-6.2 2.1-11.9.4-17.7-1.8-.6 0-.7.1-.7.2"/>
</svg>
