<svg width="32" height="32" viewBox="0 0 32 32" fill="none" xmlns="http://www.w3.org/2000/svg">
<path d="M13.7729 17.1025C13.8843 17.0025 14.0655 17.0119 14.1655 17.1232C14.2562 17.2232 14.2656 17.3855 14.1655 17.4949C14.024 17.6364 13.8541 17.7459 13.6728 17.8176C13.501 17.8874 13.3104 17.9176 13.1178 17.9176C12.9253 17.9176 12.7252 17.8779 12.5439 17.7968C12.1909 17.6459 11.9096 17.3647 11.7586 17.0119C11.6076 16.6496 11.6076 16.2364 11.768 15.8742C11.9191 15.5213 12.2003 15.2402 12.5534 15.0893C12.7346 15.0081 12.9253 14.9685 13.1272 14.9779C13.3179 14.9779 13.4991 15.0176 13.6823 15.0893C13.8635 15.1591 14.0353 15.2704 14.1655 15.4119C14.2165 15.4628 14.2467 15.5326 14.2467 15.6025C14.2467 15.6723 14.2165 15.744 14.1655 15.793C14.0542 15.9043 13.8843 15.9043 13.7729 15.793C13.6917 15.7119 13.5916 15.6421 13.4803 15.5911C13.2481 15.4911 12.997 15.4911 12.7648 15.5911C12.6534 15.6421 12.5534 15.7138 12.4722 15.793C12.391 15.8742 12.3212 15.9742 12.2702 16.0855C12.1701 16.3176 12.1701 16.5685 12.2702 16.8006C12.3608 17.0213 12.5326 17.193 12.7535 17.2836C12.9857 17.3836 13.2367 17.3836 13.4689 17.2836C13.5935 17.244 13.6936 17.1836 13.7729 17.1025Z" fill="#212121"/>
<path d="M14.4609 16.4463C14.4609 16.2444 14.5006 16.0539 14.5818 15.8727C14.7328 15.5199 15.0141 15.2388 15.3671 15.0878C15.7295 14.9369 16.143 14.9369 16.5054 15.0878C16.6772 15.1576 16.8377 15.2689 16.9679 15.4105C17.0982 15.5406 17.2096 15.7029 17.2794 15.884C17.4304 16.2463 17.4304 16.6595 17.2794 17.0218C17.1284 17.3746 16.8471 17.6557 16.4941 17.8067C16.3129 17.8878 16.1222 17.918 15.9202 17.918C15.7295 17.918 15.5275 17.8784 15.3463 17.7973C15.1745 17.7274 15.0141 17.6161 14.8838 17.4746C14.7535 17.3444 14.6422 17.1822 14.5723 17.001C14.5006 16.8406 14.4609 16.6482 14.4609 16.4463ZM15.0141 16.4463C15.0141 16.5671 15.0348 16.6878 15.0839 16.7991C15.1349 16.9105 15.2047 17.0105 15.2859 17.0916C15.3671 17.1727 15.4671 17.2425 15.5785 17.2935C15.6899 17.3444 15.8107 17.3633 15.9315 17.3633C16.0523 17.3633 16.1732 17.3425 16.2845 17.2935C16.5054 17.2029 16.6772 17.0218 16.7773 16.801C16.8773 16.5689 16.8773 16.318 16.7773 16.0859C16.7263 15.9746 16.6659 15.8746 16.5753 15.7935C16.4941 15.7123 16.394 15.6425 16.2827 15.5916C16.1713 15.5406 16.0505 15.5218 15.9296 15.5218C15.8088 15.5218 15.688 15.5425 15.5766 15.5916C15.4652 15.6425 15.3652 15.7123 15.284 15.7935C15.2028 15.8746 15.133 15.9746 15.082 16.0859C15.0348 16.2048 15.0141 16.3256 15.0141 16.4463Z" fill="#212121"/>
<path d="M19.7973 17.1123C19.9087 17.001 20.0786 17.001 20.1899 17.1123C20.3013 17.2236 20.3013 17.3934 20.1899 17.5047C20.0484 17.6463 19.8879 17.7557 19.7067 17.8274C19.5349 17.8972 19.3442 17.9274 19.1516 17.9274C18.961 17.9274 18.759 17.8878 18.5778 17.8066C18.406 17.7368 18.2455 17.6255 18.1152 17.4953C17.985 17.3651 17.8736 17.2029 17.8038 17.0217C17.7226 16.8406 17.6924 16.65 17.6924 16.4481C17.6924 16.2576 17.732 16.0557 17.8132 15.8746C17.8831 15.7029 17.9944 15.5425 18.1247 15.4123C18.2549 15.2821 18.4173 15.1708 18.5985 15.101C18.7798 15.0198 18.9704 14.9802 19.1724 14.9896C19.3631 14.9896 19.5443 15.0293 19.7274 15.101C19.9087 15.1708 20.0804 15.2821 20.2107 15.4236C20.3221 15.5349 20.3221 15.7047 20.2107 15.8161C20.0993 15.9274 19.9294 15.9274 19.818 15.8161C19.7369 15.7349 19.6368 15.6651 19.5254 15.6142C19.4141 15.5632 19.2932 15.5444 19.1724 15.5444C19.0516 15.5444 18.9308 15.5651 18.8194 15.6142C18.708 15.6651 18.608 15.7349 18.5268 15.8161C18.4456 15.8972 18.3758 15.9972 18.3248 16.1085C18.2738 16.2198 18.2549 16.3406 18.2549 16.4613C18.2549 16.5821 18.2757 16.7029 18.3248 16.8142C18.4154 17.0349 18.5966 17.2066 18.8175 17.3066C19.0497 17.4066 19.3008 17.4066 19.533 17.3066C19.6085 17.2632 19.7085 17.1915 19.7973 17.1123Z" fill="#212121"/>
<path d="M20.4828 16.458C20.4828 16.2675 20.5224 16.0656 20.6036 15.8844C20.7546 15.5316 21.0359 15.2505 21.3889 15.0995C21.7514 14.9486 22.1648 14.9486 22.5273 15.0995C22.8803 15.2505 23.1616 15.5316 23.3126 15.8844C23.3938 16.0656 23.424 16.2561 23.424 16.458C23.424 16.6486 23.3843 16.8505 23.3031 17.0316C23.1521 17.3844 22.8708 17.6656 22.5178 17.8165C22.3366 17.8976 22.1459 17.9278 21.9439 17.9278C21.7533 17.9278 21.5513 17.8882 21.37 17.8071C21.017 17.6561 20.7357 17.375 20.5847 17.0222C20.5149 16.8505 20.4733 16.658 20.4828 16.458ZM21.0265 16.458C21.0265 16.5788 21.0472 16.6995 21.0963 16.8109C21.1454 16.9222 21.2171 17.0222 21.2983 17.1033C21.3795 17.1939 21.4795 17.2543 21.5909 17.3052C21.8231 17.3958 22.0742 17.3958 22.3064 17.3052C22.4178 17.2543 22.5178 17.1844 22.599 17.1033C22.6896 17.0222 22.75 16.9222 22.801 16.8109C22.8916 16.5788 22.8916 16.3278 22.801 16.0958C22.75 15.9844 22.6802 15.8844 22.599 15.8033C22.5178 15.7222 22.4178 15.6524 22.3064 15.6014C22.195 15.5505 22.0742 15.5316 21.9534 15.5316C21.8325 15.5316 21.7117 15.5524 21.6003 15.6014C21.489 15.6505 21.3889 15.7127 21.3077 15.8033C21.2266 15.8844 21.1567 15.9844 21.1057 16.0958C21.0491 16.2165 21.0265 16.3373 21.0265 16.458Z" fill="#212121"/>
<path d="M26.6788 17.6664C26.6882 17.8173 26.5674 17.9475 26.4163 17.9588C26.2653 17.9683 26.1351 17.8475 26.1237 17.6966C26.1237 17.6871 26.1237 17.6758 26.1237 17.6664V16.4777C26.1237 16.3569 26.103 16.2362 26.0539 16.1249C26.0048 16.0135 25.9331 15.9135 25.8519 15.8324C25.7707 15.7418 25.6707 15.6815 25.5593 15.6305C25.4479 15.5796 25.3271 15.5607 25.2063 15.5607C25.0855 15.5607 24.9646 15.5815 24.8533 15.6305C24.7419 15.6815 24.6418 15.7513 24.5606 15.8324C24.4795 15.9135 24.4096 16.0135 24.3587 16.1249C24.3077 16.2362 24.2888 16.3569 24.2888 16.4777V17.6758C24.2888 17.7456 24.2586 17.8173 24.2076 17.8664C24.1567 17.9173 24.0868 17.9475 24.017 17.9475C23.8659 17.9475 23.7451 17.8267 23.7451 17.6664V16.4683C23.7451 16.2777 23.7848 16.0758 23.8659 15.8947C23.9358 15.723 24.0472 15.5626 24.1774 15.4324C24.3077 15.3022 24.47 15.1909 24.6513 15.1211C24.8325 15.04 25.0232 15.0098 25.2251 15.0098C25.4158 15.0098 25.6178 15.0494 25.799 15.1305C26.1521 15.2815 26.4447 15.5532 26.5957 15.9154C26.6769 16.0966 26.7071 16.2984 26.7071 16.489L26.6788 17.6664Z" fill="#212121"/>
<path d="M29.9822 16.4765C29.9822 16.667 29.9426 16.8689 29.8708 17.0501C29.801 17.2218 29.6896 17.3821 29.5593 17.5123C29.4291 17.6425 29.2667 17.7538 29.0855 17.835C28.9043 17.9161 28.7136 17.9463 28.5116 17.9463C28.3209 17.9463 28.1189 17.9067 27.9377 17.8255C27.5847 17.6746 27.3034 17.3935 27.1524 17.0406C27.0712 16.8595 27.041 16.6689 27.041 16.467V15.2897C27.041 15.2199 27.0712 15.1482 27.1222 15.0991C27.2336 14.9878 27.4035 14.9878 27.5149 15.0991C27.5658 15.1501 27.596 15.2199 27.596 15.2897V16.4784C27.596 16.5991 27.6168 16.7199 27.6659 16.8312C27.7168 16.9425 27.7867 17.0425 27.8679 17.1236C27.949 17.2142 28.0491 17.2746 28.1605 17.3255C28.2719 17.3765 28.3927 17.3953 28.5135 17.3953C28.6343 17.3953 28.7551 17.3746 28.8665 17.3255C28.9779 17.2746 29.0779 17.2048 29.1591 17.1236C29.2403 17.0425 29.3101 16.9425 29.3611 16.8312C29.4121 16.7199 29.431 16.5991 29.431 16.4784V15.2897C29.431 15.1387 29.5518 15.018 29.7028 15.018C29.8538 15.018 29.9746 15.1387 29.9746 15.2897L29.9822 16.4765Z" fill="#212121"/>
<path d="M31.7286 17.404C31.8796 17.404 32.0005 17.5247 32.0005 17.6851C32.0005 17.7549 31.9702 17.8266 31.9193 17.8757C31.8683 17.9266 31.7985 17.9568 31.7286 17.9568H31.4568C31.3057 17.9568 31.1642 17.9266 31.0245 17.8662C30.7621 17.7549 30.5506 17.5436 30.4392 17.2813C30.3788 17.1398 30.3486 17.0002 30.3486 16.8492V14.5549C30.3486 14.4851 30.3788 14.4134 30.4298 14.3643C30.4808 14.3134 30.5506 14.2832 30.6205 14.2832C30.7715 14.2832 30.8923 14.404 30.8923 14.5549C30.8923 14.5549 30.8923 14.5549 30.8923 14.5643V15.0266H31.7192C31.789 15.0266 31.8608 15.0568 31.9098 15.1077C32.0212 15.2191 32.0212 15.3889 31.9098 15.5002C31.8589 15.5511 31.789 15.5813 31.7078 15.5813H30.9018V16.87C30.9018 17.1719 31.1434 17.4247 31.4454 17.4247H31.4549L31.7286 17.404Z" fill="#212121"/>
<path d="M13.3485 20.4703C13.358 20.7061 13.1541 20.8873 12.7539 20.8873C12.4103 20.8873 12.2423 20.7873 12.0479 20.6212L12.1422 20.5137C12.3084 20.6797 12.5311 20.7627 12.7539 20.7495C13.0446 20.7495 13.2126 20.6533 13.2126 20.4854C13.2126 20.3174 13.0371 20.2627 12.7124 20.2627C12.3423 20.2627 12.0762 20.1722 12.0743 19.9024C12.0724 19.6533 12.365 19.5137 12.6859 19.5137C12.9219 19.5137 13.122 19.5986 13.2995 19.7608L13.1994 19.859C13.0597 19.7344 12.8785 19.6514 12.6973 19.6514C12.4745 19.6514 12.214 19.7288 12.2121 19.8986C12.2102 20.0797 12.4537 20.1231 12.7407 20.1231C13.1824 20.1231 13.3391 20.2363 13.3485 20.4703Z" fill="#212121"/>
<path d="M14.1133 20.1924C14.1133 19.7622 14.3908 19.498 14.8495 19.498C15.3083 19.498 15.5858 19.7622 15.5858 20.1924C15.5858 20.6226 15.3083 20.8867 14.8495 20.8867C14.3908 20.8867 14.1133 20.6226 14.1133 20.1924ZM15.448 20.1924C15.448 19.8452 15.212 19.6377 14.8646 19.6377C14.5173 19.6377 14.253 19.8452 14.253 20.1924C14.253 20.5396 14.5173 20.7471 14.8646 20.7471C15.212 20.7471 15.448 20.5528 15.448 20.1924Z" fill="#212121"/>
<path d="M16.586 19.6787V20.1372H17.4468V20.2749H16.586V20.8447H16.4463V19.5391H17.5997V19.6787H16.586Z" fill="#212121"/>
<path d="M19.5861 19.6787H19.016V20.8447H18.8763V19.6787H18.293V19.5391H19.5842L19.5861 19.6787Z" fill="#212121"/>
<path d="M22.2663 19.5391L21.8227 20.8447H21.6698L21.2809 19.7334L20.8788 20.8447H20.7259L20.2822 19.5391H20.4484L20.8089 20.6636L21.1978 19.5391H21.3507L21.7396 20.6636L22.1002 19.5391H22.2663Z" fill="#212121"/>
<path d="M23.9074 20.4976H23.0881L22.922 20.8447H22.7559L23.4222 19.5391H23.5884L24.2548 20.8447H24.0886L23.9074 20.4976ZM23.8376 20.3579L23.5034 19.6787L23.1636 20.3579H23.8376Z" fill="#212121"/>
<path d="M26.1402 20.8447L25.7381 20.3447H25.168V20.8447H25.0283V19.5391H25.8344C26.0987 19.5391 26.2931 19.6919 26.2931 19.9409C26.2931 20.1485 26.127 20.3296 25.9175 20.3428L26.3177 20.8428H26.1402V20.8447V20.8447ZM25.8212 20.207C26.0156 20.207 26.1402 20.124 26.1402 19.9428C26.1402 19.7617 26.0156 19.6787 25.8212 19.6787H25.168V20.207H25.8212Z" fill="#212121"/>
<path d="M28.3204 20.7056V20.8452H27.165V19.5527H28.3072V19.6924H27.3047V20.1225H28.1542V20.2622H27.3047V20.7056H28.3204Z" fill="#212121"/>
<path d="M5.47043 17.0929C4.22637 18.3269 2.24607 17.7835 1.60611 17.5646C1.53815 17.542 1.47774 17.6118 1.50983 17.6759C1.63632 17.9307 1.89494 18.3646 2.23852 18.6929C2.95777 19.4231 3.94131 19.8288 4.97394 19.8288H4.98526C7.09393 19.8288 8.8156 18.142 8.85524 16.0325C8.85524 15.991 8.82504 15.9552 8.78351 15.9514C8.41916 15.908 6.773 15.8061 5.47043 17.0929Z" fill="#212121"/>
<path d="M9.70893 15.582C9.56545 15.582 9.44841 15.699 9.4503 15.8443C9.4503 15.8632 9.4503 15.882 9.4503 15.9009C9.4503 18.3669 7.45112 20.365 4.98378 20.365C2.51643 20.365 0.517256 18.3651 0.517256 15.9009C0.517256 15.882 0.517256 15.8632 0.517256 15.8443C0.519143 15.7009 0.4021 15.582 0.258628 15.582C0.117043 15.582 0.00188779 15.6971 0 15.8405C0 15.8613 0 15.8801 0 15.9009C0 18.6518 2.23137 20.882 4.98378 20.882C7.73618 20.882 9.96755 18.6518 9.96755 15.9009C9.96755 15.8801 9.96755 15.8613 9.96755 15.8405C9.96378 15.6971 9.85051 15.582 9.70893 15.582Z" fill="#212121"/>
</svg>
