<svg width="32" height="32" viewBox="0 0 32 32" fill="none" xmlns="http://www.w3.org/2000/svg">
<path d="M29.3878 0H2.61224C1.16954 0 0 1.16954 0 2.61224V29.3878C0 30.8305 1.16954 32 2.61224 32H29.3878C30.8305 32 32 30.8305 32 29.3878V2.61224C32 1.16954 30.8305 0 29.3878 0Z" fill="#19191A"/>
<path fill-rule="evenodd" clip-rule="evenodd" d="M19.2733 26.6538C18.3645 27.1504 17.1779 27.4459 16.4867 27.5027C13.7513 27.7277 11.0022 27.0205 9.10445 25.184C7.24159 23.2294 6.85564 20.6237 8.54576 18.4686C10.1147 16.4676 12.6613 15.6112 15.3069 15.5073C16.7733 15.4485 21.7314 16.0141 20.2803 18.4229C19.1028 20.3782 15.8594 18.4236 14.004 19.0371C11.9172 19.7264 11.3121 22.5045 13.2893 23.6663C14.7329 24.516 16.788 24.4454 18.1418 23.5556C20.1046 22.2675 23.7457 16.3223 26.1131 19.1423C26.5918 19.7117 21.0757 25.667 19.2733 26.6538ZM5.47866 11.1638C5.27882 10.1832 5.5469 9.06617 6.53008 9.21017C7.37515 9.33491 7.68927 10.5375 7.82935 11.3894C7.94592 12.0938 9.72127 17.2144 8.8047 17.0312C7.94298 16.8598 5.68633 12.1823 5.47866 11.1638ZM10.1921 5.45311C11.4976 4.35597 12.1314 6.24234 12.2715 7.18209C12.4109 8.10519 14.0579 15.0289 12.3093 14.8987C10.9614 14.7978 10.0693 8.93066 9.95506 8.00136C9.83294 7.28364 9.5371 6.00364 10.1921 5.45311ZM16.9134 3.49099C18.0373 3.70846 17.7134 6.0167 17.7118 6.84805C17.7111 7.77409 17.8081 14.5888 16.388 14.3876C14.903 14.1777 15.2475 7.41131 15.1841 6.3194C15.2174 5.22585 15.3719 3.19189 16.9134 3.49099ZM20.3047 8.40331C20.4243 7.71205 20.5653 6.45719 21.3392 6.1545C22.8808 5.54846 22.853 7.45834 22.6796 8.35891C22.5082 9.24185 21.3209 16.1254 19.7699 15.4779C18.5735 14.9774 20.1108 9.28495 20.3047 8.40331Z" fill="white"/>
</svg>
