<svg width="32" height="33" viewBox="0 0 32 33" fill="none" xmlns="http://www.w3.org/2000/svg">
<path d="M11.7574 20.3019C14.1005 22.645 17.8995 22.645 20.2426 20.3019L23.7782 23.8375C19.4825 28.1333 12.5175 28.1333 8.22178 23.8375C3.92603 19.5418 3.92603 12.5769 8.22178 8.2811C12.5175 3.98536 19.4825 3.98536 23.7782 8.2811L20.2426 11.8167C17.8995 9.47334 14.1005 9.47334 11.7574 11.8167C9.41433 14.1598 9.41433 17.9588 11.7574 20.3019V20.3019ZM16.0002 0.0593248C7.16344 0.0593248 0 7.22277 0 16.0592C0 19.4471 1.05583 22.5867 2.85233 25.1734L0 32.0593L6.88593 29.207C9.47266 31.0035 12.6122 32.0593 16.0002 32.0593C24.8366 32.0593 32 24.8959 32 16.0592C32 7.22277 24.8366 0.0593248 16.0002 0.0593248" fill="#FFC800"/>
</svg>
