<svg width="32" height="32" viewBox="0 0 32 32" fill="none" xmlns="http://www.w3.org/2000/svg">
<g clip-path="url(#clip0_893_2)">
<path d="M16 0C20.2435 0 24.3131 1.68571 27.3137 4.68629C30.3143 7.68687 32 11.7565 32 16C32 20.2435 30.3143 24.3131 27.3137 27.3137C24.3131 30.3143 20.2435 32 16 32C11.7565 32 7.68687 30.3143 4.68629 27.3137C1.68571 24.3131 0 20.2435 0 16C0 11.7565 1.68571 7.68687 4.68629 4.68629C7.68687 1.68571 11.7565 0 16 0V0Z" fill="black"/>
<path d="M15.375 9.05615C10.725 9.05615 7.1 11.9874 7.1 15.6312C7.1 19.0687 10.4313 21.2624 15.5938 21.1562L15.75 21.1499L16.3188 21.1312L16.175 21.5062L16.1938 21.5437C16.2349 21.6401 16.2725 21.7381 16.3063 21.8374L16.3188 21.8749L16.3375 21.9374L16.3625 22.0249L16.3813 22.0812L16.4063 22.1437L16.425 22.2124L16.45 22.3124L16.4813 22.4187L16.5 22.4874L16.5313 22.5999L16.5625 22.7187L16.5875 22.8374L16.6188 22.9624L16.6438 23.0499L16.675 23.1874L16.7063 23.3249L16.75 23.5124L16.7688 23.6124L16.8 23.7624L16.8313 23.9187L16.8688 24.0812L16.9125 24.3124L16.95 24.4999L17 24.7624L17.025 24.8937L17.0688 25.0999L17.1063 25.3124L17.1563 25.5999L17.2125 25.8999L17.2625 26.2124L17.3188 26.5312L17.375 26.8562L17.4313 27.1937L17.4875 27.5437L17.5313 27.8124L17.6 28.2687L17.6313 28.4562L17.7063 28.9374L17.7625 29.3312L17.8125 29.6312L17.8688 30.0437L17.9 30.2499C21.3313 29.7937 24.3813 28.1312 26.6063 25.6999L26.675 25.6249L26.3563 24.4374L25.5125 21.2812L24.9875 19.3187L24.525 17.5937L24.2375 16.5437L24.0563 15.8812L23.95 15.4812L23.85 15.1312L23.8125 14.9812L23.7875 14.8999L23.775 14.8562L23.7625 14.8187C23.275 13.2499 22.3313 11.8624 21.0438 10.8562C19.5313 9.6749 17.6125 9.05615 15.375 9.05615ZM11.2875 25.7374C10.8813 25.6249 10.4563 25.8624 10.3375 26.2687L10.3313 26.2874L9.63125 28.8874C10.0689 29.104 10.5174 29.298 10.975 29.4687L11.0813 29.5124L11.8375 26.6937L11.8438 26.6749C11.9438 26.2624 11.7 25.8437 11.2875 25.7374ZM15.6438 23.8312C15.2313 23.7187 14.8063 23.9562 14.6875 24.3624L14.6813 24.3812L13.6188 28.3187V28.3374C13.5776 28.5328 13.6128 28.7365 13.7171 28.9067C13.8214 29.077 13.987 29.2008 14.1798 29.2528C14.3725 29.3048 14.5779 29.281 14.7537 29.1863C14.9295 29.0916 15.0623 28.9332 15.125 28.7437L15.1313 28.7249L16.1938 24.7874V24.7687L16.2125 24.6812L16.2188 24.6499L16.1938 24.5187L16.1563 24.3374L16.1313 24.2249C16.0816 24.1292 16.0126 24.0448 15.9287 23.977C15.8448 23.9092 15.7478 23.8596 15.6438 23.8312ZM8.2375 19.7749L8.1875 19.8937L8.18125 19.9187L7.11875 23.8562L7.1125 23.8749C7.06515 24.0722 7.09641 24.2802 7.19968 24.4549C7.30295 24.6295 7.47012 24.7571 7.66582 24.8107C7.86152 24.8643 8.0704 24.8397 8.24825 24.742C8.4261 24.6443 8.55897 24.4813 8.61875 24.2874L8.625 24.2687L9.5875 20.6937C9.0875 20.4312 8.63125 20.1187 8.2375 19.7749ZM5.70625 15.2437C5.29375 15.1374 4.86875 15.3749 4.75 15.7749L4.74375 15.7937L3.68125 19.7312V19.7499C3.6339 19.9472 3.66516 20.1552 3.76843 20.3299C3.8717 20.5045 4.03887 20.6321 4.23457 20.6857C4.43027 20.7393 4.63915 20.7147 4.817 20.617C4.99485 20.5193 5.12772 20.3563 5.1875 20.1624L5.19375 20.1437L6.25625 16.2062V16.1874C6.35625 15.7749 6.1125 15.3562 5.70625 15.2437ZM29.525 14.3499C29.1188 14.2437 28.6938 14.4812 28.575 14.8812L28.5688 14.8999L27.5063 18.8374L27.5 18.8562C27.4453 19.0567 27.4725 19.2708 27.5757 19.4513C27.6788 19.6318 27.8494 19.764 28.05 19.8187C28.2506 19.8734 28.4647 19.8461 28.6452 19.743C28.8257 19.6398 28.9578 19.4692 29.0125 19.2687V19.2499L30.0813 15.3124V15.2874C30.1813 14.8812 29.9375 14.4624 29.525 14.3499ZM3.3875 9.09365C2.49719 10.7149 1.93044 12.4937 1.71875 14.3312C1.82128 14.4473 1.95625 14.53 2.10625 14.5687C2.5125 14.6749 2.9375 14.4374 3.05625 14.0374L3.0625 14.0187L4.125 10.0812L4.13125 10.0624C4.23125 9.6499 3.9875 9.23115 3.575 9.11865C3.51372 9.10287 3.45077 9.09448 3.3875 9.09365V9.09365ZM26.8375 9.11865C26.425 9.0124 26.0063 9.2499 25.8813 9.6499V9.66865L24.8188 13.6062L24.8125 13.6249C24.7651 13.8222 24.7964 14.0302 24.8997 14.2049C25.003 14.3795 25.1701 14.5071 25.3658 14.5607C25.5615 14.6143 25.7704 14.5897 25.9482 14.492C26.1261 14.3943 26.259 14.2313 26.3188 14.0374L26.325 14.0187L27.3875 10.0812L27.3938 10.0624C27.4938 9.6499 27.2438 9.23115 26.8375 9.11865Z" fill="white"/>
<path d="M16.375 11.6875C16.6402 11.6875 16.8946 11.7929 17.0821 11.9804C17.2696 12.1679 17.375 12.4223 17.375 12.6875C17.375 12.9527 17.2696 13.2071 17.0821 13.3946C16.8946 13.5821 16.6402 13.6875 16.375 13.6875C16.1098 13.6875 15.8554 13.5821 15.6679 13.3946C15.4804 13.2071 15.375 12.9527 15.375 12.6875C15.375 12.4223 15.4804 12.1679 15.6679 11.9804C15.8554 11.7929 16.1098 11.6875 16.375 11.6875Z" fill="black"/>
<path d="M8.0124 5.3749C7.60615 5.26865 7.18115 5.50615 7.0624 5.90615L7.05615 5.9249L5.99365 9.8624L5.9874 9.88115C5.94004 10.0785 5.97131 10.2864 6.07458 10.4611C6.17785 10.6358 6.34502 10.7634 6.54072 10.817C6.73642 10.8706 6.94529 10.8459 7.12314 10.7483C7.30099 10.6506 7.43387 10.4876 7.49365 10.2937L7.4999 10.2749L8.5624 6.3374L8.56865 6.3124C8.66865 5.90615 8.4249 5.4874 8.0124 5.3749ZM21.6686 6.11865C21.2561 6.0124 20.8311 6.2499 20.7124 6.6499L20.7061 6.66865L19.9936 9.31865C20.4559 9.54595 20.8972 9.81366 21.3124 10.1187L21.3811 10.1749L22.2186 7.08115V7.0624C22.3186 6.6499 22.0749 6.23115 21.6686 6.11865ZM14.7186 1.68115C14.2194 1.72599 13.7229 1.79692 13.2311 1.89365L13.1249 1.9124L12.1374 5.58115L12.1311 5.5999C12.09 5.79528 12.1252 5.999 12.2295 6.16924C12.3338 6.33948 12.4994 6.46331 12.6922 6.5153C12.8849 6.56729 13.0903 6.5435 13.2661 6.44882C13.4419 6.35413 13.5747 6.19573 13.6374 6.00615L13.6436 5.9874L14.7061 2.0499L14.7124 2.03115C14.7411 1.91649 14.7433 1.79677 14.7186 1.68115V1.68115ZM24.4936 4.3999L24.2874 5.1749L24.2811 5.19365C24.24 5.38903 24.2752 5.59275 24.3795 5.76299C24.4838 5.93323 24.6494 6.05706 24.8422 6.10905C25.0349 6.16104 25.2403 6.13725 25.4161 6.04257C25.5919 5.94788 25.7247 5.78948 25.7874 5.5999L25.7936 5.58115L25.8186 5.4999C25.4277 5.13359 25.0166 4.78931 24.5874 4.46865L24.4936 4.3999ZM18.3124 1.8124L17.9374 3.20615L17.9311 3.2249C17.89 3.42028 17.9252 3.624 18.0295 3.79424C18.1338 3.96448 18.2994 4.08831 18.4922 4.1403C18.6849 4.19229 18.8903 4.1685 19.0661 4.07382C19.2419 3.97913 19.3747 3.82073 19.4374 3.63115L19.4436 3.6124L19.8374 2.14365C19.3721 2.0157 18.9007 1.9114 18.4249 1.83115L18.3124 1.8124Z" fill="white"/>
</g>
<defs>
<clipPath id="clip0_893_2">
<rect width="32" height="32" fill="white"/>
</clipPath>
</defs>
</svg>
