<svg width="223" height="223" viewBox="0 0 223 223" fill="none" xmlns="http://www.w3.org/2000/svg">
    <g>
        <path d="M111.14 0C172.52 0 222.279 49.7054 222.279 111.02C222.279 172.335 172.52 222.04 111.14 222.04C49.7589 222.04 0 172.335 0 111.02C0 49.7054 49.7589 0 111.14 0Z" fill="#EF39A8"/>
        <path d="M111.404 21.6757C161.093 21.6757 201.374 61.9133 201.374 111.549C201.374 161.185 161.093 201.422 111.404 201.422C61.715 201.422 21.4338 161.185 21.4338 111.549C21.4338 61.9133 61.715 21.6757 111.404 21.6757Z" fill="#BD399C"/>
        <path d="M111.404 45.4653C147.94 45.4653 177.558 75.0514 177.558 111.549C177.558 148.046 147.94 177.632 111.404 177.632C74.868 177.632 45.25 148.046 45.25 111.549C45.25 75.0514 74.868 45.4653 111.404 45.4653Z" fill="#93388E"/>
        <path d="M110.874 65.5554C135.718 65.5554 155.859 85.6738 155.859 110.492C155.859 135.309 135.718 155.428 110.874 155.428C86.0303 155.428 65.8894 135.309 65.8894 110.492C65.8894 85.6738 86.0303 65.5554 110.874 65.5554Z" fill="#6030A2"/>
    </g>
</svg>