<?xml version="1.0" encoding="utf-8"?>
<!-- Generator: Adobe Illustrator 22.1.0, SVG Export Plug-In . SVG Version: 6.00 Build 0)  -->
<svg version="1.1" id="Calque_1" xmlns="http://www.w3.org/2000/svg" xmlns:xlink="http://www.w3.org/1999/xlink" x="0px" y="0px"
	 viewBox="0 0 87.4 68.4" style="enable-background:new 0 0 87.4 68.4;" xml:space="preserve">
<style type="text/css">
	.st0{fill:url(#SVGID_1_);}
	.st1{fill:url(#SVGID_2_);}
</style>
<linearGradient id="SVGID_1_" gradientUnits="userSpaceOnUse" x1="21.569" y1="60.6577" x2="67.2189" y2="13.3948">
	<stop  offset="0" style="stop-color:#2C4D9D"/>
	<stop  offset="1" style="stop-color:#3A8FCE"/>
</linearGradient>
<path class="st0" d="M85.1,35c-2.7-1.7-3.4-3.7-3.4-3.8l0-0.1c-2.5-7-8.1-9.5-12.6-9.6C65.5,7.1,47.5,2.5,42.4,3.2
	c-4.6,0.5-8.4-1-8.5-1l-0.8-0.3c0,0-2.8-1.5-3.3-1.3c-0.6,0.2,1.1,4.4,1.6,5.4c0,0,0,0,0,0c0.1,0.1,0.1,0.2,0.1,0.2l0,0
	c2.6,5.6,12,12.6,20.6,13.5c3.6,0.4,3.9,2.7,4.1,5.1c0.1,0.5,0.1,1.3,0.2,1.7l-4-0.1c-11.1-6.5-20.8-8.6-29-6.3
	c-8.8,2.6-11.8,8.2-12.4,9.8l-0.1,0.2c0,0.1-0.3,0.9-0.7,2.1c-0.6-0.4-1.3-0.6-2.1-0.7c-1.7-0.3-3.4,0.3-4.8,1.5
	C2.1,34,1.2,35.6,1,37.3c-0.3,1.8,0.1,3.6,1,5.1c1,1.5,2.4,2.5,4.1,2.7c1.1,0.2,2.1,0,3.1-0.4c0.4,2.3,1.3,4.3,2.5,5.9
	c3.1,3.8,8.3,5.2,15.6,4.2L37.8,53c1.2-0.3,1.9-1.4,1.7-2.5c-0.1-0.6-0.5-1.1-1.1-1.4c-0.6-0.3-1.2-0.3-1.9-0.2c0,0-0.1,0-0.1,0
	l-9.7,1.6c-5.6,0.8-9.5-0.1-11.5-2.6C13.6,46,13,43,13.3,39.2c0-0.1,0-0.1,0-0.3c0.4-3.7,1.5-6.9,1.6-7.3c1.4-3.2,3.3-5.5,9.8-7.4
	c7.1-2,15.8,0,26,6.2l0.5,0.3l10.3,0L61.3,28c-0.1-0.5-0.1-1-0.2-1.6c-0.5-4.1-1.2-10.3-8.6-11.1C47,14.6,41.2,11,37.8,7.5
	c1.7,0.2,3.5,0.2,5.1,0C45,7.2,50.2,8.2,55.2,11c4,2.3,9,6.4,10,13.2l0.3,2.2l2.2-0.4c0.3-0.1,7-1.2,9.9,6.6
	c0.2,0.6,1.2,3.3,4.5,5.7c-1.8,1.5-7.9,4.6-12.5,4.1l-1.3-0.1l-0.4,0.9c-0.9,1.6-4,6.9-9.3,7.2c-4.9,0.3-8.2,2.4-10.2,4.3l-1.2-0.6
	c1.9-5.2,1.9-9.5-0.2-12.8c-3.3-5.1-10.1-5.7-11.3-5.7l-0.2,0c0,0-0.4,0-0.7,0.1c-1.2,0.2-2.1,1-2.1,2c0,1,0.8,1.9,2,2.1l0.6,0.1
	c0.1,0,5.7,0.2,8,3.7c1.5,2.4,1.2,6-0.9,10.6l-0.9,1.9l21.3,10.4l0.6,0.2c0.3,0.1,0.6,0.1,0.8,0.1c0.9,0,1.7-0.4,2-1.1
	c0.4-0.9,0-2.1-1.1-2.9l-12.6-6.2c1.8-1.2,3.8-1.9,6.2-2.1c6.1-0.4,10.1-5,11.9-8c5.7-0.2,13.8-3.5,15.6-7.1
	c0.3-0.6,0.4-1.2,0.4-1.2C87,37.1,86.3,35.8,85.1,35z M9.1,38.1L9,38.7C8.8,40,7.7,41,6.8,40.8c-0.5-0.1-0.9-0.4-1.2-0.9
	c-0.3-0.6-0.4-1.3-0.3-2c0.1-0.8,0.5-1.4,1-1.8c0.3-0.3,0.7-0.5,1.1-0.5c0.1,0,0.1,0,0.2,0C8,35.8,8.4,36,8.7,36.5
	C8.9,37,9.1,37.5,9.1,38.1z"/>
<linearGradient id="SVGID_2_" gradientUnits="userSpaceOnUse" x1="29.2433" y1="67.9192" x2="44.9438" y2="59.7463">
	<stop  offset="0" style="stop-color:#2C4D9D"/>
	<stop  offset="1" style="stop-color:#3A8FCE"/>
</linearGradient>
<path class="st1" d="M44.8,60c-0.4-0.5-1-0.8-1.7-0.7c-0.5,0-1.1,0.2-1.6,0.5l-0.2,0.1L41,60.2c-0.1,0.1-2.5,2.6-7.8,2.6
	c-1.6,0-2.9,0.9-2.9,2.2s1.3,2.2,2.9,2.2c6.3,0,9.8-2.8,10.7-3.7c0.5-0.6,1-1,1.1-1.6C45.2,61.2,45.1,60.5,44.8,60z"/>
</svg>
