<svg width="41" height="41" viewBox="0 0 41 41" fill="none" xmlns="http://www.w3.org/2000/svg">
<g clip-path="url(#clip0_201_22)" filter="url(#filter0_d_201_22)">
<rect width="32.8" height="32.8" transform="translate(4)" fill="white"/>
<path d="M33 6.2H27.8V9.8C27.8 10.5 27.2 11 26.6 11H17.8C17.6 11 17.4 11.2 17.4 11.4V14.2C17.4 14.4 17.6 14.6 17.8 14.6H23.7C24.4 14.6 24.9 15.2 24.9 15.8V18.2C24.9 18.9 24.3 19.4 23.7 19.4H17.8C17.6 19.4 17.4 19.6 17.4 19.8V25.5C17.4 26.2 16.8 26.7 16.2 26.7H12.5V31.5C12.5 32.2 13.1 32.8 13.8 32.8H33C33.7 32.8 34.3 32.2 34.3 31.5V7.4C34.3 6.7 33.7 6.2 33 6.2Z" fill="#0073E6"/>
<path d="M13.8 6.2H27.8V1.3C27.8 0.6 27.2 0 26.5 0H7.3C6.6 0 6 0.6 6 1.3V25.6C6 26.3 6.6 26.9 7.3 26.9H12.5V7.4C12.5 6.7 13.1 6.2 13.8 6.2Z" fill="#0073E6"/>
</g>
<defs>
<filter id="filter0_d_201_22" x="0" y="0" width="40.8" height="40.8" filterUnits="userSpaceOnUse" color-interpolation-filters="sRGB">
<feFlood flood-opacity="0" result="BackgroundImageFix"/>
<feColorMatrix in="SourceAlpha" type="matrix" values="0 0 0 0 0 0 0 0 0 0 0 0 0 0 0 0 0 0 127 0" result="hardAlpha"/>
<feOffset dy="4"/>
<feGaussianBlur stdDeviation="2"/>
<feComposite in2="hardAlpha" operator="out"/>
<feColorMatrix type="matrix" values="0 0 0 0 0 0 0 0 0 0 0 0 0 0 0 0 0 0 0.25 0"/>
<feBlend mode="normal" in2="BackgroundImageFix" result="effect1_dropShadow_201_22"/>
<feBlend mode="normal" in="SourceGraphic" in2="effect1_dropShadow_201_22" result="shape"/>
</filter>
<clipPath id="clip0_201_22">
<rect width="32.8" height="32.8" fill="white" transform="translate(4)"/>
</clipPath>
</defs>
</svg>
