<svg xmlns="http://www.w3.org/2000/svg" data-name="Layer 1" viewBox="0 0 83.7 93">
  <path fill="#005de8" d="M36.3 76a51 51 0 006.8-9.3 36.5 36.5 0 003.8-10.2 23 23 0 00-.1-11.2 15 15 0 00-7.2-8.8 24 24 0 00-15.2-2.1 47 47 0 00-18 7 57 57 0 00-4.9 3.5 3.5 3.5 0 00-1 1.6L0 50.8c0 .6.2 2.3 1 1.5l.2-.1a45.9 45.9 0 017.3-5.8 36.5 36.5 0 0114-5.4c4-.6 8.3-.4 11.7 1.6a11.6 11.6 0 015.7 6.9 17.8 17.8 0 010 8.7 28.2 28.2 0 01-3 7.9 39.7 39.7 0 01-5.2 7.3 44.7 44.7 0 01-6 5.6 43.8 43.8 0 01-6.4 4 37 37 0 01-4.7 2s-1.7.8-.9 1.7A29.9 29.9 0 0017 89a3.6 3.6 0 003.3-.5 55.7 55.7 0 008.2-5.2 57.8 57.8 0 007.8-7.2M66.3 4a37.2 37.2 0 00-35.1.8l-.3.2c-1 .6.3.6.3.6 9.7-1.9 19-2.7 29.7 2 12.9 6 18.4 19.4 20.7 30.3s1.2 2.7 2 0C84 23.6 78 10.6 66.4 4"/>
  <path fill="#005de8" d="M57.6 12.6c-9.5-5-24.6-3.4-36-.7a6.7 6.7 0 00-2.4 1.3q-1.7 1.5-3.2 3.1c-.1.2-1.2 1.5.2 1.2 12.4-3.4 27.5-4.7 36 0C65 24.2 68.6 36.3 68 49.2c-.7 12.8-6 25.7-13.5 36.6s-.5 1.4.5.8a50.7 50.7 0 005.8-4 39 39 0 002.5-3.2 68.5 68.5 0 0011.5-34.3c.4-13.6-4-25.6-17.1-32.5"/>
  <path fill="#005de8" d="M60.8 52.3a32.7 32.7 0 00-.9-15.4A21.8 21.8 0 0050 25c-5.9-3.6-13.6-4.4-20.6-3.8a66.8 66.8 0 00-21.5 6l-.1.2L6.3 30l-.1.3-.6 1.2c-.2.4-.3 1.3 1.1.7A59.6 59.6 0 0126 26.5c6.2-.7 13 0 18.2 3.1a19 19 0 018.6 10.8 30.1 30.1 0 01.5 14A50.2 50.2 0 0149 67.6 73.4 73.4 0 0140.6 81a88 88 0 01-9.4 10.2H31l-.7.8c-.3.4-.5.7 0 .8a35.1 35.1 0 004.4.1 4.7 4.7 0 002.7-1 95.7 95.7 0 009.5-10.4A78.8 78.8 0 0056 67a53.2 53.2 0 004.7-14.7"/>
  <path fill="#005de8" d="M10 73.1A6.2 6.2 0 017.8 72 5.6 5.6 0 016 69 9.2 9.2 0 016 65a12.6 12.6 0 011-2.7 16.8 16.8 0 011.8-2.7 21 21 0 015.3-4.9 17.1 17.1 0 016.5-2.5 8.6 8.6 0 015.5.8 5.4 5.4 0 012.6 3.2 8.3 8.3 0 010 4 13 13 0 01-1.3 3.7 19 19 0 01-2.5 3.4 21 21 0 01-2.8 2.6 20 20 0 01-3 1.9 17.5 17.5 0 01-3 1.2 13.3 13.3 0 01-3 .6 9.1 9.1 0 01-3-.4m10 3a30.7 30.7 0 004.4-2.8 31 31 0 004.2-4 27.5 27.5 0 003.6-5 20 20 0 002-5.4 12.4 12.4 0 000-6.1 8 8 0 00-3.9-4.8 12.9 12.9 0 00-8.2-1.1 25.4 25.4 0 00-9.7 3.8 31 31 0 00-7.9 7.2 25.4 25.4 0 00-2.6 4 19.8 19.8 0 00-1.3 3.6l-.2.5a13.7 13.7 0 000 6.3 8.3 8.3 0 002.4 4A8.8 8.8 0 005.6 78l.8.3a13.8 13.8 0 004.6.5 19.6 19.6 0 004.5-.9 25.6 25.6 0 004.6-1.8"/>
  <path fill="#005de8" d="M18.1 66.7a9.9 9.9 0 001.4-.8 10.7 10.7 0 001.2-1.2 8 8 0 001.1-1.5 6.2 6.2 0 00.6-1.6 3.7 3.7 0 000-1.9 2.4 2.4 0 00-1.1-1.4 3.5 3.5 0 00-1.8-.4 4.3 4.3 0 00-.6 0 7.6 7.6 0 00-3 1.2 9.4 9.4 0 00-2.3 2.2 7.4 7.4 0 00-.8 1.2 5.5 5.5 0 00-.4 1.2 4.2 4.2 0 000 1.9 2.6 2.6 0 00.7 1.2 2.8 2.8 0 001 .6 3.9 3.9 0 001.4.1 5.6 5.6 0 001.3-.2 8 8 0 001.4-.6"/>
</svg>
