<svg width="32" height="32" viewBox="0 0 32 32" fill="none" xmlns="http://www.w3.org/2000/svg">
<rect width="32" height="32" fill="#3E1140"/>
<path fill-rule="evenodd" clip-rule="evenodd" d="M23.0628 29.0292C23.0628 29.0292 21.6058 28.1925 21.4346 28.094L4.15922 18.1147C3.82119 17.9206 3.62265 17.5603 3.62265 17.1705V2.47546V0.60376C3.62265 0.60376 5.07788 1.4345 5.23146 1.51823C5.56795 1.70289 5.79425 2.06229 5.79425 2.47546V16.541L22.5221 26.206C22.8771 26.41 23.0734 26.784 23.0679 27.1665C23.0653 27.3456 23.0628 29.0292 23.0628 29.0292Z" fill="white"/>
<path fill-rule="evenodd" clip-rule="evenodd" d="M27.4049 31.5293C27.4049 31.5293 25.927 30.6794 25.7664 30.5855C25.444 30.3967 25.2283 30.0459 25.2283 29.6444V15.5582L10.1192 6.82549L10.12 14.684C10.12 15.2854 10.1137 16.5456 10.1137 16.5456C10.1137 16.5456 8.66151 15.6999 8.50088 15.61C8.17585 15.4284 7.95704 15.0875 7.95682 14.6849V4.96481C7.9566 4.57544 8.16285 4.22155 8.49999 4.02698C8.83736 3.83218 9.25273 3.83571 9.58965 4.03072L26.8611 14.0051C27.1974 14.1997 27.3999 14.5604 27.3999 14.9489V29.6444C27.3999 30.2455 27.4049 31.5293 27.4049 31.5293Z" fill="white"/>
<path fill-rule="evenodd" clip-rule="evenodd" d="M14.4368 19.0457C14.4368 19.0457 12.9553 18.1892 12.7888 18.0856C12.4811 17.8933 12.2773 17.5511 12.2773 17.1608V12.4415C12.2773 11.8401 12.2786 10.5739 12.2786 10.5739C12.2786 10.5739 13.7495 11.406 13.9097 11.4997C14.2327 11.6883 14.4489 12.0395 14.4489 12.4412V17.1606C14.4489 17.7617 14.4368 19.0457 14.4368 19.0457Z" fill="white"/>
<path fill-rule="evenodd" clip-rule="evenodd" d="M18.7666 21.5483C18.7666 21.5483 17.2922 20.694 17.1289 20.5959C16.8127 20.4058 16.602 20.0585 16.602 19.6616V14.9423C16.602 14.3409 16.5996 13.0629 16.5996 13.0629C16.5996 13.0629 18.063 13.9037 18.2201 13.9925C18.5511 14.1792 18.7736 14.5346 18.7736 14.9425V19.6618C18.7736 20.2632 18.7666 21.5483 18.7666 21.5483Z" fill="white"/>
<path fill-rule="evenodd" clip-rule="evenodd" d="M23.082 24.0416C23.082 24.0416 21.6103 23.19 21.4501 23.0965C21.1266 22.9081 20.9102 22.5569 20.9102 22.1545V17.4354C20.9102 16.8338 20.908 15.5465 20.908 15.5465C20.908 15.5465 22.3606 16.394 22.5144 16.478C22.8528 16.6622 23.0816 17.022 23.0816 17.4356V22.1547C23.0816 22.7561 23.082 24.0416 23.082 24.0416Z" fill="white"/>
</svg>
