<svg width="21" height="21" viewBox="0 0 21 21" fill="none" xmlns="http://www.w3.org/2000/svg">
<path d="M16.089 10.957C16.553 11.724 17.225 12.06 17.941 12.06C19.161 12.06 20.161 11.04 20.161 9.72C20.161 8.42 19.241 7.48 17.941 7.48C16.961 7.48 15.955 7.992 14.892 9.707C14.657 8.327 13.574 7.547 12.334 7.463C12.703 6.913 12.84 6.335 12.84 5.66C12.84 3.88 11.16 2 8.08 2C4.7 2 2.58 4.08 2.58 6.26C2.58 7.72 3.221 8.6 4.32 9.66C1.66 10.58 0 12.22 0 14.34C0 17 2.481 19 5.521 19C7.601 19 9.381 18.16 10.781 16.6C12.421 18.34 13.501 19 14.981 19C17.121 19 18.921 17.32 19.041 14.48L18.821 14.4C18.241 15.38 17.401 15.98 16.341 15.98C15.121 15.98 14.381 15.48 13.101 14.06C14.009 12.77 15.088 11.7 16.088 10.957H16.089ZM7.96 3.379C9.04 3.379 9.721 4.259 9.721 5.579C9.721 6.519 9.345 7.502 8.561 8.679C7.148 7.395 6.221 6.479 6.221 5.239C6.221 4.119 6.961 3.379 7.961 3.379H7.96ZM7.36 16.14C5.54 16.14 4.36 14.84 4.36 13.3C4.36 12.4 4.7 11.5 5.46 10.72C6.641 11.78 8.08 13.36 9.62 15.3C8.88 15.88 8.181 16.14 7.36 16.14V16.14ZM12.181 12.9C11.281 11.74 10.381 10.56 9.481 9.58C10.701 8.979 11.486 8.437 11.999 7.885C13.054 8.37 13.889 9.815 12.181 12.9Z" fill="#47E83A"/>
</svg>
