<svg width="32" height="32" viewBox="0 0 32 32" fill="none" xmlns="http://www.w3.org/2000/svg">
<g clip-path="url(#clip0_3751_35)">
<path d="M31.8 0H-0.2V32H31.8V0Z" fill="#200F46"/>
<path d="M13.1333 4.33333H8.13333L7.43333 7.66667H12.4333L13.1333 4.33333Z" fill="white"/>
<path d="M19.8 4.33333L19.1333 7.66667H24.1333L24.8 4.33333H19.8Z" fill="#3DF0AF"/>
<path d="M22.8 21.3333C22.8 16 20.8 13.3333 16.1333 14C14.8333 14.2 13.5667 14.9333 12.4667 15.6667V9.33333H8.8V24.3333H7.13333V27.3333H12.4667V25V24.3333V23.3667C12.4667 19.0333 14.6333 18.0333 16.4667 18.0333C18.3 18.0333 19.1333 19 19.1333 21.3333V24.3333V27.3333H24.4667V24.3333H22.8V21.3333Z" fill="#3DF0AF"/>
</g>
<defs>
<clipPath id="clip0_3751_35">
<rect width="32" height="32" fill="white"/>
</clipPath>
</defs>
</svg>
