<svg height="39" viewBox="0 0 120 39" width="120" xmlns="http://www.w3.org/2000/svg"><g fill="none" fill-rule="evenodd"><path d="m110.095922 26.2962963h5.619555v-8.6419753h-5.619555zm5.588508-12.037037h4.31557v16.0493827c0 2.654321-.279425 3.1172839-.993513 3.8271605-.55885.5864197-1.459221.8641975-3.011584.8641975h-6.302595l-1.955978-2.1604938v-.8950618h7.9481v-2.191358h-5.433272c-1.645505 0-2.483781-.308642-3.166821-.9876543-.90037-.9259259-1.272938-2.9320988-1.272938-6.7283951s.434662-5.8950617 1.36608-6.8518518c.714087-.6790124 1.583411-.9567901 3.135774-.9567901l3.228916.0308642 2.142261 1.9444444zm-50.9175162-4.2592593h5.0917516l-7.3271547 9.2592593 7.6376274 10.4629629h-5.4022243l-5.8058387-8.2098765h-1.3660797v8.2098765h-4.5949954v-19.7222222h4.5949954v7.654321h1.3660797zm33.5310473 9.1358025v-1.4197531h-1.5523633c-.0310473 0-.0310473 0-.0620946 0h-1.2108433c-.0310473 0-.0310473 0-.0620946 0h-2.3906394v1.4197531 10.5246913h-4.2845227v-15.4012345h2.8253012 1.4592215v.2777777 1.6666667l2.1422613-1.9444444h1.2418906c.1862836-.0308642.4036145-.0308642.6209454-.0308642h1.8628359c1.3039849 0 2.1422609.2777777 2.7321599.8641975.651992.6172839.90037 1.4197531.90037 3.7037037v10.8641975h-4.2845225v-10.3395061c.0620946-.0617284.0620946-.1234568.0620946-.1851852zm-22.5713624 7.1296296h5.6195551v-8.6419753h-5.6195551zm.1862836 3.3950617c-1.5523633 0-2.3906395-.2469136-3.0426321-.9567901-.9935125-1.0185185-1.3971269-2.4074074-1.3971269-6.7592593 0-4.382716.4036144-5.7407407 1.3971269-6.7901234.6519926-.6790124 1.4902688-.9259259 3.0426321-.9259259h5.2159407c1.5523633 0 2.3906395.2469135 3.0426321.9259259.9935125 1.0493827 1.3971269 2.4074074 1.3971269 6.7901234 0 4.3827161-.4036144 5.7407408-1.3971269 6.7592593-.6830399.7098765-1.4902688.9567901-3.0426321.9567901z" fill="#043558"/><path d="m14 33.3688889 1.0606061-1.3688889h7.8484848l4.0909091 5.2266667-.7272727 1.7733333h-10.1212121l.2424242-1.7733333z" fill="#169fcc"/><path d="m16.4 15.5471311 3.7897092-6.5471311h4.4161074l19.7941834 22.9918033-1.5346756 7.0081967h-8.4876958l.5324385-1.9672131z" fill="#14b59a"/><path d="m21 7.75605214 1.8146067-3.3556797 5.4438203-4.40037244 9.3277153 7.31284916-1.2097378 1.23463687 1.6235955 2.24767227v2.405959l-4.6479401 3.7988827-7.7996254-9.24394786z" fill="#1bc263"/><path d="m6.58517555 22.3777778h2.46553966l6.42912879-5.3777778 8.520156 9.9-2.4031209 3.6055556h-7.8647595l-5.43042909 6.9055555-1.24837452 1.5888889h-7.05331599v-8.4638889z" fill="#16bdcc"/></g></svg>