<svg id="Group_64" data-name="Group 64" xmlns="http://www.w3.org/2000/svg" width="500" height="500" viewBox="0 0 500 500">
  <path id="Path_149" data-name="Path 149" d="M0,0H500V500H0Z" fill="#061631"/>
  <g id="Group_39" data-name="Group 39" transform="translate(22217 13463)">
    <path id="Path_142" data-name="Path 142" d="M505.184,2.289q-34.33,0-61.794-21.361L457.885-42.34Q482.3-23.649,505.946-23.649q9.917,0,15.83-4.768a14.808,14.808,0,0,0,5.912-12.015q0-10.68-28.227-19.072-.763-.381-1.716-.763a4.373,4.373,0,0,0-1.335-.381Q452.163-72.474,452.163-100.7q0-19.835,15.067-31.66t39.861-11.825q24.412,0,46.536,14.495l-11.062,22.124A66.655,66.655,0,0,0,504.8-119.01q-24.031,0-24.031,15.258,0,6.485,4.768,9.345t15.83,5.531A265.494,265.494,0,0,1,529.6-79.722a92.6,92.6,0,0,1,13.351,7.247q14.495,9.918,14.495,30.134,0,19.835-14.686,32.232T505.184,2.289Z" transform="translate(-22444 -13114)" fill="#fff"/>
    <path id="Path_143" data-name="Path 143" d="M51.495,0H21.742V-191.086l29.753-6.883Z" transform="translate(-22070 -13112)" fill="#fff"/>
  </g>
  <path id="Exclusion_2" data-name="Exclusion 2" d="M23.831,47.662A23.837,23.837,0,0,1,14.555,1.873,23.837,23.837,0,0,1,33.107,45.789,23.682,23.682,0,0,1,23.831,47.662Zm-6.8-33.972a1,1,0,0,0-1,1V33.309a1,1,0,0,0,1,1,.988.988,0,0,0,.481-.126l16.924-9.309a1,1,0,0,0,0-1.752L17.511,13.815A.989.989,0,0,0,17.031,13.69Z" transform="translate(325.971 148)" fill="#196cff"/>
</svg>
