<svg width="32" height="32" viewBox="0 0 32 32" fill="none" xmlns="http://www.w3.org/2000/svg">
<g clip-path="url(#clip0_3430_20)">
<path d="M32 0H0V32H32V0Z" fill="#1A4CE3"/>
<path fill-rule="evenodd" clip-rule="evenodd" d="M23.2632 6.39999C25.4356 6.39999 27.1888 7.12934 28.5228 8.5879C29.8568 10.0081 30.5047 11.9274 30.5047 14.3455V26.1295H24.7877V14.8445C24.7877 12.8869 23.8349 11.697 22.0436 11.697C20.176 11.697 19.0708 13.0404 19.0708 15.3051V26.1295H13.3538V14.8445C13.3538 12.8869 12.401 11.697 10.6097 11.697C8.74219 11.697 7.63691 13.0404 7.63691 15.3051V26.1295H1.91998V6.9374H7.63691V8.70303C8.66597 7.16767 10.381 6.39999 12.744 6.39999C14.9546 6.39999 16.6315 7.24447 17.7368 8.93337C18.9183 7.24447 20.7478 6.39999 23.2632 6.39999Z" fill="white"/>
</g>
<defs>
<clipPath id="clip0_3430_20">
<rect width="32" height="32" fill="white"/>
</clipPath>
</defs>
</svg>
