<svg width="32" height="32" viewBox="0 0 32 32" fill="none" xmlns="http://www.w3.org/2000/svg">
<g clip-path="url(#clip0_3186_173)">
<path d="M16.173 31.9406C15.7329 31.9406 15.322 31.8232 14.9406 31.6178L11.0379 29.2997C10.451 28.9769 10.7444 28.8595 10.9205 28.8008C11.7128 28.5368 11.8595 28.4781 12.6811 28.0086C12.7691 27.9499 12.8865 27.9792 12.9745 28.0379L15.9676 29.8279C16.085 29.8866 16.2317 29.8866 16.3197 29.8279L28.0279 23.0495C28.1452 22.9908 28.2039 22.8734 28.2039 22.7267V9.19925C28.2039 9.05253 28.1452 8.93516 28.0279 8.87647L16.3197 2.12742C16.2024 2.06873 16.0556 2.06873 15.9676 2.12742L4.25947 8.87647C4.14209 8.93516 4.0834 9.08188 4.0834 9.19925V22.7267C4.0834 22.8441 4.14209 22.9908 4.25947 23.0495L7.45793 24.8981C9.18921 25.7784 10.2749 24.7514 10.2749 23.7244V10.373C10.2749 10.1969 10.4216 10.0209 10.627 10.0209H12.1236C12.2996 10.0209 12.4757 10.1676 12.4757 10.373V23.7244C12.4757 26.0425 11.2139 27.3924 9.01315 27.3924C8.33824 27.3924 7.81005 27.3924 6.31352 26.6588L3.23244 24.8981C2.4695 24.458 2 23.6364 2 22.756V9.2286C2 8.34829 2.4695 7.52666 3.23244 7.08651L14.9406 0.308109C15.6742 -0.102703 16.6719 -0.102703 17.4054 0.308109L29.1136 7.08651C29.8765 7.52666 30.346 8.34829 30.346 9.2286V22.756C30.346 23.6364 29.8765 24.458 29.1136 24.8981L17.4054 31.6765C17.024 31.8526 16.5838 31.9406 16.173 31.9406ZM19.7823 22.6387C14.6471 22.6387 13.5908 20.2912 13.5908 18.2958C13.5908 18.1197 13.7375 17.9437 13.9429 17.9437H15.4688C15.6448 17.9437 15.7915 18.0611 15.7915 18.2371C16.0263 19.7923 16.7012 20.5553 19.8116 20.5553C22.2765 20.5553 23.3329 19.9977 23.3329 18.6773C23.3329 17.9143 23.0394 17.3568 19.1954 16.9753C15.9969 16.6526 14.0016 15.9483 14.0016 13.3954C14.0016 11.0186 15.9969 9.61006 19.3421 9.61006C23.0981 9.61006 24.9468 10.9012 25.1815 13.7182C25.1815 13.8062 25.1522 13.8942 25.0935 13.9823C25.0348 14.041 24.9468 14.0997 24.8587 14.0997H23.3329C23.1862 14.0997 23.0394 13.9823 23.0101 13.8356C22.658 12.2217 21.7483 11.6935 19.3421 11.6935C16.6425 11.6935 16.3197 12.6325 16.3197 13.3367C16.3197 14.1877 16.7012 14.4518 20.3398 14.9213C23.9491 15.3908 25.651 16.0657 25.651 18.5892C25.6217 21.1715 23.5089 22.6387 19.7823 22.6387Z" fill="#539E43"/>
</g>
<defs>
<clipPath id="clip0_3186_173">
<rect width="28.346" height="32" fill="white" transform="translate(2)"/>
</clipPath>
</defs>
</svg>
