<?xml version="1.0" encoding="UTF-8"?>
<svg width="824px" height="251px" viewBox="0 0 824 251" version="1.1" xmlns="http://www.w3.org/2000/svg" xmlns:xlink="http://www.w3.org/1999/xlink">
    <!-- Generator: Sketch 63 (92445) - https://sketch.com -->
    <title>OneTrust-2020-RGB-Primary</title>
    <desc>Created with Sketch.</desc>
    <g id="HomepageFinal" stroke="none" stroke-width="1" fill="none" fill-rule="evenodd">
        <g id="OneTrust-2020-RGB-Primary">
            <path d="M14.789,223.115 L17.484,223.115 C20.004,223.115 21.889,222.617 23.14,221.622 C24.391,220.627 25.017,219.177 25.017,217.274 C25.017,215.354 24.492,213.936 23.444,213.02 C22.396,212.104 20.752,211.645 18.515,211.645 L14.789,211.645 L14.789,223.115 Z M33.289,216.983 C33.289,221.142 31.989,224.322 29.391,226.524 C26.791,228.727 23.096,229.828 18.304,229.828 L14.789,229.828 L14.789,243.57 L6.596,243.57 L6.596,204.933 L18.938,204.933 C23.625,204.933 27.188,205.941 29.628,207.958 C32.068,209.976 33.289,212.984 33.289,216.983 L33.289,216.983 Z" id="Fill-1" fill="#707E86"></path>
            <path d="M51.482,222.084 L54.125,222.084 C56.714,222.084 58.626,221.652 59.859,220.789 C61.093,219.926 61.709,218.569 61.709,216.719 C61.709,214.887 61.08,213.583 59.82,212.808 C58.56,212.033 56.609,211.645 53.966,211.645 L51.482,211.645 L51.482,222.084 Z M51.482,228.744 L51.482,243.57 L43.289,243.57 L43.289,204.933 L54.547,204.933 C59.798,204.933 63.683,205.889 66.202,207.8 C68.722,209.712 69.981,212.614 69.981,216.508 C69.981,218.78 69.356,220.803 68.105,222.573 C66.854,224.344 65.083,225.731 62.793,226.735 C68.607,235.422 72.395,241.033 74.157,243.57 L65.066,243.57 L55.842,228.744 L51.482,228.744 L51.482,228.744 Z" id="Fill-2" fill="#707E86"></path>
            <polygon id="Fill-3" fill="#707E86" points="81.727 243.57 89.919 243.57 89.919 204.933 81.727 204.933"></polygon>
            <path d="M124.392,204.933 L132.664,204.933 L119.529,243.57 L110.597,243.57 L97.488,204.933 L105.76,204.933 L113.028,227.925 C113.433,229.281 113.852,230.863 114.283,232.669 C114.715,234.475 114.984,235.73 115.089,236.435 C115.283,234.813 115.944,231.978 117.072,227.925 L124.392,204.933" id="Fill-4" fill="#707E86"></path>
            <path d="M159.129,227.502 C156.54,219.168 155.082,214.455 154.756,213.363 C154.43,212.271 154.196,211.407 154.055,210.772 C153.474,213.028 151.809,218.604 149.061,227.502 L159.129,227.502 Z M163.887,243.57 L161.085,234.373 L146.999,234.373 L144.198,243.57 L135.371,243.57 L149.007,204.773 L159.024,204.773 L172.714,243.57 L163.887,243.57 L163.887,243.57 Z" id="Fill-5" fill="#707E86"></path>
            <path d="M196.695,211.195 C193.611,211.195 191.224,212.354 189.533,214.671 C187.841,216.988 186.996,220.217 186.996,224.357 C186.996,232.973 190.229,237.28 196.695,237.28 C199.408,237.28 202.694,236.603 206.552,235.245 L206.552,242.117 C203.381,243.438 199.84,244.099 195.928,244.099 C190.308,244.099 186.009,242.395 183.031,238.985 C180.054,235.576 178.565,230.683 178.565,224.304 C178.565,220.287 179.296,216.768 180.758,213.746 C182.221,210.725 184.322,208.407 187.062,206.796 C189.801,205.184 193.012,204.377 196.695,204.377 C200.447,204.377 204.218,205.285 208.006,207.1 L205.363,213.76 C203.918,213.072 202.465,212.474 201.002,211.962 C199.54,211.451 198.104,211.195 196.695,211.195" id="Fill-6" fill="#707E86"></path>
            <polyline id="Fill-7" fill="#707E86" points="229.502 220.842 237.563 204.933 246.39 204.933 233.572 228.532 233.572 243.57 225.433 243.57 225.433 228.797 212.615 204.933 221.495 204.933 229.502 220.842"></polyline>
            <path d="M261.227,237.889 C260.311,241.447 258.76,245.667 256.576,250.547 L250.762,250.547 C251.907,245.86 252.797,241.438 253.431,237.28 L260.831,237.28 L261.227,237.889" id="Fill-8" fill="#707E86"></path>
            <path d="M311.938,232.841 C311.938,236.329 310.683,239.077 308.172,241.086 C305.661,243.095 302.168,244.099 297.693,244.099 C293.57,244.099 289.923,243.324 286.752,241.773 L286.752,234.162 C289.359,235.324 291.566,236.144 293.372,236.62 C295.178,237.096 296.83,237.333 298.327,237.333 C300.125,237.333 301.503,236.989 302.463,236.303 C303.423,235.615 303.904,234.594 303.904,233.237 C303.904,232.479 303.692,231.806 303.27,231.215 C302.847,230.625 302.226,230.057 301.406,229.511 C300.587,228.965 298.917,228.093 296.398,226.895 C294.037,225.784 292.266,224.719 291.086,223.696 C289.905,222.675 288.963,221.485 288.258,220.129 C287.553,218.771 287.201,217.187 287.201,215.371 C287.201,211.953 288.359,209.267 290.676,207.311 C292.993,205.355 296.195,204.377 300.283,204.377 C302.292,204.377 304.208,204.615 306.031,205.091 C307.855,205.566 309.762,206.236 311.753,207.1 L309.11,213.469 C307.049,212.623 305.344,212.033 303.996,211.698 C302.648,211.363 301.322,211.195 300.019,211.195 C298.468,211.195 297.279,211.557 296.451,212.279 C295.623,213.002 295.209,213.944 295.209,215.107 C295.209,215.83 295.376,216.46 295.711,216.997 C296.045,217.534 296.579,218.054 297.31,218.556 C298.041,219.059 299.772,219.961 302.503,221.265 C306.115,222.992 308.59,224.723 309.929,226.458 C311.268,228.193 311.938,230.321 311.938,232.841" id="Fill-9" fill="#707E86"></path>
            <polyline id="Fill-10" fill="#707E86" points="343.9 243.57 321.647 243.57 321.647 204.933 343.9 204.933 343.9 211.645 329.84 211.645 329.84 220.129 342.922 220.129 342.922 226.841 329.84 226.841 329.84 236.805 343.9 236.805 343.9 243.57"></polyline>
            <path d="M371.079,211.195 C367.995,211.195 365.608,212.354 363.917,214.671 C362.225,216.988 361.379,220.217 361.379,224.357 C361.379,232.973 364.612,237.28 371.079,237.28 C373.792,237.28 377.078,236.603 380.936,235.245 L380.936,242.117 C377.765,243.438 374.224,244.099 370.312,244.099 C364.691,244.099 360.393,242.395 357.415,238.985 C354.438,235.576 352.949,230.683 352.949,224.304 C352.949,220.287 353.68,216.768 355.142,213.746 C356.604,210.725 358.706,208.407 361.445,206.796 C364.185,205.184 367.396,204.377 371.079,204.377 C374.831,204.377 378.602,205.285 382.39,207.1 L379.747,213.76 C378.302,213.072 376.849,212.474 375.386,211.962 C373.924,211.451 372.488,211.195 371.079,211.195" id="Fill-11" fill="#707E86"></path>
            <path d="M423.312,204.933 L423.312,229.934 C423.312,232.787 422.673,235.29 421.396,237.439 C420.118,239.589 418.272,241.236 415.858,242.381 C413.445,243.526 410.59,244.099 407.296,244.099 C402.327,244.099 398.469,242.826 395.72,240.28 C392.972,237.734 391.598,234.25 391.598,229.828 L391.598,204.933 L399.764,204.933 L399.764,228.586 C399.764,231.563 400.363,233.748 401.561,235.14 C402.759,236.531 404.741,237.228 407.507,237.228 C410.185,237.228 412.128,236.527 413.335,235.127 C414.542,233.726 415.145,231.528 415.145,228.532 L415.145,204.933 L423.312,204.933" id="Fill-12" fill="#707E86"></path>
            <path d="M443.672,222.084 L446.314,222.084 C448.904,222.084 450.816,221.652 452.05,220.789 C453.282,219.926 453.899,218.569 453.899,216.719 C453.899,214.887 453.27,213.583 452.01,212.808 C450.75,212.033 448.799,211.645 446.156,211.645 L443.672,211.645 L443.672,222.084 Z M443.672,228.744 L443.672,243.57 L435.479,243.57 L435.479,204.933 L446.737,204.933 C451.987,204.933 455.872,205.889 458.393,207.8 C460.912,209.712 462.172,212.614 462.172,216.508 C462.172,218.78 461.546,220.803 460.295,222.573 C459.044,224.344 457.273,225.731 454.983,226.735 C460.797,235.422 464.585,241.033 466.347,243.57 L457.256,243.57 L448.032,228.744 L443.672,228.744 L443.672,228.744 Z" id="Fill-13" fill="#707E86"></path>
            <polygon id="Fill-14" fill="#707E86" points="473.917 243.57 482.109 243.57 482.109 204.933 473.917 204.933"></polygon>
            <polyline id="Fill-15" fill="#707E86" points="509.446 243.57 501.253 243.57 501.253 211.751 490.762 211.751 490.762 204.933 519.938 204.933 519.938 211.751 509.446 211.751 509.446 243.57"></polyline>
            <polyline id="Fill-16" fill="#707E86" points="540.615 220.842 548.676 204.933 557.503 204.933 544.686 228.532 544.686 243.57 536.545 243.57 536.545 228.797 523.728 204.933 532.607 204.933 540.615 220.842"></polyline>
            <path d="M597.114,213.627 C597.114,212.693 596.797,211.958 596.162,211.42 C595.528,210.883 594.709,210.614 593.705,210.614 C592.524,210.614 591.595,210.896 590.916,211.46 C590.238,212.024 589.899,212.825 589.899,213.865 C589.899,215.416 590.735,217.125 592.409,218.992 C593.925,218.146 595.088,217.313 595.898,216.494 C596.708,215.676 597.114,214.72 597.114,213.627 Z M587.626,232.365 C587.626,233.88 588.194,235.087 589.331,235.985 C590.467,236.884 591.925,237.333 593.705,237.333 C595.925,237.333 597.924,236.796 599.704,235.721 L590.93,227 C589.907,227.775 589.102,228.586 588.512,229.432 C587.921,230.277 587.626,231.255 587.626,232.365 Z M617.569,243.57 L607.605,243.57 L604.566,240.584 C601.201,242.928 597.396,244.099 593.149,244.099 C588.851,244.099 585.441,243.112 582.922,241.139 C580.402,239.166 579.143,236.497 579.143,233.131 C579.143,230.718 579.676,228.661 580.741,226.96 C581.808,225.26 583.636,223.67 586.226,222.189 C584.904,220.675 583.943,219.226 583.345,217.843 C582.746,216.46 582.446,214.948 582.446,213.31 C582.446,210.632 583.473,208.474 585.525,206.835 C587.577,205.196 590.322,204.377 593.758,204.377 C597.034,204.377 599.655,205.14 601.62,206.663 C603.584,208.188 604.566,210.227 604.566,212.781 C604.566,214.878 603.959,216.794 602.743,218.529 C601.527,220.266 599.563,221.917 596.85,223.484 L604.355,230.806 C605.606,228.744 606.689,226.093 607.605,222.851 L616.01,222.851 C615.376,225.229 614.504,227.551 613.394,229.814 C612.284,232.078 611.023,234.083 609.614,235.827 L617.569,243.57 L617.569,243.57 Z" id="Fill-17" fill="#707E86"></path>
            <polyline id="Fill-18" fill="#707E86" points="656.81 243.57 648.616 243.57 648.616 211.751 638.125 211.751 638.125 204.933 667.302 204.933 667.302 211.751 656.81 211.751 656.81 243.57"></polyline>
            <path d="M684.146,222.084 L686.789,222.084 C689.379,222.084 691.291,221.652 692.524,220.789 C693.757,219.926 694.374,218.569 694.374,216.719 C694.374,214.887 693.744,213.583 692.484,212.808 C691.225,212.033 689.273,211.645 686.631,211.645 L684.146,211.645 L684.146,222.084 Z M684.146,228.744 L684.146,243.57 L675.954,243.57 L675.954,204.933 L687.212,204.933 C692.462,204.933 696.347,205.889 698.867,207.8 C701.387,209.712 702.646,212.614 702.646,216.508 C702.646,218.78 702.021,220.803 700.77,222.573 C699.519,224.344 697.748,225.731 695.458,226.735 C701.271,235.422 705.06,241.033 706.821,243.57 L697.73,243.57 L688.507,228.744 L684.146,228.744 L684.146,228.744 Z" id="Fill-19" fill="#707E86"></path>
            <path d="M745.84,204.933 L745.84,229.934 C745.84,232.787 745.201,235.29 743.924,237.439 C742.646,239.589 740.801,241.236 738.387,242.381 C735.973,243.526 733.119,244.099 729.824,244.099 C724.855,244.099 720.997,242.826 718.249,240.28 C715.5,237.734 714.126,234.25 714.126,229.828 L714.126,204.933 L722.292,204.933 L722.292,228.586 C722.292,231.563 722.891,233.748 724.089,235.14 C725.287,236.531 727.27,237.228 730.035,237.228 C732.714,237.228 734.656,236.527 735.863,235.127 C737.069,233.726 737.674,231.528 737.674,228.532 L737.674,204.933 L745.84,204.933" id="Fill-20" fill="#707E86"></path>
            <path d="M780.815,232.841 C780.815,236.329 779.561,239.077 777.05,241.086 C774.539,243.095 771.046,244.099 766.571,244.099 C762.448,244.099 758.801,243.324 755.63,241.773 L755.63,234.162 C758.237,235.324 760.443,236.144 762.25,236.62 C764.056,237.096 765.708,237.333 767.205,237.333 C769.003,237.333 770.381,236.989 771.342,236.303 C772.302,235.615 772.781,234.594 772.781,233.237 C772.781,232.479 772.57,231.806 772.147,231.215 C771.725,230.625 771.104,230.057 770.284,229.511 C769.465,228.965 767.796,228.093 765.276,226.895 C762.915,225.784 761.145,224.719 759.964,223.696 C758.783,222.675 757.841,221.485 757.136,220.129 C756.432,218.771 756.079,217.187 756.079,215.371 C756.079,211.953 757.237,209.267 759.555,207.311 C761.871,205.355 765.073,204.377 769.161,204.377 C771.17,204.377 773.086,204.615 774.909,205.091 C776.732,205.566 778.64,206.236 780.631,207.1 L777.988,213.469 C775.927,212.623 774.222,212.033 772.874,211.698 C771.526,211.363 770.2,211.195 768.896,211.195 C767.346,211.195 766.157,211.557 765.329,212.279 C764.501,213.002 764.087,213.944 764.087,215.107 C764.087,215.83 764.254,216.46 764.589,216.997 C764.924,217.534 765.456,218.054 766.188,218.556 C766.919,219.059 768.649,219.961 771.381,221.265 C774.992,222.992 777.468,224.723 778.808,226.458 C780.146,228.193 780.815,230.321 780.815,232.841" id="Fill-21" fill="#707E86"></path>
            <polyline id="Fill-22" fill="#707E86" points="805.432 243.57 797.238 243.57 797.238 211.751 786.747 211.751 786.747 204.933 815.924 204.933 815.924 211.751 805.432 211.751 805.432 243.57"></polyline>
            <path d="M64.896,127.474 C50.395,127.474 39.212,122.824 31.656,113.654 C24.025,104.397 20.157,90.527 20.157,72.431 C20.157,54.584 24.026,40.841 31.656,31.582 C39.213,22.413 50.459,17.763 65.083,17.763 C79.637,17.763 90.755,22.377 98.127,31.478 C105.576,40.679 109.354,54.457 109.354,72.431 C109.354,90.591 105.56,104.48 98.081,113.711 C90.678,122.843 79.513,127.474 64.896,127.474 Z M65.083,0.453 C44.488,0.453 28.346,6.818 17.103,19.371 C5.902,31.874 0.224,49.663 0.224,72.244 C0.224,95.008 5.886,112.922 17.052,125.486 C28.263,138.104 44.36,144.502 64.896,144.502 C84.995,144.502 100.936,137.993 112.274,125.154 C123.562,112.372 129.286,94.633 129.286,72.431 C129.286,50.167 123.578,32.428 112.319,19.706 C101.013,6.931 85.12,0.453 65.083,0.453 L65.083,0.453 Z" id="Fill-23" fill="#67B54C"></path>
            <path d="M204.468,35.019 C197.213,35.019 190.527,36.473 184.596,39.34 C179.495,41.808 175.311,45.187 172.127,49.404 L169.875,36.892 L154.41,36.892 L154.41,142.629 L173.031,142.629 L173.031,87.231 C173.031,74.306 175.427,64.968 180.153,59.475 C184.82,54.049 192.371,51.298 202.594,51.298 C210.229,51.298 215.869,53.212 219.358,56.987 C222.879,60.797 224.665,66.75 224.665,74.679 L224.665,142.629 L243.285,142.629 L243.285,74.117 C243.285,60.629 239.974,50.628 233.443,44.389 C226.93,38.171 217.182,35.019 204.468,35.019" id="Fill-24" fill="#67B54C"></path>
            <path d="M312.848,51.11 C320.559,51.11 326.302,53.489 330.405,58.382 C334.291,63.019 336.367,69.745 336.584,78.389 L286.173,78.389 C287.186,70.072 289.904,63.442 294.264,58.666 C298.904,53.582 304.983,51.11 312.848,51.11 Z M313.035,35.019 C298.884,35.019 287.442,40.12 279.025,50.182 C270.676,60.163 266.442,73.762 266.442,90.604 C266.442,107.359 271.012,120.667 280.025,130.159 C289.058,139.677 301.519,144.502 317.063,144.502 C324.069,144.502 330.148,143.972 335.13,142.924 C340.113,141.876 345.459,140.128 351.019,137.727 L351.946,137.326 L351.946,120.125 L349.807,121.041 C339.248,125.558 328.42,127.849 317.625,127.849 C307.627,127.849 299.797,124.863 294.35,118.974 C289.112,113.313 286.199,104.951 285.683,94.106 L356.349,94.106 L356.349,82.735 C356.349,68.551 352.437,56.941 344.722,48.229 C336.959,39.463 326.298,35.019 313.035,35.019 L313.035,35.019 Z" id="Fill-25" fill="#67B54C"></path>
            <polyline id="Fill-26" fill="#67B54C" points="364.987 19.824 408.357 19.824 408.357 142.629 427.353 142.629 427.353 19.824 470.723 19.824 470.723 2.607 364.987 2.607 364.987 19.824"></polyline>
            <path d="M534.291,35.019 C527.578,35.019 521.332,36.935 515.728,40.714 C511,43.903 506.818,48.28 503.265,53.754 L501.686,36.892 L485.919,36.892 L485.919,142.629 L504.54,142.629 L504.54,86.014 C504.54,76.389 507.391,68.251 513.012,61.827 C518.659,55.372 525.253,52.234 533.166,52.234 C536.286,52.234 539.958,52.695 544.076,53.604 L545.683,53.958 L548.296,36.469 L546.873,36.175 C543.164,35.408 538.931,35.019 534.291,35.019" id="Fill-27" fill="#67B54C"></path>
            <path d="M633.453,92.384 C633.453,105.25 631.069,114.592 626.369,120.149 C621.733,125.631 614.201,128.41 603.982,128.41 C596.349,128.41 590.708,126.496 587.219,122.722 C583.698,118.913 581.914,112.96 581.914,105.029 L581.914,36.892 L563.104,36.892 L563.104,105.591 C563.104,119.02 566.4,128.974 572.9,135.178 C579.378,141.365 589.175,144.502 602.017,144.502 C609.452,144.502 616.183,143.097 622.018,140.325 C627.063,137.929 631.217,134.579 634.395,130.347 L636.399,142.629 L652.074,142.629 L652.074,36.892 L633.453,36.892 L633.453,92.384" id="Fill-28" fill="#67B54C"></path>
            <path d="M719.176,81.296 C710.423,78.03 704.443,75.51 701.403,73.808 C698.493,72.179 696.374,70.467 695.104,68.719 C693.884,67.037 693.29,65.034 693.29,62.595 C693.29,59.075 694.89,56.377 698.181,54.348 C701.666,52.2 707.005,51.11 714.049,51.11 C722.175,51.11 731.401,53.214 741.473,57.364 L742.862,57.937 L749.611,42.494 L748.186,41.886 C737.489,37.329 726.383,35.019 715.174,35.019 C703.039,35.019 693.316,37.557 686.275,42.562 C679.071,47.684 675.419,54.771 675.419,63.625 C675.419,68.563 676.481,72.888 678.578,76.483 C680.657,80.047 683.845,83.259 688.053,86.031 C692.156,88.736 699.115,91.925 708.721,95.503 C718.575,99.299 725.257,102.604 728.578,105.327 C731.698,107.885 733.215,110.852 733.215,114.396 C733.215,119.166 731.316,122.609 727.411,124.925 C723.3,127.363 717.26,128.599 709.459,128.599 C704.362,128.599 698.99,127.89 693.491,126.49 C687.975,125.089 682.738,123.144 677.93,120.708 L675.7,119.579 L675.7,137.399 L676.479,137.84 C684.296,142.261 695.265,144.502 709.084,144.502 C722.222,144.502 732.611,141.787 739.963,136.434 C747.468,130.969 751.274,123.114 751.274,113.085 C751.274,105.903 748.973,99.843 744.435,95.071 C739.95,90.358 731.684,85.851 719.176,81.296" id="Fill-29" fill="#67B54C"></path>
            <path d="M821.811,126.786 C820.376,127.205 818.392,127.616 815.91,128.008 C813.448,128.399 810.852,128.599 808.19,128.599 C803.485,128.599 799.908,127.144 797.255,124.15 C794.59,121.146 793.239,116.699 793.239,110.931 L793.239,52.047 L823.027,52.047 L823.027,36.892 L793.239,36.892 L793.239,13.1 L781.567,13.1 L774.886,35.434 L759.912,42.015 L759.912,52.047 L774.618,52.047 L774.618,111.586 C774.618,133.429 785.157,144.502 805.941,144.502 C808.624,144.502 811.685,144.229 815.039,143.687 C818.502,143.125 821.076,142.423 822.907,141.54 L823.776,141.121 L823.776,126.213 L821.811,126.786" id="Fill-30" fill="#67B54C"></path>
        </g>
    </g>
</svg>