<?xml version="1.0" encoding="utf-8"?>
<!-- Generator: Adobe Illustrator 23.0.3, SVG Export Plug-In . SVG Version: 6.00 Build 0)  -->
<svg version="1.1" id="Camada_1" xmlns="http://www.w3.org/2000/svg" xmlns:xlink="http://www.w3.org/1999/xlink" x="0px" y="0px"
	 viewBox="0 0 45.9 16.3" style="enable-background:new 0 0 45.9 16.3;" xml:space="preserve">
<style type="text/css">
	.st0{fill:#FF7800;}
</style>
<path class="st0" d="M37.3,0.2c-3.2,0-6.1,1.9-7.3,4.8c-1-2.3-3.5-4.8-6.9-4.8h-0.4c-3.5,0-6.1,1.9-7.3,4.8
	c-1.3-2.9-4.2-4.8-7.3-4.8c-4.4,0-7.9,3.5-7.9,7.9v8h4V8.2C4.2,5.9,6.1,4,8.4,4s4.2,1.9,4.2,4.2v7.9h3.8v-3.2
	c3.2,4.4,10.7,4.4,13.6-1h-5.4c-0.4,0.4-1,0.4-1.5,0.4c-1.5,0-3.2-1-3.8-2.9H30c0.4,3.8,3.8,6.7,7.6,6.7c4.4,0,8.2-3.5,8.2-7.9
	S41.7,0.2,37.3,0.2z M19.2,6.1c0.6-1.5,2.3-2.4,3.8-2.3s2.5,1,3.2,2.3H19.2z M37.3,12.2c-2.3,0-4.2-1.9-4.2-4.2s1.9-4.2,4.2-4.2
	c2.5,0,4.4,1.9,4.4,4.2S39.8,12.2,37.3,12.2z"/>
</svg>
