<svg width="32" height="32" viewBox="0 0 32 32" fill="none" xmlns="http://www.w3.org/2000/svg">
<path d="M29.824 9.60436V24.4407C29.8142 24.6203 29.7622 24.795 29.6723 24.9507C29.5823 25.1064 29.4569 25.2386 29.3062 25.3367L28.8204 25.6276L25.12 27.7658L22.6211 29.2204L22.1033 29.5113V13.4647L8.21236 5.43564L14.8102 1.63345L15.4182 1.28727C15.5787 1.20599 15.7561 1.16364 15.936 1.16364C16.1159 1.16364 16.2933 1.20599 16.4538 1.28727L25.6 6.57018L29.8211 9.008V9.60436H29.824ZM19.0138 15.2451L16.1658 13.5985L9.50109 9.74982C9.34018 9.66986 9.16295 9.62825 8.98327 9.62825C8.80359 9.62825 8.62636 9.66986 8.46545 9.74982L2.55127 13.1651L2.03636 13.4647L12.0698 19.2567V30.8436L17.9753 27.4313L18.496 27.1404C18.6465 27.0421 18.7718 26.9098 18.8618 26.7541C18.9517 26.5985 19.0038 26.4239 19.0138 26.2444V15.2451ZM2.03636 25.0516L8.97745 29.0604V21.0371L2.03636 25.0516Z" fill="#5CE400"/>
</svg>
