<svg width="500" height="500" viewBox="0 0 500 500" fill="none" xmlns="http://www.w3.org/2000/svg">
<path fill-rule="evenodd" clip-rule="evenodd" d="M334.627 349C315.141 365.385 290.77 376.187 264 378.927V349H334.627ZM348.023 336H301.165C331.002 318.634 351 286.405 351 249.615C351 199.033 313.201 157.075 264 150.508V120.302C329.73 127.031 381 182.358 381 249.615C381 282.774 368.537 313.034 348.023 336ZM150 249.615C150 200.066 186.271 158.792 234 150.954V120.644C169.717 128.723 120 183.385 120 249.615C120 315.844 169.717 370.506 234 378.585V348.275C186.271 340.437 150 299.163 150 249.615Z" fill="#6051A5"/>
<path fill-rule="evenodd" clip-rule="evenodd" d="M387.633 379C396.339 369.817 404.142 359.77 410.9 349H374.075C364.83 360.391 354.06 370.495 342.076 379H387.633ZM351.201 409H264V438.034C295.908 435.555 325.617 425.236 351.201 409ZM440 247.615C440 279.506 432.184 309.571 418.363 336H383.591C400.286 310.629 410 280.256 410 247.615C410 163.755 345.885 94.8691 264 87.3041V57.1951C362.475 64.8451 440 147.176 440 247.615ZM234 87.3041C152.115 94.8691 88 163.755 88 247.615C88 331.475 152.115 400.36 234 407.925V438.034C135.525 430.384 58 348.053 58 247.615C58 147.176 135.525 64.8451 234 57.1951V87.3041Z" fill="#6051A5"/>
<path fill-rule="evenodd" clip-rule="evenodd" d="M234 469.042V499.111C103.384 490.861 0 382.311 0 249.615C0 116.918 103.384 8.368 234 0.117996V30.188C119.967 38.383 30 133.493 30 249.615C30 365.737 119.967 460.846 234 469.042ZM264 30.053V0C395.559 7.262 500 116.241 500 249.615C500 279.978 494.587 309.077 484.673 336H452.392C463.726 309.479 470 280.28 470 249.615C470 132.815 378.98 37.273 264 30.053ZM446.325 349C440.991 359.514 434.839 369.542 427.95 379H463.958C469.773 369.404 474.961 359.385 479.465 349H446.325ZM362.019 439C376.356 430.502 389.645 420.421 401.646 409H442.613C433.663 419.803 423.823 429.84 413.203 439H362.019ZM266.569 469C265.714 469.064 264.858 469.122 264 469.176V499.229C302.25 497.118 338.208 486.408 369.973 469H266.569Z" fill="#6051A5"/>
<g filter="url(#filter0_d_134_175)">
<path fill-rule="evenodd" clip-rule="evenodd" d="M493.835 305.017C491.437 315.622 488.366 325.971 484.668 336.017H452.389C456.65 326.041 460.196 315.686 462.962 305.017H493.835Z" fill="black" fill-opacity="0.35" shape-rendering="crispEdges"/>
</g>
<g filter="url(#filter1_d_134_175)">
<path fill-rule="evenodd" clip-rule="evenodd" d="M383.59 336.017H418.362C423.517 326.158 427.837 315.794 431.228 305.017H399.471C395.289 315.975 389.945 326.358 383.59 336.017Z" fill="black" fill-opacity="0.35" shape-rendering="crispEdges"/>
</g>
<g filter="url(#filter2_d_134_175)">
<path fill-rule="evenodd" clip-rule="evenodd" d="M334.187 305C325.888 317.393 314.881 327.844 302 335.509V336H348.023C356.282 326.754 363.237 316.325 368.598 305H334.187Z" fill="black" fill-opacity="0.35" shape-rendering="crispEdges"/>
</g>
<path d="M264 349H500V379H264V349Z" fill="#E5A540"/>
<path d="M264 409H500V439H264V409Z" fill="#E5A540"/>
<path d="M500 469H264V499H500V469Z" fill="#E5A540"/>
<defs>
<filter id="filter0_d_134_175" x="448.389" y="305.017" width="49.4463" height="39" filterUnits="userSpaceOnUse" color-interpolation-filters="sRGB">
<feFlood flood-opacity="0" result="BackgroundImageFix"/>
<feColorMatrix in="SourceAlpha" type="matrix" values="0 0 0 0 0 0 0 0 0 0 0 0 0 0 0 0 0 0 127 0" result="hardAlpha"/>
<feOffset dy="4"/>
<feGaussianBlur stdDeviation="2"/>
<feComposite in2="hardAlpha" operator="out"/>
<feColorMatrix type="matrix" values="0 0 0 0 0 0 0 0 0 0 0 0 0 0 0 0 0 0 0.25 0"/>
<feBlend mode="normal" in2="BackgroundImageFix" result="effect1_dropShadow_134_175"/>
<feBlend mode="normal" in="SourceGraphic" in2="effect1_dropShadow_134_175" result="shape"/>
</filter>
<filter id="filter1_d_134_175" x="379.59" y="305.017" width="55.6377" height="39" filterUnits="userSpaceOnUse" color-interpolation-filters="sRGB">
<feFlood flood-opacity="0" result="BackgroundImageFix"/>
<feColorMatrix in="SourceAlpha" type="matrix" values="0 0 0 0 0 0 0 0 0 0 0 0 0 0 0 0 0 0 127 0" result="hardAlpha"/>
<feOffset dy="4"/>
<feGaussianBlur stdDeviation="2"/>
<feComposite in2="hardAlpha" operator="out"/>
<feColorMatrix type="matrix" values="0 0 0 0 0 0 0 0 0 0 0 0 0 0 0 0 0 0 0.25 0"/>
<feBlend mode="normal" in2="BackgroundImageFix" result="effect1_dropShadow_134_175"/>
<feBlend mode="normal" in="SourceGraphic" in2="effect1_dropShadow_134_175" result="shape"/>
</filter>
<filter id="filter2_d_134_175" x="298" y="305" width="74.5977" height="39" filterUnits="userSpaceOnUse" color-interpolation-filters="sRGB">
<feFlood flood-opacity="0" result="BackgroundImageFix"/>
<feColorMatrix in="SourceAlpha" type="matrix" values="0 0 0 0 0 0 0 0 0 0 0 0 0 0 0 0 0 0 127 0" result="hardAlpha"/>
<feOffset dy="4"/>
<feGaussianBlur stdDeviation="2"/>
<feComposite in2="hardAlpha" operator="out"/>
<feColorMatrix type="matrix" values="0 0 0 0 0 0 0 0 0 0 0 0 0 0 0 0 0 0 0.25 0"/>
<feBlend mode="normal" in2="BackgroundImageFix" result="effect1_dropShadow_134_175"/>
<feBlend mode="normal" in="SourceGraphic" in2="effect1_dropShadow_134_175" result="shape"/>
</filter>
</defs>
</svg>
