<svg viewBox="125.475 86.473 32 32" width="32" height="32">
  <clipPath id="clip-path">
    <path id="Path_3974" data-name="Path 3974" d="M27.629,21.561,39.51,1.842V40.895ZM72.705,0,63.2,33.663h-.12L52.871,0H30.56L22.834,13.735,14.654,0H3.184l13.34,21.583L1.885,45.759H12.748l9.338-15.914,9.67,15.914H48.977V14.2h.12q.36,1.982.676,3.394t.616,2.611q.3,1.2.646,2.283t.7,2.373l6.757,20.9h9.1l6.674-20.887q.736-2.521,1.367-4.861a51.508,51.508,0,0,0,1.1-5.284h.118V45.759h9.467V0Z" transform="translate(-1.885)" fill="url(#linear-gradient)"></path>
  </clipPath>
  <linearGradient id="linear-gradient" x1="0.448" y1="0.054" x2="0.581" y2="0.938" gradientUnits="objectBoundingBox">
    <stop offset="0" stop-color="#21dbaa"></stop>
    <stop offset="0.35" stop-color="#0bb8ee"></stop>
    <stop offset="0.695" stop-color="#057aef"></stop>
    <stop offset="1" stop-color="#5324e4"></stop>
  </linearGradient>
  <g id="Group_1617" data-name="Group 1617" transform="matrix(0.250208, 0, 0, 0.254074, 130.911621, 96.659422)">
    <g id="Group_1490" data-name="Group 1490" clip-path="url(#clip-path)">
      <rect id="Rectangle_615" data-name="Rectangle 615" width="86.559" height="95.235" transform="translate(-21.728 30.046) rotate(-54.126)" fill="url(#linear-gradient)"></rect>
    </g>
  </g>
</svg>
