<svg xmlns="http://www.w3.org/2000/svg" fill="none" viewBox="0 0 33 33"><path fill="#fff" d="M10 8h13v17H10z"/><path fill="#197593" d="M2.303.762C1.42.954.676 1.615.403 2.453c-.133.416-.125-.472-.12 14.329.003 7.585.016 13.833.03 13.883.168.705.568 1.292 1.128 1.649.259.166.515.27.902.373.045.011 6.28.025 13.86.027 14.827.006 13.917.014 14.35-.125.35-.112.752-.368 1.024-.654.283-.293.518-.704.638-1.12l.061-.214.005-13.832c.006-8.532-.002-13.868-.018-13.927-.014-.05-.043-.17-.067-.266-.09-.35-.32-.76-.59-1.043-.381-.406-.699-.595-1.29-.766-.134-.04-1.383-.043-13.967-.048C3.018.714 2.522.714 2.303.762Zm15.135 7.987.266.03c.107.007.211.02.232.026.022.005.094.019.16.027.483.07 1.356.299 1.721.453.046.019.176.075.294.123.322.136.824.398 1.123.587.31.197.838.584.838.614 0 .01-.094.157-.209.322a30.04 30.04 0 0 0-.338.502c-.075.11-.139.205-.147.213-.008.008-.12.168-.248.36a80.735 80.735 0 0 1-1.051 1.537c-.011.01-.102-.037-.198-.106-.613-.451-1.347-.833-2-1.038a3.571 3.571 0 0 0-.411-.115 2.378 2.378 0 0 1-.134-.032 4.322 4.322 0 0 0-.907-.09c-.568.002-.968.149-1.227.45-.147.174-.197.339-.19.622.011.373.123.57.478.837.213.158.82.462 1.313.657l.44.173c.133.053.403.144.432.147a.07.07 0 0 1 .037.018c.011.014.038.022.056.022.048 0 .769.267 1.102.405.419.176.875.406 1.187.593l.347.21c.03.019.059.038.067.046.008.008.104.08.213.163.787.586 1.316 1.4 1.505 2.318.067.325.083.523.08 1.014 0 .466-.013.632-.077.987-.08.453-.315 1.085-.526 1.427-.144.23-.272.421-.33.493-.516.614-.956.966-1.639 1.308-.32.163-.928.387-1.187.437l-.227.054a8.554 8.554 0 0 1-.28.056 4.207 4.207 0 0 0-.163.024l-.21.029c-.088.01-.195.024-.24.032-.134.024-1.35.027-1.564.005-.11-.013-.28-.029-.379-.037-.098-.01-.2-.021-.226-.027-.024-.002-.142-.021-.26-.04a8.885 8.885 0 0 1-.626-.12 8.229 8.229 0 0 1-1.622-.523 1.841 1.841 0 0 0-.184-.077c-.035 0-.678-.339-.942-.493a10.46 10.46 0 0 1-1.102-.78l-.203-.165.251-.341c.139-.187.262-.355.275-.369.03-.04.357-.482.419-.573.379-.536 1.179-1.6 1.203-1.6.019 0 .043.012.05.026.035.056.638.49.942.677.913.566 1.702.865 2.62.99.38.05 1.03.032 1.284-.037.426-.117.733-.342.875-.64.06-.131.069-.182.069-.43-.003-.336-.05-.464-.261-.67-.35-.344-.889-.597-2.407-1.133-2.593-.913-3.826-1.825-4.346-3.218a4.828 4.828 0 0 1-.192-.71 5.181 5.181 0 0 1-.048-.845c0-.504.037-.915.101-1.129.008-.026.02-.074.027-.112.005-.037.043-.168.083-.29.419-1.31 1.363-2.295 2.732-2.847a6.542 6.542 0 0 1 1.862-.427c.128-.008.237-.021.243-.024.013-.01 1.29.01 1.374.024Z"/></svg>
