<svg width="232" height="204" viewBox="0 0 232 204" fill="none" xmlns="http://www.w3.org/2000/svg">
<mask id="mask0_4159_184" style="mask-type:alpha" maskUnits="userSpaceOnUse" x="0" y="0" width="232" height="204">
<rect width="232" height="204" fill="#D9D9D9"/>
</mask>
<g mask="url(#mask0_4159_184)">
<path fill-rule="evenodd" clip-rule="evenodd" d="M223.495 105.75C224.835 103.429 224.835 100.571 223.495 98.25L173.495 11.6475C172.155 9.32695 169.679 7.89746 167 7.89746H67C64.3205 7.89746 61.8446 9.32695 60.5048 11.6475L10.5048 98.25C9.16507 100.571 9.16507 103.429 10.5048 105.75L60.5048 192.353C61.8446 194.673 64.3205 196.103 67 196.103H167C169.679 196.103 172.155 194.673 173.495 192.353L223.495 105.75Z" fill="#194B7D" stroke="#194B7D" stroke-width="15" stroke-linejoin="round"/>
<path fill-rule="evenodd" clip-rule="evenodd" d="M185.568 65.1068C187.571 64.6282 189.262 66.6425 188.442 68.5327L174.69 100.26C173.951 101.965 171.675 102.296 170.481 100.872L165.372 94.7837L133.508 122.646C130.401 125.363 125.682 125.058 122.949 121.964L101.832 98.0469L77.5438 119.191C77.8419 120.412 78 121.687 78 123C78 131.837 70.8366 139 62 139C53.1634 139 46 131.837 46 123C46 114.163 53.1634 107 62 107C63.9557 107 65.8294 107.351 67.5617 107.993L97.6001 81.8432C100.709 79.1369 105.419 79.4463 108.147 82.536L129.253 106.441L155.728 83.2906L150.6 77.1796C149.406 75.756 150.127 73.5729 151.934 73.1411L185.568 65.1068Z" fill="white"/>
</g>
</svg>
