<svg width="122" height="122" viewBox="0 0 122 122" fill="none" xmlns="http://www.w3.org/2000/svg">
<g clip-path="url(#clip0)">
<path d="M36.304 29.9473C36.1273 29.8132 35.9427 29.69 35.751 29.5783C35.475 29.3943 35.014 29.2093 34.551 28.9333C34.09 28.7493 33.537 28.5643 32.985 28.3803C32.4776 28.2286 31.9477 28.1664 31.419 28.1963C29.853 28.1963 29.119 28.7493 29.119 29.7623C29.1116 30.0346 29.2106 30.299 29.395 30.4993C29.605 30.727 29.8547 30.9144 30.132 31.0523C30.5194 31.2371 30.9206 31.3912 31.332 31.5133C31.793 31.6973 32.346 31.7893 32.991 31.9743C33.912 32.2503 34.65 32.5273 35.391 32.8033C36.0656 33.0607 36.6896 33.4351 37.234 33.9093C37.7321 34.3268 38.1132 34.8664 38.34 35.4753C38.6114 36.1798 38.7369 36.932 38.709 37.6863C38.7318 38.6076 38.5426 39.5218 38.156 40.3583C37.7876 41.063 37.2494 41.6648 36.59 42.1093C35.9234 42.5636 35.171 42.877 34.379 43.0303C33.532 43.2181 32.6666 43.3106 31.799 43.3063C31.0897 43.2868 30.3821 43.2254 29.68 43.1223C28.9648 43.0128 28.2571 42.8588 27.561 42.6613C26.9013 42.4561 26.255 42.21 25.626 41.9243C24.981 41.6483 24.426 41.2793 23.875 41.0033L25.718 37.3173C25.9046 37.5073 26.1229 37.6633 26.363 37.7783C26.8023 38.0621 27.2646 38.3086 27.745 38.5153C28.365 38.799 29.0138 39.0153 29.68 39.1603C30.3716 39.3425 31.0838 39.4353 31.799 39.4363C33.273 39.4363 34.099 38.9753 34.099 38.0543C34.1164 37.8959 34.0915 37.7356 34.0266 37.5899C33.9618 37.4443 33.8594 37.3185 33.73 37.2253C33.4552 36.9677 33.145 36.7506 32.809 36.5803C32.3617 36.3642 31.8999 36.1794 31.427 36.0273C30.874 35.8433 30.321 35.6583 29.676 35.4743C28.8467 35.1977 28.1097 34.9213 27.465 34.6453C26.8974 34.3837 26.37 34.0422 25.899 33.6313C25.4897 33.2477 25.1746 32.7747 24.978 32.2493C24.7826 31.655 24.6893 31.0319 24.702 30.4063C24.6786 29.5146 24.8682 28.6301 25.255 27.8263C25.6093 27.0876 26.1109 26.4291 26.729 25.8913C27.3799 25.3498 28.1312 24.942 28.94 24.6913C29.7738 24.4273 30.6456 24.3026 31.52 24.3223C32.1685 24.3379 32.8152 24.3994 33.455 24.5063C34.0794 24.6164 34.6953 24.7705 35.298 24.9673C35.8414 25.1261 36.3664 25.3423 36.864 25.6123C37.325 25.8883 37.785 26.0733 38.246 26.3493L36.304 29.9473Z" fill="#FF6568"/>
<path d="M93.617 84.219C93.4403 84.0849 93.2556 83.9617 93.064 83.85C92.788 83.666 92.327 83.481 91.864 83.205C91.403 83.021 90.85 82.836 90.298 82.652C89.7635 82.4709 89.2033 82.3777 88.639 82.376C87.073 82.376 86.339 82.929 86.339 83.942C86.3315 84.2143 86.4305 84.4787 86.615 84.679C86.8249 84.9067 87.0747 85.0941 87.352 85.232C87.7393 85.4168 88.1406 85.5709 88.552 85.693C89.013 85.877 89.566 85.969 90.211 86.154C91.132 86.43 91.87 86.707 92.611 86.983C93.2856 87.2403 93.9095 87.6147 94.454 88.089C94.952 88.5064 95.3331 89.0461 95.56 89.655C95.8314 90.3594 95.9569 91.1116 95.929 91.866C95.9518 92.7873 95.7626 93.7015 95.376 94.538C95.0075 95.2427 94.4693 95.8445 93.81 96.289C93.1433 96.7433 92.391 97.0567 91.599 97.21C90.7519 97.3978 89.8866 97.4903 89.019 97.486C88.3096 97.4665 87.6021 97.4051 86.9 97.302C86.1848 97.1925 85.4771 97.0385 84.781 96.841C84.116 96.6514 83.4686 96.4048 82.846 96.104C82.201 95.828 81.646 95.459 81.095 95.183L82.938 91.497C83.1246 91.687 83.3428 91.843 83.583 91.958C83.952 92.142 84.412 92.419 84.965 92.695C85.585 92.9787 86.2337 93.195 86.9 93.34C87.5916 93.5222 88.3037 93.615 89.019 93.616C90.493 93.616 91.319 93.155 91.319 92.234C91.3364 92.0756 91.3114 91.9153 91.2466 91.7696C91.1818 91.624 91.0794 91.4981 90.95 91.405C90.6751 91.1474 90.365 90.9302 90.029 90.76C89.5817 90.5439 89.1199 90.3591 88.647 90.207C88.094 90.023 87.541 89.838 86.896 89.654C86.0666 89.3774 85.3296 89.101 84.685 88.825C84.1173 88.5634 83.59 88.2219 83.119 87.811C82.6807 87.4528 82.3599 86.9714 82.198 86.429C82.0026 85.8347 81.9093 85.2115 81.922 84.586C81.8986 83.6943 82.0881 82.8098 82.475 82.006C82.8293 81.2673 83.3309 80.6088 83.949 80.071C84.5998 79.5295 85.3512 79.1217 86.16 78.871C86.9938 78.6069 87.8655 78.4823 88.74 78.502C89.3885 78.5176 90.0351 78.5791 90.675 78.686C91.2994 78.7961 91.9153 78.9502 92.518 79.147C93.0614 79.3058 93.5864 79.522 94.084 79.792C94.545 80.068 95.005 80.253 95.466 80.529L93.617 84.219Z" fill="#284358"/>
<path d="M52.0611 87.9043C52.0519 86.7666 52.2712 85.6386 52.7061 84.5873C53.1197 83.4923 53.7461 82.49 54.5491 81.6383C55.3956 80.7591 56.3948 80.0411 57.4981 79.5193C58.7119 78.9631 60.0329 78.6801 61.3681 78.6903C62.9447 78.6507 64.5033 79.0325 65.8831 79.7963C67.0972 80.4863 68.0883 81.5097 68.7391 82.7453L65.4221 85.0453C65.2563 84.5792 64.9703 84.1652 64.5931 83.8453C64.2949 83.549 63.9529 83.3004 63.5791 83.1083C63.2025 82.8996 62.7986 82.7444 62.3791 82.6473C61.9839 82.5708 61.5813 82.5399 61.1791 82.5553C60.4468 82.5453 59.722 82.703 59.0601 83.0163C58.4705 83.319 57.9643 83.762 57.5861 84.3063C57.1898 84.8385 56.879 85.4292 56.6651 86.0573C56.4769 86.7163 56.3839 87.3989 56.3891 88.0843C56.3689 88.8082 56.4944 89.5288 56.7581 90.2033C56.967 90.8803 57.312 91.5075 57.7721 92.0463C58.1848 92.5716 58.7235 92.9844 59.3381 93.2463C59.9742 93.5397 60.6646 93.6967 61.3651 93.7073C62.2021 93.6674 63.0208 93.4474 63.7651 93.0623C64.1389 92.8702 64.4809 92.6216 64.7791 92.3253C65.0976 91.9749 65.3476 91.5679 65.5161 91.1253L69.0161 93.1523C68.7039 93.8196 68.3 94.4399 67.8161 94.9953C67.25 95.5575 66.5965 96.0243 65.8811 96.3773C65.152 96.7485 64.3793 97.0271 63.5811 97.2063C62.827 97.3832 62.0556 97.4758 61.2811 97.4823C60.004 97.5029 58.7404 97.2187 57.5951 96.6533C56.4958 96.1292 55.5219 95.3752 54.7391 94.4423C53.9219 93.5663 53.2945 92.531 52.8961 91.4013C52.3599 90.3127 52.0745 89.1177 52.0611 87.9043V87.9043Z" fill="#284358"/>
<path d="M68.001 28.3796H62.38V43.1226H58.142V28.3796H52.521V24.6016H68.093V28.3796H68.001Z" fill="#FF6568"/>
<path d="M96.197 55.4704H90.576V70.2134H86.337V55.4704H80.717V51.6924H96.289V55.4704H96.197Z" fill="#284358"/>
<path d="M84.9561 24.6016L88.9181 33.0786L92.9721 24.6016H97.6721L91.0381 36.7646V43.1226H86.7991V36.7646L80.3491 24.6016H84.9561Z" fill="#FF6568"/>
<path d="M26.353 70.2134V51.6924H30.592V66.4354H39.53V70.2134H26.353Z" fill="#FF6568"/>
<path d="M58.511 70.2134V51.6924H62.75V70.2134H58.511Z" fill="#284358"/>
<path d="M29.762 97.3032V78.7822H34.001V97.3032H29.762Z" fill="#284358"/>
<path d="M121.26 121.352H0V0H121.26V121.352ZM1.935 119.325H119.325V2.027H1.935V119.325Z" fill="#CCCCCC"/>
</g>
<defs>
<clipPath id="clip0">
<rect width="121.26" height="121.352" fill="white"/>
</clipPath>
</defs>
</svg>
