<svg version="1.1" id="Layer_1" xmlns="http://www.w3.org/2000/svg" xmlns:xlink="http://www.w3.org/1999/xlink" width="32px" heigt="32px"
	 viewBox="0 0 40 30" xml:space="preserve">
<style type="text/css">
	.st0{fill:#ED383F;}
</style>
<path class="st0" d="M18.4,29.7c-3.5,0-6.4-2.4-6.4-5.3l0-11.4H6.7c-3.5,0-6.4-2.9-6.4-6.4c0-1.7,0.7-3.3,1.9-4.5
	C3.4,1,5.1,0.3,6.8,0.3H30c3.6,0,6.4,2.9,6.4,6.4S33.5,13,30,13h-5.3l0,11.4C24.8,27.3,21.9,29.7,18.4,29.7z M13.1,13l0,11.4
	c0,2.3,2.3,4.1,5.2,4.1c2.9,0,5.2-1.9,5.2-4.1l0-12V8.9V6.1h1.2h5.7v1.1h-5.7v1.6H30c1.2,0,2.2-1,2.2-2.2c0-1.2-1-2.2-2.2-2.2H18.4
	c-1.2,0-2.2,0.7-2.2,1.5l0,2.9h1.6V6.1h1.2v17.6h-1.2V13h-1.6L16,23.6c0,0.4,0.2,0.7,0.4,0.9c0.4,0.4,1.1,0.7,1.8,0.7
	c0.7,0,1.4-0.2,1.8-0.6c0.2-0.2,0.4-0.5,0.4-0.9l0.2-11.3l0-2.9l0-3.4h1.2l-0.2,17.7c0,0.6-0.3,1.2-0.8,1.7c-0.7,0.6-1.6,1-2.6,1
	c0,0,0,0-0.1,0c-1,0-2-0.4-2.6-1c-0.5-0.5-0.7-1.1-0.7-1.7L15,13L13.1,13L13.1,13z M24.7,11.8h5.2c2.9,0,5.2-2.3,5.2-5.1
	c0-2.9-2.3-5.2-5.2-5.2H18.3c0,0-0.1,0-0.1,0c-1.4,0-2.7,0.5-3.7,1.3c-0.4,0.4-0.8,0.8-1,1.3c-0.2,0.5-0.4,1-0.4,1.6v1v2.2h1.9
	l0-2.9c0-1.5,1.5-2.7,3.4-2.7h11.6c1.9,0,3.4,1.5,3.4,3.4c0,1.9-1.5,3.4-3.4,3.4h-5.4L24.7,11.8z M6.7,1.5C5.3,1.5,4,2,3,3
	C2,4,1.5,5.3,1.5,6.7c0,2.9,2.3,5.1,5.2,5.1h11v-1.8H6.6c-1.9,0-3.4-1.5-3.4-3.4c0-0.9,0.3-1.8,1-2.4c0.7-0.6,1.5-1,2.4-1h5.9
	c0.4-0.7,1-1.3,1.7-1.8L6.7,1.5L6.7,1.5z M4.4,6.6c0,1.2,1,2.2,2.2,2.2h5.2V6.6v-1c0-0.4,0-0.8,0.2-1.2H6.7C6,4.4,5.5,4.6,5.1,5.1
	C4.7,5.5,4.4,6.1,4.4,6.6z M11.1,7.2h-5V6.1h5V7.2z"/>
<path class="st0" d="M18.4,30c-3.7,0-6.7-2.5-6.7-5.6l0-11.2H6.7C3,13.2,0,10.3,0,6.6c0-1.8,0.7-3.5,2-4.7C3.3,0.7,4.9,0,6.7,0h23.2
	c3.7,0,6.7,3,6.7,6.6c0,3.7-3,6.6-6.7,6.6H25l0,11.1C25,27.4,22,30,18.4,30z M6.7,0.6c-1.6,0-3.2,0.6-4.3,1.8
	C1.3,3.5,0.6,5.1,0.6,6.7c0,3.4,2.8,6.1,6.1,6.1h5.5l0,11.7c0,2.7,2.8,5,6.1,5c3.3,0,6-2.3,6-5.1l0-11.7h5.5c3.4,0,6.1-2.7,6.1-6.1
	c0-3.4-2.8-6.1-6.1-6.1L6.7,0.6z M18.4,28.8c-3,0-5.5-2-5.5-4.4l0-11.7h2.4l-0.2,10.9c0,0.5,0.2,1.1,0.7,1.5c0.6,0.6,1.5,1,2.4,1
	c0,0,0,0,0.1,0c1,0,1.8-0.3,2.4-0.9c0.4-0.4,0.7-1,0.7-1.5l0.2-17.4H21l0,3.1l0,2.9l-0.2,11.3c0,0.5-0.3,0.8-0.5,1.1
	c-0.5,0.5-1.3,0.7-2.1,0.7c-0.8,0-1.5-0.3-2-0.8c-0.2-0.2-0.5-0.6-0.5-1.1l0.2-11h2.2v10.6h0.6V6.4h-0.6v2.8h-2.1l0-3.2
	c0-1,1.1-1.8,2.5-1.8H30c1.4,0,2.5,1.1,2.5,2.5c0,1.4-1.1,2.5-2.5,2.5h-5.7V7h5.7V6.4h-5.7h-0.6v2.8v3.2l0.1,12
	C23.8,26.8,21.4,28.8,18.4,28.8z M13.4,13.3l0,11.1c0,2.1,2.2,3.8,4.9,3.8s4.9-1.8,4.9-3.9l0-12l0-3.8V5.8H25h5.7v1.8H25v1H30
	c1.1,0,1.9-0.9,1.9-1.9c0-1.1-0.9-1.9-1.9-1.9H18.4c-1,0-1.9,0.6-1.9,1.2l0,2.6h1V5.8h1.8v18.1h-1.8V13.3h-1l-0.2,10.4
	c0,0.3,0.2,0.5,0.3,0.7c0.3,0.4,1,0.6,1.6,0.6c0.7,0,1.3-0.2,1.6-0.6c0.2-0.2,0.3-0.4,0.3-0.6l0.2-11.3l0-2.9l0-3.7l1.8,0l-0.2,18
	c0,0.7-0.3,1.4-0.8,1.9c-0.7,0.7-1.8,1.1-2.9,1.1c-1.1,0-2.1-0.4-2.9-1.1c-0.5-0.5-0.8-1.2-0.8-1.9l0.2-10.4L13.4,13.3L13.4,13.3z
	 M29.9,12.1h-5.5V9.7H30c1.7,0,3.1-1.4,3.1-3.1c0-1.7-1.4-3.1-3.1-3.1H18.4c-1.7,0-3.1,1.1-3.1,2.4v3.2h-2.5V6.6v-1
	c0-0.6,0.1-1.1,0.4-1.7c0.3-0.5,0.6-1,1.1-1.4c1-0.9,2.4-1.4,3.9-1.4c0,0,0.1,0,0.1,0h11.7c3.1,0,5.5,2.4,5.5,5.4
	C35.5,9.6,33,12.1,29.9,12.1z M25,11.5h4.9c2.7,0,4.9-2.2,4.9-4.9c0-2.7-2.2-4.9-4.9-4.9H18.3c0,0-0.1,0-0.1,0
	c-1.3,0-2.6,0.5-3.5,1.3c-0.4,0.3-0.7,0.8-1,1.2c-0.2,0.5-0.3,0.9-0.3,1.4v1v1.9h1.3l0-2.6c0-1.7,1.6-3,3.7-3H30
	c2,0,3.7,1.6,3.7,3.7c0,2-1.6,3.7-3.7,3.7h-5V11.5z M18.1,12.1H6.7c-3.1,0-5.5-2.4-5.5-5.4c0-1.4,0.6-2.8,1.6-3.8
	c1-1,2.4-1.6,3.9-1.6h8.5l-0.7,0.5c-0.7,0.5-1.2,1-1.6,1.7l-0.1,0.2H6.7c-0.8,0-1.6,0.3-2.2,0.9C3.9,5,3.5,5.8,3.5,6.7
	c0,1.7,1.4,3.1,3.1,3.1H18L18.1,12.1L18.1,12.1z M6.7,1.8c-1.3,0-2.6,0.5-3.5,1.4C2.3,4.1,1.8,5.4,1.8,6.7c0,2.7,2.2,4.9,4.9,4.9
	h10.7v-1.2H6.7c-2,0-3.7-1.6-3.7-3.7c0-1,0.4-1.9,1.1-2.6C4.7,3.4,5.7,3,6.7,3h5.7c0.3-0.4,0.6-0.8,1-1.2H6.7z M12.2,9.1H6.7
	C5.3,9.1,4.1,8,4.1,6.6c0-0.7,0.3-1.3,0.7-1.8C5.3,4.4,6,4.1,6.7,4.1h5.8l-0.1,0.4c-0.1,0.4-0.2,0.8-0.2,1.1v1V9.1z M4.7,6.6
	c0,1.1,0.9,1.9,1.9,1.9h5V6.6v-1c0-0.3,0-0.6,0.1-0.9H6.7c-0.5,0-1,0.2-1.4,0.6C4.9,5.6,4.7,6.1,4.7,6.6z M11.4,7.5H5.8V5.7h5.6V7.5
	z M6.4,6.9h4.4V6.3H6.4V6.9z"/>
</svg>
