
<svg width="30" height="30" viewBox="0 0 30 30" fill="none" xmlns="http://www.w3.org/2000/svg">
<g clip-path="url(#clip0_793_17982)">
<g clip-path="url(#clip1_793_17982)">
<path d="M2.38389 3.34953C4.18688 3.23617 6.21597 3.71927 7.90369 4.75737C9.5914 5.79547 10.9377 7.38856 11.6497 9.0489C12.3975 10.6934 12.6683 12.7616 12.2989 14.7083C11.9296 16.655 10.9201 18.4802 9.62192 19.7366C9.07756 20.3024 8.15106 20.5851 7.38355 20.4196C6.60878 20.2925 5.85022 19.69 5.55092 18.9642L0.212969 6.87894C-0.121986 6.16884 -0.0564 5.20238 0.371422 4.54404C0.766045 3.86528 1.59904 3.37085 2.38389 3.34953Z" fill="#252525"/>
<path d="M29.9516 4.66056C30.015 4.52267 30.0162 4.34552 29.9547 4.20678C29.8974 4.06626 29.769 3.94424 29.6257 3.89426C27.6589 3.12306 25.0018 3.11497 22.7546 4.07067C20.5073 5.02638 18.67 6.9459 17.8611 8.8975L10.2155 26.2125C10.1521 26.3503 10.1509 26.5275 10.2124 26.6662C10.2697 26.8067 10.3981 26.9288 10.5414 26.9787C12.5082 27.7499 15.1653 27.758 17.4126 26.8023C19.6598 25.8466 21.4972 23.9271 22.306 21.9755L29.9516 4.66056Z" fill="#252525"/>
</g>
</g>
<defs>
<clipPath id="clip0_793_17982">
<rect width="30" height="30" fill="white"/>
</clipPath>
<clipPath id="clip1_793_17982">
<rect width="30" height="30" fill="white"/>
</clipPath>
</defs>
</svg>
