<?xml version="1.0" encoding="UTF-8"?>
<svg xmlns="http://www.w3.org/2000/svg" xmlns:xlink="http://www.w3.org/1999/xlink" width="32px" height="32px" viewBox="0 0 32 32" version="1.1">
<g id="surface1">
<path style=" stroke:none;fill-rule:nonzero;fill:rgb(28.235294%,52.156863%,92.941176%);fill-opacity:1;" d="M 14.558594 10.683594 C 8.71875 10.683594 3.988281 14.929688 3.988281 20.160156 C 3.988281 22.089844 4.632812 23.882812 5.734375 25.378906 C 5.589844 27.109375 5.171875 29.546875 3.988281 30.734375 C 3.988281 30.734375 7.609375 30.222656 10.066406 28.742188 C 11.429688 29.316406 12.953125 29.640625 14.558594 29.640625 C 20.394531 29.640625 25.128906 25.394531 25.128906 20.160156 C 25.128906 14.929688 20.394531 10.683594 14.558594 10.683594 Z M 14.558594 10.683594 "/>
<path style=" stroke:none;fill-rule:nonzero;fill:rgb(100%,100%,100%);fill-opacity:1;" d="M 14.554688 26.929688 L 14.804688 26.929688 L 20.105469 14.726562 L 17.6875 14.726562 L 15.660156 19.386719 C 15.195312 20.4375 14.734375 22.125 14.734375 22.125 C 14.734375 22.125 14.253906 20.417969 13.792969 19.386719 L 11.710938 14.726562 L 9.042969 14.726562 Z M 14.554688 26.929688 "/>
<path style=" stroke:none;fill-rule:nonzero;fill:rgb(98.039216%,80%,16.862745%);fill-opacity:1;" d="M 28.511719 16.53125 C 28.511719 11.296875 23.777344 7.054688 17.941406 7.054688 C 13.726562 7.054688 10.085938 9.265625 8.390625 12.46875 C 10.125 11.347656 12.253906 10.683594 14.558594 10.683594 C 20.394531 10.683594 25.128906 14.929688 25.128906 20.160156 C 25.128906 22.164062 24.433594 24.019531 23.253906 25.550781 C 25.621094 26.695312 28.511719 27.101562 28.511719 27.101562 C 27.324219 25.914062 26.90625 23.480469 26.761719 21.75 C 27.867188 20.253906 28.511719 18.460938 28.511719 16.53125 Z M 28.511719 16.53125 "/>
</g>
</svg>
