<svg width="120" height="100" fill="none" xmlns="http://www.w3.org/2000/svg">
  <path d="M8.39.5h103.23c4.36 0 7.89 3.53 7.89 7.89v83.22c0 4.36-3.53 7.89-7.8 9 7.89H8.39C4.03 99.5.5 95.97.5 91.61V8.39C.5 4.03 4.03.5 8.39.5z" style="fill:#fff;stroke:#222;stroke-width:1"/>
  <ellipse cx="20.21" cy="9.47" rx="3.22" ry="3.23" style="fill:#2979ff"/>
  <ellipse cx="9.46" cy="9.47" rx="3.22" ry="3.23" style="fill:#3740ff"/>
  <ellipse cx="30.97" cy="9.47" rx="3.22" ry="3.23" style="fill:#3fc4ff"/>
  <path d="M.78 70.41h118.44M.78 85.39h118.44M14.59 99.2V71.26m15.3 27.94V71.26M44.86 99.2V71.26M59.2 99.2V71.26M74.49 99.2V71.26M89.15 99.2V71.26m15.29 27.94V71.26" style="fill:none;stroke:#222;stroke-width:1;stroke-linecap:square"/>
  <ellipse cx="89.15" cy="85.71" rx="3.34" ry="3.35" style="fill:#3fc4ff;stroke:#222;stroke-width:1"/>
  <ellipse cx="59.2" cy="85.71" rx="3.34" ry="3.35" style="fill:#2979ff;stroke:#222;stroke-width:1"/>
  <path d="M21.13 43.7h12.01l5.85-10.76 5.52 24.87 7.08-12.43 6.63 12.43 6.18-24.16 8.76 24.16 9.31-23.98 5.49 9.87h11.53" style="fill:none;stroke:#3fc4ff;stroke-width:5;stroke-linecap:round;stroke-linejoin:round"/>
  <ellipse cx="29.89" cy="85.71" rx="3.34" ry="3.35" style="fill:#3fc4ff;stroke:#222;stroke-width:1"/>
</svg>
