<svg width="32" height="32" viewBox="0 0 32 32" fill="none" xmlns="http://www.w3.org/2000/svg">
<path fill-rule="evenodd" clip-rule="evenodd" d="M26.7031 27.8932C25.0458 28.3613 23.2972 28.6118 21.4901 28.6118C17.8893 28.6118 14.5207 27.6173 11.644 25.8879C19.9275 22.0923 26.0947 14.475 27.8892 5.2926C30.4445 8.12812 31.9999 11.8824 31.9999 16C31.9999 20.7211 29.9552 24.9646 26.7031 27.8932Z" fill="#FFC814"/>
<path fill-rule="evenodd" clip-rule="evenodd" d="M27.8931 5.29691C28.3612 6.95416 28.6117 8.70271 28.6117 10.5098C28.6117 14.1107 27.6172 17.4793 25.8878 20.3559C22.0922 12.0725 14.4749 5.90522 5.29248 4.11071C8.12803 1.5554 11.8823 1.79984e-07 15.9999 0C20.721 -2.06369e-07 24.9645 2.04472 27.8931 5.29691Z" fill="#479FD6"/>
<path fill-rule="evenodd" clip-rule="evenodd" d="M5.29688 4.10677C6.95413 3.63866 8.70271 3.38818 10.5098 3.38818C14.1107 3.38818 17.4793 4.38269 20.3559 6.11204C12.0725 9.90768 5.90519 17.525 4.11071 26.7074C1.5554 23.8719 1.79987e-07 20.1175 0 15.9999C-2.06362e-07 11.2789 2.04472 7.0354 5.29688 4.10677Z" fill="#ED1C24"/>
<path fill-rule="evenodd" clip-rule="evenodd" d="M4.10677 26.7032C3.63866 25.0459 3.38818 23.2973 3.38818 21.4903C3.38818 17.8894 4.38269 14.5208 6.11204 11.6442C9.90768 19.9276 17.525 26.0949 26.7074 27.8893C23.8719 30.4447 20.1175 32.0001 15.9999 32.0001C11.2789 32.0001 7.0354 29.9553 4.10677 26.7032Z" fill="#8CC63F"/>
<path fill-rule="evenodd" clip-rule="evenodd" d="M20.0628 20.0128C17.6466 22.4424 14.7988 24.4423 11.644 25.8878C14.5207 27.6172 17.8893 28.6117 21.4901 28.6117C23.2972 28.6117 25.0458 28.3612 26.7031 27.8931C27.2335 27.4154 27.7318 26.9028 28.1944 26.3588L20.0628 20.0128Z" fill="#FFC814"/>
<path fill-rule="evenodd" clip-rule="evenodd" d="M14.9572 3.90759C16.8864 4.36673 18.7024 5.11798 20.3559 6.11198C15.5955 8.29329 11.534 11.7367 8.59972 16.0141C7.649 14.6395 6.81499 13.1781 6.11206 11.644C8.16762 8.22474 11.2614 5.50057 14.9572 3.90759Z" fill="url(#paint0_linear_3576_13)"/>
<path fill-rule="evenodd" clip-rule="evenodd" d="M28.0923 14.9572C27.6332 16.8864 26.8819 18.7024 25.8879 20.3559C23.7066 15.5955 20.2632 11.534 15.9858 8.59972C17.3604 7.64897 18.8218 6.81499 20.3559 6.11206C23.7752 8.16762 26.4993 11.2614 28.0923 14.9572Z" fill="url(#paint1_linear_3576_13)"/>
<path fill-rule="evenodd" clip-rule="evenodd" d="M17.0427 28.0922C15.1135 27.633 13.2975 26.8818 11.644 25.8878C16.4044 23.7065 20.4659 20.263 23.4002 15.9857C24.3509 17.3603 25.1849 18.8217 25.8878 20.3558C23.8323 23.775 20.7385 26.4992 17.0427 28.0922Z" fill="url(#paint2_linear_3576_13)"/>
<path fill-rule="evenodd" clip-rule="evenodd" d="M3.90771 17.0428C4.36685 15.1136 5.1181 13.2976 6.11211 11.6442C8.29338 16.4045 11.7369 20.466 16.0142 23.4003C14.6396 24.351 13.1782 25.185 11.6441 25.888C8.22486 23.8324 5.50069 20.7386 3.90771 17.0428Z" fill="url(#paint3_linear_3576_13)"/>
<defs>
<linearGradient id="paint0_linear_3576_13" x1="16.456" y1="5.979" x2="7.867" y2="15.009" gradientUnits="userSpaceOnUse">
<stop stop-color="#ED1C24"/>
<stop offset="0.348" stop-color="#EA1B23"/>
<stop offset="0.557" stop-color="#E2171E"/>
<stop offset="0.73" stop-color="#D41116"/>
<stop offset="0.882" stop-color="#C0090C"/>
<stop offset="1" stop-color="#AA0000"/>
</linearGradient>
<linearGradient id="paint1_linear_3576_13" x1="25.998" y1="16.647" x2="17.408" y2="7.837" gradientUnits="userSpaceOnUse">
<stop stop-color="#479FD6"/>
<stop offset="0.393" stop-color="#459DD3"/>
<stop offset="0.629" stop-color="#3E95CB"/>
<stop offset="0.823" stop-color="#3388BD"/>
<stop offset="0.995" stop-color="#2476A9"/>
<stop offset="1" stop-color="#2375A8"/>
</linearGradient>
<linearGradient id="paint2_linear_3576_13" x1="16.372" y1="25.853" x2="23.861" y2="16.162" gradientUnits="userSpaceOnUse">
<stop stop-color="#FFC814"/>
<stop offset="0.348" stop-color="#FEC513"/>
<stop offset="0.557" stop-color="#FABD11"/>
<stop offset="0.73" stop-color="#F4AF0C"/>
<stop offset="0.882" stop-color="#EC9B06"/>
<stop offset="1" stop-color="#E38500"/>
</linearGradient>
<linearGradient id="paint3_linear_3576_13" x1="6.09401" y1="15.915" x2="15.234" y2="24.064" gradientUnits="userSpaceOnUse">
<stop stop-color="#8CC63F"/>
<stop offset="0.38" stop-color="#8AC33D"/>
<stop offset="0.609" stop-color="#82BB37"/>
<stop offset="0.797" stop-color="#75AD2C"/>
<stop offset="0.963" stop-color="#63991D"/>
<stop offset="1" stop-color="#5E9319"/>
</linearGradient>
</defs>
</svg>
