<svg width="32" height="32" viewBox="0 0 32 32" fill="none" xmlns="http://www.w3.org/2000/svg">
<path d="M16.7697 7.89533C16.7697 5.4716 14.7981 3.5 12.3744 3.5C9.82008 3.5 8.29303 5.4151 8.29303 7.2674H10.8046C10.8046 6.74625 11.2919 6.0116 12.3744 6.0116C13.4129 6.0116 14.2581 6.85678 14.2581 7.89533C14.2581 8.93388 13.5 9.77903 11.5883 9.77903H4.75V12.2906H11.5883C14.8147 12.2906 16.7697 10.319 16.7697 7.89533ZM16.7697 7.89533C16.7697 5.4716 14.7981 3.5 12.3744 3.5C9.82008 3.5 8.29303 5.4151 8.29303 7.2674H10.8046C10.8046 6.74625 11.2919 6.0116 12.3744 6.0116C13.4129 6.0116 14.2581 6.85678 14.2581 7.89533C14.2581 8.93388 13.5 9.77903 11.5883 9.77903H4.75V12.2906H11.5883C14.8147 12.2906 16.7697 10.319 16.7697 7.89533Z" fill="url(#paint0_linear_2668_11)"/>
<path d="M22.3417 24.1048C22.3417 26.5286 20.37 28.5001 17.9463 28.5001C15.392 28.5001 13.865 26.5851 13.865 24.7327H16.3766C16.3766 25.2538 16.8638 25.9886 17.9463 25.9886C18.9849 25.9886 19.83 25.1433 19.83 24.1048C19.83 23.0662 18.875 22.2211 17.1603 22.2211H9.57196V19.7095H17.1603C20.3867 19.7095 22.3417 21.6811 22.3417 24.1048ZM22.3417 24.1048C22.3417 26.5286 20.37 28.5001 17.9463 28.5001C15.392 28.5001 13.865 26.5851 13.865 24.7327H16.3766C16.3766 25.2538 16.8638 25.9886 17.9463 25.9886C18.9849 25.9886 19.83 25.1433 19.83 24.1048C19.83 23.0662 18.875 22.2211 17.1603 22.2211H9.57196V19.7095H17.1603C20.3867 19.7095 22.3417 21.6811 22.3417 24.1048Z" fill="url(#paint1_linear_2668_11)"/>
<path d="M23 7.375C20.2297 7.375 18.2755 9.48172 18.2755 12.252H20.5C20.5 10.875 21.5 9.875 23 9.875C24.5 9.875 25.25 10.875 25.25 12.252C25.25 13.629 24.2759 14.7636 21.625 14.7636H4.75V17.2752H22C25.9258 17.2752 27.75 14.752 27.75 12.252C27.75 9.48172 25.875 7.375 23 7.375Z" fill="url(#paint2_linear_2668_11)"/>
<path d="M8.04253 19.7095H4.75V22.2422H8.04253V19.7095Z" fill="url(#paint3_linear_2668_11)"/>
<defs>
<linearGradient id="paint0_linear_2668_11" x1="6.75" y1="5.625" x2="21.25" y2="28.5" gradientUnits="userSpaceOnUse">
<stop offset="0.078225" stop-color="#54C8F1"/>
<stop offset="0.572917" stop-color="#41A2EF"/>
<stop offset="1" stop-color="#3386EE"/>
</linearGradient>
<linearGradient id="paint1_linear_2668_11" x1="6.74999" y1="5.6251" x2="21.25" y2="28.5001" gradientUnits="userSpaceOnUse">
<stop offset="0.078225" stop-color="#54C8F1"/>
<stop offset="0.572917" stop-color="#41A2EF"/>
<stop offset="1" stop-color="#3386EE"/>
</linearGradient>
<linearGradient id="paint2_linear_2668_11" x1="6.75" y1="5.625" x2="21.25" y2="28.5" gradientUnits="userSpaceOnUse">
<stop offset="0.078225" stop-color="#54C8F1"/>
<stop offset="0.572917" stop-color="#41A2EF"/>
<stop offset="1" stop-color="#3386EE"/>
</linearGradient>
<linearGradient id="paint3_linear_2668_11" x1="6.75" y1="5.6251" x2="21.25" y2="28.5001" gradientUnits="userSpaceOnUse">
<stop offset="0.078225" stop-color="#54C8F1"/>
<stop offset="0.572917" stop-color="#41A2EF"/>
<stop offset="1" stop-color="#3386EE"/>
</linearGradient>
</defs>
</svg>
